<svg width="12" height="13" viewBox="0 0 12 13" fill="none" xmlns="http://www.w3.org/2000/svg">
<path d="M5.14635 2.42961L0.911353 9.49961C0.824037 9.65083 0.777837 9.82226 0.777348 9.99687C0.776859 10.1715 0.822099 10.3432 0.908566 10.4949C0.995034 10.6466 1.11972 10.773 1.27021 10.8615C1.4207 10.9501 1.59175 10.9977 1.76635 10.9996H10.2364C10.411 10.9977 10.582 10.9501 10.7325 10.8615C10.883 10.773 11.0077 10.6466 11.0941 10.4949C11.1806 10.3432 11.2258 10.1715 11.2254 9.99687C11.2249 9.82226 11.1787 9.65083 11.0914 9.49961L6.85635 2.42961C6.76722 2.28267 6.64171 2.16117 6.49195 2.07686C6.34219 1.99254 6.17322 1.94824 6.00135 1.94824C5.82949 1.94824 5.66052 1.99254 5.51076 2.07686C5.36099 2.16117 5.23549 2.28267 5.14635 2.42961V2.42961Z" stroke="#EFAB03" stroke-linecap="round" stroke-linejoin="round"/>
<path d="M6 5V7" stroke="#EFAB03" stroke-linecap="round" stroke-linejoin="round"/>
<path d="M6 9H6.005" stroke="#EFAB03" stroke-linecap="round" stroke-linejoin="round"/>
</svg>
