<svg width="117" height="124" viewBox="0 0 117 124" fill="none" xmlns="http://www.w3.org/2000/svg">
<path d="M63.0477 87.6145C63.0477 87.6145 63.8198 86.516 65.3936 86.1004C66.9674 85.6847 73.5298 85.1206 73.5298 85.1206V88.7428C73.5298 88.7428 72.7281 92.1868 69.7587 92.6915C66.7892 93.1962 62.6914 95.126 62.6914 95.126L63.0477 87.6145Z" fill="white"/>
<path d="M14.6758 88.0895C14.6758 88.0895 23.8513 91.4742 32.6409 88.8318L35.2837 104.152L67.3832 94.2947C67.3832 94.2947 70.7684 92.6024 73.0252 89.188C75.3116 85.744 75.8164 84.6158 78.0732 84.4674C80.33 84.3189 87.8723 85.2096 87.8723 85.2096L90.9012 87.2879L91.0496 92.4242L91.3466 95.2151C91.3466 95.2151 90.5151 99.6388 89.3274 100.262C89.3274 100.262 87.9317 102.014 83.4479 104.864C78.964 107.714 45.5876 119.858 45.5876 119.858C45.5876 119.858 27.5928 125.736 25.247 121.312C25.247 121.253 16.8435 123.034 14.6758 88.0895Z" fill="white"/>
<path d="M46.1794 58.8748C46.2388 58.8748 50.0693 57.9841 50.099 57.9841C50.3663 57.9841 50.5741 57.8059 50.6335 57.5684L52.5933 49.0771C55.5628 49.76 58.0274 49.6412 60.2248 47.177C62.1846 45.0096 62.8082 39.8733 63.4912 34.4401C63.6099 33.5494 63.699 32.6587 63.8178 31.7977C64.0851 29.6303 64.0257 27.849 63.6693 26.3051C62.6003 22.0595 59.037 19.9515 52.7121 19.803C47.5156 19.6843 45.3182 21.8516 44.4571 23.158C44.0711 22.6532 43.5663 22.1485 42.9724 21.6735C42.9724 21.6735 42.9427 21.6438 42.913 21.6438C42.0518 20.9609 39.7654 19.4764 37.2711 19.8327C35.8754 20.0406 34.6877 20.7828 33.7968 22.0595C32.52 23.8112 32.1339 25.7113 32.6981 27.5521C33.1139 28.9772 34.0938 30.3726 35.4894 31.5602C36.5584 32.4509 37.8353 33.2525 39.32 33.876C39.2606 35.1823 39.2606 39.1904 41.0125 41.4469C40.8938 42.5157 40.3296 47.2364 39.706 53.59C39.6763 53.8869 39.9139 54.1838 40.2108 54.2135L46.1794 58.8748Z" fill="white"/>
<path d="M31.6289 5.67074V25.1175C31.6586 23.9596 32.0743 22.8017 32.9058 21.6141C35.4001 18.1404 39.3197 19.3874 41.7547 21.2876C42.7643 22.0595 43.5066 22.9502 43.8036 23.633C43.8036 23.633 45.1101 19.2983 52.4743 19.4468C58.8289 19.5952 62.4813 21.6141 63.5503 25.8895C63.966 27.463 63.9957 29.3632 63.6988 31.5899H89.0875C90.4534 31.5899 91.7006 31.1149 92.6805 30.3132C93.9276 29.2741 94.7591 27.7005 94.7591 25.9489V5.67074C94.7591 4.09719 94.1355 2.70177 93.0962 1.66263C92.0866 0.653175 90.6613 0 89.1172 0H37.3005C35.4595 0 33.8263 0.890693 32.787 2.25642C32.0743 3.20649 31.6289 4.36439 31.6289 5.67074Z" fill="#F2C34B"/>
<path d="M48.7619 10.9259H86.2064C86.5331 10.9259 86.8003 10.6587 86.8003 10.3321C86.8003 10.0055 86.5331 9.73828 86.2064 9.73828H48.7619C48.4352 9.73828 48.168 10.0055 48.168 10.3321C48.168 10.6587 48.4055 10.9259 48.7619 10.9259Z" fill="white"/>
<path d="M69.965 18.3184H86.1781C86.5047 18.3184 86.772 18.0512 86.772 17.7247C86.772 17.3981 86.5047 17.1309 86.1781 17.1309H69.965C69.6383 17.1309 69.3711 17.3981 69.3711 17.7247C69.3711 18.0512 69.668 18.3184 69.965 18.3184Z" fill="white"/>
<path d="M51.1112 54.1539C57.8518 53.9164 66.1959 54.2133 70.9173 58.6371C73.1444 60.7153 74.3322 63.5359 74.451 67.0393C74.6291 72.8585 74.451 81.5279 74.2431 88.98C73.8274 89.455 73.4117 89.9301 73.0256 90.4051C73.2929 82.6858 73.5008 73.2741 73.2929 67.069C73.2038 63.9218 72.1348 61.3685 70.1453 59.4981C65.7505 55.3712 57.7034 55.1337 51.2003 55.3415C51.2003 55.3415 51.2003 55.3415 51.1706 55.3415C50.844 55.3415 50.6064 55.104 50.5767 54.7774C50.547 54.4211 50.7846 54.1539 51.1112 54.1539Z" fill="#201000"/>
<path d="M62.7501 95.1262C63.0471 95.1262 63.3143 94.6512 63.344 94.0574L64.3833 56.6483C64.3833 56.0248 64.1458 55.4607 63.8191 55.431C63.4925 55.3716 63.2252 55.8764 63.1956 56.4999L62.1562 93.909C62.1562 94.5324 62.3938 95.0965 62.7204 95.1262C62.7204 95.1262 62.7204 95.1262 62.7501 95.1262Z" fill="#201000"/>
<path d="M57.8193 38.5969C57.9678 38.5969 58.0865 38.5375 58.2053 38.4484C61.056 36.0139 60.6106 32.4214 58.8883 27.0179C58.7992 26.721 58.4726 26.5428 58.1459 26.6319C57.849 26.721 57.6708 27.0476 57.7599 27.3741C59.601 33.1043 59.5119 35.7763 57.4333 37.528C57.1957 37.7359 57.1363 38.0921 57.3739 38.3593C57.4927 38.5375 57.6708 38.5969 57.8193 38.5969Z" fill="#201000"/>
<path d="M50.309 30.0759C49.9527 29.8977 49.7745 29.4821 49.9527 29.0961C50.1309 28.7101 50.5466 28.5617 50.9326 28.7398C51.289 28.918 51.4671 29.3336 51.289 29.7196C51.1108 30.0759 50.6951 30.254 50.309 30.0759Z" fill="#201000"/>
<path d="M61.6801 31.3229C61.3238 31.1448 61.1456 30.7291 61.3238 30.3432C61.502 29.9572 61.9177 29.8088 62.3037 29.9869C62.66 30.165 62.8382 30.5807 62.66 30.9667C62.5116 31.3229 62.0662 31.4714 61.6801 31.3229Z" fill="#201000"/>
<path d="M50.1583 40.3184C48.6736 40.0809 47.7828 38.5964 48.347 37.1713C48.6439 36.4588 47.5452 35.9837 47.278 36.6666C46.4169 38.8043 47.6937 41.1201 49.9802 41.4763C50.7225 41.5951 50.9304 40.4372 50.1583 40.3184Z" fill="#201000"/>
<path d="M52.4475 25.8894C52.4178 25.5628 52.1209 25.355 51.7943 25.355C51.4676 25.355 51.141 25.3847 50.8143 25.3847C50.4877 25.3847 50.2502 25.7409 50.2798 26.0378C50.3095 26.3644 50.6065 26.5723 50.9331 26.5723C51.2598 26.5723 51.5864 26.5426 51.913 26.5426C52.2397 26.5426 52.4772 26.1863 52.4475 25.8894Z" fill="#201000"/>
<path d="M62.7505 26.1268L62.0675 25.8299C61.3846 25.533 60.8798 26.6018 61.5627 26.8987L62.2457 27.1956C62.9584 27.5222 63.4335 26.4237 62.7505 26.1268Z" fill="#201000"/>
<path d="M41.0147 29.2148C41.0444 29.2148 41.0444 29.2148 41.0147 29.2148C41.371 29.2148 41.6085 28.9179 41.6085 28.5913C41.5492 27.0178 39.8566 23.6628 37.3919 23.0987C37.0653 23.0393 36.7387 23.2175 36.6793 23.5441C36.6199 23.8707 36.7981 24.1972 37.1247 24.2566C39.0251 24.702 40.3911 27.5819 40.4208 28.6507C40.4505 28.9773 40.7177 29.2148 41.0147 29.2148Z" fill="#201000"/>
<path d="M31.72 27.0772C32.1654 28.5914 33.2047 30.0759 34.6597 31.3229C35.7881 32.2729 37.1541 33.1042 38.7279 33.7871C38.6685 35.1528 38.6685 39.4282 40.5095 41.833C40.361 42.9909 39.7969 47.9788 39.1436 54.7481C39.1139 55.0747 39.3514 55.3716 39.6781 55.4013C40.0047 55.4309 40.3017 55.1934 40.3314 54.8668C41.1034 47.1772 41.727 41.8033 41.7567 41.744C41.7864 41.5955 41.727 41.4174 41.6082 41.2986C39.5593 38.8938 39.975 33.5199 39.975 33.4605C40.0047 33.1933 39.8265 32.9558 39.6187 32.8667C37.7776 32.1542 36.1444 31.115 34.9567 29.9571C33.9471 28.9774 33.2344 27.8788 32.8781 26.7803C32.403 25.1771 32.7296 23.5441 33.858 21.9706C34.63 20.9018 35.61 20.2486 36.768 20.0704C38.1043 19.8626 39.7078 20.308 41.2222 21.2877C41.43 21.4362 41.6676 21.5846 41.8755 21.7628C42.7663 22.4456 43.479 23.2769 43.7462 23.8707C43.8353 24.0786 44.0728 24.227 44.3104 24.227C44.5479 24.227 44.7558 24.0489 44.8449 23.8114C44.9043 23.6629 46.1514 19.8923 52.9514 20.0704C59.1279 20.2189 62.4833 22.119 63.4632 26.0678C63.8196 27.5226 63.879 29.3336 63.6117 31.4416C63.4929 32.362 63.3742 33.3121 63.2554 34.2621C62.6021 39.5766 61.9191 45.0989 60.1078 47.1178C58.0292 49.4336 55.6833 49.4039 52.5951 48.632C52.4466 48.6023 52.2685 48.632 52.1497 48.6914C52.0012 48.7804 51.9121 48.8992 51.8824 49.0476L49.6851 58.6374C49.6257 58.964 49.8038 59.2906 50.1305 59.35C50.1899 59.35 50.2196 59.35 50.279 59.35C50.5462 59.35 50.7838 59.1719 50.8431 58.9046L52.9218 49.879C56.0694 50.5915 58.6825 50.4728 61.0283 47.8601C63.1069 45.5443 63.7602 40.111 64.4729 34.3512C64.5916 33.4308 64.7104 32.4808 64.8292 31.5307C65.1261 29.2446 65.0667 27.3444 64.651 25.7115C63.4929 21.258 59.6921 19.0016 52.9811 18.8532C47.458 18.7344 45.1418 21.0205 44.2213 22.4159C43.8056 21.8815 43.2711 21.3471 42.6475 20.8424C42.6475 20.8424 42.6178 20.8127 42.5881 20.8127C41.6676 20.1001 39.2624 18.4969 36.5899 18.8829C35.1051 19.0907 33.858 19.8923 32.8781 21.258C31.5418 23.0988 31.1558 25.1177 31.72 27.0772Z" fill="#201000"/>
<path d="M77.0039 92.0381L79.2904 91.6818C79.5873 91.5334 79.8546 91.3849 80.0921 91.1474C81.5175 89.9598 90.01 85.3876 89.9803 86.9315C89.9803 89.4254 81.2799 92.6022 82.7052 95.6009L88.0205 93.3148C89.0895 93.2257 90.1585 92.9585 91.0493 92.4241L96.0974 80.7857C96.4537 79.9247 95.8301 78.9746 94.9096 78.9746H82.7349C82.2301 78.9746 81.755 79.2715 81.5471 79.7465L79.617 84.2297C80.2703 84.2 80.8048 84.3781 81.1611 84.7938C81.9926 85.8033 79.4388 86.2783 78.0432 87.9409L77.2118 89.8411C77.1227 90.4645 77.0039 91.9787 77.0039 92.0381Z" fill="#201000"/>
<path d="M30.4437 123.45C37.0952 123.45 47.3397 120.273 63.9686 113.741C85.7345 105.22 87.4271 103.914 89.4463 101.034C89.6245 100.767 89.5651 100.381 89.2979 100.203C89.0306 100.025 88.6446 100.084 88.4664 100.351C86.6254 102.934 84.9031 104.241 63.5232 112.643C31.2751 125.291 24.4751 124.519 20.4664 115.82C18.3878 111.277 16.4279 100.262 15.3292 87.0799C14.7651 80.2809 14.4978 73.482 14.5572 67.3956C14.6166 60.2106 17.883 56.6776 25.5144 55.6384C28.662 55.2228 32.255 55.2228 35.7293 55.2525C36.917 55.2525 38.1048 55.2525 39.2926 55.2525C39.6192 55.2525 39.8865 54.9852 39.8865 54.6587C39.8865 54.3321 39.6489 54.0946 39.2926 54.0649C38.1048 54.0649 36.9467 54.0649 35.7293 54.0649C32.1956 54.0649 28.5432 54.0352 25.3362 54.4805C20.2288 55.1931 13.4288 57.301 13.3694 67.4253C13.3397 73.5117 13.607 80.37 14.1415 87.1986C15.2402 100.529 17.2594 111.693 19.3677 116.324C21.5948 121.015 24.6533 123.45 30.4437 123.45Z" fill="#201000"/>
<path d="M82.7942 102.519C82.8536 102.519 82.913 102.519 82.9724 102.489C83.6851 102.281 84.368 102.074 84.9916 101.866C89.1785 100.619 91.9401 99.7875 91.9401 95.7793C91.9401 95.4528 91.6728 95.1855 91.3462 95.1855C91.0196 95.1855 90.7523 95.4528 90.7523 95.7793C90.7523 98.9265 88.8519 99.4906 84.665 100.738C84.0117 100.916 83.3584 101.123 82.6161 101.361C82.3191 101.45 82.141 101.806 82.23 102.103C82.3191 102.341 82.5567 102.519 82.7942 102.519Z" fill="#201000"/>
<path d="M84.0394 99.7575C84.1285 99.7575 84.2176 99.7575 84.2769 99.6981C84.9005 99.4012 85.4944 99.134 86.0586 98.8965C90.1861 97.0557 93.4822 95.6009 91.8787 91.6225C91.7599 91.3256 91.4036 91.1771 91.1066 91.2959C90.8097 91.4146 90.6612 91.7709 90.78 92.0678C91.9084 94.8883 90.1267 95.8087 85.5835 97.8276C85.0193 98.0948 84.3957 98.3324 83.7721 98.6293C83.4752 98.7777 83.3564 99.134 83.4752 99.4309C83.594 99.609 83.8315 99.7575 84.0394 99.7575Z" fill="#201000"/>
<path d="M31.5716 105.992C31.631 105.992 31.6904 105.992 31.7497 105.963C33.2048 105.517 67.2048 94.7101 70.4712 93.0475C72.9061 91.8005 74.1236 89.8113 75.1332 88.1784C75.5192 87.5252 75.9052 86.9314 76.2913 86.4861C77.1524 85.5063 78.6371 84.7344 79.7358 84.7344H79.7655C80.1812 84.7344 80.5079 84.8531 80.686 85.0907C80.5376 85.2688 80.0921 85.536 79.7358 85.7438C78.6074 86.4564 77.0336 87.4064 76.6179 89.3066C76.2319 91.1474 76.7961 91.9193 77.3306 92.2459C78.2511 92.81 79.5576 92.3053 80.4485 91.5333C82.1707 90.0785 88.6441 86.8127 89.5943 87.2877C89.7428 87.4361 89.8616 87.6143 89.8616 87.733C89.8022 88.119 88.6738 88.7425 87.6642 89.3363C86.0607 90.227 84.0712 91.3552 82.4677 93.1663C82.0817 93.5819 81.1908 94.6804 81.6956 95.4227C82.1114 96.0759 83.1804 96.0462 85.259 95.2742C86.9515 94.6804 88.1096 94.3539 88.9707 94.146C90.6039 93.7007 91.2869 93.5522 91.9105 91.9787C92.0293 91.6818 91.8808 91.3255 91.5838 91.2067C91.2869 91.088 90.9306 91.2364 90.8118 91.5333C90.3961 92.5428 90.2476 92.5725 88.6738 92.9881C87.8127 93.196 86.5952 93.5225 84.8729 94.146C83.6555 94.5914 83.0616 94.6804 82.7943 94.6804C82.9131 94.4726 83.121 94.1757 83.3288 93.9382C84.8135 92.2459 86.714 91.2067 88.2284 90.3457C89.7725 89.4847 90.9009 88.8316 91.0197 87.8815C91.079 87.3768 90.8712 86.9017 90.3961 86.4267C88.7035 84.7938 80.4188 90.0191 79.7061 90.6426C78.9934 91.2364 78.2511 91.4146 77.9541 91.2364C77.6572 91.0583 77.5978 90.4051 77.776 89.5441C78.0729 88.1487 79.3498 87.3768 80.3594 86.7533C81.1314 86.2782 81.7847 85.8923 81.8738 85.2391C81.9035 85.0313 81.9035 84.675 81.5769 84.3187C81.1611 83.814 80.5376 83.5468 79.7655 83.5171C79.7655 83.5171 79.7358 83.5171 79.7061 83.5171C78.2511 83.5171 76.4397 84.4078 75.3707 85.6548C74.9253 86.1595 74.5096 86.8127 74.0939 87.5252C73.1437 89.0988 72.045 90.8505 69.907 91.949C66.7297 93.5819 31.72 104.656 31.3934 104.775C31.0965 104.864 30.9183 105.22 31.0074 105.517C31.0965 105.844 31.334 105.992 31.5716 105.992Z" fill="#201000"/>
<path d="M34.7179 104.835C34.7476 104.835 34.7773 104.835 34.807 104.835C35.1336 104.775 35.3415 104.478 35.3118 104.152L31.3328 77.134C31.2734 76.8074 30.9764 76.5996 30.6795 76.6293C30.3529 76.6887 30.145 76.9856 30.1747 77.3121L34.1537 104.33C34.1834 104.627 34.421 104.835 34.7179 104.835Z" fill="#201000"/>
<path d="M77.5078 59.9438H92.5332V71.8791V76.8967L88.5541 71.8791H77.5078V59.9438Z" fill="white"/>
<path d="M92.5333 77.5202C92.5927 77.5202 92.6818 77.5202 92.7411 77.4905C92.9787 77.4015 93.1272 77.1936 93.1272 76.9264V59.9439C93.1272 59.6173 92.8599 59.3501 92.5333 59.3501H77.5079C77.1813 59.3501 76.9141 59.6173 76.9141 59.9439V71.8792C76.9141 72.2058 77.1813 72.473 77.5079 72.473H88.287L92.0879 77.2827C92.177 77.4312 92.3551 77.5202 92.5333 77.5202ZM91.9394 60.5377V75.2341L89.0294 71.5229C88.9106 71.3744 88.7324 71.3151 88.5542 71.3151H78.1018V60.5674H91.9394V60.5377Z" fill="#201000"/>
<path d="M80.3867 24.1377H107.646V39.5467H80.3867V24.1377Z" fill="#95CBEF"/>
<path d="M107.678 39.5467V47.0879L99.4531 38.8936L107.678 39.5467Z" fill="#95CBEF"/>
<path d="M92.9181 31.6197H101.054C101.292 31.6197 101.5 31.4416 101.5 31.1744C101.5 30.9071 101.322 30.729 101.054 30.729H92.9181C92.6805 30.729 92.4727 30.9368 92.4727 31.1744C92.4727 31.4416 92.6805 31.6197 92.9181 31.6197Z" fill="white"/>
<path d="M87.2189 31.6197H90.0695C90.3071 31.6197 90.5149 31.4416 90.5149 31.1744C90.5149 30.9071 90.3368 30.729 90.0695 30.729H87.2189C86.9813 30.729 86.7734 30.9368 86.7734 31.1744C86.7734 31.4416 86.9516 31.6197 87.2189 31.6197Z" fill="white"/>
<path d="M104.53 6.29423C102.808 6.29423 101.383 4.89881 101.383 3.14711C101.383 1.39542 102.778 0 104.53 0C106.282 0 107.678 1.39542 107.678 3.14711C107.648 4.89881 106.253 6.29423 104.53 6.29423Z" fill="#6E1EE6"/>
<path d="M97.2851 74.8478L99.334 73.3336C99.9575 72.8883 100.551 73.8977 99.9279 74.3431C99.2449 74.8478 98.5619 75.3525 97.8789 75.8573C97.2851 76.3026 96.6912 75.2932 97.2851 74.8478Z" fill="#6E1EE6"/>
<path d="M7.28075 4.78026C8.20128 6.0866 9.1218 7.39295 10.0423 8.72899C10.4877 9.35248 9.44844 9.94627 9.03272 9.32279C8.11219 8.01644 7.19167 6.71009 6.27114 5.37405C5.82573 4.75057 6.83534 4.18646 7.28075 4.78026Z" fill="#F2C34B"/>
<path d="M5.37934 11.9948C5.5872 11.787 6.03261 11.7573 6.21078 11.9948C6.74528 12.648 7.25008 13.3012 7.78458 13.9544C7.99244 14.1919 8.02214 14.5481 7.78458 14.7857C7.57672 14.9935 7.13131 15.0232 6.95314 14.7857C6.41864 14.1325 5.91384 13.4793 5.37934 12.8261C5.20117 12.5886 5.14178 12.262 5.37934 11.9948Z" fill="#F2C34B"/>
<path d="M114.001 47.919C114.535 47.1174 115.04 46.3455 115.575 45.5438C115.99 44.9203 117 45.5141 116.584 46.1376C116.05 46.9393 115.545 47.7112 115.01 48.5128C114.595 49.1363 113.585 48.5425 114.001 47.919Z" fill="#F2C34B"/>
<path d="M0.302454 97.7685C1.34176 97.2341 2.41075 96.7294 3.45005 96.195C4.13302 95.8387 4.72691 96.8778 4.04394 97.2044C3.00464 97.7388 1.93564 98.2436 0.896341 98.778C0.213371 99.1343 -0.380516 98.0951 0.302454 97.7685Z" fill="#F2C34B"/>
<path d="M23.08 90.5836C25.8119 90.5836 28.7813 90.168 32.1368 89.5148C32.4931 89.4554 32.7307 89.1288 32.6416 88.8022C32.5822 88.4757 32.2259 88.2678 31.8695 88.3569C25.1289 89.6336 20.0809 89.9898 15.5673 87.8225C15.2407 87.674 14.8547 87.7631 14.6765 88.06C14.4983 88.3569 14.6171 88.7132 14.9438 88.8616C17.4975 90.1086 20.1403 90.5836 23.08 90.5836Z" fill="#201000"/>
<path d="M53.2469 52.9961L55.8897 56.2323L49.1194 65.0798L46.1797 58.2809L53.2469 52.9961Z" fill="white"/>
<path d="M49.1188 65.6737C49.297 65.6737 49.4752 65.5846 49.5939 65.4361L56.3643 56.5886C56.5424 56.3808 56.5127 56.0839 56.3643 55.8464L53.7215 52.6102C53.5136 52.3727 53.1573 52.3133 52.9197 52.5211L45.8525 57.8356C45.6446 57.984 45.5555 58.2809 45.6743 58.5481L48.614 65.3471C48.7031 65.5549 48.8813 65.6737 49.0891 65.7034C49.0891 65.6737 49.0891 65.6737 49.1188 65.6737ZM55.1468 56.2323L49.2673 63.922L46.9215 58.4887L53.1573 53.7978L55.1468 56.2323Z" fill="#201000"/>
<path d="M46.1811 58.3107L42.0536 64.8128L36.7383 55.3715L39.3811 51.8384L46.1811 58.3107Z" fill="white"/>
<path d="M42.0534 65.3771C42.2613 65.3771 42.4394 65.288 42.5582 65.1099L46.6857 58.6078C46.8342 58.3703 46.8045 58.0437 46.5966 57.8656L39.8263 51.3635C39.7076 51.2448 39.5294 51.1854 39.3809 51.2151C39.2028 51.2151 39.0543 51.3042 38.9652 51.4526L36.3224 54.9857C36.1739 55.1638 36.1739 55.431 36.2927 55.6389L41.608 65.0802C41.6674 65.288 41.8456 65.3771 42.0534 65.3771C42.0237 65.3771 42.0237 65.3771 42.0534 65.3771ZM45.4089 58.4L42.0534 63.6551L37.4211 55.4013L39.4403 52.6996L45.4089 58.4Z" fill="#201000"/>
<path d="M46.1798 80.4294C46.5065 80.4294 46.7737 80.1622 46.7737 79.8356V58.2808C46.7737 57.9542 46.5065 57.687 46.1798 57.687C45.8532 57.687 45.5859 57.9542 45.5859 58.2808V79.8653C45.5859 80.1918 45.8532 80.4294 46.1798 80.4294Z" fill="#201000"/>
<path d="M68.6288 21.0499C69.6384 23.7814 66.2235 25.0284 64.2934 25.444C64.1746 25.4737 64.0855 25.4737 63.9964 25.444C63.9667 25.444 63.937 25.4737 63.9074 25.4737C61.7991 21.5843 57.7606 20.5155 51.5842 21.9703C45.7641 23.5439 44.8436 25.7706 44.8436 25.7706C44.3685 25.1768 43.0025 23.7517 44.22 22.8313C44.1309 22.7126 43.9824 22.5938 43.9231 22.475C43.8043 22.386 43.5073 22.475 43.5073 22.475C43.1213 22.4453 42.5868 21.9109 42.8244 21.4953C44.9624 17.5465 46.5065 16.0621 50.8121 14.1916C52.1484 13.6275 53.544 13.7759 54.2864 15.1714C54.6427 15.8542 54.6724 16.5668 54.5239 17.2793C56.5135 15.7355 58.6218 14.3994 60.9379 13.39C63.0759 12.4102 66.2532 10.8367 68.6584 11.757C70.4104 12.4399 71.0934 14.34 70.7667 16.1214C70.4401 17.8731 69.2226 19.1201 67.827 20.0999C68.1833 20.2483 68.4803 20.5749 68.6288 21.0499Z" fill="#201000"/>
<path d="M63.4038 87.7629C63.5523 87.7629 63.7007 87.6738 63.7898 87.555C65.1261 85.7439 71.4807 85.5658 73.7968 85.6549C74.0641 85.6549 74.3016 85.3877 74.3016 85.0611C74.3016 84.7345 74.0938 84.4376 73.7968 84.4376C72.8763 84.4079 64.8588 84.2001 62.9881 86.7534C62.8099 86.9909 62.8396 87.3769 63.0475 87.6144C63.1662 87.7035 63.285 87.7629 63.4038 87.7629Z" fill="#201000"/>
</svg>
