<svg width="41" height="28" viewBox="0 0 41 28" fill="none" xmlns="http://www.w3.org/2000/svg">
<g clip-path="url(#clip0_512_1325)">
<path d="M31.6094 22.753C28.5103 23.4347 24.6565 25.6614 22.457 27.0248H40.3532L38.7172 21.9805C36.3267 21.9986 33.9455 22.2531 31.6094 22.753Z" fill="#444344"/>
<path d="M31.4639 18.145C33.6725 16.9635 36.0083 16.018 38.4168 15.3182C39.1621 15.1091 39.7802 14.9639 40.2346 14.8638L32.0365 0.530762L20.957 10.3194V26.0338C22.7112 24.2526 26.4469 20.8262 31.4639 18.145Z" fill="#444344"/>
<path d="M25.0195 24.0255C27.0102 22.9622 29.3005 21.9259 31.3363 21.4807C33.9085 20.9261 36.5354 20.6534 39.1711 20.6534H39.18C39.5709 20.6534 39.9071 20.6808 40.1798 20.69L38.2438 16.6909C36.1079 17.3452 34.0359 18.2087 32.0545 19.2628C29.564 20.6172 27.2009 22.2078 25.0195 24.0255Z" fill="#444344"/>
<path d="M0.351562 27.025H19.6835V10.665H6.91364L0.351562 27.025Z" fill="#444344"/>
</g>
<defs>
<clipPath id="clip0_512_1325">
<rect width="40" height="27" fill="white" transform="translate(0.351562 0.526367)"/>
</clipPath>
</defs>
</svg>
