<svg width="556" height="551" viewBox="0 0 556 551" fill="none" xmlns="http://www.w3.org/2000/svg">
<path d="M555.999 0H162.395V247.087H555.999V0Z" fill="#F2C34B"/>
<path d="M436.869 115.604C435.362 123.875 431.281 132.476 432.458 131.484C432.458 131.484 444.808 176.475 445.691 184.452C446.573 192.392 438.302 202.096 426.282 202.096C409.08 202.096 403.345 189.745 400.699 180.923L393.641 157.986C393.641 157.986 377.762 160.633 368.058 152.693C356.81 143.467 355.119 105.238 344.275 59.2541C342.731 52.5641 340.967 45.7639 338.945 38.8534L424.555 37.9712L430.252 76.8244C430.252 76.8244 431.428 77.2287 432.494 76.1995C439.258 69.7301 463.077 65.7235 466.018 86.4917C469.51 111.193 436.869 115.604 436.869 115.604Z" fill="white"/>
<path d="M426.281 203.86C405.733 203.86 400.661 186.988 399.006 181.438L392.39 159.934C388.016 160.412 375.445 161 366.917 154.053C359.05 147.62 355.779 129.131 351.221 103.584C348.905 90.4248 346.259 75.5011 342.509 59.6584C340.929 52.7846 339.128 45.9477 337.216 39.3312C337.069 38.8166 337.179 38.2285 337.51 37.7874C337.841 37.3463 338.356 37.089 338.907 37.089L424.516 36.2068C424.516 36.2068 424.516 36.2068 424.553 36.2068C425.435 36.2068 426.171 36.8317 426.318 37.7139L431.721 74.5454C436.647 70.2815 447.417 67.5981 455.687 70.4285C460.429 72.0458 466.347 76.126 467.781 86.2344C468.736 92.8509 467.303 98.6954 463.59 103.658C456.349 113.215 442.638 116.376 438.411 117.148C437.492 121.522 436.022 125.749 434.993 128.653C434.698 129.499 434.368 130.381 434.184 131.006C434.184 131.006 434.184 131.006 434.184 131.042C434.698 132.88 446.571 176.292 447.49 184.268C447.931 188.385 446.314 192.906 443.006 196.582C438.779 201.213 432.713 203.86 426.281 203.86ZM393.603 156.222C394.375 156.222 395.073 156.699 395.294 157.471L402.351 180.408C404.924 188.973 410.181 200.331 426.244 200.331C431.684 200.331 436.83 198.089 440.286 194.229C442.895 191.326 444.255 187.723 443.888 184.636C443.079 177.505 432.603 138.872 430.912 132.77C429.993 131.925 430.398 130.822 431.537 127.514C432.603 124.463 434.221 119.794 435.066 115.31C435.213 114.575 435.801 113.987 436.573 113.876C436.757 113.84 453.151 111.524 460.686 101.526C463.811 97.3721 464.987 92.4098 464.178 86.749C463.223 80.0591 459.951 75.6849 454.401 73.7735C446.718 71.1269 437.088 74.141 433.596 77.486C431.831 79.1769 429.81 78.5888 429.589 78.5152C428.964 78.2947 428.486 77.7433 428.376 77.0817L422.899 39.7356L341.149 40.581C342.84 46.5725 344.421 52.6744 345.854 58.8497C349.604 74.8027 352.25 89.7632 354.603 102.959C358.83 126.852 362.175 145.709 369.049 151.333C378.018 158.684 393.088 156.295 393.235 156.258C393.419 156.222 393.529 156.222 393.603 156.222Z" fill="#201000"/>
<path d="M450.098 83.8817C443.444 86.1975 438.372 91.5274 436.607 98.4011C436.056 100.607 439.438 101.526 440.026 99.3569C441.459 93.7329 445.54 89.2117 451.053 87.3003C453.185 86.5283 452.266 83.1098 450.098 83.8817Z" fill="#201000"/>
<path d="M430.362 72.1929C429.994 72.3032 429.774 72.3767 429.774 72.3767L424.48 37.9712L338.871 38.8534C340.893 45.7639 342.657 52.6009 344.201 59.2541C351.185 46.2417 366.256 39.2577 381.584 40.8383C401.727 42.8968 417.643 61.2022 428.303 77.3758C428.855 78.2212 429.296 74.4719 430.068 74.1043C430.104 73.4427 430.215 72.8178 430.362 72.1929Z" fill="#201000"/>
<path d="M408.712 108.142C410.256 111.377 409.08 115.089 405.955 116.854C403.97 117.957 405.992 120.86 407.977 119.758C412.314 117.295 414.189 111.487 412.02 106.966C411.065 104.908 407.756 106.084 408.712 108.142Z" fill="#201000"/>
<path d="M375.154 111.046C366.185 101.893 369.934 89.0279 373.463 78.3313C374.161 76.1626 370.78 75.2436 370.044 77.3756C366.075 89.469 362.693 103.363 372.654 113.545C374.271 115.163 376.771 112.663 375.154 111.046Z" fill="#201000"/>
<path d="M396.69 77.0818H395.954C393.198 77.0818 393.198 81.3824 395.954 81.3824H396.69C399.446 81.3824 399.446 77.0818 396.69 77.0818Z" fill="#201000"/>
<path d="M358.904 80.6104H358.169C355.412 80.6104 355.412 84.911 358.169 84.911H358.904C361.661 84.911 361.661 80.6104 358.904 80.6104Z" fill="#201000"/>
<path d="M355.669 70.8697C354.492 71.6416 353.316 72.4503 352.14 73.2222C350.265 74.472 352.029 77.5229 353.904 76.2731C355.08 75.5012 356.257 74.6925 357.433 73.9206C359.308 72.634 357.543 69.5831 355.669 70.8697Z" fill="#201000"/>
<path d="M398.307 61.7904C396.543 61.6066 394.779 61.3861 393.014 61.2023C392.059 61.092 391.25 62.0845 391.25 62.9667C391.25 63.9959 392.059 64.6208 393.014 64.731C394.779 64.9148 396.543 65.1354 398.307 65.3192C399.263 65.4294 400.072 64.437 400.072 63.5548C400.072 62.5256 399.263 61.9007 398.307 61.7904Z" fill="#201000"/>
<path d="M261.241 241.831C260.836 241.831 260.469 241.684 260.138 241.426C259.366 240.801 259.256 239.699 259.881 238.927C309.063 178.828 326.339 167.616 362.656 172.395C384.858 175.299 400.921 179.158 401.068 179.195C402.024 179.416 402.612 180.371 402.355 181.327C402.134 182.283 401.179 182.871 400.223 182.614C400.076 182.577 384.16 178.791 362.178 175.887C327.479 171.329 310.717 182.283 262.601 241.132C262.27 241.61 261.755 241.831 261.241 241.831Z" fill="#201000"/>
<path d="M537.695 248.888C536.776 248.888 536.004 248.153 535.93 247.234C535.306 236.574 533.909 221.981 530.784 212.976C529.13 208.197 525.675 204.043 520.492 200.588C520.419 200.551 520.382 200.515 520.308 200.441C509.097 192.979 490.534 188.605 463.627 187.024C458.886 186.73 454.658 186.583 451.277 186.473C448.961 186.4 447.013 186.326 445.616 186.216C444.66 186.142 443.888 185.334 443.962 184.341C444.035 183.385 444.844 182.613 445.837 182.687C447.233 182.76 449.108 182.834 451.424 182.908C454.842 183.018 459.069 183.165 463.885 183.459C491.6 185.076 510.751 189.708 522.514 197.611C522.587 197.647 522.624 197.684 522.698 197.758C528.432 201.654 532.328 206.359 534.203 211.836C537.437 221.209 538.871 236.133 539.533 247.013C539.606 247.969 538.834 248.815 537.879 248.888C537.768 248.888 537.732 248.888 537.695 248.888Z" fill="#201000"/>
<path d="M396.691 171.218L388.898 180.628L401.837 214.74L414.776 198.86L396.691 171.218Z" fill="#F2C34B"/>
<path d="M401.841 216.504C401.731 216.504 401.658 216.504 401.547 216.468C400.922 216.357 400.408 215.953 400.187 215.365L387.248 181.253C387.028 180.665 387.138 180.004 387.542 179.489L395.335 170.079C395.703 169.638 396.254 169.417 396.805 169.454C397.357 169.491 397.871 169.785 398.202 170.263L416.287 197.905C416.692 198.53 416.655 199.375 416.177 200L403.238 215.879C402.871 216.284 402.393 216.504 401.841 216.504ZM390.924 180.959L402.429 211.248L412.611 198.75L396.548 174.196L390.924 180.959Z" fill="#201000"/>
<path d="M414.777 198.86L427.165 218.857L453.042 185.333L443.485 170.777L414.777 198.86Z" fill="#F2C34B"/>
<path d="M427.165 220.621C427.128 220.621 427.091 220.621 427.091 220.621C426.503 220.585 425.989 220.29 425.694 219.776L413.344 199.779C412.903 199.081 413.013 198.162 413.601 197.574L442.272 169.491C442.64 169.123 443.154 168.94 443.706 169.013C444.22 169.087 444.698 169.344 444.992 169.785L454.549 184.341C454.954 184.966 454.917 185.775 454.476 186.4L428.598 219.923C428.194 220.401 427.679 220.621 427.165 220.621ZM417.02 199.155L427.275 215.806L450.837 185.297L443.154 173.571L417.02 199.155Z" fill="#201000"/>
<path d="M466.352 247.124C465.469 228.525 464.697 204.411 463.705 185.261C462.97 171.035 462.088 159.567 460.985 155.045C457.75 142.107 445.988 122.404 453.045 120.052C456.537 118.876 458.632 120.052 466.278 135.637C472.049 147.363 476.57 154.788 478.335 151.223C481.68 144.569 484.804 94.1374 493.626 94.7256C502.448 95.3137 496.567 116.486 493.626 135.306C504.212 105.312 505.977 95.8651 511.858 97.0413C514.799 97.6295 516.563 100.166 516.269 103.511C517.739 101.452 524.797 100.276 525.9 105.643C526.083 106.562 526.267 107.738 526.267 109.098C527.039 108.473 534.097 104.283 534.795 111.156C535.383 117.038 525.642 145.709 524.797 151.186C523.988 157.802 522.591 177.835 521.452 199.082C520.496 216.542 519.724 234.847 519.54 247.088" fill="white"/>
<path d="M466.351 248.889C465.396 248.889 464.624 248.153 464.587 247.198C464.219 239.442 463.889 230.693 463.521 221.761C463.043 209.337 462.528 196.508 461.94 185.334C461.095 169.05 460.213 159.273 459.257 155.45C458.228 151.333 456.243 146.371 454.368 141.592C450.803 132.66 447.752 124.941 449.663 120.86C450.215 119.647 451.207 118.765 452.494 118.361C457.64 116.633 460.36 119.574 467.858 134.829C473.372 146.04 475.835 149.201 476.901 150.083C477.893 147.473 478.996 140.379 480.136 132.88C483.848 108.473 486.752 92.4833 493.773 92.9979C495.537 93.1082 497.007 93.8801 498.073 95.2034C500.72 98.6219 500.389 105.569 499.103 114.207C504.249 99.3203 506.638 94.2109 512.262 95.3504C515.092 95.9018 517.077 97.8867 517.812 100.57C519.283 100.055 521.01 99.9084 522.591 100.239C525.274 100.791 527.112 102.665 527.664 105.312C527.737 105.643 527.774 105.973 527.847 106.304C529.465 105.643 531.56 105.165 533.435 105.937C534.721 106.451 536.302 107.775 536.633 111.046C537 114.832 534.023 125.345 530.09 138.725C528.436 144.312 526.892 149.605 526.598 151.48C525.826 157.913 524.429 178.019 523.289 199.192C522.223 218.453 521.562 235.913 521.378 247.124C521.378 248.08 520.569 248.852 519.614 248.852C519.614 248.852 519.614 248.852 519.577 248.852C518.621 248.852 517.812 248.043 517.849 247.051C517.996 235.766 518.695 218.269 519.761 198.971C520.9 177.725 522.297 157.545 523.106 150.965C523.436 148.797 524.87 143.908 526.708 137.696C529.391 128.543 533.435 114.759 533.104 111.34C533.03 110.495 532.773 109.465 532.111 109.171C530.825 108.62 528.105 109.98 527.443 110.495C526.928 110.899 526.193 111.009 525.568 110.678C524.98 110.384 524.576 109.76 524.576 109.098C524.576 107.922 524.429 106.892 524.245 105.973C523.988 104.687 523.216 103.915 521.893 103.658C519.981 103.253 518.107 104.099 517.776 104.54C517.298 105.202 516.489 105.459 515.717 105.165C514.982 104.907 514.504 104.136 514.578 103.364C514.798 100.938 513.622 99.1732 511.564 98.7689C508.439 98.144 506.418 103.621 500.463 121.044C498.992 125.308 497.338 130.234 495.317 135.894C495.023 136.74 494.104 137.255 493.221 137.034C492.339 136.813 491.751 135.968 491.898 135.049C492.449 131.484 493.111 127.844 493.736 124.316C495.831 112.774 497.963 100.864 495.243 97.3721C494.802 96.8207 494.287 96.5634 493.515 96.4899C493.479 96.4899 493.479 96.4899 493.442 96.4899C489.252 96.4899 485.282 122.331 483.628 133.395C482.12 143.393 481.128 149.605 479.915 151.994C479.106 153.612 477.783 153.832 477.195 153.869C474.695 153.869 471.865 151.002 464.697 136.409C456.941 120.64 455.471 121.118 453.596 121.706C453.229 121.816 453.008 122.037 452.861 122.368C451.575 125.088 454.809 133.174 457.64 140.305C459.588 145.194 461.61 150.23 462.676 154.604C463.705 158.721 464.587 168.425 465.469 185.15C466.057 196.325 466.572 209.19 467.05 221.614C467.417 230.546 467.748 239.258 468.116 247.014C468.152 247.97 467.417 248.815 466.425 248.852C466.425 248.889 466.388 248.889 466.351 248.889Z" fill="#201000"/>
<path d="M514.872 101.342C511.049 113.987 507.3 125.308 503.44 137.953C502.778 140.122 506.197 141.077 506.859 138.909C510.681 126.264 514.431 114.942 518.29 102.298C518.952 100.092 515.533 99.1732 514.872 101.342Z" fill="#201000"/>
<path d="M524.76 107.848C521.342 119.611 517.96 131.336 514.541 143.099C513.917 145.268 517.298 146.223 517.96 144.055C521.379 132.292 524.76 120.566 528.179 108.804C528.804 106.598 525.385 105.679 524.76 107.848Z" fill="#201000"/>
<path d="M477.598 150.341C475.392 149.973 474.437 153.392 476.642 153.759C488.074 155.597 495.83 164.897 495.426 176.512C495.352 178.791 498.881 178.791 498.954 176.512C499.432 163.463 490.537 152.436 477.598 150.341Z" fill="#201000"/>
<path d="M555.999 0H162.395V42.3452H555.999V0Z" fill="#ED967E"/>
<path d="M543.645 30.0314C543.204 30.0314 542.726 29.8476 542.395 29.5168L526.516 13.6374C525.818 12.939 525.818 11.8362 526.516 11.1378C527.214 10.4394 528.317 10.4394 529.016 11.1378L544.895 27.0173C545.593 27.7157 545.593 28.8184 544.895 29.5168C544.527 29.8476 544.086 30.0314 543.645 30.0314Z" fill="#201000"/>
<path d="M527.731 30.0314C527.29 30.0314 526.812 29.8476 526.481 29.5168C525.782 28.8184 525.782 27.7157 526.481 27.0173L542.36 11.1378C543.059 10.4394 544.161 10.4394 544.86 11.1378C545.558 11.8362 545.558 12.939 544.86 13.6374L528.98 29.5168C528.65 29.8476 528.208 30.0314 527.731 30.0314Z" fill="#201000"/>
<path d="M509.205 30.0314H490.678C489.686 30.0314 488.914 29.2595 488.914 28.267V11.5054C488.914 10.5129 489.686 9.74097 490.678 9.74097H509.205C510.197 9.74097 510.969 10.5129 510.969 11.5054V28.267C510.969 29.2227 510.197 30.0314 509.205 30.0314ZM492.443 26.5026H507.44V13.2697H492.443V26.5026Z" fill="#201000"/>
<path d="M470.393 22.0915H452.749C451.756 22.0915 450.984 21.3196 450.984 20.3271C450.984 19.3347 451.756 18.5627 452.749 18.5627H470.393C471.385 18.5627 472.157 19.3347 472.157 20.3271C472.157 21.2828 471.348 22.0915 470.393 22.0915Z" fill="#201000"/>
<path d="M418.304 207.83H308.875V229.002H418.304V207.83Z" fill="#E18F78"/>
<path d="M393.603 220.18H333.577C332.584 220.18 331.812 219.408 331.812 218.416C331.812 217.423 332.584 216.651 333.577 216.651H393.603C394.595 216.651 395.367 217.423 395.367 218.416C395.367 219.408 394.595 220.18 393.603 220.18Z" fill="white"/>
<path d="M278.88 116.046V333.616H1.76172V116.046C1.76172 106.562 9.4809 98.8428 18.9645 98.8428H261.641C271.161 98.8428 278.88 106.562 278.88 116.046Z" fill="white"/>
<path d="M278.883 335.38H1.76439C0.771919 335.38 0 334.572 0 333.616V116.045C0 105.569 8.52786 97.0781 18.9671 97.0781H261.643C272.12 97.0781 280.611 105.606 280.611 116.045V333.616C280.647 334.572 279.875 335.38 278.883 335.38ZM3.52877 331.851H277.119V116.082C277.119 107.554 270.208 100.644 261.68 100.644H19.0039C10.476 100.644 3.56553 107.554 3.56553 116.082V331.851H3.52877Z" fill="#201000"/>
<path d="M278.883 126.375V116.046C278.883 106.525 271.163 98.8428 261.68 98.8428H19.0035C9.4832 98.8428 1.80078 106.562 1.80078 116.046V126.375H278.883Z" fill="white"/>
<path d="M278.883 128.139H1.76439C0.771919 128.139 0 127.367 0 126.374V116.045C0 105.569 8.52786 97.0781 18.9671 97.0781H261.643C272.12 97.0781 280.611 105.606 280.611 116.045V126.374C280.647 127.367 279.875 128.139 278.883 128.139ZM3.52877 124.61H277.119V116.045C277.119 107.517 270.208 100.607 261.68 100.607H19.0039C10.476 100.607 3.56553 107.517 3.56553 116.045V124.61H3.52877Z" fill="#201000"/>
<path d="M17.6838 118.251C20.6071 118.251 22.9769 115.881 22.9769 112.957C22.9769 110.034 20.6071 107.664 17.6838 107.664C14.7604 107.664 12.3906 110.034 12.3906 112.957C12.3906 115.881 14.7604 118.251 17.6838 118.251Z" fill="#8646E6"/>
<path d="M40.176 118.251C43.0993 118.251 45.4691 115.881 45.4691 112.957C45.4691 110.034 43.0993 107.664 40.176 107.664C37.2526 107.664 34.8828 110.034 34.8828 112.957C34.8828 115.881 37.2526 118.251 40.176 118.251Z" fill="#95CBEF"/>
<path d="M62.6721 118.251C65.5954 118.251 67.9652 115.881 67.9652 112.957C67.9652 110.034 65.5954 107.664 62.6721 107.664C59.7487 107.664 57.3789 110.034 57.3789 112.957C57.3789 115.881 59.7487 118.251 62.6721 118.251Z" fill="#E18F78"/>
<path d="M159.165 129.867C159.018 128.47 158.65 127.146 158.025 125.97H140.271C138.433 127.367 136.742 128.874 135.272 130.124C130.787 133.947 126.854 138.284 123.436 143.063C123.326 141.372 122.848 139.791 121.561 138.468C118.988 135.858 115.753 136.373 113.107 138.578C104.652 145.599 100.242 159.567 98.036 169.859C97.8155 170.962 98.7712 171.513 99.6534 171.366C99.6534 171.366 99.6534 171.403 99.6901 171.403C99.9475 171.624 100.168 171.844 100.425 172.028C103.366 172.396 105.902 173.278 107.336 174.344C107.336 174.344 104.836 164.052 119.907 155.634C132.883 148.356 142.66 148.135 149.902 155.487C149.938 155.45 150.012 155.413 150.085 155.34C150.306 155.34 150.49 155.303 150.747 155.156C154.79 152.951 161.664 147.915 157.621 142.475C156.922 141.519 156.077 140.967 155.158 140.673C157.658 137.549 159.606 133.983 159.165 129.867Z" fill="#201000"/>
<path d="M144.754 261.24C144.129 261.24 143.578 260.909 143.247 260.394L119.722 222.166C119.464 221.762 119.391 221.321 119.501 220.843C119.832 219.372 120.31 217.02 120.53 215.513C114.392 212.572 109.687 204.743 108.07 201.802C98.9903 202.978 90.7565 201.03 85.9045 196.509C82.3389 193.164 80.6848 188.532 81.1627 183.092C81.5303 179.086 83.1476 175.924 85.9412 173.645C90.9771 169.602 97.8508 169.97 100.608 170.3C102.372 170.521 104.026 170.925 105.423 171.44C105.754 167.36 108.106 160.192 118.987 154.09C132.844 146.334 143.357 146.371 151.113 154.237C153.907 157.068 156.296 160.854 158.428 165.853C159.273 167.874 160.192 169.933 161.038 171.955C166.478 184.452 171.587 196.288 170.117 203.53C168.72 210.44 163.243 215.476 153.87 218.417L153.502 224.849C153.502 224.96 153.466 225.033 153.466 225.143C152.253 230.326 151.297 235.656 150.341 240.802C149.202 247.014 148.025 253.447 146.408 259.88C146.224 260.578 145.673 261.093 144.975 261.203C144.938 261.24 144.828 261.24 144.754 261.24ZM123.104 220.916L144.019 254.917C145.122 249.955 146.041 245.029 146.923 240.214C147.878 235.068 148.834 229.738 150.047 224.518L150.488 217.02C150.525 216.285 151.04 215.623 151.775 215.439C160.633 212.903 165.559 208.786 166.735 202.868C167.985 196.729 162.839 184.857 157.877 173.425C156.994 171.403 156.112 169.345 155.23 167.323C153.319 162.802 151.076 159.273 148.65 156.774C142.071 150.084 133.212 150.231 120.751 157.215C107.151 164.823 108.952 173.645 109.025 174.013C109.172 174.748 108.878 175.483 108.253 175.888C107.628 176.292 106.857 176.292 106.232 175.851C105.019 174.969 102.666 174.197 100.13 173.866C95.3512 173.278 90.8668 174.234 88.1099 176.439C86.0515 178.093 84.8752 180.446 84.6179 183.46C84.2136 187.834 85.4266 191.363 88.2202 193.973C92.4474 197.906 100.277 199.523 108.694 198.2C109.466 198.053 110.201 198.457 110.569 199.155C110.643 199.266 116.156 210.403 122.957 212.793C123.692 213.05 124.17 213.748 124.133 214.52C124.17 215.807 123.434 219.299 123.104 220.916Z" fill="#201000"/>
<path d="M146.628 187.981C146.371 187.981 146.113 187.944 145.893 187.797C145.011 187.393 144.643 186.327 145.047 185.445C147.29 180.703 145.342 176.108 137.328 167.213C136.667 166.477 136.74 165.375 137.439 164.713C138.174 164.051 139.276 164.125 139.938 164.823C147.731 173.461 151.59 179.857 148.245 186.952C147.951 187.613 147.29 187.981 146.628 187.981Z" fill="#201000"/>
<path d="M124.17 179.012C125.388 179.012 126.376 178.025 126.376 176.807C126.376 175.589 125.388 174.601 124.17 174.601C122.952 174.601 121.965 175.589 121.965 176.807C121.965 178.025 122.952 179.012 124.17 179.012Z" fill="#201000"/>
<path d="M148.577 170.778C149.795 170.778 150.782 169.791 150.782 168.573C150.782 167.355 149.795 166.367 148.577 166.367C147.359 166.367 146.371 167.355 146.371 168.573C146.371 169.791 147.359 170.778 148.577 170.778Z" fill="#201000"/>
<path d="M123.876 168.095C123.141 167.396 122.075 167.507 121.376 168.132C120.641 168.793 119.906 169.455 119.171 170.117C118.472 170.741 118.583 171.991 119.208 172.616C119.943 173.315 121.009 173.204 121.707 172.579C122.442 171.918 123.177 171.256 123.913 170.594C124.648 169.97 124.538 168.72 123.876 168.095Z" fill="#201000"/>
<path d="M146.813 160.339H144.608C142.329 160.339 142.329 163.868 144.608 163.868H146.813C149.092 163.868 149.092 160.339 146.813 160.339Z" fill="#201000"/>
<path d="M103.953 189.415C103.292 189.415 102.667 189.047 102.373 188.422C101.454 186.584 96.7856 182.761 93.3304 183.423C92.3747 183.607 91.4557 182.982 91.2352 182.026C91.0514 181.071 91.6763 180.152 92.632 179.931C97.9619 178.865 104.027 183.791 105.534 186.805C105.975 187.687 105.608 188.753 104.762 189.157C104.505 189.378 104.211 189.415 103.953 189.415Z" fill="#201000"/>
<path d="M109.724 164.162C115.017 177.505 117.296 192.539 127.662 197.979C136.264 202.5 148.247 183.864 165.89 190.921C165.89 190.921 175.301 207.095 160.597 214.741C145.894 222.386 130.603 221.504 120.311 214.153C115.642 210.844 111.084 207.021 108.842 201.214C106.122 194.156 106.196 184.452 106.196 172.69C106.196 151.223 109.724 164.162 109.724 164.162Z" fill="#201000"/>
<path d="M134.939 205.368C132.476 206.764 129.683 205.625 129.021 202.831C128.506 200.626 125.051 201.434 125.602 203.64C126.779 208.602 132.182 210.992 136.63 208.455C138.578 207.353 136.924 204.228 134.939 205.368Z" fill="white"/>
<path d="M178.864 335.38H41.8301C41.4258 335.38 41.0215 335.233 40.6906 334.976C40.4701 334.792 40.2495 334.572 40.029 334.388C23.6717 318.986 33.7801 295.571 46.6087 265.944C50.358 257.27 54.2543 248.301 57.7464 238.854C70.5381 204.375 88.329 209.852 107.186 215.66C111.817 217.093 116.633 218.563 121.521 219.482C122.477 219.666 123.102 220.585 122.918 221.541C122.734 222.497 121.816 223.121 120.86 222.938C115.787 221.982 110.898 220.475 106.157 219.005C87.4836 213.27 72.7069 208.712 61.0913 240.067C57.5626 249.587 53.6662 258.593 49.8801 267.305C37.603 295.645 27.8989 318.067 42.3815 331.705C42.4183 331.741 42.455 331.778 42.4918 331.815H177.357C178.717 321.486 170.851 313.215 164.786 310.789C148.722 304.357 126.557 304.504 95.9012 304.687C90.6448 304.724 85.1678 304.761 79.4336 304.761C78.8454 304.761 78.3308 304.467 78 304.026C77.6692 303.548 77.5957 302.96 77.7795 302.408L93.6589 258.299C93.9897 257.38 95.019 256.902 95.9012 257.233C96.8201 257.564 97.298 258.556 96.9671 259.475L81.9331 301.232C86.7484 301.232 91.3799 301.195 95.8644 301.159C126.925 300.975 149.347 300.828 166.072 307.518C173.755 310.569 183.312 320.824 180.555 333.947C180.408 334.792 179.709 335.38 178.864 335.38Z" fill="#201000"/>
<path d="M80.2068 301.048C76.8618 301.195 73.4801 301.306 70.1351 301.453C67.8929 301.526 67.5988 305.055 69.8778 304.982C73.2228 304.835 76.6045 304.724 79.9495 304.577C82.1549 304.467 82.449 300.938 80.2068 301.048Z" fill="#201000"/>
<path d="M231.245 281.824C230.694 281.824 230.142 281.566 229.811 281.052C229.628 280.758 209.668 252.013 195.7 232.825C182.247 214.336 177.468 215.292 154.164 223.452C153.245 223.783 152.252 223.305 151.921 222.386C151.59 221.467 152.068 220.475 152.987 220.144C176.88 211.763 183.754 210.44 198.53 230.767C212.498 249.991 232.458 278.736 232.679 279.03C233.23 279.839 233.046 280.942 232.238 281.493C231.943 281.713 231.576 281.824 231.245 281.824Z" fill="#201000"/>
<path d="M111.961 335.38C111.006 335.38 110.197 334.608 110.197 333.616C110.087 318.03 115.233 306.893 125.084 301.489C125.929 301.011 126.995 301.342 127.473 302.188C127.951 303.033 127.62 304.099 126.775 304.577C118.026 309.429 113.652 319.17 113.726 333.616C113.726 334.572 112.917 335.343 111.961 335.38Z" fill="#201000"/>
<path d="M367.139 236.538H176.512V548.944H367.139V236.538Z" fill="#95CBEF"/>
<path d="M215.696 273.222L194.523 252.05C192.906 250.432 190.406 252.932 192.023 254.549L213.196 275.722C214.813 277.339 217.313 274.84 215.696 273.222Z" fill="white"/>
<path d="M212.352 251.167C204.67 258.85 196.987 266.532 189.305 274.215C187.687 275.832 190.187 278.331 191.804 276.714C192.723 275.795 193.642 274.876 194.561 273.957L214.851 253.667C216.432 252.049 213.933 249.55 212.352 251.167Z" fill="white"/>
<path d="M367.141 461.276V548.944H199.672C200.334 529.683 202.061 505.827 206.509 488.036C215.331 452.748 251.574 459.254 292.118 456.277C310.902 454.88 346.152 455.689 367.141 461.276Z" fill="#8646E6"/>
<path d="M199.268 550.708C198.276 550.708 197.504 549.899 197.504 548.907C198.68 456.902 224.962 456.313 264.771 455.431L267.087 455.395C268.043 455.321 268.888 456.13 268.888 457.122C268.925 458.115 268.153 458.887 267.16 458.923L264.845 458.96C245.069 459.401 229.447 459.732 218.713 470.759C207.024 482.779 201.547 506.892 201.033 548.944C201.033 549.936 200.224 550.708 199.268 550.708Z" fill="#201000"/>
<path d="M230.882 548.944H227.353C226.801 532.256 226.25 515.568 225.736 498.916C225.662 496.637 229.191 496.674 229.264 498.916C229.779 515.568 230.33 532.256 230.882 548.944Z" fill="#201000"/>
<path d="M227.13 520.677C226.762 520.677 226.395 520.567 226.064 520.309L202.539 502.666C201.767 502.078 201.583 500.975 202.171 500.203C202.759 499.431 203.862 499.247 204.634 499.835L228.159 517.479C228.931 518.067 229.115 519.17 228.527 519.942C228.196 520.457 227.644 520.677 227.13 520.677Z" fill="#201000"/>
<path d="M367.14 463.849C366.956 463.849 366.772 463.812 366.589 463.776C349.349 458.078 330.86 458.262 319.832 458.372H318.987C318.031 458.372 317.223 457.6 317.223 456.608C317.223 455.615 317.995 454.843 318.987 454.806H319.832C330.345 454.696 349.937 454.476 367.728 460.394C368.647 460.688 369.162 461.717 368.831 462.636C368.574 463.371 367.875 463.849 367.14 463.849Z" fill="#201000"/>
<path d="M360.229 336.042C357.766 323.985 356.517 311.156 349.753 300.533C344.497 292.336 335.895 285.389 325.713 285.83C317.59 286.161 310.569 290.719 307.555 298.107C306.452 298.328 305.533 299.467 306.305 300.68C314.465 312.921 320.494 326.301 323.765 340.636C326.743 353.649 326.265 367.139 329.279 380.115C333.322 397.538 348.32 414.483 367.066 411.469V356.332C363.464 350.157 361.663 342.989 360.229 336.042Z" fill="#201000"/>
<path d="M325.935 340.71C326.155 306.598 300.241 285.242 268.997 278.295C256.756 275.575 239.701 271.605 229.482 281.309C222.13 288.293 223.343 300.056 232.937 304.025C233.562 304.283 234.077 304.172 234.444 303.842C260.101 324.353 290.096 338.21 322.443 344.275C323.803 344.533 324.648 343.356 324.648 342.327C325.31 342.143 325.935 341.629 325.935 340.71Z" fill="#201000"/>
<path d="M223.857 397.868C229.959 410.623 243.339 414.446 257.38 414.851L267.084 457.122C267.084 457.122 273.554 481.824 296.711 478.736C318.141 475.869 318.913 456.534 318.913 456.534C318.913 456.534 313.62 433.413 306.305 396.802C317.847 388.789 322.258 365.485 322.258 365.485C341.777 361.221 361.185 351.811 357.656 330.601C355.34 316.817 338.248 308.841 314.392 325.455C314.392 325.455 313.252 301.195 284.103 293.218C258.998 286.345 242.457 290.315 233.561 306.378C230.29 312.222 228.084 319.684 226.834 328.8C223.122 356.479 217.682 384.966 223.857 397.868Z" fill="white"/>
<path d="M292.853 480.795C271.754 480.795 265.505 457.821 265.432 457.563L256.022 416.542C238.746 415.77 227.718 409.888 222.315 398.604C216.764 387.062 220.036 364.382 223.528 340.416C224.079 336.483 224.667 332.55 225.219 328.616C226.542 319.133 228.784 311.597 232.166 305.569C241.319 288.991 258.521 284.397 284.693 291.564C308.586 298.107 314.467 315.531 315.864 322.478C332.185 311.965 343.138 313.913 348.358 316.119C354.386 318.655 358.467 323.838 359.533 330.344C362.51 348.282 350.196 360.927 323.877 366.992C322.848 371.77 318.327 389.782 308.365 397.574C315.46 433.119 320.679 455.946 320.716 456.167C320.753 456.314 320.753 456.461 320.753 456.645C320.753 456.865 319.687 477.486 297.007 480.5C295.537 480.721 294.177 480.795 292.853 480.795ZM225.476 397.133C230.402 407.389 240.878 412.645 257.455 413.123C258.264 413.16 258.963 413.711 259.11 414.483L268.814 456.755C269.034 457.637 275.173 479.876 296.492 477.045C315.276 474.546 317.003 458.887 317.15 456.755C316.562 454.182 311.453 431.465 304.616 397.207C304.469 396.508 304.763 395.81 305.351 395.406C316.195 387.87 320.532 365.448 320.606 365.191C320.753 364.492 321.267 363.941 321.966 363.794C347.255 358.243 358.724 347.216 356.004 330.932C355.122 325.639 351.813 321.412 346.924 319.353C338.764 315.935 327.296 318.692 315.46 326.926C314.945 327.293 314.247 327.33 313.658 327.073C313.07 326.779 312.703 326.227 312.666 325.566C312.629 324.647 311.159 302.445 283.664 294.946C258.926 288.183 243.524 292.116 235.143 307.26C232.056 312.811 229.85 320.162 228.637 329.094C228.086 333.027 227.534 336.997 226.946 340.93C223.601 364.382 220.403 386.547 225.476 397.133Z" fill="#201000"/>
<path d="M253.89 324.132C242.899 338.174 230.769 357.214 244.222 373.792C245.656 375.557 248.155 373.057 246.722 371.293C234.628 356.442 246.759 338.872 256.389 326.632C257.749 324.867 255.286 322.331 253.89 324.132Z" fill="#201000"/>
<path d="M281.642 370.153C280.208 375.152 274.731 377.946 269.806 376.365C267.637 375.667 266.718 379.085 268.85 379.784C275.613 381.989 283.075 377.909 285.023 371.109C285.685 368.903 282.267 367.948 281.642 370.153Z" fill="#201000"/>
<path d="M339.612 331.41C331.488 332.623 324.541 337.696 320.865 345.047C319.836 347.069 322.887 348.87 323.916 346.812C327.224 340.195 333.253 335.895 340.568 334.792C342.81 334.498 341.854 331.079 339.612 331.41Z" fill="#201000"/>
<path d="M282.416 326.08C279.585 326.08 279.585 330.491 282.416 330.491C285.246 330.528 285.283 326.08 282.416 326.08Z" fill="#201000"/>
<path d="M238.302 321.228C235.472 321.228 235.472 325.639 238.302 325.639C241.133 325.639 241.133 321.228 238.302 321.228Z" fill="#201000"/>
<path d="M243.526 308.878C243.269 307.885 242.313 307.481 241.357 307.628C240.475 307.775 239.593 307.922 238.711 308.069C237.755 308.216 237.24 309.392 237.461 310.238C237.718 311.23 238.674 311.635 239.63 311.488C240.512 311.341 241.394 311.193 242.276 311.046C243.232 310.863 243.746 309.723 243.526 308.878Z" fill="#201000"/>
<path d="M288.075 315.126C287.193 314.391 286.311 313.656 285.428 312.921C284.693 312.296 283.664 312.186 282.929 312.921C282.304 313.546 282.194 314.795 282.929 315.42C283.811 316.156 284.693 316.891 285.575 317.626C286.311 318.251 287.34 318.361 288.075 317.626C288.7 317.001 288.81 315.751 288.075 315.126Z" fill="#201000"/>
<path d="M303.659 297.298C295.756 290.167 286.016 286.124 275.429 285.315C274.951 285.279 274.584 285.426 274.327 285.646C274.032 285.609 273.775 285.573 273.481 285.536C272.93 285.462 272.378 285.573 271.974 285.867C271.018 284.874 270.063 283.845 269.07 282.853C267.49 281.198 264.99 283.698 266.571 285.352C278.664 298.034 290.353 311.34 302.998 323.507C306.968 327.33 316.451 331.851 317.444 322.661C318.399 313.766 309.725 302.775 303.659 297.298Z" fill="#201000"/>
<path d="M271.828 532.145C284.495 532.145 294.765 521.876 294.765 509.208C294.765 496.54 284.495 486.271 271.828 486.271C259.16 486.271 248.891 496.54 248.891 509.208C248.891 521.876 259.16 532.145 271.828 532.145Z" fill="#FFDF57"/>
<path d="M274.696 513.729H286.569V510.017C286.569 510.017 287.047 500.974 272.491 500.974C259.883 500.974 256.869 505.716 257.089 510.017V513.729H268.962V508.105H274.659V513.729H274.696Z" fill="white"/>
<path d="M33.7777 180.923C31.4252 184.158 29.0727 187.393 26.7202 190.627C25.3969 192.465 28.4478 194.23 29.7711 192.392C32.1236 189.157 34.4761 185.922 36.8287 182.688C38.1887 180.85 35.101 179.085 33.7777 180.923Z" fill="#E18F78"/>
<path d="M37.3069 197.685C35.8366 199.743 34.3663 201.802 32.896 203.86C31.5727 205.698 34.6236 207.463 35.9469 205.625C37.4172 203.566 38.8875 201.508 40.3578 199.449C41.6811 197.611 38.6302 195.847 37.3069 197.685Z" fill="#E18F78"/>
<path d="M240.945 170.337C234.623 170.337 229.477 165.191 229.477 158.868C229.477 152.546 234.623 147.4 240.945 147.4C247.267 147.4 252.414 152.546 252.414 158.868C252.414 165.191 247.267 170.337 240.945 170.337ZM240.945 150.928C236.571 150.928 233.005 154.494 233.005 158.868C233.005 163.242 236.571 166.808 240.945 166.808C245.319 166.808 248.885 163.242 248.885 158.868C248.885 154.494 245.319 150.928 240.945 150.928Z" fill="#E18F78"/>
<path d="M311.006 64.0695C309.241 62.011 307.477 59.9526 305.713 57.8941C304.242 56.1665 301.743 58.666 303.213 60.3937C304.978 62.4521 306.742 64.5106 308.506 66.569C310.013 68.2967 312.476 65.7971 311.006 64.0695Z" fill="white"/>
<path d="M298.951 67.0835C297.187 64.731 295.422 62.3785 293.658 60.026C292.298 58.2248 289.247 59.9892 290.607 61.7903C292.371 64.1428 294.136 66.4954 295.9 68.8479C297.224 70.649 300.311 68.8846 298.951 67.0835Z" fill="white"/>
</svg>
