<svg width="30" height="30" viewBox="0 0 30 30" fill="none" xmlns="http://www.w3.org/2000/svg">
<path fill-rule="evenodd" clip-rule="evenodd" d="M14.9531 0.45459C17.6574 0.485449 20.1005 1.15008 22.2823 2.44849C24.4381 3.72098 26.2314 5.52527 27.4907 7.6888C28.7813 9.88378 29.4419 12.3416 29.4726 15.0624C29.396 18.7851 28.2219 21.9646 25.9502 24.6009C23.6785 27.2373 20.769 28.8683 17.7572 29.4936V19.0564H20.6046L21.2486 14.9548H16.9369V12.2684C16.9129 11.7115 17.089 11.1644 17.4334 10.7261C17.7782 10.2865 18.3854 10.0555 19.255 10.033H21.8587V6.4401C21.8214 6.42808 21.4669 6.38055 20.7953 6.29751C20.0336 6.20838 19.2676 6.16078 18.5007 6.15491C16.7651 6.16292 15.3924 6.65252 14.3827 7.6237C13.373 8.59462 12.8572 9.99932 12.8353 11.8378V14.9548H9.55407V19.0564H12.8353V29.4936C9.13718 28.8683 6.22771 27.2373 3.95603 24.6009C1.68435 21.9646 0.510246 18.7851 0.433594 15.0624C0.464262 12.3415 1.12488 9.88365 2.41545 7.6888C3.67479 5.52527 5.46812 3.72099 7.62394 2.44849C9.80572 1.15033 12.2488 0.485699 14.9531 0.45459Z" fill="#444344"/>
</svg>
