<svg width="13" height="12" viewBox="0 0 13 12" fill="none" xmlns="http://www.w3.org/2000/svg">
<path d="M3.50177 6.24902H3.50184C4.69864 6.24902 5.71837 7.01414 6.09615 8.08238L6.15508 8.24902H6.33184H12.2518V9.74902H6.33084H6.15398L6.0951 9.9158C5.92718 10.3915 5.63171 10.8118 5.24099 11.1309C4.85027 11.4499 4.37935 11.6554 3.87972 11.7248C3.38009 11.7943 2.87098 11.725 2.40807 11.5246C1.94515 11.3242 1.54625 11.0004 1.25497 10.5885C0.963696 10.1767 0.791265 9.69269 0.756531 9.18945C0.721796 8.68621 0.826097 8.18311 1.05803 7.73516C1.28996 7.28721 1.64059 6.91165 2.07158 6.64954C2.50258 6.38744 2.99734 6.24888 3.50177 6.24902ZM9.50177 0.249024H9.50179C10.0059 0.24912 10.5003 0.387798 10.931 0.649902C11.3616 0.912006 11.712 1.28745 11.9437 1.7352C12.1753 2.18294 12.2795 2.68577 12.2447 3.18871C12.2099 3.69165 12.0376 4.17535 11.7465 4.58695C11.4554 4.99855 11.0567 5.32221 10.5941 5.52255C10.1315 5.7229 9.62269 5.79221 9.12333 5.72293C8.62397 5.65364 8.15327 5.44842 7.76267 5.12969C7.37206 4.81097 7.07659 4.391 6.90854 3.91569L6.84962 3.74902H6.67284H0.751842V2.24902H6.67184H6.84857L6.90752 2.08241C7.09729 1.54608 7.44867 1.08177 7.91327 0.753425C8.37788 0.425083 8.93285 0.248859 9.50177 0.249024ZM3.50184 7.74902C3.17032 7.74902 2.85238 7.88072 2.61796 8.11514C2.38354 8.34956 2.25184 8.6675 2.25184 8.99902C2.25184 9.33054 2.38354 9.64849 2.61796 9.88291C2.85238 10.1173 3.17032 10.249 3.50184 10.249C3.83336 10.249 4.1513 10.1173 4.38573 9.88291C4.62015 9.64849 4.75184 9.33054 4.75184 8.99902C4.75184 8.6675 4.62015 8.34956 4.38573 8.11514C4.1513 7.88072 3.83336 7.74902 3.50184 7.74902ZM9.50184 1.74902C9.17032 1.74902 8.85238 1.88072 8.61796 2.11514C8.38354 2.34956 8.25184 2.6675 8.25184 2.99902C8.25184 3.33054 8.38354 3.64849 8.61796 3.88291C8.85238 4.11733 9.17032 4.24902 9.50184 4.24902C9.83336 4.24902 10.1513 4.11733 10.3857 3.88291C10.6201 3.64849 10.7518 3.33054 10.7518 2.99902C10.7518 2.6675 10.6201 2.34956 10.3857 2.11514C10.1513 1.88072 9.83336 1.74902 9.50184 1.74902Z" fill="#444344" stroke="white" stroke-width="0.5"/>
</svg>
