<svg xmlns="http://www.w3.org/2000/svg" version="1.1" xmlns:xlink="http://www.w3.org/1999/xlink" xmlns:svgjs="http://svgjs.com/svgjs" width="512" height="512" x="0" y="0" viewBox="0 0 24 24" style="enable-background:new 0 0 512 512" xml:space="preserve" class=""><g><path xmlns="http://www.w3.org/2000/svg" d="m14.25 11h-4.5c-.208 0-.395-.129-.468-.324l-2.25-6c-.058-.154-.036-.326.057-.461.094-.134.247-.215.411-.215h1.892c.868 0 1.66.439 2.12 1.175l3.163 5.06c.097.154.102.349.014.507-.09.159-.257.258-.439.258z" fill="#607d8b" data-original="#607d8b"></path><path xmlns="http://www.w3.org/2000/svg" d="m22.5 15h-19c-1.93 0-3.5-1.57-3.5-3.5v-5.471c0-.567.462-1.029 1.029-1.029 1.098 0 2.056.703 2.385 1.75l.913 2.9c.066.209.258.35.477.35h14.076c1.998 0 3.827 1.011 4.893 2.704.151.256.227.524.227.786 0 .833-.673 1.51-1.5 1.51" fill="#eceff1" data-original="#eceff1"></path><path xmlns="http://www.w3.org/2000/svg" d="m9.392 21h-1.892c-.164 0-.317-.081-.411-.215-.093-.135-.115-.307-.057-.46l3-8c.073-.196.26-.325.468-.325h5c.182 0 .349.099.437.258s.083.353-.014.507l-4.413 7.06c-.458.736-1.251 1.175-2.118 1.175" fill="#607d8b" data-original="#607d8b"></path><path xmlns="http://www.w3.org/2000/svg" d="m23.253 11.999h-23.217c.243 1.695 1.704 3.001 3.464 3.001h5.528l1.003-2.676c.074-.195.261-.324.469-.324h5c.182 0 .349.099.437.258s.083.353-.014.507l-1.396 2.235h7.973c.827 0 1.5-.677 1.5-1.51 0-.263-.076-.53-.227-.787-.158-.249-.332-.484-.52-.704" fill="#cdd0d2" data-original="#cdd0d2"></path><path xmlns="http://www.w3.org/2000/svg" d="m15.5 12h-5c-.208 0-.395.129-.468.324l-1.004 2.676-1.997 5.324c-.058.154-.036.326.057.46.095.135.248.216.412.216h1.892c.868 0 1.66-.439 2.12-1.175l3.015-4.825 1.397-2.235c.097-.154.102-.349.014-.507-.089-.159-.256-.258-.438-.258" fill="#546d79" data-original="#546d79"></path></g></svg>