<svg width="573" height="453" viewBox="0 0 573 453" fill="none" xmlns="http://www.w3.org/2000/svg">
<path d="M124.677 163.762L27.3203 188.161L51.7197 285.518L149.076 261.118L124.677 163.762Z" fill="#8646E6"/>
<path d="M88.1144 258.875C81.9869 258.875 75.9544 257.213 70.5869 253.983C62.7494 249.28 57.1919 241.823 55.0069 232.94C50.3994 214.653 61.5619 196.033 79.8969 191.425C98.1844 186.818 116.804 197.98 121.412 216.315C123.644 225.198 122.267 234.365 117.564 242.203C112.862 250.04 105.404 255.598 96.5219 257.783C93.7194 258.543 90.9169 258.875 88.1144 258.875ZM88.2094 194.988C85.8344 194.988 83.4119 195.273 80.9894 195.89C65.1244 199.88 55.4819 215.983 59.4244 231.848C61.3719 239.543 66.1694 246.003 72.9619 250.088C79.7544 254.173 87.7344 255.36 95.4294 253.413C103.124 251.465 109.584 246.668 113.669 239.875C117.754 233.083 118.942 225.103 116.994 217.408C113.574 204.013 101.462 194.988 88.2094 194.988Z" fill="#F2C34B"/>
<path d="M196.459 0H113.191V83.2675H196.459V0Z" fill="#E18F78"/>
<path d="M170.004 63.5075H139.604C138.322 63.5075 137.324 62.51 137.324 61.2275V21.7075C137.324 20.425 138.322 19.4275 139.604 19.4275C140.887 19.4275 141.884 20.425 141.884 21.7075V58.9475H170.004C171.287 58.9475 172.284 59.945 172.284 61.2275C172.284 62.51 171.287 63.5075 170.004 63.5075Z" fill="white"/>
<path d="M461.722 72.799L437.547 169.132L533.88 193.307L558.055 96.9741L461.722 72.799Z" fill="#95CBEF"/>
<path d="M515.472 163.733C515.282 163.733 515.092 163.733 514.902 163.685L469.729 152.333C468.827 152.095 468.162 151.383 468.019 150.433C467.877 149.483 468.304 148.628 469.112 148.153L522.787 116.043L478.469 104.928C477.234 104.643 476.522 103.36 476.807 102.173C477.092 100.938 478.374 100.225 479.562 100.51L529.247 112.955C530.149 113.193 530.814 113.905 530.957 114.855C531.099 115.805 530.672 116.66 529.864 117.135L476.189 149.245L515.994 159.22C517.229 159.505 517.942 160.788 517.657 161.975C517.419 163.02 516.469 163.733 515.472 163.733Z" fill="white"/>
<path d="M417.382 44.84H383.182C381.9 44.84 380.902 43.8425 380.902 42.56C380.902 41.2775 381.947 40.28 383.182 40.28H417.382C418.665 40.28 419.662 41.2775 419.662 42.56C419.662 43.8425 418.665 44.84 417.382 44.84Z" fill="#8646E6"/>
<path d="M501.031 44.84H435.671C434.388 44.84 433.391 43.8425 433.391 42.56C433.391 41.2775 434.388 40.28 435.671 40.28H501.031C502.313 40.28 503.311 41.2775 503.311 42.56C503.311 43.8425 502.266 44.84 501.031 44.84Z" fill="#8646E6"/>
<path d="M434.102 81.7475H403.702C402.419 81.7475 401.422 80.7025 401.422 79.4675C401.422 78.1851 402.467 77.1876 403.702 77.1876H434.102C435.385 77.1876 436.382 78.1851 436.382 79.4675C436.382 80.7025 435.385 81.7475 434.102 81.7475Z" fill="#8646E6"/>
<path d="M72.2475 135.708H2.27999C0.997494 135.708 0 134.71 0 133.428C0 132.145 0.997494 131.148 2.27999 131.148H72.2475C73.53 131.148 74.5275 132.145 74.5275 133.428C74.5275 134.71 73.4825 135.708 72.2475 135.708Z" fill="#8646E6"/>
<path d="M57.8075 106.828H2.27999C0.997494 106.828 0 105.83 0 104.548C0 103.265 0.997494 102.268 2.27999 102.268H57.76C59.0425 102.268 60.04 103.265 60.04 104.548C60.04 105.83 59.0425 106.828 57.8075 106.828Z" fill="#8646E6"/>
<path d="M107.967 153.188C107.587 153.188 107.207 153.093 106.827 152.903C105.734 152.285 105.354 150.86 105.972 149.768L134.852 99.6076C135.469 98.5151 136.894 98.135 137.987 98.7525C139.079 99.37 139.459 100.795 138.842 101.888L109.962 152.048C109.534 152.808 108.727 153.188 107.967 153.188Z" fill="#8646E6"/>
<path d="M570.189 280.915H546.249C544.966 280.915 543.969 279.918 543.969 278.635C543.969 277.353 545.014 276.355 546.249 276.355H570.189C571.471 276.355 572.469 277.353 572.469 278.635C572.469 279.918 571.471 280.915 570.189 280.915Z" fill="#8646E6"/>
<path d="M12.2567 223.82C9.7392 220.78 7.1742 217.74 4.65669 214.7C2.75669 212.42 -0.425808 215.698 1.42669 217.93C3.9442 220.97 6.5092 224.01 9.0267 227.05C10.9267 229.283 14.1092 226.053 12.2567 223.82Z" fill="#F2C34B"/>
<path d="M550.001 247.095C543.399 256.215 536.844 265.335 530.241 274.455C528.531 276.83 532.474 279.11 534.184 276.735C540.786 267.615 547.341 258.495 553.944 249.375C555.654 247 551.711 244.72 550.001 247.095Z" fill="#F2C34B"/>
<path d="M194.656 17.86C183.351 17.86 173.756 10.3075 170.621 0H165.871C169.101 12.8725 180.786 22.42 194.609 22.42C195.226 22.42 195.796 22.42 196.414 22.3725V17.8125C195.844 17.86 195.226 17.86 194.656 17.86Z" fill="white"/>
<path d="M451.537 397.908C451.252 396.673 450.064 395.912 448.829 396.15C448.497 396.197 448.212 396.34 447.974 396.53C444.697 392.018 439.519 384.845 437.239 381.187C421.137 355.11 407.124 328.13 389.834 302.765C380.904 289.655 374.824 275.167 363.757 263.862C359.672 259.682 351.312 259.207 348.177 254.077L338.012 262.723L279.872 237.168C274.219 247.57 264.719 249.66 255.457 258.115C241.064 280.297 225.912 309.51 210.332 330.885C207.292 336.348 204.109 341.715 200.879 347.035C200.737 347.035 200.547 347.035 200.404 347.035C199.169 347.225 198.314 348.365 198.457 349.6L210.712 432.82H213.134H215.319H454.529H455.337H459.232L451.537 397.908Z" fill="#201000"/>
<path d="M379.908 145.35C376.725 136.42 366.893 132.383 359.008 135.138C363.235 128.06 368.84 121.553 369.268 112.955C369.695 104.738 364.945 98.515 356.68 97.375C340.435 95.2375 324.048 108.585 313.74 121.98C310.89 117.088 303.29 114.143 296.688 116.613C287.52 120.033 280.3 129.77 274.505 137.085C267.095 146.443 261.015 156.56 255.933 167.343C255.268 168.768 256.075 170.05 257.168 170.573C257.168 170.668 257.168 170.715 257.168 170.81C257.88 176.985 265.005 177.935 269.898 178.505C284.385 180.168 299.11 180.595 313.645 181.64C317.16 181.877 320.723 182.21 324.333 182.495C325.948 182.638 327.563 182.732 329.178 182.827C337.3 183.255 345.423 183.208 353.308 181.355C361.763 179.36 370.788 174.183 376.25 167.01C376.82 166.298 377.295 165.537 377.77 164.777C378.103 164.255 378.435 163.685 378.72 163.115C380.05 160.55 380.953 157.795 381.238 154.85C381.428 151.81 381.095 148.628 379.908 145.35Z" fill="#201000"/>
<path d="M260.776 233.795C264.576 281.675 289.656 290.795 318.536 292.315C347.416 293.835 362.616 278.635 364.136 241.395C365.656 204.155 355.776 140.553 300.296 150.148C260.539 157.035 258.686 207.243 260.776 233.795Z" fill="white"/>
<path d="M361.905 241.3C361.668 247 361.098 252.178 360.243 256.833C358.105 268.043 354.115 276.213 348.13 281.723C341.243 287.993 331.6 290.748 318.728 290.035C305.38 289.323 292.413 287.042 282.343 279.015C272.225 270.987 265.005 257.213 263.105 233.605C261.348 211.47 261.49 159.172 300.773 152.427C304.383 151.81 307.85 151.477 311.128 151.477C321.958 151.477 331.173 154.802 338.725 161.405C356.11 176.653 362.143 208.05 362.143 234.602C362.048 236.835 362 239.115 361.905 241.3ZM341.67 157.938C330.745 148.39 316.733 144.97 299.918 147.867C256.93 155.278 256.645 210.52 258.498 233.938C258.545 234.603 258.593 235.268 258.688 235.933C259.258 241.965 260.16 247.38 261.395 252.225C270.183 286.9 294.74 293.313 318.443 294.595C319.82 294.69 321.15 294.69 322.433 294.69C334.64 294.69 344.045 291.508 351.17 285.048C357.345 279.443 361.62 271.368 364.09 260.68C365.373 255.028 366.18 248.615 366.465 241.443C366.513 239.78 366.608 237.643 366.608 235.125C366.655 216.553 363.9 177.508 341.67 157.938Z" fill="#201000"/>
<path d="M314.784 229.33C314.309 229.33 313.882 229.188 313.454 228.903C300.629 219.782 301.199 204.487 306.472 181.165C306.757 179.93 307.992 179.17 309.179 179.455C310.414 179.74 311.174 180.975 310.889 182.162C305.189 207.148 306.567 218.405 316.067 225.15C317.112 225.863 317.349 227.288 316.589 228.333C316.209 228.998 315.497 229.33 314.784 229.33Z" fill="#201000"/>
<path d="M305.286 237.833C301.961 236.408 298.541 236.835 295.738 239.115C294.788 239.875 294.931 241.538 295.738 242.345C296.688 243.295 298.018 243.105 298.968 242.345C300.013 241.49 301.723 241.205 303.006 241.775C304.146 242.25 305.476 242.107 306.141 240.968C306.663 239.97 306.426 238.308 305.286 237.833Z" fill="#201000"/>
<path d="M295.927 222.537C295.072 220.97 293.599 219.878 291.794 219.688C288.707 219.308 286.142 221.493 283.577 222.775C276.689 226.195 269.042 222.015 264.862 216.315C255.789 203.917 262.534 186.722 259.779 172.71C258.782 167.58 256.644 162.735 252.892 159.125C253.177 156.893 252.179 154.375 250.469 152.808C245.909 148.58 238.689 152 234.272 154.708C222.397 161.975 213.609 173.233 206.817 185.155C198.742 199.358 193.232 214.89 185.917 229.472C178.507 244.197 168.864 257.592 158.604 270.465C156.087 273.647 153.522 276.783 150.957 279.87C148.534 282.815 146.254 286.093 143.404 288.61C140.602 291.128 136.659 292.22 134.047 288.99C132.527 287.137 131.767 284.668 130.864 282.435C129.392 278.73 127.302 274.36 122.694 274.217C116.424 274.027 112.054 281.01 108.824 285.38C99.1818 298.3 90.3943 311.838 82.5093 325.898C74.7193 339.768 67.4518 354.16 62.1318 369.17C57.0493 383.42 53.8668 399.047 56.7168 414.105C58.9493 426.075 65.1718 437.76 74.6243 445.55C84.7418 453.862 99.6093 451.44 112.197 448.067C126.494 444.22 137.942 434.292 147.537 423.367C168.532 399.427 184.064 377.007 200.547 349.79C208.954 335.872 217.077 321.812 225.152 307.752C233.132 293.882 240.732 279.585 249.424 266.142C253.462 259.92 258.259 254.98 264.862 251.608C270.182 248.9 275.882 247.047 281.297 244.577C286.142 242.345 290.844 239.542 294.074 235.267C296.687 231.752 298.207 226.623 295.927 222.537Z" fill="white"/>
<path d="M176.657 250.8C182.879 241.965 187.154 233.463 191.097 223.393C193.614 216.933 194.137 209.475 196.987 203.348C197.177 202.92 197.414 202.445 197.652 202.018C184.732 200.735 175.659 195.035 154.094 212.515C138.087 233.51 124.407 256.167 111.297 279.062C120.132 282.103 129.347 289.893 139.179 298.015C151.529 284.098 165.874 266.048 176.657 250.8Z" fill="#201000"/>
<path d="M272.938 156.988C280.537 157.748 298.017 162.308 292.697 177.507C287.377 192.707 272.938 156.988 272.938 156.988Z" fill="white"/>
<path d="M289.23 183.588C282.01 183.588 273.983 165.633 270.848 157.89C270.563 157.13 270.658 156.323 271.133 155.658C271.608 155.04 272.368 154.708 273.175 154.755C275.74 154.993 288.66 156.703 293.885 164.873C296.308 168.72 296.64 173.233 294.883 178.315C293.363 182.638 291.035 183.588 289.325 183.588C289.278 183.588 289.23 183.588 289.23 183.588ZM276.643 159.885C281.298 170.43 286.855 179.028 289.183 179.028C289.325 179.028 289.895 178.743 290.56 176.795C291.89 173.043 291.7 169.955 290.038 167.343C287.52 163.353 281.868 160.978 276.643 159.885Z" fill="#201000"/>
<path d="M244.582 169.29L276.74 163.067C276.74 155.468 275.979 149.388 260.78 152.428L248.43 150.338C248.145 156.845 246.197 163.02 244.582 169.29Z" fill="white"/>
<path d="M263.818 172.188C263.485 172.188 263.105 172.093 262.773 171.95C262.108 171.618 261.633 171 261.538 170.24L259.258 155.04C259.21 154.755 259.21 154.47 259.305 154.185C258.925 153.852 258.64 153.425 258.545 152.902C258.308 151.667 259.115 150.48 260.35 150.195C267.713 148.723 272.51 149.15 275.503 151.62C278.78 154.28 279.018 158.555 279.018 163.068C279.018 163.923 278.543 164.683 277.783 165.063L264.863 171.903C264.53 172.093 264.198 172.188 263.818 172.188ZM263.77 154.233C263.77 154.28 263.77 154.328 263.818 154.375L265.623 166.393L274.458 161.69C274.41 158.84 274.078 156.37 272.605 155.135C271.085 153.9 268.14 153.615 263.77 154.233Z" fill="#201000"/>
<path d="M99.8481 452.865C81.7981 452.865 66.5506 445.217 58.5707 431.965C48.8332 415.815 44.7957 384.085 80.9432 324.615C88.0681 312.882 94.5756 302.1 100.561 292.125C147.206 214.462 162.928 188.338 197.603 198.93C198.791 199.31 199.503 200.593 199.123 201.78C198.743 202.968 197.461 203.68 196.273 203.3C165.018 193.705 149.771 219.117 104.456 294.5C98.4706 304.475 91.9632 315.305 84.8382 326.99C49.8307 384.512 53.3457 414.532 62.4657 429.637C70.1607 442.415 85.5506 449.35 103.648 448.21C114.811 447.498 135.521 434.577 156.706 407.265C183.543 372.637 205.441 337.488 218.503 316.493C222.826 309.558 226.246 304.047 228.811 300.2C234.273 292.03 238.738 283.005 242.728 275.025C248.951 262.532 253.416 253.508 259.211 251.418C267.856 248.283 287.331 238.64 292.176 228.95C293.648 226.053 293.601 224.295 292.983 223.868C291.748 223.06 287.901 223.963 285.288 226.908C284.481 227.858 283.008 227.953 282.058 227.145C281.108 226.338 281.013 224.865 281.821 223.915C285.716 219.498 291.938 217.74 295.453 220.068C296.831 221.018 299.728 223.963 296.213 230.993C290.323 242.773 268.093 253.033 260.731 255.693C256.693 257.165 251.896 266.808 246.766 277.02C242.728 285.095 238.168 294.263 232.563 302.718C229.998 306.518 226.626 311.98 222.303 318.915C209.193 340.005 187.248 375.25 160.221 410.068C140.841 435.053 118.706 451.82 103.838 452.77C102.556 452.818 101.178 452.865 99.8481 452.865Z" fill="#201000"/>
<path d="M257.739 234.555C278.096 234.555 294.599 218.052 294.599 197.695C294.599 177.338 278.096 160.835 257.739 160.835C237.382 160.835 220.879 177.338 220.879 197.695C220.879 218.052 237.382 234.555 257.739 234.555Z" fill="white"/>
<path d="M257.737 158.508C252.844 158.508 248.142 159.41 243.819 161.072C238.119 163.257 233.037 166.725 228.952 171.142C226.719 176.225 225.532 181.497 224.867 186.865C229.427 173.09 242.442 163.115 257.737 163.115C276.832 163.115 292.317 178.648 292.317 197.695C292.317 216.743 276.784 232.275 257.737 232.275C243.059 232.275 230.472 223.06 225.437 210.092C224.867 208.572 224.344 207.005 224.012 205.342C223.964 209.237 223.917 213.132 223.727 216.98C224.249 217.93 224.819 218.833 225.437 219.688C232.514 229.995 244.342 236.788 257.737 236.788C279.349 236.788 296.877 219.212 296.877 197.647C296.877 176.082 279.349 158.508 257.737 158.508Z" fill="#201000"/>
<path d="M257.739 225.055C272.849 225.055 285.099 212.806 285.099 197.695C285.099 182.585 272.849 170.335 257.739 170.335C242.628 170.335 230.379 182.585 230.379 197.695C230.379 212.806 242.628 225.055 257.739 225.055Z" fill="white"/>
<path d="M257.738 227.335C241.398 227.335 228.098 214.035 228.098 197.695C228.098 181.355 241.398 168.055 257.738 168.055C274.078 168.055 287.378 181.355 287.378 197.695C287.378 214.035 274.078 227.335 257.738 227.335ZM257.738 172.568C243.915 172.568 232.658 183.825 232.658 197.648C232.658 211.47 243.915 222.727 257.738 222.727C271.56 222.727 282.818 211.47 282.818 197.648C282.818 183.825 271.56 172.568 257.738 172.568Z" fill="#201000"/>
<path d="M294.217 194.275C293.552 194.275 292.935 193.99 292.46 193.468C291.652 192.518 291.747 191.045 292.745 190.238L307.565 177.698C308.42 176.985 309.702 176.985 310.557 177.745L324.807 190.285C325.757 191.14 325.852 192.565 324.997 193.515C324.19 194.465 322.717 194.56 321.767 193.705L308.99 182.448L295.69 193.705C295.262 194.085 294.74 194.275 294.217 194.275Z" fill="#201000"/>
<path d="M250.897 204.535C250.327 204.535 249.71 204.298 249.282 203.87C248.38 202.968 248.38 201.542 249.282 200.64L265.242 184.68C266.145 183.778 267.57 183.778 268.472 184.68C269.375 185.583 269.375 187.008 268.472 187.91L252.512 203.87C252.085 204.298 251.467 204.535 250.897 204.535Z" fill="#8DE099"/>
<path d="M105.69 351.643C105.262 351.643 104.835 351.548 104.455 351.262C103.41 350.598 103.077 349.173 103.742 348.128C104.122 347.558 140.555 290.7 163.117 260.538C176.037 243.295 185.347 223.963 193.565 206.863C199.692 194.133 205.487 182.068 211.757 173.138C222.445 157.985 235.887 148.248 244.532 149.53C247.572 149.958 249.805 151.81 250.755 154.708C251.895 158.175 248.332 160.693 243.392 164.113C237.74 168.008 230.045 173.375 228.002 181.118C226.577 186.485 226.957 194.18 227.385 202.302C228.05 215.175 228.762 229.757 222.397 239.59C221.732 240.635 220.307 240.968 219.262 240.255C218.217 239.59 217.885 238.165 218.597 237.12C224.155 228.523 223.49 214.747 222.872 202.54C222.445 194.037 222.017 186.01 223.632 179.977C226.102 170.62 234.605 164.73 240.827 160.408C242.965 158.935 245.862 156.94 246.385 155.943C245.957 154.85 245.197 154.232 243.915 154.09C238.072 153.235 225.865 161.12 215.51 175.797C209.43 184.443 203.73 196.27 197.697 208.858C189.385 226.148 179.98 245.718 166.822 263.293C144.307 293.265 107.97 350.028 107.637 350.598C107.162 351.263 106.45 351.643 105.69 351.643Z" fill="#201000"/>
<path d="M261.538 162.307C260.255 162.307 259.258 161.31 259.258 160.027C259.258 156.845 258.973 154.517 257.595 153.377C255.838 151.905 251.658 151.857 245.245 153.14C244.01 153.377 242.823 152.57 242.538 151.335C242.3 150.1 243.108 148.912 244.343 148.628C252.513 147.013 257.5 147.345 260.493 149.815C263.533 152.332 263.818 156.37 263.818 159.98C263.818 161.31 262.82 162.307 261.538 162.307Z" fill="#201000"/>
<path d="M140.982 296.685C135.044 288.325 122.267 281.343 112.292 276.878C111.437 278.16 110.582 279.442 109.727 280.725C119.274 284.952 131.767 291.65 137.277 299.345C137.704 299.963 138.417 300.295 139.129 300.295C139.604 300.295 140.032 300.153 140.459 299.868C141.504 299.155 141.742 297.73 140.982 296.685Z" fill="#201000"/>
<path d="M554.565 368.41C549.435 353.4 542.453 339.007 534.995 325.137C527.443 311.077 518.988 297.54 509.725 284.62C506.59 280.25 501.223 263.625 495.19 263.815C490.773 263.957 471.583 282.008 469.255 279.11C468.353 277.97 467.498 276.877 466.595 275.737C465.645 277.162 464.695 278.587 463.745 279.965C462.13 277.732 460.753 275.785 460.468 275.405C450.635 262.58 441.373 249.185 434.248 234.46C427.17 219.877 421.945 204.392 414.155 190.142C407.648 178.22 399.193 166.915 387.793 159.695C383.565 157.035 369.98 151.24 364.375 153.567C361.05 154.945 360.623 160.882 369.98 164.112C366.37 167.722 364.375 172.567 363.378 177.697C360.718 191.71 367.225 208.905 358.533 221.302C354.543 227.002 347.228 231.182 340.578 227.762C338.06 226.48 335.638 224.295 332.693 224.675C330.983 224.912 329.558 226.005 328.75 227.572C326.565 231.657 328.038 236.787 330.555 240.302C333.69 244.625 338.203 247.427 342.81 249.612C348.035 252.082 353.498 253.935 358.58 256.642C364.945 260.015 369.553 264.955 373.4 271.177C381.76 284.62 389.028 298.917 396.723 312.787C402.328 322.905 407.933 333.07 413.633 343.14C413.68 343.092 420.568 352.83 420.615 352.782C421.28 352.022 421.898 351.215 422.563 350.455C438.048 377.055 452.82 399.095 472.675 422.655C481.843 433.58 492.863 443.507 506.59 447.355C518.655 450.727 532.953 453.15 542.643 444.837C551.715 437 561.453 426.835 563.59 414.865C566.298 399.76 559.41 382.66 554.565 368.41Z" fill="white"/>
<path d="M499.227 265.905C497.422 262.438 495.332 259.113 493.907 256.453C489.442 248.188 484.645 240.018 479.467 232.18C465.787 211.47 444.935 194.845 420.805 200.877C423.75 205.912 426.22 211.327 428.547 216.79C435.435 232.893 443.13 247.38 452.392 262.248C457.475 270.418 462.747 278.493 468.067 286.568C475.382 276.498 487.637 270.56 499.227 265.905Z" fill="#201000"/>
<path d="M345.186 156.988C337.586 157.748 311.936 171.712 323.621 182.827C329.606 188.575 345.186 156.988 345.186 156.988Z" fill="white"/>
<path d="M325.282 185.82C324.047 185.82 322.955 185.345 322.005 184.49C317.635 180.357 317.92 176.035 318.917 173.138C322.29 163.258 339.057 155.278 344.947 154.708C345.802 154.66 346.562 154.993 347.037 155.658C347.512 156.323 347.56 157.225 347.227 157.985C344.187 164.16 333.642 184.395 326.185 185.725C325.852 185.773 325.567 185.82 325.282 185.82ZM340.767 160.598C334.402 163.115 325.282 168.815 323.24 174.658C322.432 177.08 323.002 179.17 325.187 181.213C327.277 181.688 334.117 172.995 340.767 160.598Z" fill="#201000"/>
<path d="M337.441 167.58L350.029 171.047L352.309 155.847L353.069 153.568C337.869 150.528 337.441 159.98 337.441 167.58Z" fill="white"/>
<path d="M350.032 173.328C349.842 173.328 349.604 173.28 349.414 173.233L336.827 169.765C335.829 169.48 335.164 168.578 335.164 167.58C335.164 163.305 335.164 156.845 339.582 153.235C342.669 150.717 347.229 150.052 353.547 151.335C354.212 151.477 354.734 151.857 355.067 152.427C355.399 152.997 355.447 153.662 355.257 154.28L354.544 156.37L352.312 171.38C352.217 172.045 351.837 172.615 351.314 172.948C350.887 173.233 350.459 173.328 350.032 173.328ZM339.724 165.87L348.132 168.198L350.032 155.515C350.032 155.467 350.032 155.42 350.032 155.42C346.564 155.04 343.999 155.467 342.384 156.797C340.247 158.555 339.819 162.023 339.724 165.87Z" fill="#201000"/>
<path d="M518.274 452.865C516.944 452.865 515.566 452.818 514.189 452.723C499.321 451.773 477.186 435.053 457.806 410.02C430.826 375.203 408.834 339.958 395.724 318.868C391.401 311.933 388.029 306.47 385.464 302.67C380.144 294.69 375.536 285.95 371.499 278.255C365.799 267.425 360.431 257.213 356.204 255.693C347.416 252.51 327.514 242.298 321.861 230.993C318.109 223.535 321.196 220.4 322.716 219.403C326.184 217.075 331.836 218.548 335.541 222.775C336.349 223.725 336.254 225.15 335.304 226.005C334.354 226.813 332.929 226.718 332.074 225.768C329.651 223.013 326.421 222.395 325.234 223.155C324.236 223.82 324.521 226.1 325.946 228.95C330.934 238.878 349.886 248.52 357.771 251.418C363.661 253.555 368.934 263.53 375.584 276.165C379.574 283.765 384.134 292.41 389.311 300.2C391.876 304.095 395.296 309.558 399.619 316.493C412.681 337.488 434.579 372.637 461.416 407.265C482.601 434.577 503.359 447.498 514.474 448.21C532.571 449.35 547.961 442.415 555.656 429.637C564.776 414.58 568.291 384.512 533.284 326.99C526.159 315.257 519.651 304.427 513.666 294.5C468.399 219.117 453.104 193.753 421.849 203.3C420.661 203.68 419.379 203.015 418.999 201.78C418.619 200.593 419.284 199.31 420.519 198.93C455.194 188.338 470.916 214.462 517.561 292.125C523.546 302.1 530.054 312.882 537.179 324.615C573.374 384.085 569.336 415.815 559.551 431.965C551.571 445.217 536.324 452.865 518.274 452.865Z" fill="#201000"/>
<path d="M364.659 150.575C350.267 147.915 348.414 153.425 348.414 160.882L360.147 168.53C361.049 162.45 362.807 156.465 364.659 150.575Z" fill="white"/>
<path d="M362.144 168.435C361.622 161.88 362.714 154.565 365.422 148.39C357.917 146.965 352.977 147.488 349.842 150.052C346.564 152.76 346.137 157.035 346.137 160.93C346.137 161.69 346.517 162.402 347.182 162.83L360.102 171.285C360.482 171.522 360.909 171.665 361.337 171.665C361.622 171.665 361.907 171.617 362.192 171.475C362.239 170.762 362.334 170.097 362.429 169.385C362.287 169.1 362.144 168.815 362.144 168.435ZM359.817 165.633L350.697 159.647C350.792 156.417 351.409 154.613 352.739 153.52C354.497 152.095 357.869 151.763 362.762 152.523L359.817 165.633Z" fill="#201000"/>
<path d="M360.383 234.555C380.741 234.555 397.243 218.052 397.243 197.695C397.243 177.338 380.741 160.835 360.383 160.835C340.026 160.835 323.523 177.338 323.523 197.695C323.523 218.052 340.026 234.555 360.383 234.555Z" fill="white"/>
<path d="M393.399 207.908C393.304 208.193 393.209 208.525 393.114 208.81C388.459 222.442 375.539 232.275 360.339 232.275C341.244 232.275 325.759 216.743 325.759 197.695C325.759 192.375 326.994 187.292 329.132 182.78C334.689 171.142 346.612 163.115 360.339 163.115C366.039 163.115 371.407 164.492 376.157 166.962C384.612 171.332 391.072 179.122 393.684 188.527C393.732 188.717 393.779 188.86 393.827 189.05C393.494 182.448 392.164 176.082 388.412 170.43C385.562 167.532 382.284 165.015 378.674 163.115C374.162 160.74 369.127 159.172 363.759 158.697C362.619 158.602 361.479 158.555 360.339 158.555C344.142 158.555 330.224 168.435 324.287 182.447C322.292 187.15 321.199 192.28 321.199 197.695C321.199 219.308 338.774 236.835 360.339 236.835C373.924 236.835 385.894 229.9 392.924 219.355C393.162 219.022 393.352 218.69 393.589 218.31C393.304 214.937 393.304 211.47 393.399 207.908Z" fill="#201000"/>
<path d="M360.383 225.055C375.494 225.055 387.743 212.806 387.743 197.695C387.743 182.585 375.494 170.335 360.383 170.335C345.273 170.335 333.023 182.585 333.023 197.695C333.023 212.806 345.273 225.055 360.383 225.055Z" fill="white"/>
<path d="M360.386 227.335C344.046 227.335 330.746 214.035 330.746 197.695C330.746 181.355 344.046 168.055 360.386 168.055C376.726 168.055 390.026 181.355 390.026 197.695C390.026 214.035 376.726 227.335 360.386 227.335ZM360.386 172.568C346.564 172.568 335.306 183.825 335.306 197.648C335.306 211.47 346.564 222.727 360.386 222.727C374.209 222.727 385.466 211.47 385.466 197.648C385.466 183.825 374.209 172.568 360.386 172.568Z" fill="#201000"/>
<path d="M512.433 351.642C511.673 351.642 510.961 351.262 510.533 350.597C510.153 350.027 473.816 293.312 451.348 263.292C438.143 245.717 428.738 226.147 420.473 208.858C414.441 196.27 408.741 184.442 402.661 175.797C391.783 160.36 374.493 152.617 367.321 154.09C365.231 154.517 364.993 155.563 364.898 155.943C364.661 157.082 366.751 157.985 371.216 159.6C378.578 162.26 389.693 166.25 394.491 179.788C396.723 186.153 396.248 194.892 395.678 204.155C394.966 216.315 394.253 228.902 399.573 237.072C400.238 238.117 399.953 239.542 398.908 240.207C397.863 240.872 396.438 240.587 395.773 239.542C389.646 230.137 390.406 216.79 391.166 203.87C391.688 195.083 392.163 186.817 390.216 181.26C386.178 169.765 376.678 166.345 369.743 163.827C364.661 162.022 359.388 160.123 360.528 154.945C361.146 152.143 363.236 150.195 366.466 149.577C376.156 147.582 394.918 156.798 406.413 173.138C412.683 182.068 418.478 194.085 424.606 206.862C432.823 223.962 442.133 243.295 455.053 260.537C477.663 290.652 514.096 347.557 514.428 348.127C515.093 349.172 514.808 350.597 513.716 351.262C513.288 351.5 512.861 351.642 512.433 351.642Z" fill="#201000"/>
<path d="M501.791 266.38C492.624 261.107 474.241 274.17 467.496 280.155C468.446 281.39 469.301 282.625 470.156 283.908C476.901 277.685 493.669 266.998 499.559 270.323C500.651 270.94 502.029 270.56 502.694 269.468C503.264 268.423 502.884 267.045 501.791 266.38Z" fill="#201000"/>
<path d="M348.983 204.535C348.413 204.535 347.796 204.298 347.368 203.87C346.466 202.968 346.466 201.542 347.368 200.64L363.328 184.68C364.231 183.778 365.656 183.778 366.558 184.68C367.461 185.583 367.461 187.008 366.558 187.91L350.598 203.87C350.123 204.298 349.553 204.535 348.983 204.535Z" fill="#8DE099"/>
</svg>
