<svg width="131" height="268" viewBox="0 0 131 268" fill="none" xmlns="http://www.w3.org/2000/svg">
<path d="M6.06562 27.0397C4.72208 25.3679 3.37853 23.6961 2.03499 22.0243C1.57914 21.4554 0.775419 22.2565 1.21927 22.8137L5.2619 27.8291C5.70575 28.3864 6.52147 27.5969 6.06562 27.0397Z" fill="#6E1EE6"/>
<path d="M2.49174 32.9143C1.98791 32.4151 1.48409 31.9159 0.980258 31.4051C0.464433 30.8943 -0.351288 31.6837 0.164537 32.1945C0.668365 32.6938 1.17219 33.193 1.67602 33.7038C2.19184 34.2146 3.00756 33.4252 2.49174 32.9143Z" fill="#6E1EE6"/>
<path d="M15.7062 0C12.7432 0 10.332 2.33356 10.332 5.20115C10.332 8.06875 12.7432 10.4023 15.7062 10.4023C18.6692 10.4023 21.0804 8.06875 21.0804 5.20115C21.0804 2.33356 18.6692 0 15.7062 0ZM15.7062 9.28776C13.379 9.28776 11.4836 7.45343 11.4836 5.20115C11.4836 2.94887 13.379 1.11454 15.7062 1.11454C18.0334 1.11454 19.9288 2.94887 19.9288 5.20115C19.9288 7.45343 18.0334 9.28776 15.7062 9.28776Z" fill="#6E1EE6"/>
<path d="M76.0565 267.321L79.4858 262.742C79.8244 262.294 78.8419 261.922 78.5127 262.365C77.3665 263.893 76.2296 265.417 75.0834 266.945C74.7417 267.404 75.7242 267.776 76.0565 267.321Z" fill="#EFAB03"/>
<path d="M130.387 241.768C129.416 240.559 128.444 239.35 127.473 238.141C127.143 237.73 126.562 238.309 126.883 238.712L129.806 242.339C130.127 242.742 130.717 242.171 130.387 241.768Z" fill="#E18F78"/>
<path d="M127.802 246.016C127.437 245.655 127.073 245.294 126.709 244.924C126.336 244.555 125.746 245.126 126.119 245.495C126.483 245.856 126.848 246.217 127.212 246.586C127.585 246.956 128.175 246.385 127.802 246.016Z" fill="#E18F78"/>
</svg>
