<svg width="160" height="138" viewBox="0 0 160 138" fill="none" xmlns="http://www.w3.org/2000/svg">
<path d="M72.0145 78.4248H27.7461V105.327H72.0145V78.4248Z" fill="#E18F78"/>
<path d="M56.3183 92.4412H37.2711C36.956 92.4412 36.7109 92.1961 36.7109 91.881C36.7109 91.5659 36.956 91.3208 37.2711 91.3208H56.3183C56.6335 91.3208 56.8786 91.5659 56.8786 91.881C56.8786 92.1961 56.6335 92.4412 56.3183 92.4412Z" fill="white"/>
<path d="M96.3906 39.4785L97.2309 80.3856C102.588 79.6504 107.7 80.3273 112.917 82.0663C118.799 84.027 120.62 88.1469 123.281 92.1501L149.622 92.9904V44.8472C149.622 41.8828 147.218 39.4785 144.254 39.4785H96.3906Z" fill="#F2C34B"/>
<path d="M140.939 50.4031H126.654C126.339 50.4031 126.094 50.1581 126.094 49.8429C126.094 49.5278 126.339 49.2827 126.654 49.2827H140.939C141.254 49.2827 141.5 49.5278 141.5 49.8429C141.5 50.1581 141.254 50.4031 140.939 50.4031Z" fill="white"/>
<path d="M140.939 62.5989H130.295C129.979 62.5989 129.734 62.3539 129.734 62.0387C129.734 61.7236 129.979 61.4785 130.295 61.4785H140.939C141.254 61.4785 141.499 61.7236 141.499 62.0387C141.499 62.3539 141.254 62.5989 140.939 62.5989Z" fill="white"/>
<path d="M140.94 74.7835H123.841C123.526 74.7835 123.281 74.5384 123.281 74.2233C123.281 73.9082 123.526 73.6631 123.841 73.6631H140.94C141.255 73.6631 141.5 73.9082 141.5 74.2233C141.5 74.5384 141.255 74.7835 140.94 74.7835Z" fill="white"/>
<path d="M149.622 93.0019H159.998L146.961 79.9653L149.622 93.0019Z" fill="#F2C34B"/>
<path d="M20.45 94.4029C22.461 94.4029 24.0913 92.7726 24.0913 90.7615C24.0913 88.7504 22.461 87.1201 20.45 87.1201C18.4389 87.1201 16.8086 88.7504 16.8086 90.7615C16.8086 92.7726 18.4389 94.4029 20.45 94.4029Z" fill="#ED967E"/>
<path d="M145.144 35.8371C146.845 35.8371 148.225 34.4577 148.225 32.756C148.225 31.0543 146.845 29.6748 145.144 29.6748C143.442 29.6748 142.062 31.0543 142.062 32.756C142.062 34.4577 143.442 35.8371 145.144 35.8371Z" fill="#E18F78"/>
<path d="M78.1279 6.13436L76.3773 8.65532C75.9571 9.26222 76.9725 9.82243 77.381 9.21553L79.12 6.69458C79.5401 6.09935 78.5364 5.53914 78.1279 6.13436Z" fill="#F2C34B"/>
<path d="M14.9647 85.4278C14.3811 84.4007 13.7975 83.3737 13.2257 82.3466C12.8639 81.7164 11.8601 82.2766 12.222 82.9068C12.8055 83.9339 13.3891 84.9609 13.9609 85.988C14.3227 86.6299 15.3265 86.0697 14.9647 85.4278Z" fill="#F2C34B"/>
<path d="M150.511 116.426C149.74 117.079 148.958 117.733 148.188 118.387C147.628 118.865 148.445 119.647 149.005 119.18C149.775 118.527 150.557 117.873 151.327 117.219C151.888 116.741 151.071 115.947 150.511 116.426Z" fill="#F2C34B"/>
<path d="M120.808 75.6238C120.189 74.1649 118.766 73.2662 117.785 72.0758C115.603 69.4265 116.198 66.1119 117.038 63.0774C118.077 59.331 119.139 55.7713 117.564 52.0016C115.451 46.948 108.647 44.6838 104.854 48.757C104.749 48.8154 104.667 48.9087 104.62 49.0138C104.364 49.3172 104.13 49.644 103.908 50.0175C103.535 50.636 104.504 51.1963 104.877 50.5777C105.005 50.3559 105.157 50.1459 105.309 49.9591C111.95 52.5968 108.133 61.2567 106.884 66.0885C106.009 69.4615 105.764 73.1379 107.923 76.079C109.896 78.7633 114.249 81.401 117.692 80.7124C120.073 80.2455 121.812 78.0047 120.808 75.6238Z" fill="#201000"/>
<path d="M86.9396 44.8122C83.3216 40.062 86.1227 33.6196 91.1646 35.8604C96.2065 38.1013 106.617 44.7071 107.014 51.4997C107.411 58.2806 108.251 66.1235 100.688 67.244C93.137 68.3644 86.9396 44.8122 86.9396 44.8122Z" fill="#201000"/>
<path d="M98.9246 80.222C98.9246 80.222 98.8313 76.8608 98.131 68.691C101.201 67.6056 103.546 62.7855 103.546 62.7855C108.95 63.6374 114.646 61.7117 114.132 56.0162C113.759 51.978 109.93 51.1144 107.036 51.4879C105.846 51.6396 104.807 52.0014 104.235 52.4332C104.235 52.4332 105.239 48.255 99.1231 44.847C93.8594 41.9059 89.8912 41.8242 86.9501 44.812C85.8764 45.8974 84.9427 47.403 84.1374 49.317C81.6865 55.1176 78.8037 61.0115 79.4573 64.1743C80.0992 67.3022 82.9003 68.9128 86.0398 69.8114L86.8684 80.9573C87.487 82.4162 93.591 87.96 98.9246 80.222Z" fill="white"/>
<path d="M92.6686 84.8089C92.4468 84.8089 92.2484 84.7972 92.05 84.7739C89.2023 84.4938 86.8214 82.2763 86.3545 81.1675C86.3312 81.1091 86.3195 81.0508 86.3078 80.9924L85.5025 70.2317C81.6394 69.0529 79.4803 67.1038 78.8967 64.2911C78.3015 61.3967 80.3673 56.6349 82.5498 51.5813C82.8999 50.7643 83.2617 49.9357 83.6118 49.107C84.4638 47.0879 85.4208 45.559 86.5413 44.4269C89.6224 41.2874 93.824 41.2641 99.3795 44.3686C103.955 46.9129 104.76 49.9007 104.842 51.4763C105.437 51.2312 106.172 51.0444 106.954 50.9394C108.051 50.7993 110.794 50.6476 112.79 52.2466C113.898 53.1336 114.54 54.394 114.68 55.9696C114.879 58.1288 114.237 59.9611 112.825 61.2917C110.875 63.124 107.538 63.8943 103.861 63.4041C103.254 64.5362 101.294 67.8975 98.7259 69.0646C99.3911 76.8609 99.4962 80.1871 99.4962 80.2221C99.4962 80.3388 99.4612 80.4556 99.4028 80.5606C97.0102 83.9802 94.5126 84.8089 92.6686 84.8089ZM87.4166 80.8057C87.7901 81.4943 89.6808 83.4083 92.1551 83.6651C94.4309 83.8869 96.5084 82.6847 98.3641 80.0588C98.3291 79.2534 98.1773 75.7638 97.5704 68.7378C97.5471 68.481 97.6988 68.2476 97.9439 68.1659C100.757 67.1739 103.021 62.5871 103.044 62.5405C103.149 62.3187 103.394 62.1903 103.639 62.237C107.094 62.7855 110.327 62.1086 112.066 60.4747C113.233 59.3776 113.747 57.907 113.571 56.0747C113.455 54.8142 112.953 53.8222 112.089 53.1219C110.934 52.1999 109.066 51.7914 107.094 52.0482C106.044 52.1882 105.063 52.5033 104.55 52.8885C104.363 53.0285 104.106 53.0402 103.908 52.9001C103.709 52.7718 103.616 52.5267 103.674 52.3049C103.709 52.1532 104.468 48.4768 98.8309 45.3373C93.7073 42.4779 90.0543 42.4312 87.3349 45.2089C86.3312 46.2243 85.4208 47.6832 84.6389 49.5389C84.2887 50.3675 83.9269 51.1962 83.5768 52.0248C81.5577 56.6932 79.4686 61.5251 79.9938 64.0694C80.4956 66.5203 82.5264 68.2243 86.1911 69.2747C86.4129 69.3447 86.5763 69.5431 86.5996 69.7765L87.4166 80.8057Z" fill="#201000"/>
<path d="M86.1913 58.2572C85.9579 58.2572 85.7478 58.1172 85.6661 57.8838C84.4873 54.5342 86.5881 51.7915 90.5913 48.2085C90.8247 47.9984 91.1748 48.0217 91.3849 48.2551C91.595 48.4886 91.5717 48.8387 91.3382 49.0488C87.0783 52.8652 85.8762 55.0827 86.7282 57.522C86.8332 57.8137 86.6815 58.1289 86.3897 58.2339C86.3197 58.2456 86.2496 58.2572 86.1913 58.2572Z" fill="#201000"/>
<path d="M96.7128 51.6358C96.7536 51.2512 96.475 50.9063 96.0905 50.8654C95.7059 50.8245 95.361 51.1032 95.3201 51.4877C95.2792 51.8723 95.5578 52.2172 95.9424 52.2581C96.327 52.299 96.6719 52.0204 96.7128 51.6358Z" fill="#201000"/>
<path d="M87.6933 48.8428C87.7342 48.4582 87.4555 48.1133 87.0709 48.0724C86.6864 48.0316 86.3415 48.3102 86.3006 48.6948C86.2597 49.0793 86.5383 49.4243 86.9229 49.4651C87.3075 49.506 87.6524 49.2274 87.6933 48.8428Z" fill="#201000"/>
<path d="M90.8837 62.9028C92.2376 63.4163 93.6615 62.6227 93.8715 61.1755C93.9766 60.4635 95.097 60.5802 94.9803 61.2922C94.6535 63.4513 92.5177 64.7235 90.4636 63.9415C89.7983 63.6848 90.2068 62.646 90.8837 62.9028Z" fill="#201000"/>
<path d="M96.1945 47.8233C96.3813 47.5666 96.7197 47.5432 96.9765 47.7066C97.2449 47.87 97.5017 48.0451 97.7701 48.2085C98.0269 48.3719 98.0619 48.757 97.8868 48.9905C97.7001 49.2472 97.3616 49.2706 97.1049 49.1072C96.8364 48.9438 96.5797 48.7687 96.3112 48.6053C96.0545 48.4419 96.0195 48.0451 96.1945 47.8233Z" fill="#201000"/>
<path d="M88.5616 44.7068L89.2619 44.7768C89.9738 44.8585 89.8571 45.9673 89.1452 45.8856L88.4449 45.8156C87.7213 45.7455 87.838 44.6368 88.5616 44.7068Z" fill="#201000"/>
<path d="M104.469 58.6538C104.364 58.6538 104.259 58.6305 104.166 58.5605C103.909 58.3971 103.827 58.0469 103.991 57.7902C104.796 56.5414 107.784 54.604 110.083 55.3159C110.375 55.4093 110.538 55.7244 110.445 56.0162C110.351 56.308 110.036 56.4714 109.745 56.378C107.971 55.8294 105.473 57.5451 104.936 58.3854C104.831 58.5605 104.656 58.6538 104.469 58.6538Z" fill="#201000"/>
<path d="M105.12 49.3168C104.502 47.7995 103.346 46.6207 101.911 45.8505C101.864 45.8271 101.829 45.8271 101.782 45.8154C101.794 45.6754 101.806 45.5353 101.818 45.3953C101.899 44.6833 100.779 44.6833 100.697 45.3953C100.475 47.2627 100.79 49.1534 101.701 50.8107C102.249 51.8144 103.393 53.3083 104.7 52.5497C105.844 51.8844 105.529 50.3088 105.12 49.3168Z" fill="#201000"/>
<path d="M72.8522 119.344C72.5604 119.344 72.3153 119.11 72.292 118.819L71.1832 99.9697C68.8957 97.4955 44.4798 70.9204 39.8697 63.3226L38.1074 60.4048C33.8241 53.3671 28.4904 44.6021 18.1499 26.8738C17.9981 26.6053 18.0798 26.2669 18.3483 26.1035C18.6167 25.9518 18.9552 26.0335 19.1186 26.3019C29.4591 44.0303 34.7812 52.7836 39.0644 59.8212L40.8268 62.7273C45.5069 70.4302 71.8718 99.0594 72.1403 99.3395C72.2336 99.4329 72.2803 99.5612 72.292 99.6896L73.4124 118.749C73.4358 119.052 73.1907 119.32 72.8872 119.344C72.8755 119.344 72.8639 119.344 72.8522 119.344Z" fill="#201000"/>
<path d="M58.2855 84.7862C58.0871 84.7862 57.9004 84.6812 57.7953 84.4945C57.6436 84.226 57.737 83.8876 58.0054 83.7358C64.5762 80.0478 67.5173 74.1189 67.2489 71.9597C67.2139 71.6563 67.424 71.3762 67.7391 71.3295C68.0542 71.2945 68.3226 71.5046 68.3693 71.8197C68.6611 74.1539 66.0118 80.538 58.5656 84.7045C58.4722 84.7629 58.3789 84.7862 58.2855 84.7862Z" fill="#201000"/>
<path d="M20.6819 22.9409C20.5886 22.9409 20.5069 22.9409 20.4135 22.9292C18.2077 22.7425 15.465 20.0465 14.8581 16.0316C14.8114 15.7282 15.0215 15.4364 15.3249 15.3897C15.64 15.3547 15.9201 15.5531 15.9668 15.8566C16.4687 19.2295 18.7212 21.6571 20.5069 21.8088C21.6506 21.9139 22.1875 21.0152 22.4443 20.2449C22.5376 19.9531 22.8528 19.7897 23.1562 19.8948C23.448 19.9881 23.6114 20.3149 23.5063 20.6067C23.0045 22.1006 21.9891 22.9409 20.6819 22.9409Z" fill="#201000"/>
<path d="M19.7598 24.9485C18.2659 24.9485 16.5853 24.0615 15.4998 22.6493C14.2744 21.0504 14.0526 19.078 14.8929 17.2573C15.0213 16.9772 15.3481 16.8488 15.6399 16.9772C15.92 17.1056 16.0484 17.444 15.92 17.7241C15.0213 19.6849 15.8383 21.2254 16.3985 21.9724C17.3672 23.2329 18.9545 24.0032 20.1566 23.8048C20.8685 23.6881 21.3471 23.2445 21.6038 22.4976C21.6972 22.2058 22.0123 22.0424 22.3158 22.1475C22.6075 22.2408 22.7709 22.5676 22.6659 22.8594C22.2924 23.9915 21.4638 24.7268 20.3433 24.9135C20.1566 24.9369 19.9582 24.9485 19.7598 24.9485Z" fill="#201000"/>
<path d="M18.5827 26.897C17.3689 26.897 16.0501 26.2084 15.1514 25.088C14.1594 23.8509 13.9143 22.3803 14.4745 21.0498C14.5912 20.7697 14.9296 20.6296 15.2097 20.7464C15.4899 20.8631 15.6299 21.1899 15.5132 21.4816C15.1164 22.4153 15.3031 23.4774 16.0267 24.3877C16.797 25.3564 17.9875 25.9166 18.9095 25.7416C19.5864 25.6249 20.0649 25.1347 20.345 24.306C20.4384 24.0142 20.7535 23.8509 21.0569 23.9559C21.3487 24.0493 21.5121 24.3761 21.4071 24.6678C20.9986 25.8816 20.1816 26.6636 19.1079 26.8503C18.9328 26.8853 18.7578 26.897 18.5827 26.897Z" fill="#201000"/>
<path d="M87.42 80.9929C87.3967 81.2847 87.1516 81.5064 86.8598 81.5064C86.8481 81.5064 86.8364 81.5064 86.8248 81.5064C86.0195 81.4481 85.2725 81.4014 84.5839 81.3547C76.2041 80.8062 75.3288 80.7478 64.5797 68.4232C56.1182 58.7245 43.7585 38.4752 37.1176 27.5861C34.7484 23.6996 33.0328 20.8985 32.3325 19.9065C30.1383 16.8253 24.5946 13.8725 22.202 13.9892C21.9919 14.0009 21.6301 14.0476 21.5134 14.246C21.1283 14.9229 22.8206 16.1017 24.3145 17.1404C25.785 18.1675 27.3023 19.2179 27.9675 20.42C28.1192 20.6884 28.0142 21.0269 27.7458 21.1786C27.4773 21.3304 27.1389 21.237 26.9871 20.9569C26.7887 20.5951 26.4619 20.2216 26.0535 19.8598C25.3882 19.2529 24.5245 18.646 23.6725 18.0625C21.6184 16.6269 19.681 15.2847 20.5214 13.7325C20.533 13.7208 20.533 13.6975 20.5447 13.6858C20.7431 13.3357 21.1866 12.9038 22.1553 12.8572C24.898 12.7171 30.7919 15.7866 33.2545 19.2412C33.9898 20.2683 35.7054 23.081 38.0863 26.9908C44.7155 37.8449 57.0402 58.0476 65.4433 67.6762C75.889 79.6507 76.5542 79.6858 84.6773 80.2226C85.3659 80.2693 86.1128 80.316 86.9181 80.3744C87.2099 80.4094 87.4433 80.6778 87.42 80.9929Z" fill="#201000"/>
<path d="M132.537 116.531C132.315 116.531 132.105 116.403 132.011 116.181C131.976 116.088 128.032 106.226 122.768 93.201C117.854 81.0397 109.346 80.923 100.348 80.7946L98.9122 80.7713C98.5971 80.7713 98.352 80.5145 98.3637 80.1994C98.3637 79.896 98.6204 79.6509 98.9239 79.6509H98.9356L100.371 79.6742C109.346 79.8026 118.613 79.931 123.818 92.7808C129.082 105.806 133.027 115.656 133.062 115.761C133.178 116.053 133.038 116.38 132.747 116.485C132.677 116.52 132.607 116.531 132.537 116.531Z" fill="#201000"/>
<path d="M118.243 119.064C118.01 119.064 117.8 118.924 117.718 118.691L113.995 108.35L114.602 118.469C114.625 118.772 114.38 119.041 114.077 119.064C113.773 119.076 113.505 118.842 113.481 118.539L112.641 104.533C112.629 104.253 112.816 104.008 113.085 103.95C113.353 103.892 113.633 104.043 113.727 104.312L118.768 118.317C118.874 118.609 118.722 118.924 118.43 119.029C118.372 119.052 118.313 119.064 118.243 119.064Z" fill="#201000"/>
<path d="M128.686 107.37C127.005 109.062 120.527 112.867 115.777 110.661C115.894 111.104 115.999 111.548 116.104 111.991C117.038 112.306 118.018 112.446 118.999 112.446C123.165 112.446 127.425 109.984 129.164 108.443C129.001 108.093 128.837 107.731 128.686 107.37Z" fill="#201000"/>
<path d="M86.4823 78.4258L84.0547 80.6666L89.8435 89.455L92.2828 83.4677L86.4823 78.4258Z" fill="white"/>
<path d="M89.845 90.0148C89.6583 90.0148 89.4832 89.9215 89.3782 89.7581L83.5893 80.9814C83.4376 80.748 83.4726 80.4446 83.6827 80.2578L86.1103 78.017C86.3204 77.8186 86.6472 77.8186 86.8572 78.0053L92.6461 83.0472C92.8211 83.1989 92.8912 83.4557 92.7978 83.6775L90.3702 89.653C90.2885 89.8514 90.1135 89.9798 89.9034 90.0032C89.8917 90.0148 89.8684 90.0148 89.845 90.0148ZM84.7915 80.7597L89.7283 88.2525L91.6074 83.6308L86.4954 79.1841L84.7915 80.7597Z" fill="#201000"/>
<path d="M92.2852 83.4674L95.4597 89.2679L101.622 80.2928L99.0077 77.8652L92.2852 83.4674Z" fill="white"/>
<path d="M95.4595 89.8279C95.4478 89.8279 95.4361 89.8279 95.4361 89.8279C95.2377 89.8163 95.0627 89.7112 94.9693 89.5362L91.7948 83.7473C91.6664 83.5139 91.7248 83.2221 91.9232 83.047L98.6457 77.4449C98.8674 77.2699 99.1826 77.2699 99.381 77.4683L101.995 79.8959C102.194 80.0826 102.229 80.3977 102.077 80.6195L95.9147 89.5829C95.8096 89.7346 95.6346 89.8279 95.4595 89.8279ZM92.9969 83.6073L95.5179 88.194L100.898 80.3744L98.9958 78.612L92.9969 83.6073Z" fill="#201000"/>
<path d="M91.7243 103.086C91.7126 103.086 91.7126 103.086 91.7126 103.086C91.4092 103.074 91.1641 102.818 91.1641 102.514L91.7243 83.4553C91.7359 83.1402 92.0161 82.9184 92.2962 82.9067C92.5996 82.9184 92.8447 83.1752 92.8447 83.4786L92.2845 102.537C92.2728 102.853 92.0161 103.086 91.7243 103.086Z" fill="#201000"/>
<path d="M26.0405 19.8824L25.3869 21.5514L0.5625 6.86914L20.5084 13.7551C19.6797 15.3073 21.6171 16.6495 23.6596 18.085C24.5116 18.6686 25.3752 19.2755 26.0405 19.8824Z" fill="#8646E6"/>
<path d="M37.268 0.567383L0.5625 6.86976L31.6776 17.3504L37.268 0.567383Z" fill="white"/>
<path d="M31.6759 17.9104C31.6176 17.9104 31.5592 17.8987 31.5009 17.8754L0.385773 7.38308C0.14068 7.30138 -0.0110426 7.06796 0.000628469 6.8112C0.0239706 6.55443 0.210708 6.34435 0.467472 6.29767L37.173 0.0186301C37.3714 -0.0163832 37.5698 0.053644 37.6982 0.205368C37.8266 0.357092 37.8616 0.555501 37.8033 0.742238L32.2011 17.5252C32.1545 17.6653 32.0494 17.782 31.921 17.852C31.8393 17.8987 31.7576 17.9104 31.6759 17.9104ZM2.8367 7.04462L31.3141 16.6499L36.4377 1.29078L2.8367 7.04462Z" fill="#8646E6"/>
<path d="M34.7448 8.3753H34.7331L0.548542 7.41827C0.245094 7.4066 0 7.14984 0 6.84639C0.0116711 6.54295 0.268434 6.32119 0.571882 6.29785L34.7565 7.25488C35.0599 7.26655 35.305 7.52331 35.305 7.82676C35.2933 8.14188 35.0482 8.3753 34.7448 8.3753Z" fill="#8646E6"/>
<path d="M104.117 105.957L137.578 107.007L138.138 102.525" fill="#8646E6"/>
<path d="M141.068 80.9102L104.117 105.956L143.274 101.988L141.068 80.9102Z" fill="white"/>
<path d="M104.116 106.517C103.883 106.517 103.673 106.377 103.591 106.143C103.498 105.898 103.591 105.63 103.801 105.49L140.74 80.4435C140.903 80.3384 141.113 80.3151 141.288 80.3968C141.464 80.4785 141.592 80.6536 141.604 80.8403L143.809 101.918C143.821 102.07 143.786 102.21 143.681 102.327C143.588 102.443 143.448 102.513 143.308 102.525L104.163 106.493C104.163 106.517 104.139 106.517 104.116 106.517ZM140.6 81.9024L106.275 105.174L142.654 101.486L140.6 81.9024Z" fill="#8646E6"/>
<path d="M104.115 106.517C103.893 106.517 103.683 106.389 103.601 106.179C103.485 105.898 103.613 105.56 103.905 105.443L141.684 89.5473C141.964 89.4305 142.303 89.5589 142.419 89.8507C142.536 90.1308 142.408 90.4693 142.116 90.586L104.337 106.482C104.267 106.505 104.197 106.517 104.115 106.517Z" fill="#8646E6"/>
<path d="M39.8799 10.8729C39.8099 10.8729 39.7282 10.8612 39.6581 10.8262C38.6077 10.3827 37.569 10.0209 36.5653 9.75243C36.2618 9.67073 36.0868 9.36729 36.1685 9.06384C36.2502 8.76039 36.5536 8.58532 36.8571 8.66702C37.9191 8.94713 39.0162 9.3206 40.1133 9.78745C40.3934 9.90416 40.5335 10.2426 40.4051 10.5227C40.3 10.7445 40.09 10.8729 39.8799 10.8729Z" fill="#8646E6"/>
<path d="M93.3569 137.376C92.1898 137.376 91.0344 137.341 89.9023 137.271C88.8519 137.212 87.7782 137.119 86.7161 137.002C86.4126 136.967 86.1909 136.687 86.2142 136.384C86.2492 136.08 86.5177 135.847 86.8328 135.882C87.8715 135.999 88.9336 136.08 89.9607 136.15C91.0694 136.209 92.2015 136.244 93.3453 136.244C93.6604 136.244 93.9055 136.5 93.9055 136.804C93.9171 137.119 93.6721 137.376 93.3569 137.376ZM99.9394 137.049C99.6593 137.049 99.4142 136.827 99.3792 136.547C99.3442 136.244 99.5776 135.964 99.8811 135.929C102.029 135.718 104.199 135.392 106.347 134.983C106.65 134.925 106.942 135.123 107 135.427C107.059 135.73 106.86 136.022 106.557 136.08C104.374 136.5 102.169 136.827 99.9861 137.049C99.9744 137.049 99.9511 137.049 99.9394 137.049ZM80.2853 135.975C80.2503 135.975 80.2036 135.975 80.1686 135.964C78.0095 135.508 75.8503 134.96 73.7378 134.306C73.4461 134.213 73.271 133.898 73.3644 133.606C73.4577 133.314 73.7729 133.139 74.0646 133.232C76.1421 133.863 78.2662 134.411 80.3904 134.855C80.6938 134.913 80.8922 135.217 80.8222 135.52C80.7755 135.788 80.5421 135.975 80.2853 135.975ZM112.859 134.54C112.614 134.54 112.392 134.376 112.322 134.131C112.241 133.839 112.404 133.524 112.708 133.431C114.82 132.812 116.897 132.089 118.882 131.295C119.173 131.178 119.5 131.318 119.617 131.599C119.734 131.89 119.594 132.217 119.313 132.334C117.306 133.151 115.194 133.874 113.034 134.505C112.964 134.528 112.918 134.54 112.859 134.54ZM67.7039 132.1C67.6339 132.1 67.5638 132.089 67.4938 132.054C65.3697 131.167 63.3506 130.186 61.5066 129.159C61.2381 129.008 61.1448 128.669 61.2965 128.401C61.4482 128.132 61.7867 128.039 62.0551 128.191C63.8641 129.206 65.8365 130.163 67.9256 131.027C68.2058 131.143 68.3458 131.47 68.2291 131.762C68.1241 131.972 67.9256 132.1 67.7039 132.1ZM125.044 129.579C124.846 129.579 124.659 129.474 124.554 129.288C124.402 129.019 124.507 128.681 124.775 128.529C126.76 127.444 128.604 126.277 130.261 125.039C130.506 124.853 130.856 124.899 131.043 125.156C131.23 125.401 131.183 125.751 130.926 125.938C129.222 127.21 127.331 128.412 125.301 129.521C125.231 129.556 125.137 129.579 125.044 129.579ZM56.3013 125.565C56.1729 125.565 56.0562 125.518 55.9511 125.436C55.3792 124.969 54.8424 124.503 54.3522 124.024C52.8933 124.199 51.341 124.117 49.7888 123.779C49.4853 123.709 49.2986 123.417 49.357 123.114C49.427 122.81 49.7188 122.623 50.0222 122.682C51.1426 122.927 52.2514 123.032 53.3251 122.985C52.5548 122.133 51.9129 121.281 51.4111 120.429C51.2477 120.161 51.341 119.822 51.6095 119.659C51.8779 119.496 52.2164 119.589 52.3798 119.857C52.9633 120.838 53.757 121.842 54.7373 122.834C55.2509 122.752 55.7527 122.623 56.2312 122.472C56.523 122.378 56.8381 122.542 56.9432 122.834C57.0365 123.125 56.8731 123.44 56.5814 123.546C56.3013 123.639 56.0211 123.721 55.7294 123.791C56.0211 124.059 56.3363 124.316 56.6514 124.584C56.8965 124.783 56.9315 125.133 56.7331 125.378C56.628 125.495 56.4646 125.565 56.3013 125.565ZM135.478 121.631C135.349 121.631 135.209 121.585 135.104 121.491C134.871 121.281 134.859 120.931 135.069 120.698C136.598 119.005 137.824 117.231 138.711 115.422C138.851 115.142 139.178 115.026 139.458 115.166C139.738 115.306 139.855 115.633 139.714 115.913C138.781 117.815 137.497 119.671 135.898 121.445C135.793 121.573 135.63 121.631 135.478 121.631ZM43.8949 121.188C43.7899 121.188 43.6848 121.153 43.5914 121.095C41.7824 119.904 40.0901 118.399 38.5612 116.636C38.3628 116.403 38.3861 116.053 38.6196 115.843C38.853 115.644 39.2031 115.668 39.4132 115.901C40.8721 117.593 42.4827 119.017 44.21 120.149C44.4668 120.324 44.5368 120.663 44.3734 120.931C44.2567 121.106 44.0816 121.188 43.8949 121.188ZM61.6933 119.811C61.5882 119.811 61.4715 119.776 61.3782 119.706C61.1214 119.531 61.0631 119.181 61.2381 118.924C61.8333 118.06 62.1485 117.15 62.1485 116.228C62.1485 115.271 61.81 114.302 61.1798 113.438C60.993 113.193 61.0514 112.843 61.2965 112.656C61.5416 112.47 61.8917 112.528 62.0784 112.773C62.8604 113.835 63.2689 115.026 63.2689 116.228C63.2689 117.383 62.8954 118.504 62.1601 119.554C62.0434 119.717 61.8684 119.811 61.6933 119.811ZM51.0493 114.43C50.9792 114.43 50.9209 114.419 50.8509 114.395C50.5591 114.29 50.419 113.964 50.5241 113.672C51.4928 111.104 53.4768 109.622 55.9745 109.622C56.2779 109.622 56.5347 109.867 56.5347 110.182C56.5347 110.486 56.2896 110.742 55.9745 110.742C53.9437 110.742 52.3798 111.921 51.5745 114.069C51.4928 114.29 51.271 114.43 51.0493 114.43ZM35.305 111.384C35.1066 111.384 34.9082 111.279 34.8031 111.081C33.7994 109.155 32.9591 107.054 32.3289 104.872C32.2472 104.568 32.4106 104.265 32.714 104.172C33.0174 104.09 33.3209 104.253 33.4143 104.557C34.0212 106.681 34.8265 108.7 35.8068 110.556C35.9469 110.824 35.8418 111.174 35.5734 111.314C35.4917 111.373 35.3983 111.384 35.305 111.384ZM31.6169 98.8261C31.3368 98.8261 31.0917 98.6161 31.0567 98.3243C30.8933 96.7954 30.8116 95.2198 30.8116 93.6442C30.8116 92.9906 30.8233 92.3254 30.8583 91.6718C30.87 91.3567 31.1617 91.1232 31.4419 91.1349C31.7453 91.1466 31.9904 91.4033 31.9787 91.7185C31.9554 92.3604 31.932 93.014 31.932 93.6442C31.932 95.1848 32.0137 96.7254 32.1771 98.2076C32.2121 98.511 31.9904 98.7911 31.6753 98.8261C31.6519 98.8261 31.6403 98.8261 31.6169 98.8261ZM32.1188 85.7079C32.0838 85.7079 32.0604 85.7079 32.0254 85.6962C31.722 85.6378 31.5119 85.3577 31.5702 85.0426L31.6636 84.4941C32.0371 82.44 32.3522 80.4442 32.609 78.5652C32.6556 78.2617 32.9357 78.0516 33.2392 78.0866C33.5426 78.1333 33.7644 78.4134 33.7177 78.7169C33.461 80.6076 33.1458 82.6267 32.7607 84.6925L32.6673 85.241C32.6323 85.5094 32.3872 85.7079 32.1188 85.7079ZM33.8111 72.6479C33.7994 72.6479 33.7877 72.6479 33.7761 72.6479C33.4726 72.6246 33.2275 72.3678 33.2509 72.0527C33.3209 70.8039 33.3559 69.6018 33.3559 68.4697C33.3559 67.4543 33.3326 66.4739 33.2742 65.5402C33.2509 65.2368 33.496 64.9684 33.7994 64.945C34.1029 64.945 34.3713 65.1668 34.3946 65.4702C34.453 66.4272 34.488 67.4426 34.488 68.4697C34.488 69.6251 34.453 70.8506 34.383 72.1227C34.3596 72.4145 34.1029 72.6479 33.8111 72.6479ZM27.322 61.4437C27.3103 61.4437 27.2986 61.4437 27.2869 61.4437C24.8477 61.3153 22.7586 60.6617 21.2297 59.553C21.0896 59.4479 20.9496 59.3429 20.8212 59.2379C20.5761 59.0394 20.5411 58.6893 20.7395 58.4442C20.9379 58.1991 21.288 58.1641 21.5331 58.3625C21.6498 58.4559 21.7665 58.5493 21.8949 58.6426C23.2371 59.623 25.1278 60.2066 27.3453 60.3233C27.6488 60.3349 27.8938 60.6034 27.8705 60.9185C27.8705 61.2103 27.6254 61.4437 27.322 61.4437ZM33.8461 60.6967C33.601 60.6967 33.3676 60.5333 33.3092 60.2766C33.2275 59.9731 33.4143 59.6697 33.706 59.588C35.7368 59.0511 37.7559 58.2575 39.705 57.2304C39.9851 57.0904 40.3119 57.1954 40.4636 57.4639C40.6037 57.7323 40.4986 58.0707 40.2302 58.2225C38.2111 59.2962 36.1103 60.1132 33.9861 60.6734C33.9395 60.6967 33.8928 60.6967 33.8461 60.6967ZM32.7957 59.5763C32.5506 59.5763 32.3289 59.4129 32.2588 59.1678C31.6053 56.892 30.6482 55.0013 29.4111 53.554C29.2127 53.3206 29.236 52.9588 29.4694 52.7604C29.7029 52.562 30.053 52.5853 30.2631 52.8188C31.6052 54.3944 32.644 56.4251 33.3326 58.8527C33.4143 59.1562 33.2392 59.4596 32.9474 59.5413C32.9007 59.5646 32.8541 59.5763 32.7957 59.5763ZM45.4005 54.5928C45.2371 54.5928 45.0853 54.5227 44.9803 54.3944C44.7819 54.1609 44.8052 53.8108 45.0387 53.6007C46.696 52.1768 48.1665 50.5896 49.4036 48.8623C49.5787 48.6055 49.9288 48.5588 50.1856 48.7339C50.4424 48.909 50.4891 49.2591 50.314 49.5158C49.0302 51.3132 47.5013 52.9705 45.7739 54.441C45.6572 54.5578 45.5288 54.5928 45.4005 54.5928ZM19.1522 53.5657C19.0939 53.5657 19.0238 53.554 18.9538 53.5307C18.662 53.4257 18.5103 53.0989 18.6153 52.8071C19.4673 50.4729 21.8482 48.9673 24.4159 49.2357C24.7193 49.2708 24.9411 49.5392 24.9177 49.8543C24.8827 50.1578 24.6143 50.3795 24.2992 50.3562C22.2917 50.1461 20.3427 51.3715 19.6774 53.2039C19.5957 53.4257 19.374 53.5657 19.1522 53.5657ZM52.9867 43.9954C52.9166 43.9954 52.8466 43.9838 52.7883 43.9604C52.4965 43.8437 52.3564 43.5286 52.4615 43.2368C53.0684 41.6495 53.5235 39.9806 53.8036 38.2766C53.8737 37.8448 53.932 37.4129 53.9904 36.9928C54.0254 36.6893 54.3055 36.4676 54.6206 36.5026C54.9241 36.5376 55.1458 36.8177 55.1108 37.1328C55.0524 37.5647 54.9941 38.0082 54.9124 38.4633C54.6206 40.2373 54.1538 41.988 53.5119 43.6453C53.4185 43.8554 53.2084 43.9954 52.9867 43.9954ZM54.714 31.0405C54.4222 31.0405 54.1771 30.8188 54.1538 30.527C53.967 28.3328 53.5002 26.2204 52.7766 24.2596C52.6715 23.9679 52.8233 23.6527 53.1034 23.536C53.3952 23.431 53.7103 23.5827 53.827 23.8628C54.5856 25.9169 55.0641 28.1228 55.2742 30.422C55.2975 30.7254 55.0758 31.0055 54.7607 31.0289C54.749 31.0405 54.7257 31.0405 54.714 31.0405ZM50.1623 18.8676C49.9872 18.8676 49.8238 18.7859 49.7188 18.6458C48.4583 16.9535 46.941 15.4246 45.2021 14.0824C44.957 13.8957 44.9103 13.5456 45.097 13.3005C45.2838 13.0554 45.6339 13.0087 45.879 13.1954C47.688 14.596 49.2869 16.1949 50.6058 17.9689C50.7925 18.214 50.7458 18.5641 50.4891 18.7509C50.3957 18.8326 50.279 18.8676 50.1623 18.8676Z" fill="#8646E6"/>
<path d="M141.009 109.809C140.997 109.809 140.974 109.809 140.962 109.809C140.659 109.786 140.425 109.517 140.449 109.202C140.53 108.128 140.507 107.043 140.379 105.958C140.344 105.654 140.565 105.374 140.869 105.339C141.184 105.292 141.452 105.526 141.487 105.829C141.627 106.985 141.651 108.152 141.557 109.295C141.546 109.587 141.301 109.809 141.009 109.809Z" fill="#8646E6"/>
</svg>
