<svg width="160" height="136" viewBox="0 0 160 136" fill="none" xmlns="http://www.w3.org/2000/svg">
<path d="M75.4155 13.1583C75.2355 13.1583 75.0789 13.0252 75.0476 12.8452C75.0398 12.7904 74.0692 7.35031 71.2513 7.1468C71.1887 7.1468 71.1182 7.1468 71.0556 7.13897C70.8599 7.11549 70.7112 6.94329 70.719 6.7476C70.7269 6.54409 70.8913 6.38754 71.0948 6.38754C71.1496 6.38754 71.2043 6.38754 71.2591 6.39537C71.5644 6.37971 71.9323 6.19968 72.3158 5.87876C73.7717 4.66551 75.1024 1.86329 75.2276 0.344775C75.2433 0.156917 75.392 0.0160234 75.5799 0.000368603C75.7599 -0.00745882 75.9321 0.109952 75.9712 0.29781C76.3235 1.8946 77.615 6.06662 79.3918 6.20751C79.5562 6.22317 79.6893 6.34058 79.7284 6.49713C79.7675 6.65368 79.6893 6.82588 79.5484 6.90415C79.5171 6.92763 76.1435 8.93146 75.7912 12.8139C75.7756 13.0017 75.619 13.1504 75.4312 13.1583C75.4233 13.1583 75.4233 13.1583 75.4155 13.1583ZM72.4567 6.72412C74.0144 7.51469 74.9145 9.58896 75.3764 11.0762C76.0808 8.83753 77.6228 7.38945 78.5152 6.70847C77.0749 5.93355 76.1278 3.54619 75.6268 1.94157C75.0867 3.55402 73.9987 5.46391 72.7933 6.46582C72.6837 6.55974 72.5663 6.64585 72.4567 6.72412Z" fill="#EFAB03"/>
<path d="M82.178 34.3946C82.0058 34.3946 81.8571 34.2772 81.818 34.1128C81.4109 32.5786 80.7378 31.3184 80.4717 31.381C80.2681 31.4202 80.0725 31.2949 80.0333 31.0914C79.9864 30.8957 80.1116 30.6922 80.3073 30.6453C80.9648 30.4809 81.5205 29.0172 81.7084 28.2736C81.7162 28.1875 81.7475 28.0935 81.8414 28.0074C81.9667 27.8978 82.1389 27.8744 82.2876 27.9605C82.4207 28.0387 82.4911 28.1796 82.4676 28.3283C82.6164 28.8763 83.7983 30.6766 84.2053 30.7314C84.3932 30.7548 84.5419 30.9192 84.5341 31.1149C84.5263 31.3106 84.3775 31.4671 84.1818 31.4828C83.8766 31.5063 82.7338 32.7274 82.5537 34.0737C82.5303 34.2537 82.3815 34.3868 82.2015 34.4024C82.1937 34.3946 82.1859 34.3946 82.178 34.3946ZM81.1839 30.974C81.5988 31.381 81.9276 32.0855 82.178 32.7508C82.4911 32.0699 82.9373 31.4515 83.3991 31.0758C82.9295 30.6374 82.4676 29.9408 82.1467 29.3694C81.9354 29.9173 81.6223 30.5513 81.1839 30.974Z" fill="#EFAB03"/>
<path d="M19.1068 29.1339C18.9659 29.1339 18.8407 29.0556 18.7702 28.9303C18.2927 28.0067 16.7507 25.5802 15.4279 25.4315C15.2479 25.4158 15.1148 25.2671 15.0913 25.0949C15.0757 24.9149 15.1853 24.7505 15.3575 24.7035C17.3926 24.0774 18.2771 20.3202 18.2849 20.2811C18.324 20.1245 18.4571 20.0071 18.6215 19.9914C18.778 19.9758 18.9346 20.0697 18.9972 20.2184C19.8347 22.1909 21.095 24.3904 21.6742 24.4922C21.8151 24.5157 21.9247 24.6174 21.9716 24.7505C22.0108 24.8836 21.9716 25.0323 21.8699 25.1341C21.2358 25.7446 19.5686 27.5997 19.4825 28.7895C19.4669 28.9538 19.3494 29.0947 19.1851 29.1339C19.1616 29.1339 19.1303 29.1339 19.1068 29.1339ZM16.422 25.001C17.5022 25.6037 18.4415 26.9187 18.9816 27.7875C19.4512 26.6761 20.4531 25.5254 20.9932 24.954C20.1557 24.2887 19.2712 22.6215 18.7232 21.4473C18.3554 22.5119 17.6274 24.1556 16.422 25.001Z" fill="#EFAB03"/>
<path d="M2.50358 14.2855C1.47036 14.2855 0.625 13.4401 0.625 12.4069C0.625 11.3737 1.47036 10.5283 2.50358 10.5283C3.5368 10.5283 4.38216 11.3737 4.38216 12.4069C4.38216 13.4401 3.5368 14.2855 2.50358 14.2855ZM2.50358 11.2798C1.88521 11.2798 1.37643 11.7885 1.37643 12.4069C1.37643 13.0253 1.88521 13.534 2.50358 13.534C3.12195 13.534 3.63073 13.0253 3.63073 12.4069C3.63073 11.7885 3.12195 11.2798 2.50358 11.2798Z" fill="#8646E6"/>
<path d="M17.236 42.0259C16.735 41.4623 16.2341 40.8987 15.7331 40.3352C15.4122 39.9751 14.8799 40.5074 15.2008 40.8674C15.7018 41.431 16.2027 41.9946 16.7037 42.5581C17.0325 42.9182 17.5569 42.3859 17.236 42.0259Z" fill="#FF98E1"/>
<path d="M14.2298 43.3406C13.6036 42.6518 12.9774 41.9629 12.3512 41.2741C12.0224 40.9141 11.498 41.4463 11.8189 41.8064C12.4451 42.4952 13.0713 43.184 13.6975 43.8728C14.0262 44.2329 14.5585 43.6928 14.2298 43.3406Z" fill="#FF98E1"/>
<path d="M95.8221 33.5643C95.1959 34.1905 94.5697 34.8167 93.9435 35.4429C93.5991 35.7873 94.1314 36.3196 94.4758 35.9752C95.102 35.349 95.7282 34.7228 96.3544 34.0966C96.6988 33.7522 96.1665 33.2278 95.8221 33.5643Z" fill="#8646E6"/>
<path d="M105.154 64.3529C95.8537 67.4266 86.3806 68.8708 77.5568 69.3345C72.5751 69.5995 67.8055 69.5597 63.3803 69.3345C47.4285 68.5131 36.0476 65.2538 36.0476 65.2538C33.7952 34.993 41.9169 13.3044 65.8579 10.1511C92.4619 6.64012 105.154 26.4209 105.154 64.3529Z" fill="#853EF3"/>
<path d="M130.59 135.288C130.511 135.288 130.431 135.274 130.352 135.248C130.02 135.115 129.861 134.744 129.994 134.426L146.476 92.7185C146.555 92.5198 146.727 92.3741 146.939 92.3343C146.979 92.3211 151.179 91.4201 153.749 90.7444C154.929 90.4397 155.671 89.9495 155.949 89.287C156.32 88.3861 155.737 87.3659 155.737 87.3659C155.644 87.2202 155.631 87.0347 155.671 86.8625C155.724 86.6902 155.83 86.5577 155.988 86.4782C158.426 85.2328 158.135 83.5767 157.989 83.0997C157.764 82.371 157.221 81.9338 156.85 81.9736C156.585 82.0133 156.32 81.8676 156.2 81.6291C156.081 81.3906 156.121 81.0991 156.306 80.9004C157.141 80.0392 158.069 78.8071 157.764 77.8399C157.459 76.8595 155.936 76.356 155.366 76.2368C155.101 76.1838 154.889 75.9718 154.862 75.6935C154.823 75.4286 154.968 75.1636 155.207 75.0443C155.22 75.0311 156.889 74.1832 157.154 72.8715C157.287 72.2223 157.022 71.5201 156.399 70.7914C154.73 68.8703 144.674 69.387 138.725 70.1555C138.54 70.182 138.354 70.129 138.222 69.9965C138.089 69.8772 138.01 69.705 138.01 69.5195C138.01 64.9353 137.427 57.2509 135.863 56.1645C135.731 56.0717 135.638 56.0585 135.479 56.1247C134.485 56.4957 134.194 60.0994 133.929 63.2792C133.863 64.1006 133.796 64.9618 133.717 65.823C133.266 70.5397 132.352 76.7005 131.398 79.0985C129.716 83.3117 114.426 114.699 113.777 116.037C113.618 116.355 113.247 116.487 112.929 116.328C112.611 116.169 112.479 115.798 112.638 115.48C112.797 115.149 128.55 82.795 130.219 78.6216C131.001 76.674 131.915 71.3611 132.458 65.7038C132.538 64.8426 132.604 63.9947 132.67 63.1732C133.028 58.7745 133.28 55.5948 135.042 54.9323C135.585 54.7336 136.128 54.7998 136.592 55.1178C138.937 56.7474 139.255 65.6773 139.281 68.8041C142.673 68.4066 154.942 67.1479 157.366 69.9567C158.267 71.0034 158.625 72.0633 158.413 73.1232C158.214 74.1302 157.539 74.8986 156.929 75.4153C157.737 75.773 158.678 76.409 158.996 77.4557C159.327 78.5023 158.97 79.6815 157.936 80.9931C158.506 81.3376 158.983 81.9471 159.221 82.7288C159.645 84.1067 159.274 85.9748 157.115 87.3129C157.327 87.8959 157.525 88.8366 157.141 89.764C156.704 90.8239 155.684 91.5659 154.081 91.9766C151.908 92.5463 148.596 93.275 147.549 93.5002L131.186 134.903C131.094 135.129 130.842 135.288 130.59 135.288Z" fill="#201000"/>
<path d="M147.085 77.0177C145.15 77.0177 143.534 76.8189 142.964 76.2492C142.448 75.7325 141.719 74.5268 142.236 73.2682C143.057 71.2676 146.502 70.2474 152.795 70.1812C152.795 70.1812 152.795 70.1812 152.808 70.1812C153.153 70.1812 153.444 70.4594 153.444 70.8039C153.444 71.1616 153.166 71.4398 152.822 71.4531C145.15 71.5458 143.693 73.0959 143.428 73.7584C143.11 74.5533 143.865 75.3483 143.878 75.3615C144.594 76.077 150.755 75.7325 156.068 74.9641C156.425 74.9111 156.743 75.1495 156.783 75.5073C156.836 75.8517 156.598 76.183 156.24 76.2227C154.531 76.4744 150.344 77.0177 147.085 77.0177Z" fill="#201000"/>
<path d="M147.933 82.6905C146.131 82.6905 144.554 82.5447 143.746 82.0942C142.646 81.4848 141.997 80.5574 141.931 79.4709C141.851 78.146 142.686 76.7019 144.104 75.7082C144.395 75.5095 144.793 75.5757 144.992 75.8672C145.19 76.1587 145.124 76.5561 144.833 76.7549C143.773 77.4968 143.15 78.5038 143.203 79.4047C143.243 80.0539 143.627 80.5839 144.356 80.9813C145.932 81.8425 152.596 81.2861 156.69 80.7031C157.035 80.6501 157.366 80.8886 157.406 81.2463C157.459 81.5908 157.22 81.922 156.863 81.9618C156.147 82.0545 151.59 82.6905 147.933 82.6905Z" fill="#201000"/>
<path d="M148.821 88.2927C147.244 88.2927 145.813 88.1603 144.992 87.7628C143.508 87.0606 142.581 85.9874 142.435 84.8083C142.316 83.7616 142.832 82.7149 143.879 81.8802C144.157 81.655 144.555 81.708 144.767 81.9862C144.992 82.2644 144.939 82.6619 144.661 82.8739C144.17 83.2714 143.601 83.8941 143.68 84.6625C143.76 85.3912 144.435 86.1067 145.509 86.6101C147.337 87.4713 153.829 86.7426 156.187 86.3849C156.532 86.3319 156.863 86.5704 156.916 86.9149C156.969 87.2593 156.731 87.5905 156.386 87.6435C155.79 87.7363 152.001 88.2927 148.821 88.2927Z" fill="#201000"/>
<path d="M149.763 92.2411C145.669 92.2411 144.278 90.9427 143.867 89.7635C143.443 88.5314 144.066 87.2197 144.914 86.6633C145.205 86.4645 145.603 86.5573 145.788 86.8487C145.974 87.1402 145.894 87.5377 145.603 87.7232C145.232 87.9617 144.834 88.6771 145.059 89.3395C145.232 89.8297 146.212 91.3666 151.79 90.8764C152.148 90.8499 152.452 91.1016 152.479 91.4594C152.505 91.8038 152.254 92.1218 151.896 92.1483C151.128 92.2146 150.412 92.2411 149.763 92.2411Z" fill="#201000"/>
<path d="M140.091 84.1837C139.998 84.1837 139.906 84.1705 139.826 84.1175C139.508 83.9718 139.376 83.5875 139.521 83.2696C143.403 75.0684 138.435 70.153 138.223 69.9543C137.971 69.7158 137.958 69.3051 138.21 69.0533C138.448 68.8016 138.859 68.7884 139.111 69.0268C139.164 69.0798 144.967 74.7504 140.674 83.8128C140.555 84.0512 140.33 84.1837 140.091 84.1837Z" fill="#201000"/>
<path d="M142.475 104.076C133.412 104.076 125.238 96.0472 124.059 92.5098C123.953 92.1785 124.125 91.8208 124.456 91.7016C124.787 91.5956 125.145 91.7678 125.264 92.099C126.324 95.2788 134.128 102.791 142.475 102.791C142.832 102.791 143.111 103.082 143.111 103.427C143.111 103.771 142.819 104.076 142.475 104.076Z" fill="#201000"/>
<path d="M80.2284 31.4418C81.8183 26.9901 84.3621 13.9531 68.1453 22.8564C51.9285 31.7598 53.1872 52.7462 63.0577 55.29C72.915 57.8338 80.2284 31.4418 80.2284 31.4418Z" fill="#201000"/>
<path d="M85.8221 52.7602C84.7225 56.2182 81.3705 57.6889 77.7137 58.3248L77.2633 64.9361C72.3744 65.2541 68.1082 62.8163 63.8022 62.6838C63.9215 60.6302 64.054 58.2586 64.1865 55.622C60.8477 54.0322 58.7809 48.3086 58.7809 48.3086C52.5803 48.6265 46.3798 45.7648 47.6517 39.4052C48.5526 34.9006 52.9778 34.3838 56.2106 35.139C57.5355 35.457 58.6616 35.987 59.2578 36.5434C59.2578 36.5434 58.6219 31.7075 65.9353 28.594C72.2286 25.9045 76.72 26.2887 79.6746 30.0117C80.761 31.3631 81.6222 33.1782 82.3111 35.4305C84.3912 42.267 86.935 49.2625 85.8221 52.7602Z" fill="white"/>
<path d="M76.3613 65.6107C73.8838 65.6107 71.5917 64.988 69.3659 64.3918C67.4315 63.8751 65.6031 63.3849 63.788 63.3186C63.6158 63.3186 63.4568 63.2391 63.3376 63.1066C63.2183 62.9742 63.1653 62.8152 63.1786 62.6429C63.2978 60.6953 63.4171 58.4695 63.5363 55.9919C60.7407 54.3888 58.8991 50.3081 58.3559 48.9567C54.1295 49.0759 50.4728 47.7908 48.4854 45.4987C47.0545 43.8293 46.5378 41.683 47.028 39.2716C47.3857 37.5095 48.2469 36.1714 49.6116 35.2969C52.0494 33.7336 55.1364 34.2238 56.3553 34.5152C57.2298 34.7272 58.0247 35.0187 58.6739 35.3632C58.9521 33.5878 60.224 30.3153 65.6826 27.9835C72.3336 25.1482 77.0768 25.6781 80.1771 29.5866C81.3032 31.0043 82.2042 32.8459 82.9328 35.2174C83.2243 36.1979 83.5291 37.165 83.8338 38.1455C85.6887 44.1075 87.4508 49.7516 86.4306 52.9314C85.4369 56.0317 82.7871 57.966 78.3089 58.8405L77.8982 64.9615C77.8717 65.2795 77.62 65.5312 77.302 65.5577C76.984 65.5975 76.6793 65.6107 76.3613 65.6107ZM64.477 62.0865C66.2126 62.2322 67.9085 62.6827 69.6971 63.1596C71.9362 63.7558 74.2282 64.3918 76.6661 64.3256L77.0768 58.284C77.1033 57.9925 77.3153 57.754 77.6068 57.701C81.8597 56.9591 84.3505 55.2765 85.2249 52.5737C86.1126 49.7649 84.3373 44.0678 82.6281 38.5429C82.3234 37.5758 82.0187 36.5953 81.7272 35.6149C81.0647 33.4288 80.2168 31.68 79.1966 30.4081C76.4673 26.9501 72.3336 26.5658 66.1993 29.1759C59.4688 32.0509 59.8796 36.2906 59.9061 36.4628C59.9326 36.7278 59.8001 36.9796 59.5616 37.1121C59.3231 37.2313 59.0316 37.1915 58.8461 37.0193C58.3162 36.5291 57.2563 36.0521 56.0771 35.7739C53.8778 35.2572 51.7182 35.4824 50.3138 36.3834C49.2539 37.0591 48.5781 38.119 48.2867 39.5366C47.8759 41.577 48.2734 43.3126 49.4658 44.6772C51.2412 46.7308 54.8052 47.8835 58.7666 47.6848C59.0316 47.6715 59.2966 47.8438 59.4026 48.1087C59.4291 48.1617 61.4164 53.6071 64.4902 55.0645C64.7287 55.1705 64.8612 55.409 64.8479 55.6739C64.7022 58.0323 64.583 60.1919 64.477 62.0865Z" fill="#201000"/>
<path d="M78.9837 45.2848C78.891 45.2848 78.7982 45.2715 78.7187 45.2185C78.4007 45.0728 78.2683 44.6886 78.414 44.3706C79.6727 41.7208 78.573 39.071 74.2273 34.2483C73.9888 33.9834 74.0153 33.5859 74.267 33.3474C74.532 33.1089 74.9295 33.1354 75.168 33.3872C79.2619 37.9183 81.289 41.2571 79.5667 44.9006C79.4474 45.1523 79.2222 45.2848 78.9837 45.2848Z" fill="#201000"/>
<path d="M67.3262 37.814C67.7652 37.814 68.1211 37.4581 68.1211 37.0191C68.1211 36.58 67.7652 36.2241 67.3262 36.2241C66.8872 36.2241 66.5312 36.58 66.5312 37.0191C66.5312 37.4581 66.8872 37.814 67.3262 37.814Z" fill="#201000"/>
<path d="M79.1426 35.2696C79.5816 35.2696 79.9375 34.9137 79.9375 34.4746C79.9375 34.0356 79.5816 33.6797 79.1426 33.6797C78.7036 33.6797 78.3477 34.0356 78.3477 34.4746C78.3477 34.9137 78.7036 35.2696 79.1426 35.2696Z" fill="#201000"/>
<path d="M72.4667 50.2954C70.8768 50.7194 69.3664 49.6462 69.3002 47.9901C69.2604 47.1687 67.9885 47.1687 68.0283 47.9901C68.1475 50.4677 70.3998 52.1635 72.8111 51.5276C73.5928 51.3156 73.2616 50.0835 72.4667 50.2954Z" fill="#201000"/>
<path d="M67.577 32.7663C67.3915 32.4483 67.0205 32.3821 66.7026 32.541C66.3846 32.7 66.0666 32.859 65.7486 33.0048C65.4439 33.1505 65.3511 33.601 65.5234 33.8792C65.7089 34.1972 66.0798 34.2634 66.3978 34.1044C66.7158 33.9455 67.0338 33.7865 67.3518 33.6407C67.6565 33.4817 67.736 33.0445 67.577 32.7663Z" fill="#201000"/>
<path d="M77.872 29.7061H77.077C76.2556 29.7061 76.2556 30.978 77.077 30.978H77.872C78.6934 30.978 78.6934 29.7061 77.872 29.7061Z" fill="#201000"/>
<path d="M58.3035 43.5383C58.065 43.5383 57.8398 43.4058 57.7338 43.1806C57.2304 42.1604 54.607 39.9213 52.5402 40.3453C52.1957 40.4116 51.8645 40.1863 51.785 39.8418C51.7188 39.4974 51.944 39.1662 52.2885 39.0867C54.9648 38.5434 58.118 41.1005 58.8732 42.6109C59.0322 42.9289 58.8997 43.3131 58.595 43.4588C58.5023 43.5118 58.4095 43.5383 58.3035 43.5383Z" fill="#201000"/>
<path d="M65.5765 29.5738C65.1525 27.9044 63.5759 28.2489 62.6219 29.2161C61.0055 30.8457 59.9721 33.1511 59.3627 35.3372C59.2832 35.6419 59.4024 35.8671 59.6012 35.9996C59.4687 36.0261 59.3494 36.0791 59.2302 36.1056C58.422 36.2646 58.7665 37.4835 59.5747 37.3378C62.7412 36.7151 66.4906 33.1511 65.5765 29.5738Z" fill="#201000"/>
<path d="M35.7188 58.4959C35.7717 60.6953 35.8777 62.9476 36.05 65.2662C36.05 65.2662 47.4441 68.5254 63.3827 69.3469C67.8079 69.5721 72.5775 69.6251 77.5592 69.3469C86.383 68.8699 95.8428 67.439 105.157 64.3653C105.157 62.2587 105.117 60.2316 105.038 58.231C76.9497 67.81 38.8985 60.0328 35.7188 58.4959Z" fill="white"/>
<path d="M70.6143 70.1668C68.2163 70.1668 65.7917 70.1005 63.3406 69.9813C47.508 69.1731 35.9814 65.9138 35.8621 65.8741C35.6104 65.7946 35.4249 65.5693 35.3984 65.3044C32.9076 31.7711 43.4008 12.4805 65.7652 9.52597C76.1922 8.14807 84.751 10.3077 91.1901 15.9517C100.875 24.4444 105.777 40.7274 105.777 64.3637C105.777 64.6419 105.605 64.8804 105.34 64.9731C96.8739 67.7687 87.5333 69.4646 77.5833 69.9945C75.3045 70.1005 72.9727 70.1668 70.6143 70.1668ZM36.6438 64.7612C38.8564 65.3441 49.4291 67.9807 63.4069 68.6961C68.203 68.9479 72.9594 68.9479 77.5171 68.6961C87.1889 68.1794 96.2777 66.563 104.505 63.8867C104.439 40.8864 99.6827 25.0803 90.3421 16.8924C84.1946 11.5001 75.9802 9.44648 65.9242 10.7714C38.8432 14.3619 35.0142 42.0126 36.6438 64.7612Z" fill="#201000"/>
<path d="M70.6135 70.1658C68.2155 70.1658 65.7909 70.0995 63.3398 69.9803C47.5072 69.1721 35.9806 65.9128 35.8613 65.8731C35.6096 65.7936 35.4241 65.5683 35.3976 65.3034C35.2254 63.0775 35.1194 60.7987 35.0664 58.5066C35.0664 58.2814 35.1724 58.0826 35.3579 57.9634C35.5434 57.8442 35.7819 57.8309 35.9806 57.9236C39.2399 59.5003 77.1586 67.0655 104.809 57.6322C104.995 57.5659 105.207 57.5924 105.379 57.7117C105.551 57.8309 105.644 58.0164 105.657 58.2151C105.737 60.335 105.776 62.3488 105.776 64.3759C105.776 64.6542 105.604 64.8927 105.339 64.9854C96.8731 67.7809 87.5325 69.4768 77.5825 70.0068C75.3037 70.0995 72.9719 70.1658 70.6135 70.1658ZM36.643 64.7602C38.8556 65.3431 49.4284 67.9797 63.4061 68.6951C68.2022 68.9469 72.9586 68.9469 77.5163 68.6951C87.1881 68.1784 96.2769 66.562 104.505 63.8857C104.505 62.3091 104.465 60.7324 104.412 59.0896C78.1522 67.675 43.1483 61.4876 36.3648 59.3943C36.4311 61.2094 36.5106 63.0113 36.643 64.7602Z" fill="#201000"/>
<path d="M98.555 38.3707C98.3032 37.589 97.071 37.9202 97.3228 38.7152C98.237 41.5637 98.6609 44.4652 98.5682 47.4463C98.5417 48.2677 99.8136 48.2677 99.8401 47.4463C99.9328 44.346 99.5089 41.3252 98.555 38.3707Z" fill="white"/>
<path d="M16.5047 135.283C16.1602 135.283 15.882 135.004 15.8687 134.66C15.8687 134.461 15.458 114.19 16.7167 92.3691C18.0018 70.0312 34.5101 68.0439 34.6691 68.0174C34.7486 68.0041 34.8413 68.0174 34.9208 68.0439C40.9756 69.8193 72.8793 78.1661 106.174 67.3549C106.28 67.3284 106.373 67.3152 106.479 67.3284C106.598 67.3549 117.966 69.5675 118.933 83.0153C119.33 88.5004 119.781 97.1388 119.781 103.419C119.781 103.777 119.503 104.055 119.145 104.055C118.787 104.055 118.509 103.777 118.509 103.419C118.509 97.1652 118.058 88.5666 117.661 83.108C116.826 71.3296 107.751 68.9051 106.399 68.6136C93.7333 72.7075 81.2659 74.059 70.3222 74.059C52.4625 74.059 38.6703 70.4552 34.6824 69.3025C33.119 69.5145 19.1677 71.9656 17.9753 92.4486C16.7167 114.23 17.1274 134.435 17.1274 134.647C17.1406 135.004 16.8624 135.283 16.5047 135.296C16.5179 135.283 16.5179 135.283 16.5047 135.283Z" fill="#201000"/>
<path d="M35.1711 135.283C34.8134 135.283 34.5352 134.991 34.5352 134.647V101.312C34.5352 100.954 34.8134 100.676 35.1711 100.676C35.5288 100.676 35.8071 100.954 35.8071 101.312V134.647C35.8071 134.991 35.5156 135.283 35.1711 135.283Z" fill="#201000"/>
<path d="M104.371 135.285C104.039 135.285 103.761 135.033 103.735 134.688L100.807 94.5702C100.78 94.2258 101.045 93.921 101.389 93.8945C101.76 93.8813 102.039 94.133 102.065 94.4775L104.993 134.596C105.02 134.94 104.755 135.245 104.41 135.271C104.397 135.285 104.384 135.285 104.371 135.285Z" fill="#201000"/>
<path d="M48.3164 100.469C43.5202 100.469 39.625 96.5734 39.625 91.7773C39.625 86.9811 43.5202 83.0859 48.3164 83.0859C53.1125 83.0859 57.0077 86.9811 57.0077 91.7773C57.0077 96.5602 53.1125 100.469 48.3164 100.469ZM48.3164 84.3446C44.2224 84.3446 40.8969 87.6701 40.8969 91.764C40.8969 95.858 44.2224 99.1835 48.3164 99.1835C52.4103 99.1835 55.7358 95.858 55.7358 91.764C55.7358 87.6701 52.4103 84.3446 48.3164 84.3446Z" fill="#201000"/>
<path d="M74.1903 135.286C73.8459 135.286 73.5676 135.021 73.5544 134.677C72.68 107.331 71.6863 74.5926 71.885 73.9699C71.991 73.6387 72.3487 73.4532 72.6932 73.5724C72.9979 73.6784 73.1702 73.9831 73.1172 74.2879C72.9979 75.9042 74.1771 114.419 74.8263 134.637C74.8395 134.982 74.5613 135.286 74.2168 135.3C74.2036 135.286 74.1903 135.286 74.1903 135.286Z" fill="#201000"/>
<path d="M74.4035 81.5867C74.324 81.5867 74.2578 81.5735 74.1915 81.547C73.9928 81.4807 73.847 81.3217 73.794 81.123L71.8862 74.3395C71.8199 74.0878 71.8994 73.8228 72.0982 73.6638C72.2969 73.5048 72.5751 73.4783 72.8004 73.5975L79.3719 77.2013C79.5706 77.3073 79.6899 77.506 79.7031 77.7312C79.7164 77.9565 79.6104 78.1685 79.4249 78.2877L74.7612 81.4675C74.6552 81.547 74.5227 81.5867 74.4035 81.5867ZM73.5158 75.4524L74.7745 79.9306L77.8482 77.8372L73.5158 75.4524Z" fill="#201000"/>
<path d="M41.7433 96.8638C41.5843 96.8638 41.4386 96.8108 41.3061 96.6916C41.0544 96.4531 41.0279 96.0556 41.2664 95.7906L51.8656 84.3435C52.1041 84.0785 52.5015 84.0652 52.7665 84.3037C53.0315 84.5422 53.0447 84.9397 52.8063 85.2047L42.207 96.6518C42.0878 96.7843 41.9156 96.8638 41.7433 96.8638Z" fill="#201000"/>
<path d="M34.7472 69.2924C34.4955 69.2924 34.257 69.1334 34.151 68.8949C33.6873 67.7025 33.674 66.7088 34.1112 65.9138C34.7074 64.8672 35.8734 64.6552 35.9263 64.6419C36.2708 64.5757 36.602 64.8142 36.655 65.1586C36.7213 65.5031 36.4828 65.8343 36.1383 65.8873C36.1118 65.8873 35.4891 66.0198 35.2109 66.5365C34.9062 67.0798 35.1049 67.8614 35.3301 68.4179C35.4626 68.7491 35.3036 69.1201 34.9724 69.2394C34.9062 69.2791 34.8267 69.2924 34.7472 69.2924Z" fill="#201000"/>
<path d="M106.372 68.603C106.266 68.603 106.16 68.5765 106.054 68.5235C105.749 68.3513 105.643 67.967 105.815 67.6491C106.08 67.1854 106.16 66.7481 106.041 66.3242C105.802 65.463 104.848 64.9198 104.835 64.9198C104.53 64.7475 104.411 64.3633 104.583 64.0586C104.755 63.7539 105.14 63.6346 105.444 63.8069C105.497 63.8333 106.862 64.6018 107.26 65.9929C107.472 66.7481 107.352 67.5166 106.915 68.2983C106.809 68.4838 106.584 68.603 106.372 68.603Z" fill="#201000"/>
<path d="M34.9725 104.018C34.9858 103.925 35.0123 103.845 35.052 103.779L17.709 91.8814C17.4175 91.6827 17.0201 91.7621 16.8213 92.0404C16.6226 92.3319 16.7021 92.7293 16.9803 92.9281L34.8533 105.197C34.9063 104.799 34.9328 104.415 34.9725 104.018Z" fill="#201000"/>
<path d="M102.621 103.119C102.449 103.119 102.276 103.053 102.144 102.907C101.905 102.642 101.932 102.245 102.197 102.006L117.871 88.0155C118.136 87.777 118.533 87.8035 118.771 88.0685C119.01 88.3335 118.983 88.731 118.718 88.9695L103.045 102.96C102.926 103.066 102.78 103.119 102.621 103.119Z" fill="#201000"/>
<path d="M24.7842 113.612H16.5168C16.5036 113.612 16.4903 113.612 16.4771 113.612C16.4108 114.023 16.3843 114.447 16.3711 114.858C16.4241 114.871 16.4638 114.871 16.5168 114.871H24.1483V125.682H17.1395C16.7818 125.682 16.5036 125.974 16.5036 126.318C16.5036 126.676 16.7818 126.954 17.1395 126.954H24.771C25.1287 126.954 25.4069 126.663 25.4069 126.318V114.235C25.4202 113.891 25.1287 113.612 24.7842 113.612Z" fill="#201000"/>
<path d="M20.9549 118.06H16.2913C16.278 118.06 16.2648 118.06 16.2515 118.06C16.2515 118.484 16.2515 118.908 16.2383 119.318C16.2515 119.318 16.278 119.318 16.2913 119.318H20.9549C21.3127 119.318 21.5909 119.027 21.5909 118.682C21.5909 118.351 21.3127 118.06 20.9549 118.06Z" fill="#201000"/>
<path d="M20.9549 121.029H16.2913C16.278 121.029 16.2515 121.029 16.2383 121.029C16.2383 121.453 16.2383 121.877 16.2515 122.287C16.2648 122.287 16.278 122.287 16.2913 122.287H20.9549C21.3127 122.287 21.5909 122.009 21.5909 121.652C21.5909 121.294 21.3127 121.029 20.9549 121.029Z" fill="#201000"/>
<path d="M85.2859 25.0455C86.3645 27.9123 82.7162 29.221 80.6541 29.6572C80.5272 29.6884 80.432 29.6884 80.3368 29.6572C80.3051 29.6572 80.2734 29.6884 80.2417 29.6884C77.9892 25.6064 73.6747 24.4846 67.0759 26.0115C60.8579 27.663 58.6269 35.5 58.6269 35.5C58.1249 35.5 58.0249 35.2 57.6249 35C56.6249 34.5 56.1249 34.5 55.1249 34.5C54.998 34.4065 53.625 34.5 53.625 34.5C54.625 30 56.0384 26.4986 56.625 26.0115C58.9092 21.8672 61.651 19.8106 66.2511 17.8475C67.6787 17.2554 69.1698 17.4112 69.9629 18.8758C70.3436 19.5924 70.3753 20.3403 70.2167 21.0881C72.3422 19.4678 74.5947 18.0656 77.0692 17.0061C79.3534 15.9778 82.7479 14.3263 85.3176 15.2923C87.1894 16.009 87.919 18.0033 87.57 19.8729C87.2211 21.7113 85.9204 23.0201 84.4293 24.0484C84.81 24.2042 85.1273 24.5469 85.2859 25.0455Z" fill="#201000"/>
</svg>
