<svg width="32" height="32" viewBox="0 0 32 32" fill="none" xmlns="http://www.w3.org/2000/svg">
<path d="M28.785 6.17788e-05H3.20166C3.04281 -0.00101627 2.88416 0.0120166 2.72745 0.039018C2.64172 0.039018 2.55598 0.0696265 2.45953 0.0891047C2.36308 0.108583 2.29342 0.133626 2.21305 0.161452C2.13267 0.189278 2.09249 0.203191 2.03355 0.228234L1.86208 0.300582C1.85241 0.29799 1.84227 0.29799 1.83261 0.300582C1.7817 0.325625 1.7308 0.350668 1.6799 0.381277C1.56964 0.442003 1.46316 0.509846 1.36108 0.584406C1.31553 0.617797 1.26998 0.651188 1.22712 0.687362C1.21234 0.694142 1.19945 0.704666 1.18961 0.71797C1.14674 0.751361 1.10655 0.790317 1.06637 0.826491C0.971677 0.913478 0.882204 1.00641 0.79845 1.10475C0.763621 1.14649 0.726113 1.18823 0.693963 1.23275C0.680005 1.24543 0.668227 1.26049 0.659134 1.27727C0.629663 1.31623 0.600192 1.35518 0.5734 1.39692C0.559295 1.41206 0.54835 1.43006 0.541251 1.44979C0.478565 1.53874 0.421298 1.63168 0.369784 1.72805C0.343883 1.77484 0.320623 1.82315 0.300126 1.87274C0.290911 1.89689 0.284612 1.92212 0.281372 1.94787C0.259938 1.99796 0.241185 2.04805 0.222431 2.09813C0.196153 2.15962 0.173779 2.22283 0.155452 2.28735C0.127824 2.37227 0.104571 2.45865 0.0857927 2.54613C0.0670385 2.63239 0.0509634 2.72143 0.0375676 2.82439C0.0241718 2.92735 0.0214932 2.93291 0.0161348 2.99135C0.00543573 3.09951 7.00243e-05 3.20817 5.94833e-05 3.31691V28.6997C-0.000978498 28.8647 0.0115698 29.0295 0.0375676 29.1922C0.0509634 29.2813 0.0670385 29.3703 0.0857927 29.4566C0.104547 29.5428 0.12866 29.6291 0.155452 29.7126C0.182243 29.796 0.195638 29.8378 0.219751 29.899C0.243863 29.9602 0.265297 30.0131 0.28941 30.0687C0.286914 30.0788 0.286914 30.0893 0.28941 30.0993C0.313522 30.1522 0.337634 30.2051 0.367105 30.2579C0.425574 30.3725 0.490896 30.483 0.562685 30.5891C0.594835 30.6364 0.626984 30.6837 0.661813 30.7282C0.667461 30.7441 0.677771 30.7577 0.691284 30.7672C0.723434 30.8117 0.760943 30.8534 0.795772 30.8952C0.879526 30.9935 0.968998 31.0864 1.06369 31.1734C1.10388 31.2096 1.14406 31.2485 1.18693 31.2819C1.19603 31.296 1.20915 31.3067 1.22444 31.3125C1.2673 31.3487 1.31285 31.3821 1.3584 31.4155C1.46048 31.4901 1.56696 31.5579 1.67722 31.6186C1.72812 31.6492 1.77903 31.6743 1.82993 31.6993C1.83959 31.7019 1.84974 31.7019 1.8594 31.6993L2.02283 31.7717C2.08177 31.7967 2.14071 31.819 2.20233 31.8385C2.26395 31.8579 2.36576 31.8913 2.44882 31.9108C2.53187 31.9303 2.6176 31.947 2.71673 31.9609C2.87697 31.9885 3.03923 32.0016 3.20166 31.9998H28.7984C29.6487 31.9962 30.4631 31.6427 31.0631 31.0169C31.6631 30.3911 32 29.5439 32 28.6607V3.33917C32 2.45358 31.6613 1.60427 31.0583 0.978064C30.4554 0.35186 29.6377 6.17788e-05 28.785 6.17788e-05ZM19.8125 8.02783C20.1638 8.02783 20.5072 8.13603 20.7993 8.33875C21.0914 8.54146 21.3191 8.82959 21.4536 9.1667C21.588 9.5038 21.6232 9.87474 21.5546 10.2326C21.4861 10.5905 21.3169 10.9192 21.0685 11.1772C20.8201 11.4352 20.5036 11.6109 20.159 11.6821C19.8145 11.7533 19.4573 11.7167 19.1327 11.5771C18.8082 11.4375 18.5307 11.201 18.3356 10.8976C18.1404 10.5943 18.0362 10.2376 18.0362 9.87269C18.0362 9.3834 18.2233 8.91416 18.5565 8.56818C18.8896 8.2222 19.3414 8.02783 19.8125 8.02783ZM12.2438 8.02783C12.5952 8.02783 12.9386 8.13603 13.2307 8.33875C13.5228 8.54146 13.7505 8.82959 13.8849 9.1667C14.0194 9.5038 14.0545 9.87474 13.986 10.2326C13.9175 10.5905 13.7483 10.9192 13.4999 11.1772C13.2514 11.4352 12.9349 11.6109 12.5904 11.6821C12.2458 11.7533 11.8887 11.7167 11.5641 11.5771C11.2395 11.4375 10.9621 11.201 10.7669 10.8976C10.5717 10.5943 10.4676 10.2376 10.4676 9.87269C10.4676 9.62948 10.5138 9.38867 10.6038 9.16411C10.6937 8.93956 10.8255 8.73569 10.9916 8.56423C11.1577 8.39277 11.3548 8.25711 11.5715 8.16506C11.7883 8.073 12.0204 8.02637 12.2546 8.02783H12.2438ZM15.9947 23.8469C15.9331 23.8469 15.8688 23.8469 15.8045 23.8469C13.7221 23.8466 11.7178 23.0239 10.1979 21.5455C8.67803 20.0672 7.75629 18.0439 7.6196 15.8859H23.9893C23.8571 18.011 22.9627 20.0074 21.4827 21.4812C20.0027 22.955 18.0445 23.7991 15.9947 23.8469Z" fill="#EFAB03"/>
<path d="M15.9947 6.17788e-05H3.20166C3.04281 -0.00101627 2.88416 0.0120166 2.72745 0.039018C2.64172 0.039018 2.55598 0.0696265 2.45953 0.0891047C2.36308 0.108583 2.29342 0.133626 2.21305 0.161452C2.13267 0.189278 2.09249 0.203191 2.03355 0.228234L1.86208 0.300582C1.85241 0.29799 1.84227 0.29799 1.83261 0.300582C1.7817 0.325625 1.7308 0.350668 1.6799 0.381277C1.56852 0.439943 1.4619 0.507875 1.36108 0.584406C1.31553 0.617797 1.26998 0.651188 1.22712 0.687362C1.21234 0.694142 1.19945 0.704666 1.18961 0.71797C1.14674 0.751361 1.10655 0.790317 1.06637 0.826491C0.971677 0.913478 0.882204 1.00641 0.79845 1.10475C0.763621 1.14649 0.726113 1.18823 0.693963 1.23275C0.680005 1.24543 0.668227 1.26049 0.659134 1.27727C0.629663 1.31623 0.600192 1.35518 0.5734 1.39692C0.559295 1.41206 0.54835 1.43006 0.541251 1.44979C0.476807 1.53748 0.419456 1.63055 0.369784 1.72805C0.343883 1.77484 0.320623 1.82315 0.300126 1.87274C0.290911 1.89689 0.284612 1.92212 0.281372 1.94787C0.259938 1.99796 0.241185 2.04805 0.222431 2.09813C0.196153 2.15962 0.173779 2.22283 0.155451 2.28735C0.127824 2.37227 0.104571 2.45865 0.0857927 2.54613C0.0670385 2.63239 0.0509634 2.72143 0.0375676 2.82439C0.0241718 2.92735 0.0214932 2.93291 0.0161348 2.99135C0.00543573 3.09951 7.00243e-05 3.20817 5.94833e-05 3.31691V28.6997C-0.000978498 28.8647 0.0115698 29.0295 0.0375676 29.1922C0.0509634 29.2813 0.0670385 29.3703 0.0857927 29.4566C0.104547 29.5428 0.12866 29.6291 0.155451 29.7126C0.182243 29.796 0.195638 29.8378 0.219751 29.899C0.243863 29.9602 0.265297 30.0131 0.28941 30.0687C0.286914 30.0788 0.286914 30.0893 0.28941 30.0993C0.313522 30.1522 0.337634 30.2051 0.367105 30.2579C0.423591 30.3736 0.488998 30.4844 0.562685 30.5891C0.594835 30.6364 0.626984 30.6837 0.661813 30.7282C0.667461 30.7441 0.677771 30.7577 0.691284 30.7672C0.723434 30.8117 0.760942 30.8534 0.795772 30.8952C0.876692 30.9962 0.966374 31.0894 1.06369 31.1734C1.10388 31.2096 1.14406 31.2485 1.18693 31.2819C1.19603 31.296 1.20915 31.3067 1.22444 31.3125C1.2673 31.3487 1.31285 31.3821 1.3584 31.4155C1.45922 31.492 1.56584 31.56 1.67722 31.6186C1.72812 31.6492 1.77902 31.6743 1.82993 31.6993C1.83959 31.7019 1.84974 31.7019 1.8594 31.6993L2.02283 31.7717C2.08177 31.7967 2.14071 31.819 2.20233 31.8385C2.26395 31.8579 2.36576 31.8913 2.44882 31.9108C2.53187 31.9303 2.6176 31.947 2.71673 31.9609C2.87697 31.9885 3.03923 32.0016 3.20166 31.9998H16.0081V23.8469C15.9464 23.8469 15.8821 23.8469 15.8178 23.8469C13.7332 23.8501 11.7256 23.029 10.2028 21.5503C8.68007 20.0716 7.75644 18.0463 7.6196 15.8859H15.9947V6.17788e-05ZM12.2438 11.7175C11.8926 11.717 11.5495 11.6083 11.2577 11.4053C10.966 11.2022 10.7387 10.9139 10.6047 10.5768C10.4706 10.2396 10.4359 9.86876 10.5047 9.51107C10.5735 9.15339 10.7429 8.82493 10.9914 8.5672C11.24 8.30947 11.5565 8.13404 11.901 8.06308C12.2455 7.99212 12.6025 8.02882 12.9269 8.16853C13.2513 8.30825 13.5286 8.54471 13.7236 8.84803C13.9187 9.15136 14.0228 9.50793 14.0228 9.87269C14.0228 10.3605 13.8368 10.8285 13.5054 11.1743C13.174 11.52 12.7243 11.7153 12.2546 11.7175H12.2438Z" fill="#6E1EE6"/>
</svg>
