<svg width="96" height="42" viewBox="0 0 96 42" fill="none" xmlns="http://www.w3.org/2000/svg">
<g clip-path="url(#clip0_512_1290)">
<path d="M38.404 0.0263731H4.70177C4.56391 0.0263872 4.42614 0.0335251 4.289 0.0477589L4.07733 0.0762732C3.85242 0.110374 3.63061 0.162822 3.41408 0.233102C3.32235 0.258052 3.25532 0.286566 3.17771 0.318645C2.63699 0.533711 2.14589 0.85894 1.73499 1.27408C1.32408 1.68922 1.00217 2.18538 0.789302 2.73167C0.75755 2.81008 0.729327 2.8885 0.704631 2.97047C0.635068 3.18924 0.583156 3.41333 0.549403 3.64056C0.549403 3.71185 0.528235 3.78313 0.521179 3.85442C0.507091 3.99297 0.500025 4.13216 0.500012 4.27144V36.7813C0.499342 37.0651 0.527716 37.3482 0.584682 37.626C0.604727 37.7343 0.630638 37.8414 0.662296 37.9468C0.858347 38.6278 1.21894 39.2489 1.71161 39.7541C2.20428 40.2593 2.81357 40.6328 3.48464 40.841C3.57636 40.8695 3.66809 40.8945 3.75982 40.9159C3.86565 40.9408 3.97502 40.9587 4.08438 40.9765L4.29606 41.005C4.4332 41.0192 4.57097 41.0264 4.70883 41.0264H38.4111C39.5339 41.0264 40.6107 40.5757 41.4047 39.7736C42.1986 38.9715 42.6446 37.8836 42.6446 36.7492V4.30352C42.6446 3.74124 42.5349 3.18447 42.3217 2.66508C42.1085 2.14569 41.796 1.67386 41.4022 1.2766C41.0083 0.879334 40.5408 0.56443 40.0263 0.349903C39.5119 0.135376 38.9606 0.025436 38.404 0.0263731ZM26.6067 10.3093C27.0693 10.3093 27.5215 10.4479 27.9062 10.7076C28.2908 10.9673 28.5906 11.3363 28.7676 11.7681C28.9447 12.1999 28.991 12.6751 28.9007 13.1335C28.8105 13.5919 28.5877 14.013 28.2606 14.3434C27.9335 14.6739 27.5167 14.899 27.063 14.9902C26.6093 15.0814 26.139 15.0346 25.7116 14.8557C25.2842 14.6768 24.9189 14.374 24.6618 13.9853C24.4048 13.5967 24.2677 13.1398 24.2677 12.6725C24.2677 12.0457 24.5141 11.4447 24.9527 11.0015C25.3914 10.5583 25.9863 10.3093 26.6067 10.3093ZM16.6438 10.3093C17.1064 10.3093 17.5586 10.4479 17.9433 10.7076C18.3279 10.9673 18.6277 11.3363 18.8048 11.7681C18.9818 12.1999 19.0281 12.6751 18.9379 13.1335C18.8476 13.5919 18.6249 14.013 18.2977 14.3434C17.9706 14.6739 17.5538 14.899 17.1001 14.9902C16.6464 15.0814 16.1761 15.0346 15.7487 14.8557C15.3213 14.6768 14.956 14.374 14.699 13.9853C14.442 13.5967 14.3048 13.1398 14.3048 12.6725C14.3048 12.0463 14.5507 11.4458 14.9886 11.0027C15.4265 10.5597 16.0205 10.3103 16.6403 10.3093H16.6438ZM21.5829 30.5723C21.5018 30.5723 21.4171 30.5723 21.3324 30.5723C18.5871 30.5773 15.943 29.5258 13.9376 27.6316C11.9323 25.7373 10.7163 23.1426 10.537 20.3749H32.0891C31.915 23.097 30.7373 25.6543 28.7884 27.5421C26.8395 29.4299 24.261 30.5111 21.5617 30.5723H21.5829Z" fill="#EFAB03"/>
<path d="M21.5617 0.0263672H4.70177C4.56391 0.0263812 4.42614 0.0335191 4.289 0.0477529L4.07733 0.0762672C3.85242 0.110368 3.63061 0.162816 3.41408 0.233096C3.32235 0.258046 3.25532 0.28656 3.17771 0.318639C2.63569 0.531446 2.14344 0.855879 1.73225 1.2713C1.32106 1.68673 0.999938 2.18406 0.789302 2.73166C0.75755 2.81008 0.729327 2.88849 0.704631 2.97047C0.635068 3.18923 0.583156 3.41333 0.549403 3.64056C0.549403 3.71184 0.528235 3.78313 0.521179 3.85441C0.507091 3.99296 0.500025 4.13215 0.500012 4.27143V36.7813C0.499342 37.0651 0.527716 37.3482 0.584682 37.626C0.604727 37.7343 0.630638 37.8414 0.662296 37.9468C0.854863 38.6296 1.21427 39.2525 1.70745 39.7583C2.20063 40.264 2.81176 40.6363 3.48464 40.841C3.57636 40.8695 3.66809 40.8945 3.75982 40.9159C3.86565 40.9408 3.97502 40.9586 4.08438 40.9765L4.29606 41.005C4.4332 41.0192 4.57097 41.0264 4.70883 41.0264H21.5617V30.5723C21.4806 30.5723 21.3959 30.5723 21.3113 30.5723C18.5696 30.5719 15.9307 29.518 13.9299 27.6243C11.9291 25.7305 10.7161 23.1389 10.537 20.3749H21.5617V0.0263672ZM16.6226 15.0356C16.16 15.0356 15.7078 14.897 15.3231 14.6373C14.9385 14.3777 14.6387 14.0086 14.4617 13.5768C14.2846 13.145 14.2383 12.6698 14.3286 12.2114C14.4188 11.753 14.6416 11.332 14.9687 11.0015C15.2958 10.671 15.7126 10.4459 16.1663 10.3547C16.62 10.2636 17.0903 10.3104 17.5177 10.4892C17.9451 10.6681 18.3104 10.971 18.5675 11.3596C18.8245 11.7482 18.9617 12.2051 18.9617 12.6725C18.9617 13.2961 18.7177 13.8945 18.2828 14.3372C17.848 14.7798 17.2576 15.0309 16.6403 15.0356H16.6226Z" fill="#6E1EE6"/>
<path d="M51.6562 6.79861V5.23389H61.3192V6.79861H57.368V17.7018H55.6569V6.79861H51.6562Z" fill="#6E1EE6"/>
<path d="M62.9453 14.1017C63.1534 15.5096 64.0883 16.4363 65.4819 16.4363C65.9827 16.4587 66.4797 16.3386 66.9162 16.0897C67.3528 15.8408 67.7115 15.4731 67.9514 15.0284L69.3626 15.67C68.657 17.0957 67.2458 17.9333 65.4819 17.9333C62.9453 17.9333 61.2695 16.0086 61.2695 13.4957C61.2695 10.9829 62.9453 9.07959 65.4748 9.07959C68.0043 9.07959 69.5813 10.9865 69.5813 13.4779C69.5822 13.687 69.5645 13.8958 69.5284 14.1017H62.9453ZM67.8844 12.7651C67.6727 11.4142 66.826 10.5588 65.4678 10.5588C64.854 10.5466 64.2578 10.7659 63.7953 11.1738C63.3329 11.5817 63.0374 12.149 62.9665 12.7651H67.8844Z" fill="#6E1EE6"/>
<path d="M75.6445 4.69922H77.2674V17.7017H75.6445V4.69922Z" fill="#6E1EE6"/>
<path d="M83.6161 9.07964C84.1963 9.06023 84.7743 9.16019 85.3151 9.37344C85.8559 9.58669 86.3481 9.90877 86.7619 10.3201C87.1756 10.7315 87.5023 11.2236 87.722 11.7664C87.9418 12.3093 88.05 12.8916 88.0401 13.478C88.0401 14.6634 87.574 15.8003 86.7443 16.6385C85.9147 17.4767 84.7894 17.9476 83.6161 17.9476C82.4428 17.9476 81.3175 17.4767 80.4879 16.6385C79.6582 15.8003 79.1921 14.6634 79.1921 13.478C79.1817 12.8914 79.2896 12.3089 79.5091 11.7658C79.7287 11.2227 80.0554 10.7305 80.4692 10.319C80.8831 9.90752 81.3755 9.58545 81.9165 9.37239C82.4575 9.15932 83.0358 9.05972 83.6161 9.07964ZM85.627 11.4143C85.0871 10.8881 84.3662 10.594 83.6161 10.594C82.866 10.594 82.1451 10.8881 81.6052 11.4143C81.3507 11.691 81.1527 12.0157 81.0225 12.3698C80.8924 12.7239 80.8326 13.1005 80.8467 13.478C80.8183 14.2521 81.0905 15.0067 81.6052 15.5809C81.8629 15.8548 82.1758 16.0696 82.5227 16.2111C82.8696 16.3525 83.2424 16.4171 83.6161 16.4007C85.3095 16.4007 86.3996 15.1888 86.3996 13.478C86.4165 12.7202 86.1392 11.9859 85.627 11.4321V11.4143Z" fill="#6E1EE6"/>
<path d="M52.6797 22.7485H55.5373V35.7511H52.6797V22.7485Z" fill="#6E1EE6"/>
<path d="M57.4727 22.7485H60.3303V35.7511H57.4727V22.7485Z" fill="#6E1EE6"/>
<path d="M64.6818 32.3118C64.7694 32.7107 64.9955 33.0648 65.319 33.3099C65.6425 33.5551 66.0422 33.6751 66.4458 33.6484C66.7939 33.6532 67.1382 33.5749 67.4508 33.4201C67.7634 33.2653 68.0355 33.0382 68.245 32.7573L70.5347 33.8872C69.7621 35.3129 68.1921 36.0258 66.4105 36.0258C63.694 36.0258 61.8242 34.1011 61.8242 31.4314C61.8242 28.7618 63.6905 26.8335 66.4105 26.8335C69.1306 26.8335 70.9227 28.7582 70.9227 31.4136C70.9283 31.7111 70.9047 32.0084 70.8522 32.3011L64.6818 32.3118ZM68.0686 30.4619C67.9929 30.0842 67.7818 29.748 67.4758 29.5178C67.1698 29.2876 66.7905 29.1795 66.4105 29.2144C66.029 29.1922 65.6516 29.3044 65.3428 29.5319C65.034 29.7594 64.8128 30.0881 64.7171 30.4619H68.0686Z" fill="#6E1EE6"/>
<path d="M74.1165 27.147L76.1416 31.2281L78.1701 27.147H81.3453L76.9177 35.8046H75.3513L70.9414 27.147H74.1165Z" fill="#6E1EE6"/>
<path d="M86.0868 26.8442C88.8351 26.8442 90.8283 28.769 90.8283 31.4243C90.8283 34.0797 88.8351 36.0258 86.0868 36.0258C83.3385 36.0258 81.3594 34.0655 81.3594 31.4137C81.3594 28.7618 83.3174 26.8442 86.0868 26.8442ZM86.0868 29.3749C84.8873 29.3749 84.1464 30.2303 84.1464 31.4243C84.1464 32.6184 84.8873 33.5059 86.0868 33.5059C87.2863 33.5059 88.0413 32.6326 88.0413 31.4243C88.0413 30.2161 87.2863 29.3749 86.0868 29.3749Z" fill="#6E1EE6"/>
<path d="M93.6819 32.4614C94.1498 32.4614 94.5984 32.6492 94.9292 32.9834C95.26 33.3176 95.4459 33.7709 95.4459 34.2436C95.4459 34.7162 95.26 35.1695 94.9292 35.5037C94.5984 35.838 94.1498 36.0257 93.6819 36.0257C93.2141 36.0257 92.7654 35.838 92.4346 35.5037C92.1038 35.1695 91.918 34.7162 91.918 34.2436C91.918 33.7709 92.1038 33.3176 92.4346 32.9834C92.7654 32.6492 93.2141 32.4614 93.6819 32.4614Z" fill="#6E1EE6"/>
</g>
<defs>
<clipPath id="clip0_512_1290">
<rect width="95" height="41" fill="white" transform="translate(0.5 0.0263672)"/>
</clipPath>
</defs>
</svg>
