<svg width="599" height="452" viewBox="0 0 599 452" fill="none" xmlns="http://www.w3.org/2000/svg">
<path d="M338.481 374.183C348.269 377.513 358.341 379.909 368.454 382.021V365.654H318.742C325.078 369.025 331.658 371.868 338.481 374.183Z" fill="#201000"/>
<path d="M252.013 385.473C247.139 385.961 242.874 389.494 238.651 391.647C237.798 392.094 236.417 391.769 236.254 390.672C235.076 383.565 239.828 378.731 245.189 374.832C248.967 372.071 254.084 369.471 257.333 365.694H100.398V398.836H267.243C261.963 394.612 257.13 389.86 252.013 385.473Z" fill="#201000"/>
<path d="M231.098 377.026H215.502C212.984 377.026 212.984 380.925 215.502 380.925H231.098C233.616 380.925 233.616 377.026 231.098 377.026Z" fill="white"/>
<path d="M196.005 384.824H188.857C186.339 384.824 186.339 388.723 188.857 388.723H196.005C198.524 388.723 198.524 384.824 196.005 384.824Z" fill="white"/>
<path d="M149.827 373.777H127.732C125.214 373.777 125.214 377.676 127.732 377.676H149.827C152.345 377.676 152.345 373.777 149.827 373.777Z" fill="white"/>
<path d="M219.274 296.812H183.898V356.149H219.274V296.812Z" fill="white"/>
<path d="M219.278 358.14H183.903C182.806 358.14 181.953 357.287 181.953 356.19V296.852C181.953 295.756 182.806 294.903 183.903 294.903H219.278C220.375 294.903 221.227 295.756 221.227 296.852V356.19C221.227 357.246 220.334 358.14 219.278 358.14ZM185.852 354.241H217.328V298.802H185.852V354.241Z" fill="#201000"/>
<path d="M323.086 321.465H80.089C75.5401 321.465 71.3568 319.84 68.1077 317.119C64.0056 313.707 61.4062 308.549 61.4062 302.782V107.751C61.4062 101.861 64.1274 96.5816 68.392 93.17C71.6005 90.6112 75.662 89.0679 80.089 89.0679H323.086C328.244 89.0679 332.915 91.1392 336.286 94.5508C339.657 97.9219 341.769 102.593 341.769 107.751V302.741C341.769 306.762 340.51 310.458 338.357 313.504C334.986 318.337 329.422 321.465 323.086 321.465Z" fill="white"/>
<path d="M322.762 323.414H80.4142C68.839 323.414 59.457 313.992 59.457 302.457V108.116C59.457 96.5409 68.8796 87.1589 80.4142 87.1589H322.762C334.337 87.1589 343.719 96.5815 343.719 108.116V302.457C343.719 313.992 334.337 323.414 322.762 323.414ZM80.4142 91.0173C70.9916 91.0173 63.356 98.6529 63.356 108.075V302.416C63.356 311.839 70.9916 319.474 80.4142 319.474H322.762C332.184 319.474 339.82 311.839 339.82 302.416V108.116C339.82 98.6935 332.184 91.058 322.762 91.058H80.4142V91.0173Z" fill="#201000"/>
<path d="M79.0745 209.734C78.6684 209.734 78.2216 209.612 77.8967 209.328C77.4093 208.962 77.125 208.394 77.125 207.784V106.126C77.125 105.029 77.9779 104.177 79.0745 104.177H166.599C167.168 104.177 167.696 104.42 168.061 104.826C168.427 105.232 168.589 105.801 168.548 106.329C162.944 155.27 127.203 196.778 79.6025 209.653C79.44 209.693 79.237 209.734 79.0745 209.734ZM81.024 108.076V205.185C125.131 192.188 158.232 153.645 164.365 108.076H81.024Z" fill="#F2C34B"/>
<path d="M324.102 286.13H79.0745C77.9779 286.13 77.125 285.277 77.125 284.18V106.126C77.125 105.029 77.9779 104.177 79.0745 104.177H324.062C325.158 104.177 326.011 105.029 326.011 106.126V284.18C326.052 285.277 325.158 286.13 324.102 286.13ZM81.024 282.231H322.112V108.076H81.024V282.231Z" fill="#201000"/>
<path d="M257.779 358.708H145.398V349.692C145.398 348.392 146.454 347.336 147.754 347.336H255.423C256.723 347.336 257.779 348.392 257.779 349.692V358.708Z" fill="white"/>
<path d="M257.779 360.658H145.399C144.302 360.658 143.449 359.805 143.449 358.708C143.449 351.357 149.42 345.387 156.771 345.387H246.448C253.799 345.387 259.769 351.357 259.769 358.708C259.729 359.805 258.876 360.658 257.779 360.658ZM147.551 356.759H255.627C254.733 352.494 250.956 349.286 246.407 349.286H156.771C152.222 349.286 148.445 352.494 147.551 356.759Z" fill="#201000"/>
<path d="M305.217 308.102C308.806 308.102 311.715 305.193 311.715 301.604C311.715 298.015 308.806 295.106 305.217 295.106C301.628 295.106 298.719 298.015 298.719 301.604C298.719 305.193 301.628 308.102 305.217 308.102Z" fill="#F2C34B"/>
<path d="M305.213 310.093C300.543 310.093 296.766 306.315 296.766 301.645C296.766 296.974 300.543 293.197 305.213 293.197C309.884 293.197 313.661 296.974 313.661 301.645C313.661 306.315 309.884 310.093 305.213 310.093ZM305.213 297.055C302.695 297.055 300.665 299.086 300.665 301.604C300.665 304.122 302.695 306.153 305.213 306.153C307.732 306.153 309.762 304.122 309.762 301.604C309.762 299.127 307.732 297.055 305.213 297.055Z" fill="#F2C34B"/>
<path d="M192.676 246.449C177.446 246.449 163.88 246.409 162.703 246.409C161.647 246.409 160.753 245.556 160.753 244.459L160.469 173.79C160.469 172.734 161.322 171.84 162.418 171.84C169.282 171.8 188.046 170.865 192.798 166.885C194.707 165.301 197.794 159.575 201.083 153.523C208.353 140.08 216.639 124.849 225.046 127.327C226.752 127.814 228.051 128.992 228.742 130.738C232.072 138.861 221.634 160.306 217.37 168.429C230.854 168.469 251.567 169.525 251.608 184.309C251.649 189.305 248.643 192.635 245.394 194.625C248.521 196.168 251.445 198.849 251.689 203.195C251.811 205.225 251.121 207.094 249.78 208.596C248.724 209.774 247.303 210.587 245.881 211.196C249.009 212.902 252.095 215.704 252.136 220.172C252.136 224.314 249.699 226.832 246.856 228.254C248.846 229.96 249.658 232.315 249.699 234.427C249.699 239.748 244.866 245.556 236.702 246.043C231.747 246.368 210.993 246.449 192.676 246.449ZM164.652 242.51C175.496 242.55 228.458 242.672 236.418 242.185C242.267 241.819 245.759 237.961 245.759 234.468C245.759 231.828 243.688 230.122 240.236 229.919C239.18 229.878 238.408 228.985 238.408 227.97C238.408 226.914 239.22 226.061 240.276 226.02C240.601 226.02 248.237 225.614 248.196 220.212C248.156 214.526 238.611 212.699 238.489 212.658C237.515 212.455 236.824 211.602 236.905 210.587C236.987 209.612 237.799 208.8 238.774 208.8C240.358 208.718 244.947 208.109 246.897 205.997C247.546 205.266 247.831 204.454 247.79 203.438C247.465 197.793 239.383 196.899 239.302 196.899C238.327 196.818 237.596 196.006 237.555 195.072C237.515 194.097 238.164 193.244 239.099 193.082C239.464 193 247.709 191.173 247.709 184.431C247.668 179.395 244.013 176.064 236.54 174.196C229.838 172.531 221.431 172.449 214.121 172.449C213.43 172.449 212.78 172.084 212.455 171.515C212.09 170.906 212.09 170.175 212.415 169.566C218.629 158.275 227.564 138.211 225.127 132.363C224.884 131.713 224.518 131.388 223.949 131.226C218.507 129.642 210.1 145.197 204.536 155.513C200.758 162.458 197.794 167.901 195.357 169.972C189.549 174.846 170.866 175.658 164.449 175.82L164.652 242.51Z" fill="#E18F78"/>
<path d="M217.533 246.165C217.452 246.165 217.33 246.165 217.249 246.124C213.878 245.637 210.629 243.606 208.842 240.926C207.379 238.773 206.933 236.336 207.542 233.94C209.573 225.695 222.163 225.858 233.251 226.02C235.81 226.061 238.206 226.101 240.277 226.02C241.333 225.939 242.267 226.832 242.308 227.888C242.349 228.944 241.496 229.878 240.44 229.919C238.287 230 235.81 229.96 233.21 229.919C224.519 229.797 212.619 229.635 211.319 234.874C210.994 236.214 211.238 237.514 212.091 238.773C213.309 240.56 215.543 241.982 217.858 242.306C218.914 242.469 219.645 243.444 219.483 244.54C219.32 245.474 218.508 246.165 217.533 246.165Z" fill="#E18F78"/>
<path d="M216.434 230.366C216.353 230.366 216.231 230.366 216.15 230.325C212.941 229.838 209.57 227.523 207.54 224.395C205.915 221.837 205.387 219.115 206.078 216.679C208.271 208.881 221.105 208.881 232.436 208.881C234.711 208.881 236.863 208.881 238.772 208.799C239.828 208.718 240.762 209.612 240.803 210.668C240.844 211.724 239.991 212.658 238.935 212.698C236.985 212.78 234.751 212.78 232.436 212.78C223.501 212.78 211.236 212.78 209.814 217.735C209.286 219.562 210.22 221.39 210.829 222.283C212.21 224.436 214.647 226.182 216.719 226.467C217.775 226.629 218.506 227.604 218.343 228.7C218.221 229.635 217.368 230.366 216.434 230.366Z" fill="#E18F78"/>
<path d="M216.356 213.755C216.153 213.755 215.99 213.714 215.787 213.673C204.578 210.262 205.187 203.317 205.999 200.514C208.192 192.797 222.286 192.879 234.754 192.919C237.354 192.919 239.79 192.96 241.781 192.879C242.877 192.797 243.771 193.691 243.811 194.747C243.852 195.803 242.999 196.737 241.943 196.778C239.872 196.859 237.354 196.859 234.714 196.818C225.9 196.778 211.117 196.696 209.736 201.57C208.68 205.347 211.076 208.19 216.924 209.937C217.94 210.262 218.549 211.358 218.224 212.374C217.98 213.186 217.209 213.755 216.356 213.755Z" fill="#E18F78"/>
<path d="M214.158 197.671C214.077 197.671 213.955 197.671 213.874 197.63C210.422 197.103 207.051 194.991 205.264 192.229C203.883 190.076 203.477 187.68 204.127 185.365C206.32 177.567 219.154 177.567 230.485 177.567C232.76 177.567 234.912 177.567 236.821 177.486C237.877 177.404 238.811 178.298 238.852 179.354C238.893 180.41 238.04 181.344 236.984 181.385C235.034 181.466 232.801 181.466 230.485 181.466C221.55 181.466 209.285 181.466 207.863 186.421C207.498 187.68 207.741 188.939 208.513 190.117C209.691 191.944 212.087 193.407 214.402 193.772C215.458 193.935 216.189 194.909 216.027 196.006C215.945 196.981 215.133 197.671 214.158 197.671Z" fill="#E18F78"/>
<path d="M251.929 152.589C251.523 152.589 251.077 152.467 250.752 152.183C249.899 151.533 249.736 150.315 250.427 149.462L263.667 132.404C264.317 131.551 265.535 131.388 266.388 132.079C267.241 132.728 267.404 133.947 266.713 134.8L253.473 151.858C253.107 152.345 252.539 152.589 251.929 152.589Z" fill="#201000"/>
<path d="M258.594 166.804C257.822 166.804 257.091 166.317 256.766 165.545C256.36 164.53 256.888 163.392 257.904 163.027L270.21 158.275C271.225 157.909 272.362 158.397 272.728 159.412C273.134 160.428 272.606 161.565 271.591 161.93L259.284 166.682C259.041 166.763 258.797 166.804 258.594 166.804Z" fill="#201000"/>
<path d="M143.979 70.1416H0V117.498H143.979V70.1416Z" fill="#ED967E"/>
<path d="M120.302 92.9266H23.68C22.5834 92.9266 21.7305 92.0737 21.7305 90.9771C21.7305 89.8805 22.5834 89.0276 23.68 89.0276H120.302C121.399 89.0276 122.252 89.8805 122.252 90.9771C122.252 92.0737 121.358 92.9266 120.302 92.9266Z" fill="white"/>
<path d="M127.858 64.4556C135.17 64.4556 141.098 58.5276 141.098 51.2152C141.098 43.9028 135.17 37.9749 127.858 37.9749C120.545 37.9749 114.617 43.9028 114.617 51.2152C114.617 58.5276 120.545 64.4556 127.858 64.4556Z" fill="#6E1EE6"/>
<path d="M46.8666 337.061C44.2673 333.609 41.668 330.116 39.0686 326.664C37.5659 324.674 34.1949 326.623 35.6976 328.613C38.2969 332.065 40.8963 335.558 43.4956 339.01C44.9984 341.001 48.3694 339.051 46.8666 337.061Z" fill="#E18F78"/>
<path d="M42.9674 311.027C40.8149 307.981 38.6217 304.975 36.4691 301.929C35.007 299.898 31.636 301.848 33.0981 303.879C35.2507 306.925 37.4438 309.93 39.5964 312.976C41.0585 315.048 44.4296 313.098 42.9674 311.027Z" fill="#E18F78"/>
<path d="M397.616 54.5049C396.925 53.8144 395.504 53.6926 394.854 54.5049C393.108 56.6575 391.402 58.8507 389.655 61.0032C389.006 61.8155 388.843 62.9527 389.655 63.765C390.346 64.4555 391.767 64.5773 392.417 63.765C394.164 61.6124 395.869 59.4193 397.616 57.2667C398.266 56.4544 398.387 55.3172 397.616 54.5049Z" fill="#E18F78"/>
<path d="M487.537 218.182C494.847 212.821 503.783 208.678 512.921 208.962L500.533 164.449C500.533 164.449 521.369 150.762 519.054 111.812C518.079 95.2414 510.078 79.4017 497.609 69.8979C477.139 54.3019 431.001 50.1998 428.361 84.5191C429.823 114.493 423.081 146.619 425.762 165.789C426.655 172.206 429.214 179.192 432.91 182.035C443.957 190.483 457.279 185.284 457.279 185.284L473.809 231.422C477.749 226.345 482.5 221.918 487.537 218.182Z" fill="white"/>
<path d="M475.308 229.635L459.184 184.593C459.022 184.106 458.615 183.7 458.169 183.497C457.925 183.375 457.641 183.334 457.356 183.334C457.113 183.334 456.869 183.375 456.666 183.456C456.544 183.497 444.238 188.168 434.165 180.491C431.282 178.298 428.683 172.247 427.748 165.505C426.408 155.96 427.505 142.639 428.683 128.505C429.82 114.818 431.079 99.3027 430.388 84.519C431.201 74.3654 436.034 67.2172 444.725 63.3182C460.199 56.3731 484 61.8967 496.468 71.4005C508.45 80.5388 516.207 95.688 517.141 111.893C519.334 149.137 499.677 162.662 499.474 162.824C498.783 163.271 498.458 164.164 498.661 164.977L510.927 209.003C512.267 208.962 513.648 209.003 515.029 209.125L502.804 165.22C507.312 161.606 523.071 146.416 521.04 111.69C520.025 94.3478 511.699 78.1425 498.824 68.3138C485.502 58.1601 460.403 52.0273 443.101 59.7847C433.11 64.2523 427.342 72.7408 426.449 84.3566C426.449 84.4378 426.449 84.519 426.449 84.6003C427.139 99.1403 425.88 114.574 424.743 128.18C423.565 142.517 422.428 156.041 423.849 166.033C424.702 172.247 427.261 180.126 431.769 183.578C441.151 190.726 451.833 188.899 456.138 187.721L472.506 233.331C473.359 232.031 474.293 230.813 475.308 229.635Z" fill="#201000"/>
<path d="M519.095 111.812C518.12 95.2413 510.119 79.4016 497.65 69.8977C482.501 58.3632 453.299 53.1239 438.109 65.1052C445.704 65.8769 452.934 68.2326 458.863 72.9438C460.569 81.3105 462.275 89.6771 464.022 98.0843C464.915 102.471 464.956 112.259 470.236 114.046C472.429 114.777 474.135 114.371 475.394 113.152C475.556 114.614 475.881 114.411 476.003 115.874C477.221 118.229 478.318 120.585 479.171 122.981C483.395 134.556 483.192 153.97 494.117 161.971C496.879 163.961 498.382 166.154 501.549 166.439C506.301 162.337 521.004 144.263 519.095 111.812Z" fill="#201000"/>
<path d="M422.553 147.878C422.106 147.878 421.659 147.715 421.294 147.431C411.181 139.105 414.958 130.779 421.213 117.011C422.756 113.64 424.502 109.822 426.249 105.517C426.655 104.501 427.792 104.055 428.807 104.461C429.823 104.867 430.27 106.004 429.864 107.019C428.076 111.365 426.33 115.224 424.787 118.635C418.248 133.013 416.38 138.293 423.771 144.425C424.584 145.116 424.705 146.334 424.015 147.187C423.649 147.634 423.122 147.878 422.553 147.878Z" fill="#201000"/>
<path d="M473.238 112.299C490.784 98.1654 506.095 105.679 509.304 115.711C514.665 132.282 501.993 144.466 476.65 144.466" fill="white"/>
<path d="M476.649 146.416C475.552 146.416 474.699 145.563 474.699 144.466C474.699 143.37 475.552 142.517 476.649 142.517C490.498 142.517 500.774 138.821 505.648 132.16C508.816 127.814 509.425 122.331 507.475 116.32C506.095 112.096 502.317 108.603 497.565 107.223C490.539 105.151 482.376 107.507 474.456 113.843C473.603 114.533 472.384 114.371 471.735 113.558C471.044 112.705 471.207 111.487 472.019 110.837C484.041 101.13 493.91 102.064 498.703 103.527C504.754 105.314 509.425 109.7 511.171 115.183C513.527 122.453 512.715 129.154 508.775 134.556C503.17 142.151 491.758 146.416 476.649 146.416Z" fill="#201000"/>
<path d="M496.633 117.701C489.769 117.254 483.19 121.153 480.347 127.408C479.291 129.683 482.662 131.673 483.718 129.358C486.074 124.24 491.028 121.235 496.633 121.6C499.151 121.763 499.151 117.864 496.633 117.701Z" fill="#201000"/>
<path d="M433.925 112.3C435.271 112.3 436.362 111.208 436.362 109.863C436.362 108.517 435.271 107.426 433.925 107.426C432.579 107.426 431.488 108.517 431.488 109.863C431.488 111.208 432.579 112.3 433.925 112.3Z" fill="#201000"/>
<path d="M438.273 94.9165C437.135 94.4291 435.998 93.9417 434.861 93.4543C433.886 93.0482 432.79 93.17 432.18 94.1448C431.693 94.9571 431.896 96.4193 432.871 96.8254L436.282 98.2876C437.257 98.6937 438.354 98.5719 438.963 97.5971C439.45 96.7848 439.247 95.3633 438.273 94.9165Z" fill="#201000"/>
<path d="M445.664 151.086C444.892 154.011 442.334 156.244 439.287 156.448C436.81 156.61 436.769 160.509 439.287 160.347C444.08 160.062 448.223 156.813 449.441 152.102C450.05 149.706 446.314 148.65 445.664 151.086Z" fill="#201000"/>
<path d="M400.791 394.408C400.628 394.408 400.425 394.368 400.263 394.327C399.857 394.205 358.998 382.508 333.898 374.304C322.445 370.567 313.713 364.557 307.337 360.211C301.854 356.474 297.548 353.509 295.761 354.971C295.518 355.175 295.274 355.418 295.274 355.662C295.315 356.962 298.767 359.602 300.838 361.186C303.519 363.216 305.874 365.003 306.605 366.953C306.971 367.968 306.484 369.105 305.468 369.471C304.453 369.836 303.316 369.349 302.95 368.334C302.625 367.44 300.229 365.653 298.483 364.313C295.03 361.673 291.416 358.952 291.375 355.784C291.375 354.809 291.659 353.347 293.284 352.007C297.345 348.676 302.463 352.21 309.53 357.043C315.703 361.267 324.151 367.075 335.076 370.649C360.095 378.812 400.913 390.509 401.319 390.631C402.375 390.915 402.943 392.012 402.659 393.027C402.415 393.88 401.644 394.408 400.791 394.408Z" fill="#201000"/>
<path d="M308.632 370.04C308.632 370.04 291.533 359.236 282.923 355.865C270.617 351.032 258.148 355.987 264.119 360.455C267.205 362.77 271.064 361.876 275.491 362.77C282.801 364.232 288.162 372.03 288.162 372.03" fill="white"/>
<path d="M288.164 373.939C287.555 373.939 286.946 373.654 286.539 373.086C286.499 373.004 281.503 365.897 275.086 364.638C273.665 364.354 272.284 364.272 270.943 364.191C268.222 364.029 265.42 363.826 262.942 361.998C259.612 359.52 260.709 356.88 261.115 356.149C263.43 352.007 273.746 350.179 283.615 354.037C292.307 357.449 308.959 367.968 309.649 368.415C310.543 368.984 310.827 370.202 310.258 371.095C309.69 371.989 308.471 372.273 307.578 371.705C307.415 371.583 290.52 360.942 282.194 357.693C275.695 355.134 268.953 355.5 265.704 357.165C264.811 357.612 264.526 358.018 264.486 358.14C264.486 358.18 264.689 358.505 265.257 358.911C266.801 360.048 268.75 360.17 271.187 360.333C272.609 360.414 274.193 360.536 275.858 360.861C283.859 362.445 289.504 370.568 289.748 370.933C290.357 371.827 290.114 373.045 289.261 373.654C288.936 373.817 288.53 373.939 288.164 373.939Z" fill="#201000"/>
<path d="M250.23 371.583C252.627 367.603 260.344 362.729 266.192 363.216C275.412 364.029 288.124 371.989 288.124 371.989" fill="white"/>
<path d="M288.163 373.939C287.798 373.939 287.432 373.857 287.148 373.654C287.026 373.573 274.72 365.937 266.069 365.166C260.789 364.719 253.885 369.349 251.935 372.598C251.367 373.532 250.189 373.817 249.255 373.248C248.321 372.68 248.036 371.502 248.605 370.568C251.488 365.816 259.936 360.698 266.394 361.267C275.979 362.079 288.651 369.999 289.219 370.324C290.113 370.892 290.397 372.111 289.829 373.004C289.423 373.614 288.813 373.939 288.163 373.939Z" fill="#201000"/>
<path d="M277.441 376.376C277.441 376.376 265.378 369.065 256.159 368.253C249.01 367.643 241.09 373.37 240.562 378.041" fill="white"/>
<path d="M240.522 379.99C240.441 379.99 240.4 379.99 240.319 379.99C239.263 379.868 238.491 378.934 238.572 377.837C239.222 371.664 248.482 365.653 256.28 366.303C265.865 367.115 277.928 374.385 278.415 374.71C279.349 375.279 279.634 376.457 279.065 377.391C278.496 378.325 277.319 378.609 276.385 378.041C276.263 377.959 264.606 370.933 255.915 370.202C249.579 369.633 242.796 374.913 242.431 378.284C242.349 379.259 241.537 379.99 240.522 379.99Z" fill="#201000"/>
<path d="M417.765 452C408.261 452 398.31 448.71 384.907 444.283C382.349 443.43 379.627 442.537 376.784 441.643C348.029 432.383 275.167 404.034 266.759 399.566C263.754 397.982 261.033 395.667 258.352 393.434C252.91 388.844 250.107 386.935 248.077 388.966C244.584 392.459 239.507 395.708 235.73 394.368C234.674 394.002 232.846 392.865 232.562 389.738C231.993 383.402 240.604 373.086 247.021 372.517C252.788 372.03 263.47 377.472 264.688 378.081C265.622 378.569 266.028 379.746 265.5 380.721C265.013 381.696 263.835 382.061 262.86 381.533C259.896 379.99 251.245 376.01 247.346 376.375C245.396 376.538 242.512 378.569 240.116 381.412C237.72 384.255 236.258 387.463 236.42 389.372C236.542 390.509 236.908 390.672 237.03 390.712C238.167 391.119 241.497 390.022 245.274 386.245C250.067 381.452 255.793 386.245 260.83 390.469C263.348 392.581 265.907 394.733 268.546 396.155C276.872 400.541 349.288 428.728 377.922 437.947C380.765 438.881 383.486 439.775 386.045 440.628C409.276 448.304 420.932 452.122 437.747 442.049C452.693 433.073 486.484 350.098 502.243 307.493C502.608 306.478 503.746 305.95 504.761 306.356C505.776 306.721 506.304 307.859 505.898 308.874C504.03 313.951 459.598 433.479 439.737 445.42C431.898 450.091 424.953 452 417.765 452Z" fill="#201000"/>
<path d="M481.491 356.15C466.422 356.15 431.453 345.265 424.427 331.781C423.94 330.806 424.305 329.628 425.239 329.141C426.214 328.653 427.392 329.019 427.879 329.953C435.393 344.371 478.485 354.606 485.186 351.804C486.161 351.398 487.339 351.844 487.745 352.86C488.151 353.875 487.705 355.012 486.689 355.418C485.471 355.946 483.684 356.15 481.491 356.15Z" fill="#201000"/>
<path d="M596.754 410.492C595.819 410.492 594.967 409.801 594.845 408.826C594.763 408.258 586.519 353.266 569.867 289.744C553.946 229.188 526.612 207.297 506.589 212.495C473.732 220.984 464.147 244.134 446.804 286.211L445.505 289.379C427.188 333.73 400.91 397.942 400.666 398.592C400.26 399.607 399.123 400.054 398.107 399.648C397.092 399.241 396.645 398.104 397.051 397.089C397.295 396.439 423.573 332.227 441.89 287.876L443.19 284.708C461.019 241.494 470.848 217.694 505.614 208.718C525.922 203.479 555.936 221.309 573.644 288.77C590.377 352.494 598.622 407.73 598.703 408.258C598.866 409.314 598.134 410.329 597.078 410.492C596.957 410.492 596.875 410.492 596.754 410.492Z" fill="#201000"/>
<path d="M467.07 430.027C466.054 430.027 465.201 429.256 465.12 428.24L462.846 402.572C462.764 401.516 463.536 400.541 464.633 400.46C465.689 400.378 466.663 401.15 466.745 402.247L469.019 427.915C469.1 428.971 468.329 429.946 467.232 430.027C467.191 430.027 467.151 430.027 467.07 430.027Z" fill="#201000"/>
<path d="M374.43 311.555L407.571 306.194C394.94 297.38 380.766 296.893 374.43 311.555Z" fill="white"/>
<path d="M374.429 313.504C374.185 313.504 373.901 313.464 373.657 313.342C372.683 312.895 372.236 311.758 372.642 310.783C375.363 304.488 379.709 300.345 385.232 298.761C392.096 296.771 400.463 298.842 408.708 304.569C409.601 305.178 409.804 306.397 409.195 307.29C408.586 308.184 407.367 308.387 406.474 307.778C399.204 302.741 392.015 300.873 386.288 302.498C381.861 303.757 378.49 307.047 376.216 312.286C375.932 313.058 375.201 313.504 374.429 313.504Z" fill="#201000"/>
<path d="M422.802 338.198C416.67 327.841 408.344 315.494 401.439 315.291C359.809 313.951 358.347 348.798 358.509 349.042H418.619C420.122 345.509 421.543 341.894 422.802 338.198Z" fill="#201000"/>
<path d="M431.98 313.992C409.561 306.194 386.167 298.396 374.429 311.555C361.514 326.095 372.114 324.267 380.278 318.378C389.051 312.042 417.806 318.378 406.109 327.151C395.021 335.477 386.776 341.61 392.95 344.696C397.823 347.133 423.167 334.462 423.167 334.462" fill="white"/>
<path d="M394.575 346.889C393.56 346.889 392.748 346.768 392.138 346.443C389.702 345.224 389.092 343.559 388.97 342.422C388.564 337.914 395.063 333.081 404.891 325.689C407.653 323.617 406.963 322.643 406.638 322.236C403.51 317.972 387.183 315.86 381.457 319.962C377.558 322.764 370.207 326.663 367.323 323.495C365.211 321.14 366.957 317.038 373.009 310.255C385.803 295.837 410.699 304.528 432.631 312.164C433.647 312.53 434.174 313.626 433.85 314.641C433.484 315.657 432.387 316.185 431.372 315.86C410.577 308.631 387.021 300.426 375.933 312.895C371.547 317.809 370.613 320.043 370.45 320.856C371.75 320.856 375.243 319.678 379.182 316.835C386.249 311.717 405.135 313.626 409.765 319.962C410.74 321.302 412.527 324.876 407.328 328.775C400.708 333.73 392.626 339.782 392.829 342.138C392.869 342.381 393.235 342.706 393.844 343.031C396.24 344.25 410.496 338.726 422.315 332.796C423.29 332.309 424.468 332.715 424.914 333.649C425.402 334.624 424.996 335.802 424.061 336.248C418.66 338.929 402.048 346.889 394.575 346.889Z" fill="#201000"/>
<path d="M379.425 323.739C379.222 330.441 379.019 337.183 378.857 343.884C378.775 346.402 382.674 346.402 382.756 343.884C382.959 337.183 383.162 330.441 383.324 323.739C383.405 321.221 379.507 321.221 379.425 323.739Z" fill="white"/>
<path d="M369.47 0H233.898V80.62H369.47V0Z" fill="#F2C34B"/>
<path d="M333.406 29.4862H266.149C265.052 29.4862 264.199 28.6332 264.199 27.5367C264.199 26.4401 265.052 25.5872 266.149 25.5872H333.406C334.503 25.5872 335.356 26.4401 335.356 27.5367C335.356 28.5926 334.503 29.4862 333.406 29.4862Z" fill="white"/>
<path d="M333.406 49.3467H266.149C265.052 49.3467 264.199 48.4938 264.199 47.3972C264.199 46.3007 265.052 45.4478 266.149 45.4478H333.406C334.503 45.4478 335.356 46.3007 335.356 47.3972C335.356 48.4938 334.503 49.3467 333.406 49.3467Z" fill="white"/>
<path d="M369.471 80.62V106.979L337.02 74.5278L369.471 80.62Z" fill="#F2C34B"/>
</svg>
