<svg width="559" height="471" viewBox="0 0 559 471" fill="none" xmlns="http://www.w3.org/2000/svg">
<path d="M538.464 459.206H328.677C327.461 459.206 326.516 458.26 326.516 457.044C326.516 455.828 327.461 454.883 328.677 454.883H538.464C547.427 454.883 554.678 447.586 554.678 438.669C554.678 429.706 547.382 422.455 538.464 422.455H526.574C525.358 422.455 524.412 421.509 524.412 420.293C524.412 419.077 525.358 418.132 526.574 418.132H538.464C549.814 418.132 559.001 427.364 559.001 438.669C559.046 449.973 549.814 459.206 538.464 459.206Z" fill="#201000"/>
<path d="M337.73 365.122C332.19 365.122 327.236 362.6 323.903 358.682C321.291 355.574 319.715 351.521 319.715 347.107V253.383C319.715 248.429 321.742 243.88 324.984 240.638C328.227 237.395 332.731 235.368 337.73 235.368C347.683 235.368 355.745 243.43 355.745 253.383V347.107C355.745 357.061 347.683 365.122 337.73 365.122Z" fill="#95CBEF"/>
<path d="M530.177 401.198H332.641V222.938C332.641 216.362 335.703 210.552 340.432 206.724C343.99 203.887 348.449 202.22 353.358 202.22H530.177V401.198Z" fill="#F2C34B"/>
<path d="M530.174 388.182H354.301V441.507H530.174V388.182Z" fill="#F2C34B"/>
<path d="M530.179 403.359H332.642C331.426 403.359 330.48 402.413 330.48 401.197C330.48 399.981 331.471 399.036 332.642 399.036H530.179C531.395 399.036 532.34 399.981 532.34 401.197C532.34 402.413 531.395 403.359 530.179 403.359Z" fill="white"/>
<path d="M394.658 423.536H365.834C364.618 423.536 363.672 422.591 363.672 421.375C363.672 420.158 364.618 419.213 365.834 419.213H394.658C395.874 419.213 396.82 420.158 396.82 421.375C396.82 422.545 395.874 423.536 394.658 423.536Z" fill="white"/>
<path d="M503.879 311.077H445.509C444.293 311.077 443.348 310.131 443.348 308.915C443.348 307.699 444.293 306.753 445.509 306.753H503.879C505.095 306.753 506.04 307.699 506.04 308.915C506.04 310.131 505.095 311.077 503.879 311.077Z" fill="white"/>
<path d="M503.879 326.21H445.509C444.293 326.21 443.348 325.264 443.348 324.048C443.348 322.832 444.293 321.886 445.509 321.886H503.879C505.095 321.886 506.04 322.832 506.04 324.048C506.04 325.264 505.095 326.21 503.879 326.21Z" fill="white"/>
<path d="M503.879 341.342H445.509C444.293 341.342 443.348 340.397 443.348 339.181C443.348 337.965 444.293 337.019 445.509 337.019H503.879C505.095 337.019 506.04 337.965 506.04 339.181C506.04 340.397 505.095 341.342 503.879 341.342Z" fill="white"/>
<path d="M323.82 417.592C323.865 417.637 323.91 417.637 323.955 417.682C325.982 418.763 327.018 421.06 326.477 423.402C325.892 425.969 322.829 427.635 320.352 426.87C318.145 426.194 316.479 424.483 314.993 422.771C314.002 421.6 312.966 420.384 312.065 419.123C312.155 419.889 312.29 420.654 312.38 421.375C312.38 421.42 312.38 421.465 312.38 421.51C313.326 424.663 314.092 427.951 313.642 431.238C313.191 434.841 311.029 437.499 308.012 438.625C307.111 439.66 305.94 440.516 304.454 441.237C301.391 442.768 298.734 443.218 296.347 442.858C295.356 443.309 294.275 443.579 293.149 443.579C290.312 443.579 287.745 441.777 286.259 439.48C285.133 437.769 284.907 435.742 284.187 433.941C283.511 432.364 282.52 430.878 281.755 429.302C277.926 423.762 274.053 418.448 268.514 417.682C268.288 417.637 268.108 417.592 267.883 417.547H255.047C255.633 425.383 255.047 433.04 252.435 440.651C251.759 442.678 248.382 443.669 247.346 441.327C243.968 433.625 244.734 425.609 245.86 417.592H213.432C213.702 418.943 213.027 420.519 211.766 420.97C210.235 422.546 207.397 423.222 205.641 421.871C203.659 420.339 201.497 419.123 199.335 417.817C199.2 417.727 199.11 417.682 198.975 417.592H188.211C190.778 420.79 193.39 423.987 195.912 427.23C198.525 430.518 200.957 433.625 202.443 437.589C203.389 440.111 201.362 443.038 198.975 443.714C196.228 444.48 193.796 442.768 192.85 440.246C193.255 441.327 192.354 439.21 192.219 438.985C191.859 438.354 191.499 437.724 191.093 437.138C190.103 435.697 188.932 434.301 187.851 432.95C187.22 432.184 186.59 431.374 185.959 430.608C187.4 434.256 188.391 437.949 188.751 441.462C189.112 445.11 188.751 448.893 185.193 450.785C183.257 451.821 181.545 450.965 179.609 451.325C176.096 451.956 175.961 452.406 172.808 455.964C171.367 457.586 168.755 456.595 168.169 454.748C167.944 453.983 167.494 453.217 167.043 452.451C166.323 453.802 165.557 455.108 164.611 456.505C163.665 457.901 161.504 458.486 160.242 457.045C155.243 451.55 151.595 440.967 144.029 438.715C137.318 436.733 132.184 443.173 127.23 446.641C125.338 447.947 123.311 449.028 121.465 449.524V470.241H337.737V417.637H323.82V417.592Z" fill="#E18F78"/>
<path d="M227.082 451.821H211.95C209.157 451.821 209.157 456.144 211.95 456.144H227.082C229.875 456.144 229.875 451.821 227.082 451.821Z" fill="white"/>
<path d="M236.802 434.526H230.317C227.525 434.526 227.525 438.85 230.317 438.85H236.802C239.595 438.85 239.595 434.526 236.802 434.526Z" fill="white"/>
<path d="M320.083 447.497H306.032C303.239 447.497 303.239 451.821 306.032 451.821H320.083C322.876 451.821 322.876 447.497 320.083 447.497Z" fill="white"/>
<path d="M193.573 457.225H188.168C185.376 457.225 185.376 461.549 188.168 461.549H193.573C196.365 461.549 196.365 457.225 193.573 457.225Z" fill="white"/>
<path d="M285.449 449.659H273.559C270.767 449.659 270.767 453.983 273.559 453.983H285.449C288.241 453.983 288.241 449.659 285.449 449.659Z" fill="white"/>
<path d="M42.9624 176.819C33.6846 198.122 60.4371 211.588 77.4615 202.401C88.766 196.32 93.7201 184.25 96.0621 172.27C97.5934 164.344 98.1339 155.786 102.007 148.535C107.186 138.852 117.005 135.474 126.868 132.952V132.997C126.057 135.654 130.246 136.78 131.057 134.123C137.137 113.991 113.312 105.254 98.0888 113.045C85.8836 119.306 79.3531 132.051 72.3722 143.176C66.8325 151.958 60.6173 157.948 53.0059 164.749C49.0876 168.307 45.0792 171.955 42.9624 176.819Z" fill="#201000"/>
<path d="M203.657 151.913C224.959 143.176 228.202 116.243 207.034 113.856C185.867 111.469 138.307 113.18 123.759 134.979C109.212 156.777 91.1068 181.278 114.076 199.743C137.091 218.254 203.657 151.913 203.657 151.913Z" fill="#201000"/>
<path d="M156.412 257.347L161.141 237.125C173.346 240.277 182.579 240.142 190.821 230.955C199.153 221.677 201.089 196.41 204.242 172.36C205.278 164.389 205.098 157.588 203.657 151.868C199.738 136.195 186.317 128.764 163.077 128.268C136.055 127.683 131.236 143.581 131.236 143.581C130.155 141.014 127.407 137.816 123.714 134.979C114.752 128.088 100.34 123.494 91.242 136.195C78.4062 154.12 93.629 171.685 113.265 179.386C113.265 179.386 111.644 200.013 119.796 209.607C119.796 209.607 117.454 232.846 114.617 257.707C114.166 261.941 145.963 293.782 156.412 257.347Z" fill="white"/>
<path d="M139.705 276.803C138.354 276.803 137.003 276.668 135.787 276.398C124.843 274.236 112.052 261.941 112.547 257.437C115.024 235.593 117.186 214.741 117.637 210.237C110.881 201.41 110.926 185.827 111.106 180.782C97.865 175.243 88.317 166.145 85.3895 156.237C83.2727 149.076 84.7139 141.689 89.578 134.889C93.136 129.935 97.6848 127.007 103.134 126.196C112.908 124.755 121.78 130.61 125.113 133.222C127.545 135.114 129.617 137.141 131.103 139.122C134.436 134.033 142.948 125.701 163.125 126.106C187.671 126.647 201.632 134.889 205.776 151.373C207.307 157.318 207.487 164.298 206.406 172.675C205.956 176.098 205.551 179.566 205.1 182.989C202.488 204.067 200.056 223.974 192.445 232.441C183.887 241.944 174.339 242.439 162.765 239.782L158.531 257.887C158.531 257.932 158.531 257.977 158.486 257.977C154.207 272.93 146.506 276.803 139.705 276.803ZM116.826 257.752C117.637 260.229 128.716 272.209 139.255 272.479C146.236 272.57 151.28 267.39 154.343 256.851L159.072 236.674C159.207 236.089 159.567 235.638 160.062 235.323C160.558 235.008 161.143 234.918 161.729 235.098C173.033 238.025 181.59 238.116 189.247 229.603C195.958 222.172 198.435 201.995 200.822 182.539C201.227 179.116 201.677 175.648 202.128 172.18C203.119 164.479 202.938 157.858 201.587 152.498C197.939 137.951 185.689 130.97 163.035 130.52C138.129 129.98 133.49 143.716 133.31 144.302C133.04 145.157 132.274 145.788 131.373 145.833C130.472 145.878 129.617 145.382 129.256 144.527C128.311 142.275 125.653 139.302 122.411 136.78C116.331 132.096 109.305 129.799 103.72 130.61C99.4864 131.241 95.8833 133.583 93.046 137.546C88.9475 143.311 87.7315 149.211 89.4879 155.111C92.1001 163.938 101.558 172.495 114.124 177.404C115.024 177.765 115.565 178.62 115.475 179.566C115.475 179.746 114.034 199.428 121.465 208.255C121.825 208.706 122.005 209.291 121.96 209.877C121.96 210.057 119.618 233.251 116.826 257.752Z" fill="#201000"/>
<path d="M181.008 198.482C180.378 198.482 179.792 198.212 179.342 197.717C178.576 196.816 178.666 195.42 179.612 194.654C187.224 188.214 187.539 178.44 180.783 157.453C180.423 156.327 181.053 155.111 182.179 154.75C183.305 154.39 184.521 155.021 184.882 156.147C191.232 175.918 192.853 189.114 182.404 197.987C181.999 198.302 181.504 198.482 181.008 198.482Z" fill="#201000"/>
<path d="M157.03 165.871C157.644 164.51 157.04 162.91 155.68 162.295C154.319 161.681 152.719 162.286 152.104 163.646C151.49 165.006 152.095 166.607 153.455 167.221C154.815 167.835 156.416 167.231 157.03 165.871Z" fill="#201000"/>
<path d="M198.741 170.422C199.355 169.062 198.751 167.461 197.39 166.847C196.03 166.233 194.43 166.838 193.815 168.198C193.201 169.558 193.806 171.159 195.166 171.773C196.526 172.387 198.127 171.782 198.741 170.422Z" fill="#201000"/>
<path d="M152.946 204.698C147.451 203.797 144.254 198.347 146.325 193.123C147.361 190.556 143.398 188.754 142.362 191.321C139.255 199.158 143.848 207.58 152.225 208.976C155.018 209.427 155.693 205.148 152.946 204.698Z" fill="#201000"/>
<path d="M161.324 151.958C161.189 150.742 160.108 149.976 158.937 150.021C157.721 150.066 156.505 150.111 155.334 150.111C154.163 150.157 153.307 151.373 153.397 152.498C153.532 153.715 154.613 154.48 155.784 154.435C157 154.39 158.216 154.345 159.387 154.345C160.558 154.3 161.414 153.039 161.324 151.958Z" fill="#201000"/>
<path d="M199.017 152.769L196.54 151.643C194.018 150.517 192.216 154.435 194.738 155.606L197.215 156.732C199.782 157.858 201.539 153.895 199.017 152.769Z" fill="#201000"/>
<path d="M119.393 164.118C118.222 164.118 117.276 163.217 117.231 162.046C117.096 158.173 112.096 147.589 105.116 145.968C103.945 145.698 103.224 144.527 103.494 143.356C103.764 142.185 104.935 141.464 106.106 141.734C115.159 143.806 121.329 156.101 121.554 161.866C121.599 163.037 120.654 164.073 119.483 164.118C119.438 164.118 119.438 164.118 119.393 164.118Z" fill="#201000"/>
<path d="M129.433 142.95C132.316 148.04 139.026 145.292 142.81 143.04C149.07 139.302 153.799 133.627 156.726 127.007C157.807 124.485 154.114 122.278 152.988 124.8C152.763 125.295 152.538 125.791 152.268 126.286C152.087 126.241 151.952 126.151 151.772 126.151C145.512 125.926 139.387 127.592 134.343 131.421C131.055 133.943 126.911 138.582 129.433 142.95Z" fill="#201000"/>
<path d="M34.0891 433.265C33.3235 433.265 32.5578 432.859 32.1975 432.139C31.6571 431.103 32.0174 429.752 33.0983 429.211C124.75 380.21 160.781 385.344 181.904 395.298L183.93 396.244C202.981 405.206 213.43 410.115 215.592 416.466C216.312 418.537 216.087 420.744 214.961 422.906C212.439 427.77 204.197 423.672 194.649 418.943C191.632 417.457 187.623 415.475 186.047 415.115C185.507 415.475 184.786 415.565 184.155 415.295C183.029 414.889 182.489 413.628 182.894 412.502C183.165 411.782 183.705 411.241 184.426 410.926C186.362 410.16 189.155 411.376 196.541 415.07C200.639 417.096 209.061 421.24 211.178 420.744C211.719 419.663 211.809 418.763 211.493 417.862C209.917 413.268 198.838 408.044 182.084 400.162L180.057 399.216C159.835 389.713 125.111 384.939 35.125 433.04C34.7647 433.175 34.4044 433.265 34.0891 433.265Z" fill="#201000"/>
<path d="M199.109 447.722C195.776 447.722 193.074 444.344 189.966 440.426C188.39 438.444 186.769 436.372 185.057 434.886C184.156 434.076 184.111 432.724 184.922 431.824C185.733 430.923 187.084 430.878 187.985 431.688C189.921 433.445 191.678 435.652 193.344 437.769C195.236 440.156 197.848 443.443 199.109 443.443C199.334 443.443 199.649 443.218 199.965 442.768C200.1 442.588 200.28 441.912 200.1 440.561C198.974 433.31 188.48 417.231 173.978 407.548C172.987 406.873 172.717 405.567 173.392 404.531C174.068 403.54 175.374 403.27 176.41 403.945C191.137 413.763 202.982 430.788 204.424 439.885C204.784 442.272 204.469 444.164 203.388 445.47C202.127 446.956 200.73 447.722 199.109 447.722Z" fill="#201000"/>
<path d="M182.67 455.243C182.354 455.243 182.084 455.243 181.769 455.198C178.391 454.748 175.734 451.775 175.734 448.397C175.734 447.181 176.725 446.236 177.896 446.236C179.112 446.236 180.057 447.181 180.057 448.397C180.057 449.613 181.093 450.739 182.354 450.874C184.156 451.145 185.732 449.343 186.633 446.19C189.065 437.363 178.751 422.906 162.087 411.827C161.096 411.151 160.826 409.845 161.502 408.809C162.177 407.818 163.483 407.548 164.519 408.223C183.255 420.744 193.839 436.462 190.821 447.361C189.155 453.171 185.687 455.243 182.67 455.243Z" fill="#201000"/>
<path d="M171.95 459.972C171.635 459.972 171.365 459.927 171.139 459.927C167.446 459.431 164.339 455.874 164.339 452.225C164.339 451.009 165.285 450.064 166.501 450.064C167.717 450.064 168.662 451.009 168.662 452.225C168.662 453.757 170.194 455.468 171.725 455.648C173.707 455.919 174.788 453.261 175.238 451.64C177.535 443.398 171.86 429.706 153.935 417.817C152.944 417.141 152.674 415.835 153.349 414.799C154.025 413.808 155.331 413.538 156.367 414.213C176.049 427.319 182.129 443.038 179.426 452.811C177.67 459.071 173.887 459.972 171.95 459.972Z" fill="#201000"/>
<path d="M90.8359 464.071C89.9802 464.071 89.1695 463.53 88.8092 462.674C88.3588 461.548 88.9443 460.287 90.0252 459.882C90.3855 459.747 127.091 445.38 135.108 440.561C139.747 437.768 144.071 437.048 147.944 438.399C152.493 440.02 156.186 444.569 158.798 451.91C159.699 454.477 161.726 456.504 162.581 456.504C162.716 456.504 163.302 456.099 163.842 454.207C166.545 444.794 159.564 434.21 143.62 423.627C142.63 422.951 142.359 421.6 143.035 420.609C143.71 419.618 145.062 419.348 146.052 420.024C168.301 434.886 170.283 447.452 168.031 455.378C166.77 459.747 164.473 460.738 162.761 460.783C162.716 460.783 162.671 460.783 162.626 460.783C159.249 460.783 156.051 457 154.745 453.352C152.538 447.271 149.791 443.623 146.503 442.407C143.936 441.507 140.873 442.092 137.36 444.164C129.028 449.163 93.1328 463.17 91.6016 463.8C91.3764 464.025 91.1061 464.071 90.8359 464.071Z" fill="#201000"/>
<path d="M120.247 450.109C121.598 449.434 122.994 448.758 124.345 448.037C124.3 447.992 124.21 447.902 124.165 447.857C119.256 443.759 114.392 430.473 114.977 417.231C115.293 410.386 117.229 401.198 124.525 396.154C125.516 395.478 125.741 394.127 125.066 393.136C124.39 392.145 123.039 391.92 122.048 392.596C113.266 398.631 110.969 409.215 110.609 417.051C110.023 429.617 114.257 443.939 120.247 450.109Z" fill="#201000"/>
<path d="M322.649 430.337C317.739 430.337 313.731 424.077 309.858 417.997C307.876 414.889 304.904 410.25 303.507 409.935C302.336 409.665 301.616 408.539 301.886 407.368C302.156 406.197 303.282 405.476 304.453 405.746C307.606 406.467 310.218 410.52 313.506 415.7C316.298 420.068 320.126 426.059 322.649 426.059C323.414 426.059 323.549 425.833 323.594 425.743C324.18 424.707 323.729 421.014 320.171 414.979C313.191 403.224 295.626 385.885 275.629 386.29C245.138 386.876 227.619 397.865 220.503 420.924C220.142 422.05 218.926 422.726 217.8 422.365C216.674 422.005 215.999 420.789 216.359 419.663C224.061 394.577 242.886 382.597 275.539 381.966C295.986 381.606 314.902 397.64 323.865 412.772C326.161 416.646 329.674 423.762 327.332 427.86C326.432 429.481 324.765 430.337 322.649 430.337Z" fill="#201000"/>
<path d="M292.16 447.271C291.935 447.271 291.71 447.271 291.485 447.226C288.692 446.956 284.684 444.839 281.576 436.282C277.343 424.617 262.795 416.15 259.598 416.105C258.742 417.636 258.337 423.626 258.066 427.635C257.481 436.372 256.986 441.822 254.508 443.938C252.302 445.83 249.734 446.235 247.663 445.064C242.934 442.407 241.988 432.679 244.735 415.384C244.915 414.213 246.041 413.403 247.212 413.583C248.383 413.763 249.194 414.889 249.014 416.06C245.456 438.174 249.329 441.056 249.779 441.281C250.455 441.642 251.491 440.786 251.716 440.606C252.977 439.48 253.473 431.868 253.788 427.319C254.418 417.861 254.869 412.862 258.202 411.917C263.966 410.295 281.171 422.23 285.72 434.751C287.476 439.66 289.818 442.677 291.98 442.903C292.971 443.038 293.781 442.452 294.187 441.867C294.637 438.894 288.152 423.221 280.18 411.286C279.504 410.295 279.775 408.944 280.766 408.268C281.756 407.593 283.107 407.863 283.783 408.854C290.088 418.312 300.807 439.255 297.97 443.938C296.979 445.56 294.952 447.271 292.16 447.271Z" fill="#201000"/>
<path d="M296.077 445.064C294.997 445.064 294.051 444.254 293.916 443.173C293.781 442.002 294.591 440.921 295.807 440.741C299.32 440.29 301.707 439.66 302.563 437.858C304.59 433.76 300.626 423.266 290.808 406.692C290.178 405.656 290.538 404.35 291.574 403.72C292.61 403.089 293.916 403.449 294.546 404.485C305.761 423.401 309.319 433.94 306.481 439.75C304.545 443.713 300.221 444.569 296.348 445.019C296.258 445.064 296.168 445.064 296.077 445.064Z" fill="#201000"/>
<path d="M304.542 442.227C303.461 442.227 302.516 441.416 302.38 440.335C302.245 439.165 303.056 438.084 304.272 437.903C307.785 437.453 310.172 436.823 311.028 435.021C313.054 430.923 309.091 420.429 299.273 403.855C298.642 402.819 299.003 401.513 300.039 400.882C301.074 400.252 302.38 400.612 303.011 401.648C314.225 420.564 317.783 431.103 314.946 436.913C313.009 440.876 308.686 441.732 304.813 442.182C304.722 442.227 304.632 442.227 304.542 442.227Z" fill="#201000"/>
<path d="M6.52799 446.956C5.40205 446.956 4.45625 446.101 4.36618 444.975C4.32114 444.254 -1.89409 370.752 0.582998 323.552C3.24023 273.11 31.3439 262.301 114.484 255.5C115.7 255.41 116.736 256.311 116.826 257.482C116.916 258.653 116.015 259.734 114.844 259.824C28.8218 266.85 7.24861 279.415 4.90664 323.778C2.42955 370.662 8.59975 443.849 8.68982 444.569C8.7799 445.74 7.92418 446.821 6.70816 446.911C6.66312 446.956 6.57303 446.956 6.52799 446.956Z" fill="#201000"/>
<path d="M250.862 387.821C249.781 387.821 248.835 387.011 248.7 385.93C248.7 385.75 246.403 366.609 238.792 316.797C231.315 267.705 217.489 258.067 156.462 259.508C155.291 259.508 154.255 258.608 154.255 257.392C154.21 256.221 155.156 255.23 156.372 255.185C219.11 253.744 235.324 265.093 243.07 316.121C250.682 366.023 252.979 385.209 252.979 385.389C253.114 386.56 252.258 387.641 251.087 387.776C251.042 387.821 250.952 387.821 250.862 387.821Z" fill="#201000"/>
<path d="M58.9505 420.834C57.7795 420.834 56.8337 419.933 56.7886 418.763L53.0055 325.759C52.9604 324.588 53.9062 323.552 55.0772 323.507C56.2482 323.417 57.284 324.408 57.3291 325.579L61.1123 418.582C61.1573 419.753 60.2115 420.789 59.0405 420.834C58.9955 420.834 58.9505 420.834 58.9505 420.834Z" fill="#201000"/>
<path d="M215.55 400.837C214.469 400.837 213.523 400.027 213.388 398.901L203.299 309.5C203.164 308.329 204.02 307.249 205.191 307.113C206.362 306.978 207.443 307.834 207.578 309.005L217.666 398.405C217.801 399.576 216.946 400.657 215.775 400.792C215.685 400.792 215.64 400.837 215.55 400.837Z" fill="#201000"/>
<path d="M55.1727 341.342C54.9025 341.342 54.5872 341.297 54.317 341.162L3.51421 319.544C2.4333 319.094 1.89284 317.788 2.38826 316.707C2.83864 315.626 4.0997 315.085 5.22564 315.581L56.0284 337.199C57.1093 337.649 57.6498 338.955 57.1544 340.036C56.7941 340.847 55.9834 341.342 55.1727 341.342Z" fill="#201000"/>
<path d="M238.61 300.132C237.934 299.142 236.583 298.916 235.592 299.592L207.309 319.093C207.489 320.76 207.624 322.381 207.714 324.048L238.024 303.15C239.015 302.429 239.285 301.078 238.61 300.132Z" fill="#201000"/>
<path d="M356.824 167.271H242.924C241.708 167.271 240.762 166.325 240.762 165.109V111.739C240.762 110.523 241.708 109.577 242.924 109.577H356.824C358.04 109.577 358.986 110.523 358.986 111.739V165.064C358.986 166.28 358.04 167.271 356.824 167.271ZM245.085 162.947H354.663V113.901H245.085V162.947Z" fill="#201000"/>
<path d="M379.885 149.256C385.457 149.256 389.974 144.739 389.974 139.167C389.974 133.596 385.457 129.079 379.885 129.079C374.314 129.079 369.797 133.596 369.797 139.167C369.797 144.739 374.314 149.256 379.885 149.256Z" fill="#ED967E"/>
<path d="M330.884 141.329H268.146C266.93 141.329 265.984 140.383 265.984 139.167C265.984 137.951 266.93 137.006 268.146 137.006H330.839C332.055 137.006 333.001 137.951 333.001 139.167C333.001 140.383 332.055 141.329 330.884 141.329Z" fill="#201000"/>
<path d="M502.443 121.107C501.902 121.107 501.317 120.882 500.911 120.476L465.512 85.0766H338.099C336.883 85.0766 335.938 84.1308 335.938 82.9148V2.16181C335.938 0.94579 336.883 0 338.099 0H502.443C503.659 0 504.604 0.94579 504.604 2.16181V118.945C504.604 119.801 504.064 120.611 503.253 120.927C503.028 121.062 502.713 121.107 502.443 121.107ZM340.261 80.7529H466.412C466.998 80.7529 467.538 80.9781 467.944 81.3835L500.281 113.721V4.32363H340.261V80.7529Z" fill="#8646E6"/>
<path d="M430.383 33.193H363.322C362.106 33.193 361.16 32.2472 361.16 31.0312C361.16 29.8152 362.106 28.8694 363.322 28.8694H430.383C431.599 28.8694 432.545 29.8152 432.545 31.0312C432.545 32.2472 431.554 33.193 430.383 33.193Z" fill="#8646E6"/>
<path d="M450.921 55.892H363.322C362.106 55.892 361.16 54.9462 361.16 53.7302C361.16 52.5142 362.106 51.5684 363.322 51.5684H450.921C452.137 51.5684 453.083 52.5142 453.083 53.7302C453.083 54.9462 452.092 55.892 450.921 55.892Z" fill="#8646E6"/>
<path d="M473.618 33.193H446.595C445.379 33.193 444.434 32.2472 444.434 31.0312C444.434 29.8152 445.379 28.8694 446.595 28.8694H473.618C474.834 28.8694 475.78 29.8152 475.78 31.0312C475.78 32.2472 474.789 33.193 473.618 33.193Z" fill="#8646E6"/>
<path d="M15.5829 93.3638C13.6463 90.4813 11.7547 87.5989 9.8181 84.7165C8.28681 82.4195 4.54866 84.5814 6.07994 86.8783C8.01657 89.7607 9.90817 92.6432 11.8448 95.5256C13.3761 97.8676 17.1142 95.7057 15.5829 93.3638Z" fill="#6E1EE6"/>
<path d="M10.8983 110.208C8.96163 107.821 7.07004 105.389 5.1334 103.002C4.4128 102.101 2.83646 102.236 2.07082 103.002C1.17006 103.903 1.35021 105.164 2.07082 106.064C4.00745 108.452 5.89905 110.884 7.83568 113.271C8.55629 114.171 10.1326 114.036 10.8983 113.271C11.799 112.37 11.6189 111.109 10.8983 110.208Z" fill="#6E1EE6"/>
<path d="M539.871 159.254C536.989 162.632 534.107 165.965 531.224 169.343C529.423 171.46 532.485 174.522 534.287 172.405C537.169 169.028 540.052 165.695 542.934 162.317C544.69 160.2 541.673 157.138 539.871 159.254Z" fill="#F2C34B"/>
<path d="M49.7653 249.42C40.6227 249.42 33.1914 241.989 33.1914 232.846C33.1914 223.703 40.6227 216.272 49.7653 216.272C58.908 216.272 66.3393 223.703 66.3393 232.846C66.3393 241.989 58.908 249.42 49.7653 249.42ZM49.7653 220.596C43.0097 220.596 37.515 226.09 37.515 232.846C37.515 239.602 43.0097 245.096 49.7653 245.096C56.521 245.096 62.0157 239.602 62.0157 232.846C62.0157 226.09 56.521 220.596 49.7653 220.596Z" fill="#6E1EE6"/>
<path d="M323.825 77.6456C310.448 53.5503 297.072 29.5001 283.696 5.40482C282.345 2.97278 278.607 5.13459 279.958 7.56663C293.334 31.6619 306.71 55.7121 320.086 79.8074C321.483 82.2845 325.221 80.0776 323.825 77.6456Z" fill="#F2C34B"/>
</svg>
