<svg width="111" height="109" viewBox="0 0 111 109" fill="none" xmlns="http://www.w3.org/2000/svg">
<path d="M109.539 99.6646C109.884 96.9415 110.082 94.1133 110.082 91.1896C110.082 71.1631 101.364 54.9297 90.6132 54.9297C79.862 54.9297 71.1445 71.1631 71.1445 91.1896C71.1445 94.1038 71.3321 96.9415 71.6875 99.6646H109.539Z" fill="#8DE099"/>
<path d="M28.9767 45.5766L26.1334 40.226C25.857 39.7005 25.0375 40.1687 25.314 40.6847C26.2617 42.4714 27.2095 44.2485 28.1573 46.0353C28.4436 46.5703 29.263 46.1021 28.9767 45.5766Z" fill="#EFAB03"/>
<path d="M11.6506 99.6644H10.683C9.83401 95.8903 8.98497 92.1066 8.13593 88.3325C8.03721 87.893 7.93848 87.4535 7.83976 87.014C6.9611 83.1157 6.08245 79.2174 5.20379 75.3286C5.07545 74.7554 5.98372 74.5069 6.12194 75.0802C7.95823 83.2781 9.80439 91.476 11.6506 99.6644Z" fill="white"/>
<path d="M8.54234 87.5782C5.97548 85.524 3.39875 83.4793 0.831898 81.425C0.36789 81.0524 -0.313313 81.7021 0.160568 82.0747C2.72742 84.129 5.30415 86.1737 7.87101 88.2279C8.33501 88.6006 9.00634 87.9509 8.54234 87.5782Z" fill="white"/>
<path d="M104.161 70.5325L102.74 73.2842C102.463 73.8097 103.283 74.2779 103.559 73.7428L104.981 70.9911C105.247 70.4656 104.428 69.9974 104.161 70.5325Z" fill="white"/>
<path d="M22.4831 91.4101C22.4732 91.4101 22.4534 91.4101 22.4436 91.4101C22.1869 91.391 21.9894 91.1617 22.0092 90.9133C22.019 90.8082 22.9866 80.1547 25.3263 63.5965C27.6859 46.895 30.9142 42.5763 54.9538 41.7737C55.2204 41.7546 55.4376 41.9648 55.4474 42.2132C55.4573 42.4616 55.25 42.6814 54.9933 42.6909C31.5164 43.4744 28.5843 47.3727 26.2741 63.7207C23.9343 80.2598 22.9668 90.8942 22.9569 90.9993C22.9372 91.2286 22.7299 91.4101 22.4831 91.4101Z" fill="#201000"/>
<path d="M46.2686 43.2358H40.582V59.2972H46.2686V43.2358Z" fill="#201000"/>
<path d="M73.9071 41.8599H73.2852V59.2971H78.9718V43.4842C77.2934 42.93 75.5756 42.4618 73.9071 41.8599Z" fill="#201000"/>
<path d="M31.3359 63.1573L45.967 57.8545L49.2644 102.58L34.6334 107.883L31.3359 63.1573Z" fill="white"/>
<path d="M46.0768 65.8613L46.0077 64.8676L46.0768 65.8613L48.7622 102.274L46.0768 65.8613ZM49.7396 102.542L49.7099 102.179L47.8539 77.0402L47.0147 65.6606L46.9456 64.7052L46.4816 58.3895L46.4421 57.9213L46.4323 57.8162C46.4224 57.692 46.3631 57.5774 46.2644 57.4914C46.2447 57.4818 46.2348 57.4723 46.2151 57.4627C46.1558 57.4245 46.0966 57.4054 46.0275 57.3958C45.9781 57.3863 45.9288 57.3863 45.8794 57.3958C45.8695 57.3958 45.8695 57.3958 45.8597 57.3958C45.8498 57.3958 45.8399 57.3958 45.83 57.4054C45.8202 57.4054 45.8004 57.4149 45.7905 57.4149L40.647 59.2781L38.86 59.9278L31.2878 62.67L31.1693 62.7178C31.0114 62.7751 30.8929 62.9089 30.8732 63.0713C30.8633 63.1095 30.8633 63.1477 30.8633 63.186L30.8929 63.5395L33.2129 94.9743L33.2821 95.9298L33.5585 99.6561L34.1212 107.319L34.1607 107.787L34.1706 107.902C34.1804 108.045 34.2594 108.179 34.3878 108.255C34.4371 108.284 34.5062 108.313 34.5655 108.322C34.5754 108.322 34.5951 108.322 34.605 108.332C34.6148 108.332 34.6346 108.332 34.6445 108.332C34.6741 108.332 34.7037 108.332 34.7234 108.322C34.7333 108.322 34.7432 108.322 34.7531 108.313C34.7728 108.303 34.7925 108.303 34.8123 108.294L49.315 103.038L49.4335 103C49.6013 102.943 49.7099 102.8 49.7396 102.637C49.7396 102.609 49.7396 102.58 49.7396 102.542ZM34.2199 95.8438L34.1508 94.9074L31.8308 63.463L39.1858 60.7973L43.352 59.2877L45.5339 58.4946L45.5931 59.2877L46.0077 64.8676L46.0768 65.8613L48.7622 102.274L35.0591 107.243L34.4964 99.6752L34.2199 95.8438ZM46.0768 65.8613L46.0077 64.8676L46.0768 65.8613L48.7622 102.274L46.0768 65.8613Z" fill="#201000"/>
<path d="M67.1749 60.8833L45.9688 57.8545L49.2662 102.58L70.4724 105.609L67.1749 60.8833Z" fill="white"/>
<path d="M67.1719 60.8834L81.7832 55.3799L85.0806 100.105L70.4693 105.609L67.1719 60.8834Z" fill="white"/>
<path d="M78.4974 102.57C78.2407 102.57 78.0334 102.379 78.0235 102.131L77.7076 92.6527C77.6977 92.4616 77.8162 92.2991 77.984 92.2227L83.6706 89.7767C83.9076 89.6716 84.1939 89.7767 84.2926 90.006C84.4012 90.2353 84.2926 90.5124 84.0557 90.608L78.6554 92.9298L78.9614 102.102C78.9713 102.351 78.764 102.57 78.5073 102.58C78.5073 102.57 78.5073 102.57 78.4974 102.57Z" fill="#E18F78"/>
<path d="M34.6344 107.883L31.337 63.1574L17.1502 60.7783C17.1995 60.7305 17.2489 60.6923 17.2884 60.6446C17.6241 60.2624 17.8215 59.7942 17.8116 59.2878C17.8018 58.8196 17.3476 58.619 16.9823 58.705C16.8737 58.705 16.7651 58.7241 16.6467 58.791C16.2024 59.0298 15.8075 59.3547 15.5212 59.756C15.3632 59.9757 15.304 60.2337 15.3435 60.4726L13.2308 60.1191L13.3986 62.4504C11.513 65.5939 10.3678 69.1004 9.99259 72.7216C9.80502 74.5752 9.83463 76.4384 10.0814 78.2824C10.3184 80.0405 10.7133 81.8559 11.7499 83.3464C12.5496 84.493 13.7441 85.4293 15.1164 85.7829L16.5183 104.835L34.6344 107.883Z" fill="white"/>
<path d="M22.8739 106.239C22.6271 106.239 22.4198 106.058 22.4 105.819L20.1886 79.2089C20.1787 79.0656 20.2379 78.9318 20.3465 78.8363C20.4551 78.7407 20.6032 78.693 20.7513 78.7216L26.1219 79.6389C26.3293 79.6771 26.4872 79.8395 26.507 80.0497L27.899 93.9327L33.6053 95.0697L43.8629 92.1459L41.681 67.2847C41.6613 67.0936 41.7699 66.9216 41.9377 66.8356L46.3606 64.6954C46.4593 64.6476 46.5679 64.6381 46.6667 64.6572L55.6704 66.4917C55.8777 66.5299 56.0258 66.7019 56.0455 66.9025L57.1216 80.3173L61.821 81.1676C62.0776 81.2154 62.2455 81.4543 62.1961 81.7027C62.1468 81.9511 61.9 82.1135 61.6433 82.0658L56.5885 81.1485C56.3812 81.1103 56.2233 80.9383 56.2035 80.7377L55.1274 67.3134L46.6272 65.584L42.6387 67.514L44.8205 92.4326C44.8402 92.6523 44.702 92.853 44.4848 92.9103L33.7435 95.9678C33.6645 95.9869 33.5856 95.9965 33.5165 95.9773L27.356 94.7544C27.1487 94.7161 27.0006 94.5537 26.9809 94.3531L25.5888 80.4797L21.1758 79.7249L23.3379 105.742C23.3576 105.991 23.1602 106.22 22.9035 106.239C22.9035 106.239 22.8936 106.239 22.8739 106.239Z" fill="#E18F78"/>
<path d="M65.0899 83.4418C63.9348 82.3239 61.8615 80.3174 60.7065 79.1995C60.2721 78.7791 59.6007 79.4289 60.0351 79.8493C61.1902 80.9672 63.2634 82.9736 64.4185 84.0915C64.8529 84.5024 65.5243 83.8527 65.0899 83.4418Z" fill="#6E1EE6"/>
<path d="M64.1052 79.4577C62.7922 80.7285 61.4693 82.0088 60.1562 83.2796C59.7218 83.7 60.3932 84.3497 60.8276 83.9293L64.7766 80.1074C65.211 79.6966 64.5396 79.0469 64.1052 79.4577Z" fill="#6E1EE6"/>
<path d="M14.8484 75.8079L14.8188 75.3302C14.6707 75.378 14.5226 75.4353 14.3646 75.4926V75.655L14.3844 75.9703L14.414 76.4481C14.4831 76.4194 14.5621 76.3907 14.6411 76.3621C14.7102 76.3334 14.7793 76.3143 14.8582 76.2856C14.8681 76.2856 14.8681 76.2761 14.878 76.2761L14.8484 75.8079ZM14.6509 73.0753C14.5325 73.1135 14.414 73.1613 14.2955 73.1995V73.3619L14.6707 73.381L14.6509 73.0753ZM14.4535 70.4L14.4436 70.2567L14.4041 69.7407C14.3844 69.7503 14.3548 69.7694 14.335 69.7789C14.2856 69.8076 14.2363 69.8363 14.1869 69.8649L14.2067 70.4C14.1079 70.4573 14.0388 70.5051 13.9895 70.5433V70.5624C14.0684 70.5337 14.1376 70.5051 14.2067 70.486L14.2264 70.9733C14.3153 70.9446 14.4041 70.9064 14.493 70.8777L14.4535 70.4ZM14.1178 67.5814L14.2461 67.6291L14.2067 67.0654L14.177 66.6354V66.5877L14.1376 66.1099L14.1178 65.8615L14.1079 65.766L14.0487 65.0016C13.9105 65.2022 13.8118 65.3647 13.7427 65.4698C13.7328 65.4793 13.7229 65.4889 13.7229 65.4984C13.6834 65.5558 13.6637 65.5844 13.6637 65.5844L14.0586 65.8328L14.0684 66.129C13.9302 66.1768 13.8019 66.2246 13.6637 66.2724L13.6933 66.6737L13.7032 66.7501L13.7427 67.2278C13.8611 67.1801 13.9895 67.1418 14.1079 67.0941L14.1178 67.5814ZM35.1068 107.845L35.0969 107.711L35.0574 107.233L34.4947 99.6659L34.2183 95.844L34.1492 94.9077L31.8291 63.4633L31.7995 63.1193C31.7995 63.0716 31.7896 63.0333 31.7699 62.9951C31.7106 62.8422 31.5724 62.7276 31.4046 62.6989L31.2763 62.6798L26.5276 61.8868L25.5897 61.7339L18.0668 60.4727L17.5831 60.3962L17.0993 60.3198L15.3815 60.0332L14.8188 59.9376L14.2659 59.8421L13.2688 59.6796C13.1207 59.651 12.9825 59.6988 12.8739 59.7943C12.7653 59.8899 12.706 60.0236 12.7159 60.1669L12.8344 61.7435L12.8936 62.5461L12.9529 63.3773L13.1799 66.4635L13.1997 66.7501L13.2095 66.9412L13.2392 67.266L13.249 67.4189L13.4662 70.3904L13.5057 70.8873L13.6538 72.9415L13.713 73.8014L13.8512 75.6741L13.8907 76.1519L13.9302 76.6296L14.0586 78.3494L14.1178 79.152L14.1573 79.6775L14.1968 80.2222L14.5522 84.9899L14.5917 85.4581L14.6213 85.9263L15.6382 99.6946L16.0232 104.902C16.0429 105.112 16.2009 105.284 16.4181 105.322L34.5539 108.332C34.5638 108.332 34.5836 108.332 34.5934 108.342C34.6033 108.342 34.623 108.342 34.6329 108.342C34.6625 108.342 34.6921 108.342 34.7119 108.332C34.7218 108.332 34.7316 108.332 34.7415 108.322C34.7613 108.313 34.781 108.313 34.8007 108.303C34.8501 108.284 34.8995 108.256 34.939 108.217C35.0574 108.122 35.1167 107.988 35.1068 107.845ZM23.3289 105.523L22.3614 105.36L16.9611 104.453L16.6057 99.6659L15.1248 79.6393L15.0853 79.1425L15.0458 78.6457L14.9668 77.6137L14.8681 76.2761L14.8286 75.7984L14.799 75.3206L14.6707 73.5339L14.6608 73.3619L14.6411 73.0562L14.6016 72.5784L14.4732 70.8586L14.4436 70.3809L14.4337 70.2376L14.3942 69.7216L14.2363 67.61L14.1968 67.0463L14.1672 66.6163V66.5686L14.1277 66.0908L14.1079 65.8424L14.0981 65.7469L14.0388 64.9825L13.8118 61.9346L13.7624 61.2084L13.7229 60.6638L14.1277 60.7307L14.6509 60.8167L16.5662 61.1415L17.0697 61.2275L17.5732 61.3135L25.4515 62.632L26.3894 62.7849L30.8715 63.5397L33.1915 94.9746L33.2606 95.93L33.5371 99.6563L34.0998 107.319L23.3289 105.523ZM14.2067 67.0654L14.177 66.6354V66.5877L14.1376 66.1099L14.1178 65.8615L14.1079 65.766L14.0487 65.0016C13.9105 65.2022 13.8118 65.3647 13.7427 65.4698C13.7328 65.4793 13.7229 65.4889 13.7229 65.4984C13.6834 65.5558 13.6637 65.5844 13.6637 65.5844L14.0586 65.8328L14.0684 66.129C13.9302 66.1768 13.8019 66.2246 13.6637 66.2724L13.6933 66.6737L13.7032 66.7501L13.7427 67.2278C13.8611 67.1801 13.9895 67.1418 14.1079 67.0941L14.1178 67.5718L14.2461 67.6196L14.2067 67.0654ZM14.4535 70.4L14.4436 70.2567L14.4041 69.7407C14.3844 69.7503 14.3548 69.7694 14.335 69.7789C14.2856 69.8076 14.2363 69.8363 14.1869 69.8649L14.2067 70.4C14.1079 70.4573 14.0388 70.5051 13.9895 70.5433V70.5624C14.0684 70.5337 14.1376 70.5051 14.2067 70.486L14.2264 70.9733C14.3153 70.9446 14.4041 70.9064 14.493 70.8777L14.4535 70.4ZM14.6509 73.0753C14.5325 73.1135 14.414 73.1613 14.2955 73.1995V73.3619L14.6707 73.381L14.6509 73.0753ZM14.8484 75.8079L14.8188 75.3302C14.6707 75.378 14.5226 75.4353 14.3646 75.4926V75.655L14.3844 75.9703L14.414 76.4481C14.4831 76.4194 14.5621 76.3907 14.6411 76.3621C14.7102 76.3334 14.7793 76.3143 14.8582 76.2856C14.8681 76.2856 14.8681 76.2761 14.878 76.2761L14.8484 75.8079Z" fill="#201000"/>
<path d="M85.5237 99.6656L84.5957 87.0248L84.4772 85.477L84.4278 84.8464L82.8384 63.3388C82.8384 63.3293 82.8384 63.3102 82.8384 63.3006L82.7001 61.4852C82.7001 61.4757 82.7001 61.4566 82.7001 61.447L82.6903 61.3323L82.6409 60.6444V60.6349V60.6062L82.6113 60.1571L82.3743 57.0041L82.2559 55.3416C82.246 55.1983 82.167 55.0645 82.0387 54.9881C81.9103 54.9116 81.7524 54.8925 81.6142 54.9498L78.9782 55.9435L73.2916 58.0838L67.1213 60.4056L67.0028 60.4533C66.8448 60.5107 66.7264 60.654 66.7066 60.8164C66.6968 60.8451 66.6968 60.8833 66.7066 60.9119L66.7362 61.275L69.9646 105.064L69.9942 105.532L70.0041 105.637C70.0139 105.781 70.0929 105.914 70.2213 105.991C70.2805 106.029 70.3397 106.048 70.4088 106.058C70.4286 106.058 70.4582 106.067 70.4779 106.067C70.5372 106.067 70.5964 106.058 70.6458 106.039H70.6556L85.267 100.535C85.4644 100.459 85.5829 100.277 85.5632 100.076L85.5237 99.6656ZM78.0502 102.255L70.8926 104.949L70.4977 99.6656L69.5499 86.7955L69.54 86.6331L67.6643 61.189L73.2817 59.0679L78.9683 56.9277L81.3476 56.0295L81.4661 57.6443L82.0683 65.8708L82.1078 66.3963V66.4059L82.1275 66.7212L82.1374 66.9218L83.3221 82.9641L83.4307 84.3686L83.4899 85.1139L83.8256 89.7192L83.8947 90.6651L84.5562 99.6656L84.566 99.7994L78.9486 101.921L78.0502 102.255Z" fill="#201000"/>
<path d="M70.9448 105.57L70.935 105.427L70.9053 104.949L70.5104 99.6657L69.5627 86.7955L69.5528 86.6331L67.6474 60.8546C67.6474 60.8068 67.6375 60.7591 67.6178 60.7209C67.5585 60.568 67.4203 60.4533 67.2426 60.4342L67.1143 60.4151L46.2635 57.4341L46.0265 57.3958C45.9772 57.3863 45.9278 57.3863 45.8785 57.3958C45.8686 57.3958 45.8686 57.3958 45.8587 57.3958C45.8488 57.3958 45.839 57.3958 45.8291 57.4054C45.8192 57.4054 45.7995 57.4149 45.7896 57.4149C45.7304 57.4341 45.681 57.4627 45.6415 57.5105C45.5329 57.606 45.4835 57.7398 45.4934 57.8831L45.5033 58.0169L45.602 59.2877L46.0167 64.8676L46.0858 65.8613L48.7711 102.274L48.8007 102.618C48.8007 102.666 48.8106 102.704 48.8303 102.742C48.8896 102.895 49.0278 103.01 49.2055 103.038L49.324 103.058L70.4117 106.067C70.4314 106.067 70.4611 106.077 70.4808 106.077C70.5401 106.077 70.5993 106.067 70.6486 106.048H70.6585C70.7079 106.029 70.7572 106 70.8066 105.962C70.8955 105.848 70.9547 105.714 70.9448 105.57ZM49.709 102.179L47.853 77.0402L47.0138 65.6606L46.9447 64.7052L46.4807 58.3895L66.7293 61.2846L69.9576 105.074L49.709 102.179Z" fill="#201000"/>
<path d="M14.7105 84.9887C12.657 84.7976 11.5612 82.8866 11.0182 81.3292C9.27077 76.3895 10.2284 67.7712 13.5357 62.4301C13.5357 62.2008 13.5456 61.981 13.5653 61.7613C13.5456 61.4938 13.4962 61.2262 13.4567 60.9587C13.4567 60.9396 13.4567 60.9205 13.4567 60.9014C9.45835 66.3666 8.20454 76.1602 10.1396 81.635C11.0577 84.2434 12.6176 85.7244 14.6414 85.9155C14.6612 85.9155 14.671 85.9155 14.6908 85.9155C14.9277 85.9155 15.135 85.7339 15.1647 85.5046C15.1548 85.2371 14.9672 85.0078 14.7105 84.9887Z" fill="#201000"/>
<path d="M17.7919 58.4078C17.5451 58.2071 16.6072 57.6625 15.0473 59.0766C14.6524 59.4397 14.2773 59.8314 13.9219 60.2614C14.0009 60.3187 14.0798 60.376 14.1588 60.4429C14.4254 60.4333 14.7018 60.4524 14.9684 60.4716C15.1954 60.2136 15.4423 59.9747 15.6891 59.7454C16.4196 59.0766 16.9725 58.9524 17.17 59.1148C17.3773 59.2772 17.4266 59.8696 16.9725 60.5384C16.9528 60.5671 16.933 60.5958 16.9231 60.6149C17.2588 60.6626 17.5846 60.72 17.9104 60.7964C18.4435 59.8696 18.3941 58.8951 17.7919 58.4078Z" fill="#201000"/>
<path d="M18.7611 65.6401C12.6007 67.2453 12.6007 65.5255 12.1268 68.3919C11.6529 71.2583 11.2975 79.1695 14.1408 78.1376C16.9841 77.1057 18.7611 65.6401 18.7611 65.6401Z" fill="white"/>
<path d="M12.8242 67.0737C20.6235 64.2646 22.9139 62.8983 23.5359 64.4652C23.8814 65.3252 23.1213 66.1851 19.9719 67.4941C16.1513 69.0801 13.9201 70.5802 13.9201 70.5802C21.7194 67.7712 26.3891 68.0673 23.9604 71.3733L12.8242 67.0737Z" fill="white"/>
<path d="M23.9635 71.8416C23.8648 71.8416 23.7759 71.8129 23.687 71.7556C23.4699 71.6123 23.4205 71.3256 23.5784 71.1154C23.8746 70.7046 24.3386 69.9593 24.0326 69.5771C23.4995 68.9083 20.4094 68.7363 14.0811 71.0103C13.854 71.0868 13.6072 71.0008 13.4986 70.7906C13.39 70.5899 13.4492 70.332 13.6467 70.1982C13.7355 70.1313 15.9569 68.6503 19.7775 67.0643C23.46 65.5355 23.1836 64.8476 23.0947 64.6183C23.0058 64.4081 22.917 64.3412 22.8281 64.303C22.1963 64.0354 20.3699 64.7234 17.3291 65.8795C16.0852 66.3477 14.6833 66.8827 12.9852 67.4942C12.7384 67.5802 12.462 67.4656 12.3731 67.2267C12.2843 66.9878 12.4028 66.7298 12.6496 66.6343C14.3378 66.0228 15.7397 65.4973 16.9836 65.0291C20.5772 63.6724 22.216 63.0513 23.2033 63.4717C23.5488 63.6246 23.8154 63.9017 23.9733 64.2934C24.546 65.7362 22.8578 66.7872 20.1527 67.9146C19.4221 68.2204 18.7508 68.5166 18.1486 68.8032C21.6039 67.9624 23.9832 68.0197 24.7829 69.0134C25.1383 69.4625 25.3456 70.2746 24.3485 71.641C24.2597 71.7747 24.1116 71.8416 23.9635 71.8416Z" fill="#201000"/>
<path d="M13.8828 73.3414C21.6821 70.5323 25.7397 70.4654 23.8442 73.7713L13.8828 73.3414Z" fill="white"/>
<path d="M23.8413 74.2302C23.7623 74.2302 23.6833 74.2111 23.6142 74.1729C23.3871 74.0487 23.2983 73.7716 23.4266 73.5518C23.6636 73.141 24.0091 72.3957 23.7129 72.0613C23.1403 71.4116 20.297 71.5167 14.0477 73.7716C13.8009 73.8576 13.5245 73.7429 13.4356 73.504C13.3468 73.2652 13.4653 73.0072 13.7121 72.9117C19.7442 70.7332 23.3477 70.2459 24.4238 71.4593C24.9371 72.0326 24.8779 72.8925 24.2461 73.9913C24.1671 74.1442 24.0091 74.2302 23.8413 74.2302Z" fill="#201000"/>
<path d="M13.8395 76.1607C21.6388 73.3516 23.7515 73.3707 23.7318 75.0523C23.712 76.9346 15.3994 78.1958 13.6914 80.059L13.8395 76.1607Z" fill="white"/>
<path d="M13.7038 80.5171C13.5952 80.5171 13.4767 80.4788 13.3879 80.4024C13.1904 80.2304 13.1707 79.9438 13.3484 79.7527C14.1974 78.8259 16.3101 78.1093 18.5413 77.3545C20.4171 76.7143 23.2604 75.7588 23.2604 75.0518C23.2604 74.7078 23.1518 74.5932 23.0629 74.5263C21.9177 73.7428 15.9646 75.8926 14.0098 76.5997C13.763 76.6856 13.4866 76.571 13.3977 76.3321C13.3089 76.0933 13.4274 75.8353 13.6742 75.7397C20.6244 73.2364 22.668 73.1409 23.6059 73.781C24.0107 74.0581 24.218 74.4881 24.2082 75.0709C24.1884 76.4181 21.7203 77.2589 18.8474 78.2335C16.9222 78.8832 14.7404 79.6285 14.0493 80.3833C13.9605 80.4693 13.8321 80.5171 13.7038 80.5171Z" fill="#201000"/>
<path d="M105.36 92.9394C102.754 84.5313 98.2519 73.209 98.2519 73.209C98.2519 73.209 97.6201 70.8968 97.4918 70.7822C97.3141 70.3522 96.4749 71.0784 96.4157 71.4988C95.0532 72.5402 93.6415 72.3969 91.9335 72.7504C91.8545 72.7695 86.3852 65.3264 84.0651 61.9441C83.5912 61.495 83.1272 61.046 82.6533 60.6064C82.6435 60.6064 82.6336 60.6064 82.6336 60.616C82.8212 62.4027 82.9298 64.6576 83.0186 66.4635C83.0581 67.1801 82.2683 66.9316 82.061 66.2437C82.0511 66.2055 82.0412 66.1673 82.0314 66.1195C82.0314 66.1195 82.0314 66.1195 82.0215 66.1195C81.8734 66.2341 81.676 66.2915 81.4884 66.2341C81.4982 66.3679 81.4884 66.5017 81.5081 66.6354C79.1584 68.5559 81.8734 81.4069 81.8734 81.4069C83.0087 83.9963 84.1638 85.5823 84.924 85.6397C85.0721 86.0696 85.2301 86.4996 85.388 86.9295C88.1523 91.5636 89.6135 95.5192 92.4173 100.115C95.3297 101.959 98.2322 102.886 101.105 101.491C104.709 101.443 106.397 96.2836 105.36 92.9394Z" fill="white"/>
<path d="M82.5715 66.6064C75.019 63.205 72.8569 61.6762 72.1066 63.1858C71.692 64.0171 72.3831 64.9343 75.4139 66.4822C79.0964 68.3549 81.1992 70.027 81.1992 70.027C73.6467 66.6255 68.9771 66.5778 71.1194 70.0461L82.5715 66.6064Z" fill="white"/>
<path d="M71.116 70.5046C70.9581 70.5046 70.8001 70.4281 70.7112 70.2848C69.8227 68.8516 70.0991 68.049 70.494 67.6382C71.3628 66.7018 73.7421 66.826 77.1185 67.9344C76.536 67.6 75.8943 67.256 75.1934 66.8929C72.5771 65.5648 70.9877 64.3896 71.6787 62.9946C71.8663 62.6124 72.1526 62.3545 72.508 62.2303C73.5249 61.8863 75.1144 62.6316 78.5895 64.2558C79.7841 64.8196 81.1465 65.4502 82.7755 66.1859C83.0124 66.291 83.1111 66.5681 83.0025 66.7974C82.8939 67.0267 82.6076 67.1222 82.3707 67.0171C80.7319 66.2814 79.3694 65.6413 78.1749 65.0775C75.2427 63.7017 73.4755 62.8704 72.824 63.0902C72.7351 63.1188 72.6364 63.1762 72.5376 63.3864C72.3501 63.7686 72.4685 64.4565 75.6376 66.0808C79.3201 67.9535 81.4131 69.6064 81.5019 69.6733C81.6895 69.8166 81.729 70.0746 81.6006 70.2753C81.4723 70.4663 81.2156 70.5428 80.9984 70.4472C74.8774 67.6955 71.7873 67.6286 71.195 68.2592C70.8593 68.6127 71.2542 69.3962 71.5208 69.8262C71.659 70.0459 71.58 70.323 71.3529 70.4568C71.2838 70.4855 71.195 70.5046 71.116 70.5046Z" fill="#201000"/>
<path d="M81.0075 72.7693C73.455 69.3678 69.427 68.9952 71.0461 72.4349L81.0075 72.7693Z" fill="white"/>
<path d="M80.9988 73.2273C80.9297 73.2273 80.8606 73.2177 80.8014 73.1795C74.7594 70.4564 71.9359 70.1316 71.304 70.7335C70.9782 71.0488 71.2646 71.8132 71.4719 72.2432C71.5805 72.4725 71.4719 72.7496 71.2349 72.8547C70.998 72.9598 70.7117 72.8547 70.6031 72.6253C70.0601 71.4788 70.07 70.6284 70.6327 70.0838C71.8075 68.9563 75.3616 69.7207 81.1963 72.3483C81.4332 72.4534 81.5319 72.7305 81.4233 72.9598C81.3542 73.1317 81.1864 73.2273 80.9988 73.2273Z" fill="#201000"/>
<path d="M82.625 60.6152C87.6699 65.2588 100.623 86.9765 100.623 86.9765L82.625 60.6152Z" fill="white"/>
<path d="M100.625 87.4353C100.457 87.4353 100.299 87.3493 100.21 87.206C100.082 86.9862 87.2279 65.4978 82.2916 60.9498C82.104 60.7778 82.0942 60.4816 82.2719 60.3001C82.4496 60.1185 82.7556 60.109 82.9432 60.2809C87.9782 64.915 100.497 85.8588 101.02 86.7474C101.148 86.9671 101.069 87.2442 100.842 87.378C100.793 87.4162 100.704 87.4353 100.625 87.4353Z" fill="#201000"/>
<path d="M92.1429 73.352C91.8961 73.352 91.6789 73.18 91.6592 72.9412C91.6296 72.6928 91.827 72.4634 92.0936 72.4348C92.1331 72.4348 95.7958 72.0526 96.8818 70.4283C97.0298 70.2181 97.326 70.1512 97.5531 70.285C97.7802 70.4188 97.8493 70.7054 97.711 70.9156C96.3684 72.9221 92.3601 73.3329 92.1923 73.3425C92.1824 73.352 92.1627 73.352 92.1429 73.352Z" fill="#201000"/>
<path d="M97.9887 102.675C95.1849 102.675 92.6674 101.366 91.2358 98.9201C91.1371 98.7385 81.7681 81.6835 80.2576 79.7534C79.6356 78.9509 77.513 78.0432 75.6471 77.2501C72.8729 76.0653 70.4739 75.0334 70.5628 73.6958C70.6022 73.1225 70.8392 72.7021 71.2637 72.4537C72.2411 71.89 74.2748 72.1384 80.998 75.1672C81.235 75.2723 81.3337 75.5494 81.2251 75.7787C81.1165 76.008 80.8302 76.1036 80.5933 75.9985C78.6977 75.1481 72.942 72.5492 71.7376 73.2467C71.6389 73.3041 71.5204 73.4092 71.5006 73.7531C71.4513 74.4602 74.2057 75.6354 76.0223 76.4093C78.1844 77.3361 80.228 78.2056 81.0079 79.1993C82.5579 81.1866 91.6702 97.7735 92.0553 98.471C94.0396 101.853 98.2552 102.742 102.293 100.63C106.933 98.2035 105.324 93.8179 102.402 85.8684C101.888 84.4734 101.355 83.0307 100.802 81.4542C100.783 81.3968 99.1536 76.5144 93.1412 59.4307C87.3461 42.968 77.7598 42.0317 65.8338 42.5189C65.5969 42.5381 65.3501 42.3374 65.3402 42.0794C65.3303 41.831 65.5278 41.6113 65.7943 41.6017C77.6907 41.1144 88.0371 42.0985 94.0396 59.1345C100.052 76.2182 101.691 81.1198 101.711 81.1675C102.254 82.7345 102.787 84.1677 103.3 85.5627C106.301 93.7128 108.108 98.6334 102.747 101.443C101.168 102.274 99.5386 102.675 97.9887 102.675Z" fill="#201000"/>
<path d="M61.1073 19.1669C70.269 11.2174 65.5401 29.1229 72.1645 31.0911C76.2715 32.3141 75.9556 37.2061 71.2168 38.1234C66.4779 39.0406 58.8958 37.5119 60.1595 28.3394C61.4232 19.1669 61.1073 19.1669 61.1073 19.1669Z" fill="#201000"/>
<path d="M72.4916 18.0776C71.5932 15.1348 66.805 14.3417 64.0407 15.708C63.0535 16.1953 61.0296 11.0454 54.5335 10.9116C48.9358 10.8065 45.6482 12.4021 44.5425 16.0138C44.1377 17.3323 44.0291 18.9088 44.197 20.772C44.7202 26.3997 44.9275 32.2949 46.8329 34.5307C48.7186 36.7378 50.9399 36.8621 53.9017 36.2506L54.9679 42.2222C55.1851 49.0825 64.643 48.729 65.3834 42.0885C64.3567 35.7442 64.1099 30.2502 64.1099 30.2502C66.1535 28.1004 65.9363 25.2723 65.9363 25.2723C70.7343 23.6671 73.5184 21.4408 72.4916 18.0776Z" fill="white"/>
<path d="M72.9457 17.944C72.5804 16.7402 71.6227 15.7847 70.2011 15.1923C69.5199 14.9057 68.7696 14.7241 68.0193 14.6477C66.7062 14.5044 65.3537 14.6668 64.2282 15.1159C64.1097 15.1636 64.0011 15.2114 63.8827 15.2687C63.705 15.1827 63.3002 14.7814 62.9744 14.447C62.9053 14.3706 62.8263 14.2942 62.7473 14.2177C62.1352 13.6062 61.3257 12.8227 60.2298 12.1348C58.8279 11.2462 56.9818 10.501 54.5334 10.4532C50.4165 10.3672 47.5041 11.2176 45.7369 13.0234C44.9767 13.7973 44.4239 14.7528 44.0784 15.8802C43.9105 16.4153 43.792 16.979 43.7229 17.5905C43.6045 18.546 43.6045 19.6161 43.7131 20.8104C43.792 21.613 43.8513 22.4156 43.9204 23.2182C44.335 28.1389 44.7201 32.792 46.4576 34.8176C48.4124 37.1107 50.7028 37.3018 53.5165 36.7858L54.405 41.7734L54.4939 42.2607C54.4939 42.404 54.5037 42.5473 54.5235 42.6906C54.8295 46.0061 57.2582 47.5826 59.6276 47.6686C59.6967 47.6686 59.7757 47.6686 59.8448 47.6686C62.461 47.6686 65.2352 45.9296 65.7979 42.5186C65.8177 42.3944 65.8374 42.2607 65.8572 42.1269C65.8572 42.0887 65.8572 42.0504 65.8572 42.0027C65.8374 41.8689 65.8177 41.7351 65.7881 41.6014C65.5807 40.2924 65.4129 39.0216 65.2648 37.8368C64.8107 34.0914 64.633 31.1581 64.5935 30.4033C66.2126 28.5879 66.41 26.4286 66.4199 25.5782C67.0912 25.3489 67.7132 25.1005 68.2858 24.8521C72.2941 23.0844 73.8243 20.8104 72.9457 17.944ZM65.7782 24.8329C65.5709 24.8998 65.4425 25.0909 65.4623 25.3011C65.4623 25.3298 65.64 27.9573 63.7642 29.9351C63.6753 30.0211 63.6358 30.1453 63.6358 30.2696C63.6358 30.3078 63.7741 33.3462 64.2578 37.4547C64.4257 38.8974 64.6428 40.4739 64.8995 42.0982C64.5145 45.2704 61.9773 46.8469 59.6572 46.7609C57.7716 46.694 55.5404 45.4615 55.4416 42.2129V42.2033C55.4416 42.1938 55.4416 42.1747 55.4416 42.1651C55.4416 42.1556 55.4416 42.1556 55.4416 42.146V42.1173L54.3754 36.1743C54.3557 36.0501 54.2767 35.945 54.178 35.8686C54.099 35.8208 54.0101 35.7921 53.9114 35.7921C53.8818 35.7921 53.8423 35.7922 53.8127 35.8017C51.0484 36.375 48.9751 36.3081 47.2079 34.2347C45.6678 32.4289 45.2828 27.9191 44.8879 23.1418C44.8188 22.3392 44.7497 21.527 44.6806 20.7244C44.572 19.5397 44.5819 18.4695 44.7102 17.5236C44.7793 17.0268 44.878 16.5586 45.0064 16.1382C45.4309 14.7623 46.1812 13.6922 47.2968 12.9183C48.9159 11.8004 51.2952 11.294 54.5334 11.3609C56.1228 11.3895 57.4359 11.7335 58.512 12.2304C59.9435 12.8801 60.99 13.7782 61.7699 14.5426C61.9575 14.7241 62.1352 14.9057 62.2932 15.0681C63.0534 15.842 63.6161 16.4057 64.2381 16.1095C64.2479 16.1095 64.2479 16.1 64.2578 16.1C65.7584 15.3643 67.9403 15.307 69.6482 15.9471C69.7075 15.9662 69.7667 15.9949 69.8259 16.0236C70.2307 16.1955 70.6947 16.4344 71.0995 16.7879C71.5043 17.1415 71.8597 17.6001 72.0374 18.1925C72.7482 20.5334 71.4944 22.387 68.0884 23.9253C67.4072 24.2501 66.6371 24.5463 65.7782 24.8329Z" fill="#201000"/>
<path d="M52.5871 27.6035C52.4884 27.6035 52.3995 27.5748 52.3107 27.5175C49.6451 25.683 49.7636 22.6064 50.8594 17.9151C50.9187 17.6667 51.1754 17.5138 51.4222 17.5711C51.6788 17.6284 51.8368 17.8769 51.7776 18.1157C50.5929 23.1415 50.8792 25.4059 52.8537 26.7627C53.0709 26.906 53.1202 27.1926 52.9623 27.4029C52.8734 27.5366 52.7352 27.6035 52.5871 27.6035Z" fill="#201000"/>
<path d="M57.802 21.1435C58.1359 21.0135 58.2976 20.6462 58.1632 20.3231C58.0288 20 57.6493 19.8435 57.3154 19.9735C56.9816 20.1036 56.8199 20.4709 56.9542 20.794C57.0886 21.1171 57.4682 21.2736 57.802 21.1435Z" fill="#201000"/>
<path d="M47.7317 21.8022C48.0656 21.6722 48.2273 21.3048 48.0929 20.9818C47.9585 20.6587 47.579 20.5022 47.2451 20.6322C46.9113 20.7623 46.7496 21.1296 46.8839 21.4527C47.0183 21.7758 47.3979 21.9323 47.7317 21.8022Z" fill="#201000"/>
<path d="M56.3035 18.6512C56.2739 18.3645 56.4911 18.1448 56.7675 18.097C57.0538 18.0492 57.3401 18.0015 57.6264 17.9441C57.9028 17.8964 58.1694 18.1352 58.199 18.3932C58.2286 18.6798 58.0115 18.8996 57.735 18.9474C57.4487 18.9951 57.1624 19.0429 56.8761 19.1002C56.5997 19.148 56.3331 18.9092 56.3035 18.6512Z" fill="#201000"/>
<path d="M66.0338 21.8426C66.024 21.8426 66.0042 21.8426 65.9943 21.8426C65.7377 21.8234 65.5402 21.6037 65.56 21.3457C65.6686 20.0272 67.2679 17.2563 69.4398 16.855C69.6965 16.8072 69.9433 16.9697 69.9927 17.2181C70.0421 17.4665 69.8742 17.7054 69.6175 17.7532C67.88 18.0685 66.5867 20.4762 66.5077 21.4126C66.488 21.661 66.2807 21.8426 66.0338 21.8426Z" fill="#201000"/>
<path d="M64.5776 11.8673L43.5195 13.1668L44.1316 5.00709L62.6229 4.08984L64.5776 11.8673Z" fill="#201000"/>
<path d="M64.5749 11.8672L43.5168 13.1666L39.8047 17.8388L69.8961 15.4597L64.5749 11.8672Z" fill="#201000"/>
<path d="M64.0135 14.1319C63.8555 13.5968 63.0361 13.7879 63.0954 14.2943C62.9374 14.2274 62.7696 14.2083 62.6017 14.237C62.4339 14.2274 62.2661 14.2465 62.1081 14.323C61.8021 14.4663 61.6145 14.7051 61.5158 14.9727C61.2788 14.9727 61.0419 15.1256 61.0221 15.4122C60.9925 16.0046 61.0024 16.6543 61.3776 17.1511C61.7527 17.648 62.3944 17.8104 62.9868 17.6384C64.5861 17.1798 64.3689 15.3166 64.0135 14.1319Z" fill="#201000"/>
<path d="M56.5605 28.5687C56.2742 28.6547 55.9879 28.7503 55.7016 28.8363C55.4547 28.9127 55.2672 29.1038 55.3165 29.3713C55.356 29.5911 55.6226 29.8108 55.8694 29.744C56.1557 29.658 56.442 29.5624 56.7283 29.4764C56.9751 29.4 57.1627 29.2089 57.1133 28.9414C57.0738 28.7216 56.8073 28.4923 56.5605 28.5687Z" fill="#201000"/>
<path d="M48.0795 17.9155C47.4575 17.4856 46.4999 17.7244 46.1543 18.3741C45.8779 18.8996 46.6874 19.3583 46.9738 18.8328C47.1021 18.5843 47.3785 18.5461 47.6056 18.699C47.8129 18.8423 48.1387 18.7372 48.2572 18.5366C48.3855 18.3168 48.2868 18.0588 48.0795 17.9155Z" fill="#201000"/>
<path d="M16.4187 43.8052C16.1028 43.9581 15.7967 44.1205 15.4907 44.2925C15.4907 44.3785 15.4907 44.4644 15.4907 44.5504C15.4907 50.5412 10.7914 55.481 4.77899 56.102C4.60129 56.4173 4.43346 56.7422 4.26562 57.067C11.048 56.6753 16.4384 51.21 16.4384 44.5504C16.4384 44.302 16.4286 44.0536 16.4187 43.8052Z" fill="white"/>
<path d="M95.5632 26.2568C93.7368 26.2568 92.2461 27.6996 92.2461 29.4672C92.2461 31.2348 93.7368 32.6776 95.5632 32.6776C97.3897 32.6776 98.8804 31.2348 98.8804 29.4672C98.8804 27.6996 97.3897 26.2568 95.5632 26.2568ZM95.5632 31.7699C94.2601 31.7699 93.1939 30.738 93.1939 29.4768C93.1939 28.2155 94.2601 27.1836 95.5632 27.1836C96.8664 27.1836 97.9326 28.2155 97.9326 29.4768C97.9326 30.738 96.8664 31.7699 95.5632 31.7699Z" fill="#6E1EE6"/>
<path d="M19.1224 22.2536C18.0166 20.8777 16.9109 19.5018 15.8052 18.126C15.43 17.6578 14.7686 18.3171 15.1339 18.7757L18.4609 22.9033C18.8262 23.3619 19.4975 22.7122 19.1224 22.2536Z" fill="#6E1EE6"/>
<path d="M16.1796 27.0881C15.7649 26.6773 15.3503 26.2664 14.9356 25.846C14.5111 25.4256 13.8398 26.0753 14.2643 26.4957C14.679 26.9066 15.0936 27.3174 15.5083 27.7378C15.9328 28.1583 16.6041 27.5085 16.1796 27.0881Z" fill="#6E1EE6"/>
<path d="M93.9972 15.9093C92.7434 18.0591 92.0523 18.4604 90.7984 20.6006C90.5023 21.1166 91.3118 21.5752 91.6179 21.0593C92.8717 18.9095 93.5628 18.5082 94.8166 16.3679C95.1128 15.852 94.2934 15.3933 93.9972 15.9093Z" fill="#EFAB03"/>
<path d="M92.6549 46.8277C92.2304 46.0156 91.8157 45.1939 91.3912 44.3817C91.1148 43.8562 90.2954 44.3149 90.5718 44.8404C90.9963 45.6525 91.4109 46.4742 91.8355 47.2864C92.1119 47.8214 92.9313 47.3532 92.6549 46.8277Z" fill="#EFAB03"/>
<path d="M27.0557 0C24.6172 0 22.6328 1.92049 22.6328 4.28049C22.6328 6.64049 24.6172 8.56098 27.0557 8.56098C29.4942 8.56098 31.4786 6.64049 31.4786 4.28049C31.4786 1.92049 29.4942 0 27.0557 0ZM27.0557 7.64372C25.1404 7.64372 23.5806 6.13409 23.5806 4.28049C23.5806 2.42689 25.1404 0.917256 27.0557 0.917256C28.971 0.917256 30.5308 2.42689 30.5308 4.28049C30.5308 6.13409 28.971 7.64372 27.0557 7.64372Z" fill="#6E1EE6"/>
</svg>
