<svg width="120" height="97" viewBox="0 0 120 97" fill="none" xmlns="http://www.w3.org/2000/svg">
<path fill-rule="evenodd" clip-rule="evenodd" d="M85.3267 0.078125C87.7027 0.172313 90.0231 0.248991 92.3416 0.359964C95.5102 0.511871 98.5038 1.37369 101.439 2.43934C102.5 2.82454 103.558 3.22786 104.583 3.68974C110.039 6.1478 114.379 9.76364 117.336 14.7863C118.746 17.1802 119.487 19.778 119.812 22.4813C120.306 26.5991 119.813 30.6498 118.494 34.5749C117.217 38.3773 115.11 41.7782 112.334 44.8057C110.819 46.4577 109.146 47.9335 107.288 49.2303C104.43 51.226 101.582 53.2342 98.7168 55.2213C97.9312 55.7664 97.0903 56.2397 96.2965 56.7745C95.3705 57.3986 94.428 58.0092 93.563 58.7037C89.7603 61.7568 87.9152 65.6375 88.1532 70.3704C88.2367 72.0358 88.3528 73.7001 88.4143 75.3662C88.4743 76.9969 87.9465 78.4748 87.0201 79.843C86.5883 80.481 86.0546 81.0174 85.4412 81.4965C83.451 83.0516 81.201 84.1766 78.8114 85.0641C75.233 86.3927 71.5299 87.2868 67.7378 87.8693C65.0093 88.2884 62.2714 88.6198 59.5117 88.7892C56.0751 89 52.6387 88.9602 49.2059 88.7536C44.8703 88.4924 40.5639 87.9803 36.2816 87.2881C32.4381 86.6667 28.5981 86.0236 24.8213 85.0974C20.5065 84.0395 16.2299 82.8614 12.1398 81.1562C9.70823 80.1424 7.41005 78.914 5.3474 77.314C3.00526 75.4972 1.35373 73.2417 0.42976 70.5071C-0.0328663 69.1379 -0.0825795 67.7385 0.0950587 66.3391C0.540305 62.8317 1.6354 59.5269 3.67274 56.531C4.67097 55.063 5.88223 53.7652 7.17426 52.5291C8.3822 51.3734 9.6212 50.2454 10.7964 49.0608C11.525 48.3265 12.1932 47.5328 12.8306 46.7249C14.3758 44.7661 14.803 42.5709 14.3694 40.1756C14.1468 38.9459 13.9768 37.6963 13.9351 36.4512C13.8388 33.5766 14.7194 30.9093 16.0581 28.3574C17.1835 26.2122 18.6915 24.3292 20.4353 22.6065C25.7455 17.3601 31.8559 13.168 38.8726 10.1883C44.5261 7.78739 50.2394 5.52133 56.116 3.64506C59.2707 2.63786 62.5186 1.98241 65.8153 1.58392C69.4061 1.14993 73.003 0.736956 76.6095 0.451495C79.5225 0.220976 82.4538 0.193565 85.3267 0.078125Z" fill="#FF5271"/>
<path fill-rule="evenodd" clip-rule="evenodd" d="M56.004 17.506L57.1934 17.4359C60.8804 17.2279 62.8821 17.2439 63.1984 17.4838C67.0879 22.7437 68.4787 27.9327 67.3707 33.0507C67.133 34.1484 63.4932 34.8274 56.4512 35.0878L56.2368 35.0956L57.0113 42.3915C57.0973 42.7288 57.1437 43.088 57.1437 43.4605C57.1437 45.4177 55.8641 47.0044 54.2857 47.0044C52.7073 47.0044 51.4277 45.4177 51.4277 43.4605C51.4277 43.2637 51.4407 43.0707 51.4656 42.8826L51.0925 42.8827L51.0752 42.2423C50.8839 35.436 50.5472 31.7266 50.065 31.1142C44.5355 31.1142 44.5354 28.3382 44.8384 26.8266C45.1413 25.315 48.3222 24.6982 48.8602 24.6982C48.1279 17.4983 49.988 17.8519 56.004 17.506Z" fill="white"/>
<path fill-rule="evenodd" clip-rule="evenodd" d="M59.5648 6.55044C60.5678 7.13895 61.2526 8.00914 61.6525 9.10203C61.7362 9.33089 61.8198 9.55976 61.9513 9.91917C62.1994 9.69854 62.3272 9.59382 62.4449 9.47882C63.6611 8.29197 65.0761 7.92363 66.6717 8.54484C68.2987 9.17793 69.1415 10.4718 69.3715 12.1454C69.6776 14.3735 68.577 16.3711 66.5668 17.3794C65.9532 17.6871 65.3185 17.9381 64.6663 18.1088L64.6235 18.0463C67.5933 22.3346 69.1263 26.9826 68.0981 32.2515C68.0506 32.4952 67.9623 32.7312 67.9148 32.9749C67.7531 33.8021 67.2748 34.2498 66.4327 34.4275C63.6687 35.0098 60.8958 35.4982 58.0612 35.5322C57.6508 35.537 57.2402 35.5329 56.67 35.5329C56.8901 36.4799 57.0902 37.3023 57.2701 38.1295C57.336 38.4313 58.0339 42.8628 57.7664 42.9186C57.3448 43.0069 56.8742 43.0405 56.8541 42.4959C56.8315 41.8918 56.3512 38.2802 56.2134 37.6835C56.1491 37.4048 55.3622 37.0106 54.84 36.4854C54.4641 36.1072 54.1536 35.6484 53.8891 35.1831C53.7692 34.9725 53.558 34.4467 53.6513 34.226C53.7023 34.1046 54.2866 34.2221 54.5 34.2612C56.6876 34.6616 58.8811 34.6277 61.0689 34.3248C62.7103 34.0975 64.3389 33.7786 65.9752 33.5106C66.5836 33.4109 66.8843 33.0748 67.0187 32.4667C67.5567 30.0319 67.4757 27.7948 66.8811 25.2097C66.3143 22.7456 64.8759 20.3129 63.3603 18.3342C63.154 18.3515 62.9464 18.3594 62.7374 18.3577C60.1234 18.3364 57.5107 18.197 54.8967 18.143C53.8208 18.1208 52.7411 18.1679 51.6668 18.237C51.3053 18.2601 50.9454 18.4261 50.6009 18.5662C49.115 19.1719 48.9769 19.4284 49.3063 21.0202C49.5503 22.1986 49.8377 23.3678 50.0672 24.5487C50.1159 24.7988 50.1159 24.936 49.881 25.1731C49.4879 25.2666 49.5167 25.3293 49.3825 25.2744C49.3592 25.2852 49.3338 25.2928 49.3067 25.2967C49.1042 25.326 48.911 25.3521 48.7182 25.3502C47.8021 25.3416 47.0163 25.6843 46.3002 26.2133C45.5795 26.7463 45.2013 27.4349 45.3525 28.366C45.5121 29.3484 45.9778 30.1082 46.9641 30.3805C47.5947 30.5545 48.2671 30.5924 48.9245 30.6505C49.3708 30.6898 49.8232 30.6578 50.3905 30.6578C50.4806 31.169 50.6052 31.6409 50.6413 32.1197C50.8338 34.6871 51.3363 39.614 51.4966 42.1836C51.5224 42.5984 51.8032 43.2575 51.187 43.3492C50.4716 43.456 50.5548 42.7397 50.5191 42.2751C50.3671 40.296 50.003 36.6573 49.789 34.1421L49.8158 34.1713C49.2532 33.5602 48.4027 32.6246 47.9032 31.9597C47.8553 31.8957 47.7069 31.7385 47.5882 31.581L47.6219 31.5856C45.5235 31.3247 44.3165 29.9406 44.3428 27.8947C44.3514 27.2162 44.5404 26.6208 44.9574 26.1134L44.9682 26.1322C43.8015 24.0834 42.8929 21.9475 43.2966 19.5148C43.6147 17.5995 44.6881 16.1127 46.3473 15.17C47.5993 14.4587 48.9746 13.9541 50.3206 13.4228C51.4766 12.9667 52.6707 12.6082 53.8443 12.1968C54.6727 11.9067 55.1215 11.3248 55.1976 10.4391C55.2509 9.81926 55.3497 9.20331 55.4313 8.58599C55.7219 6.38605 57.6513 5.42761 59.5648 6.55044Z" fill="#222222"/>
<path fill-rule="evenodd" clip-rule="evenodd" d="M49.2563 41.6919L42.8461 42.6328L32.9688 47.4134L28.8475 52.8946L25.2597 61.4871L22.6418 71.1261L21.0234 76.5643L21.5736 81.8832L22.8825 85.8912L28.3203 88.4548H38.4555L46.1486 88.0339L48.2765 89.382L51.7548 91.0164L59.3751 92.2744H69.7986L81.7054 88.716L82.1941 86.2107L90.5315 81.2574L104.063 72.1949L103.205 68.9891L117.405 64.3476L118.194 62.825L117.184 62.2566L117.405 60.8235L115.846 60.2254L115.331 58.2983L107.649 60.5653L108.806 57.9107L108.118 57.2039L100.397 62.6429L97.3387 60.8235L86.7966 64.0867L85.8257 62.34L83.4026 55.1844L79.1426 48.3045L73.5063 43.5835L67.5375 41.9849L58.4799 41.0629L57.3707 40.6719C53.9112 40.5344 51.6939 40.6013 50.7189 40.8725C49.7438 41.1438 49.2563 41.4169 49.2563 41.6919Z" fill="white"/>
<path fill-rule="evenodd" clip-rule="evenodd" d="M58.2742 40.4105C62.2254 40.9392 66.1805 41.4461 70.122 42.0423C72.3922 42.3858 74.3768 43.4389 76.0989 44.9438C78.6472 47.1704 80.8005 49.7078 82.6017 52.6056C84.6077 55.8322 85.9693 59.2521 86.6863 62.9575C86.7172 63.1164 86.7833 63.2684 86.8741 63.5525C87.3506 63.4149 87.792 63.3013 88.2285 63.1515C90.787 62.2738 93.3519 61.4115 95.9546 60.6753C98.3313 60.0033 97.9565 59.7126 99.8761 61.636C100.05 61.8106 100.218 61.9913 100.493 62.2773C101.402 61.6143 102.313 60.9835 103.186 60.3052C104.138 59.5662 105.033 58.7532 105.996 58.0312C106.521 57.6382 107.122 57.3358 107.718 57.0524C108.148 56.8478 108.624 56.8439 108.99 57.2255C109.375 57.6267 109.417 58.1167 109.218 58.6171C109.065 59.0008 108.871 59.3679 108.598 59.95C109.341 59.7494 109.954 59.6098 110.55 59.4175C111.548 59.0951 112.533 58.7336 113.527 58.3988C113.773 58.3158 114.023 58.2462 114.278 58.1966C115.714 57.9173 116.432 58.3965 116.178 59.7583C116.411 59.8461 116.975 59.9138 117.199 60.0722C117.491 60.2785 117.841 60.6463 117.89 60.9356C117.954 61.3155 117.665 62.1451 117.665 62.1451C118.333 62.3823 118.353 62.4962 118.553 62.8061C118.651 62.9585 118.712 63.1372 118.698 63.3181C118.683 63.5016 118.604 63.6068 118.537 63.7784C118.154 64.7529 117.353 65.1867 116.394 65.5022C112.689 66.7202 109 67.986 105.308 69.2435C104.919 69.376 104.551 69.5703 104.12 69.759C104.327 70.5307 104.503 71.2834 104.735 72.0186C104.872 72.4554 104.729 72.7459 104.397 72.9853C103.892 73.3497 103.389 73.7195 102.866 74.0581C97.5637 77.4897 92.2742 80.941 86.9427 84.326C85.5159 85.232 83.9582 85.931 82.4204 86.7462C82.417 87.1546 82.5277 87.6459 82.3844 88.0464C82.1257 88.7702 81.7383 89.3576 80.8991 89.7101C75.8934 91.812 70.6857 92.8282 65.2714 93.002C60.3806 93.159 55.5383 92.9084 50.8588 91.398C48.6957 90.6997 46.6311 89.6933 44.5318 88.803C44.0648 88.6049 43.6466 88.4888 43.1111 88.579C39.415 89.2004 35.6852 89.5126 31.9453 89.2527C30.1366 89.1269 28.2989 88.8386 26.5667 88.3169C23.1283 87.2809 20.9334 84.1105 20.8128 80.2438C20.7322 77.6627 21.0837 75.1263 21.7953 72.6327C22.741 69.3193 23.5891 65.9781 24.539 62.6659C25.5495 59.1424 26.9935 55.7923 28.6835 52.5384C30.3263 49.376 32.7075 46.9955 35.8161 45.2709C39.0082 43.4996 42.3694 42.2662 45.9707 41.651C47.1073 41.4568 48.2134 41.0833 49.333 40.7912C49.6541 40.7073 49.9699 40.5896 50.2961 40.5418C50.982 40.4413 51.1947 40.5992 51.2834 41.2978C51.4033 42.2413 51.4878 43.189 51.5951 44.2051C53.5579 45.0284 55.2769 44.7062 57.028 43.6983C56.967 42.8334 56.9059 41.9641 56.8389 41.0115C56.8154 40.6796 57.0741 40.394 57.4068 40.3863C57.7243 40.3787 58.0019 40.3741 58.2742 40.4105ZM79.3358 74.6724C79.1707 75.692 78.2004 76.6124 79.113 77.3964C78.7496 78.0409 78.8449 78.7821 78.6946 79.3868C78.429 80.4553 77.8216 80.9241 76.7698 80.9505C76.1919 80.9651 75.6468 80.9767 75.2753 81.6085C75.1109 81.8879 74.6078 81.9675 74.2179 82.1575C74.0317 81.7719 73.9136 81.5275 73.7895 81.2706C72.5097 81.3805 71.2722 81.4868 70.1671 81.5818C69.2728 82.5014 69.1094 84.1636 67.3031 83.7441C67.2061 83.7217 67.0727 83.8272 66.9644 83.8875C64.2798 85.3867 61.4 85.4585 58.488 84.9175C56.8574 84.6144 55.3876 84.8116 53.8438 85.0002C52.93 85.1119 53.1196 85.9101 53.1082 86.4507C53.0917 87.2508 52.7429 88.0696 53.3702 88.8164C53.4731 88.9387 53.3453 89.2543 53.3243 89.4804C53.0683 89.4268 52.7598 89.4437 52.5699 89.3016C52.3242 89.118 52.1731 88.8074 51.9917 88.5656C51.4088 88.6985 50.8832 88.8103 50.3619 88.9398C49.8261 89.0731 49.2946 89.2236 48.7614 89.3665C49.149 89.7559 49.5526 89.9396 49.9687 90.089C50.3922 90.241 50.8278 90.3592 51.0322 90.4226C51.6233 90.1669 52.0043 90.0021 52.3853 89.8374C52.4657 90.168 52.546 90.4984 52.6592 90.9642C60.7056 92.6284 68.7237 92.4887 76.9972 90.1241C76.5867 89.7484 76.3417 89.5867 76.1869 89.3627C76.0653 89.1864 75.9483 88.8803 76.0238 88.7286C76.1075 88.5602 76.4242 88.3981 76.6174 88.4205C76.877 88.4511 77.1559 88.6182 77.3533 88.8046C77.6182 89.0543 77.8128 89.3787 78.0809 89.7273C79.0134 89.3518 79.9339 88.9804 80.855 88.6101C81.3467 88.4123 81.5172 88.0715 81.4612 87.5319C81.311 86.088 81.2019 84.6399 81.0902 83.1925C81.0325 82.4438 80.9263 81.7931 80.2289 81.2648C79.4546 80.6785 79.5603 80.2456 80.3819 79.6276C80.4757 79.5569 80.539 79.4458 80.658 79.3038C80.3764 77.9493 80.0912 76.5707 79.7997 75.1932C79.7749 75.0762 79.305 73.6964 79.3358 74.6724ZM66.3846 89.4137C66.5356 89.5753 66.8433 89.7932 66.8091 89.8885C66.6883 90.2238 66.4505 90.5173 66.114 91.0553C65.8767 90.5578 65.6219 90.2593 65.6906 90.119C65.8285 89.838 66.143 89.6439 66.3846 89.4137ZM62.501 89.5063C62.6935 89.5293 62.8537 89.8213 63.117 90.0836C62.795 90.2733 62.5326 90.5162 62.4429 90.4637C62.2071 90.3255 62.0468 90.059 61.8563 89.8435C62.0725 89.7202 62.3023 89.4825 62.501 89.5063ZM59.9068 41.5772C59.6027 42.1403 59.3497 42.6088 59.0945 43.0814C59.1941 43.2532 59.3003 43.3869 59.3547 43.539C59.6166 44.2721 59.1796 44.9262 58.4951 44.6753C57.7858 44.415 57.333 44.7058 56.7873 44.9677C53.5079 46.5426 50.1787 45.322 48.6628 43.0535C48.312 42.5284 47.8754 42.354 47.2874 42.4607C46.9211 42.5272 46.5563 42.6014 46.1613 42.6781C46.0913 42.8272 46.0293 42.9766 45.9531 43.1184C45.5893 43.7953 45.2247 43.9605 44.7208 43.4613C44.1657 42.9114 43.7138 43.1319 43.3307 43.2685C43.0727 43.7914 42.9802 44.3579 42.6731 44.5219C42.0595 44.8491 42.04 43.9427 41.4995 43.6803C39.9284 44.4175 38.3121 45.1651 36.7084 45.9386C36.4212 46.0771 36.0507 46.2785 35.9662 46.533C35.8901 46.7628 36.179 47.0984 36.2555 47.4006C36.3009 47.5804 36.3089 47.9122 36.2246 47.9537C36.0379 48.0454 35.7182 48.0904 35.568 47.9871C35.2465 47.7662 34.998 47.4387 34.7066 47.1417C34.4333 47.3339 34.1888 47.4905 33.9613 47.669C33.6347 47.9255 33.3415 48.2302 32.9959 48.4559C32.6493 48.6826 32.1336 49.1595 32.2047 49.3643C32.2778 49.5741 32.5161 49.8271 32.5732 50.0607C32.5744 50.0661 32.575 50.0737 32.5752 50.0833C32.579 50.3446 32.2878 50.5095 32.0555 50.3899C31.8363 50.2767 31.606 50.1384 31.4587 50.1281C31.3636 50.2227 31.3292 50.2488 31.3054 50.2819C28.8347 53.732 27.278 57.6199 25.9167 61.597C25.8254 61.8636 25.9338 62.2308 26.0311 62.5243C26.4031 63.6482 26.0709 64.3941 24.9254 64.8494C24.8338 65.2643 24.7376 65.6999 24.6564 66.0678C24.9953 66.5536 25.9575 66.4017 25.7109 67.1784C25.4943 67.8612 24.7761 67.4371 24.1816 67.5964C23.5789 70.0307 22.9689 72.5229 22.3434 75.0113C21.9049 76.7553 21.6537 78.519 21.8025 80.3176C21.9938 82.6294 22.7826 84.656 24.6063 86.1617C25.4361 85.7471 26.3568 85.9105 27.0292 85.2879C27.1493 85.1766 27.5473 85.3653 27.779 85.4083C28.1125 86.9224 27.6386 86.9438 26.1754 87.0885C27.0079 87.8288 30.5679 88.3902 31.7421 88.0118C31.4972 87.7951 31.1783 87.6293 31.0604 87.3717C31.0077 87.2566 31.0331 87.1062 31.073 86.949C31.1245 86.7461 31.3261 86.6163 31.5309 86.6604C31.6594 86.6879 31.7852 86.7212 31.9005 86.7763C32.0897 86.8665 32.2525 87.1937 32.3932 87.174C33.2227 87.0581 33.5039 87.5272 33.5673 88.2602C35.498 88.4539 37.9106 88.2559 39.7652 88.0558C39.9701 88.0337 39.5907 87.2309 40.1925 86.9248C40.8372 86.7544 40.5246 87.0557 41.2904 87.5626C41.4738 87.6839 41.7282 87.7716 41.9274 87.7426C43.0708 87.5757 44.4838 87.3264 45.6791 87.1198C45.6945 86.3646 45.9548 85.7328 46.6953 85.7497C47.1353 85.7598 47.5665 86.159 48.0019 86.3833C47.9845 86.4518 47.9671 86.5205 47.9499 86.589C48.3725 86.4649 48.7951 86.3412 49.2175 86.2171C49.1229 85.4326 49.1452 84.7895 49.9787 84.5184C50.0974 84.4797 50.2247 84.2782 50.2389 84.1408C50.3117 83.4301 50.3493 82.7158 50.4007 81.9809C49.8799 82.1879 49.4757 82.5005 49.1566 82.4298C48.8713 82.3665 48.6798 81.8805 48.4175 81.5434C46.6818 81.5043 44.8977 81.4694 43.1138 81.421C42.7906 81.4123 42.0617 81.2818 41.755 81.3147C41.4396 81.3488 41.5914 81.8199 41.2892 82.0862C40.7993 82.5176 40.3852 82.1174 40.3659 81.0915C40.3066 80.9109 40.1247 80.8934 39.9901 80.8186C39.1383 80.3447 39.0342 79.5125 38.912 78.6869C38.7608 77.664 38.6253 76.6387 38.474 75.5482C38.1431 75.4577 37.8336 75.3152 37.5176 75.2982C36.7305 75.2557 35.9397 75.2898 35.1519 75.2551C34.6853 75.2346 33.9777 75.3662 33.9789 74.6936C33.98 74.0265 34.6706 74.2905 35.0729 74.2797C36.1378 74.2503 37.2042 74.2772 38.268 74.2819C38.2738 72.7048 38.2557 72.6982 36.8366 72.5399C36.6728 72.5215 36.5157 72.4445 36.3602 72.3638C36.1972 72.279 36.0989 72.106 36.108 71.9226C36.1285 71.5147 36.1377 71.1509 36.2068 70.7986C36.2481 70.5886 36.4419 70.2808 36.6071 70.2525C36.8486 70.2112 37.204 70.3066 37.3698 70.4791C37.6057 70.7246 37.7376 71.31 37.9 71.6262C38.0025 71.5983 38.0452 71.6902 38.1475 71.6627C38.0281 69.8763 37.8138 67.794 37.6981 66.0667C37.3479 65.631 36.448 65.9263 36.5773 65.2182C36.6467 64.838 37.1684 64.5401 37.5571 64.13C37.535 63.604 37.5728 63.3321 37.4466 62.2889C37.3265 59.8591 37.381 59.5684 37.2555 58.2665C37.2068 56.7926 37.0908 56.688 37.0966 55.6515C37.1016 54.7277 36.8561 53.7935 37.0168 52.8504C37.0722 52.5231 37.3204 52.2608 37.6424 52.18L38.4505 51.9766C38.5437 50.7356 38.6279 50.3647 39.101 50.3696C39.3791 50.3725 39.6099 50.6172 39.5801 50.8936C39.5741 50.95 39.5732 51.0056 39.5813 51.06C39.6318 51.3989 39.6552 51.9167 39.8592 52.018C40.182 52.1779 41.0177 52.0977 41.4187 52.0663C41.507 52.0592 41.2678 51.4812 41.3648 51.4602C41.6515 51.3985 42.0452 51.5839 42.1442 51.7084C42.608 52.2927 43.2359 52.1952 43.8345 52.2387C44.6771 52.2997 45.5221 52.3466 46.367 52.336C47.8633 52.3171 48.2572 52.4627 48.1338 51.7917C48.0661 51.4237 48.787 51.3533 48.9368 51.7374C49.2127 52.4436 49.7436 52.3248 50.2589 52.3235C50.8815 52.3219 52.4926 52.2446 53.1118 52.2817C53.965 52.3329 53.5898 52.107 54.1657 51.3696C54.1844 51.3459 54.3764 51.3339 54.5624 51.3279C54.7397 51.3224 54.8961 51.4298 54.9703 51.5909C55.1987 52.0847 55.5624 52.2617 55.5624 52.2617C56.2243 52.2264 57.4408 52.1849 58.0013 52.1663C58.4923 51.671 58.8929 51.212 59.3579 50.8319C59.4902 50.7238 59.8765 50.7639 60.0242 50.885C60.167 51.002 60.2263 51.3242 60.1882 51.5318C60.1456 51.7637 59.9521 51.9681 59.7878 52.2466C60.1659 52.2531 60.4166 52.2809 60.6623 52.2573C61.534 52.1739 62.4421 52.453 63.2473 51.7606C63.6206 51.4397 64.1885 51.6598 64.6362 51.9707C64.9171 52.1659 65.2588 52.3715 65.5833 52.3894C67.1588 52.4771 68.7375 52.5233 70.3154 52.5342C70.6439 52.5365 70.9743 52.3291 71.3029 52.2152C71.6803 52.0846 72.0733 51.8199 72.4272 51.8653C72.6514 51.894 72.8167 52.3825 72.99 52.638L75.4498 52.81C75.5333 52.3378 75.6525 51.9113 75.6725 51.4802C75.6954 50.9925 75.946 50.768 76.3739 50.8309C76.829 50.898 76.9199 51.1966 76.7971 51.6645C76.6934 52.0593 76.7704 52.5017 76.7672 52.9581C77.9775 52.9423 79.0272 53.3845 80.0999 52.8799C80.3193 52.7765 80.711 52.984 81.0008 53.1026C81.2428 53.2018 81.4516 53.3821 81.6756 53.5259C81.7565 53.4475 81.7464 53.4571 81.8273 53.3788C81.4899 52.7857 81.1525 52.1928 80.8657 51.6887C80.3173 51.5836 79.7907 51.6277 79.4728 51.3912C78.8563 50.9325 79.6988 50.5954 79.7578 50.2198C79.1599 49.423 78.6894 48.5893 77.5375 48.6907C77.3115 48.7107 77.0588 48.4267 76.759 48.2471C76.9328 47.915 77.0741 47.6453 77.2698 47.2709C76.1671 46.3543 75.0663 45.4391 73.7249 44.3243C73.6781 44.9937 73.6965 45.3537 73.615 45.6895C73.555 45.9369 73.412 46.229 73.2134 46.3524C73.1048 46.4198 72.7001 46.2328 72.6119 46.0646C72.4311 45.7204 72.2957 45.3128 72.2889 44.9286C72.2828 44.5899 72.4772 44.248 72.5938 43.8727C72.2772 43.733 72.022 43.5964 71.7512 43.5067C71.3202 43.3642 70.8787 43.2534 70.6391 43.1853C69.9943 43.4654 69.5321 43.8046 69.0452 43.8451C68.3329 43.9041 68.1661 43.2707 68.1443 42.6874C65.3406 42.3096 62.633 41.9447 59.9068 41.5772ZM73.7588 89.3193C73.9365 89.3471 74.0811 89.5871 74.337 89.8179C74.079 90.06 73.8965 90.3651 73.709 90.3685C73.5275 90.3716 73.2208 90.0873 73.1818 89.8877C73.1105 89.5215 73.3788 89.26 73.7588 89.3193ZM37.1571 85.5487C37.4128 85.986 37.6579 86.4297 37.9735 86.9865C37.3399 87.6243 37.2546 87.6387 36.7607 87.1724C36.12 86.5674 35.8893 85.7571 36.2416 85.3495C36.4825 85.0704 36.9317 85.1635 37.1571 85.5487ZM55.4745 85.9954C55.7109 86.0922 55.8499 86.1198 55.8514 86.1541C55.8874 86.9278 56.8462 87.4122 56.5321 88.2756C56.4603 88.4732 56.2598 88.6756 56.0683 88.7561C55.9736 88.796 55.681 88.598 55.6219 88.4499C55.3953 87.8853 55.1701 87.3069 55.0675 86.7123C55.0303 86.4966 55.3379 86.2211 55.4745 85.9954ZM58.9164 86.3319C59.1542 86.6907 59.4082 86.9065 59.3723 87.0498C59.2401 87.5771 59.4397 87.8881 59.8305 88.2033C59.9561 88.3044 60.0042 88.7118 59.9074 88.8242C59.7949 88.955 59.4557 88.9999 59.2655 88.9348C58.6383 88.7197 58.1019 87.8582 58.2611 87.2705C58.3418 86.9717 58.6292 86.729 58.9164 86.3319ZM61.8596 87.1487C62.0343 87.5523 62.22 87.8161 62.2357 88.0897C62.2436 88.2236 61.9463 88.4795 61.768 88.4982C61.4 88.5366 61.0785 88.0766 61.2214 87.7222C61.2944 87.5402 61.5379 87.4271 61.8596 87.1487ZM33.9377 85.689C33.8942 85.8131 33.7831 85.9138 33.6334 86.0511C33.4982 86.1753 33.2841 86.1505 33.1805 85.9986C33.0427 85.7965 32.9286 85.629 32.8915 85.4455C32.8666 85.3235 33.1394 85.0373 33.3141 85.0002C33.6644 84.9264 34.0516 85.3642 33.9377 85.689ZM74.7626 87.2869C74.8595 87.4615 74.8818 87.7525 74.8003 87.9341C74.6686 88.2272 74.4275 88.4709 74.2099 88.7663C73.6557 88.7275 73.0864 88.7166 72.5264 88.6396C72.0683 88.5766 71.8246 88.0501 72.0077 87.5715C72.1953 87.0818 72.5675 87.1575 72.9325 87.3295C73.1102 87.4134 73.2629 87.5506 73.4358 87.6695C73.7261 87.4945 73.9586 87.3059 74.2246 87.2129C74.3851 87.1565 74.7072 87.1873 74.7626 87.2869ZM42.3513 85.0151C42.7104 85.232 42.7981 85.5189 42.5863 86.0437C42.4888 86.2848 42.202 86.3874 41.9776 86.256C41.6082 86.0397 41.3091 85.8294 41.5323 85.2755C41.674 84.9246 41.9878 84.7958 42.3513 85.0151ZM65.6305 85.9379C66.1213 86.0508 66.6097 86.2188 67.0582 86.4455C67.2215 86.5282 67.3703 86.8551 67.3417 87.0422C67.3136 87.2242 67.0752 87.4214 66.882 87.5163C66.7144 87.5993 66.4809 87.5483 65.9886 87.5682C65.767 87.4035 65.3326 87.1371 64.9809 86.7872C64.8626 86.6694 64.8645 86.2694 64.976 86.1266C65.0926 85.9773 65.4279 85.8912 65.6305 85.9379ZM38.6938 83.8508C38.8104 83.869 38.9177 83.9467 39.0471 84.0632C39.3069 84.2968 39.2448 84.7202 38.9264 84.8641C38.6947 84.9691 38.5074 85.0449 38.3126 85.0813C38.2021 85.1018 37.8902 84.7604 37.908 84.6136C37.9591 84.19 38.1858 83.7713 38.6938 83.8508ZM69.0264 85.9803C69.2466 86.0119 69.436 86.2557 69.833 86.554C69.3733 86.7428 69.0987 86.9621 68.9152 86.9026C68.7131 86.8369 68.5942 86.5145 68.4391 86.3038C68.6364 86.1863 68.8499 85.9546 69.0264 85.9803ZM45.5154 82.647C45.7674 82.7302 46.0991 82.8572 46.1893 83.0594C46.2677 83.2354 46.1234 83.5976 45.9637 83.7746C45.6646 84.1061 45.2831 84.3632 44.7746 84.7851C44.5809 84.7484 44.1941 84.6751 43.7558 84.5922C43.7946 84.3059 43.7514 84.0482 43.8598 83.9304C44.2316 83.5265 44.6479 83.1614 45.0668 82.8045C45.1831 82.7053 45.3938 82.6068 45.5154 82.647ZM79.4332 85.2325C79.691 85.3775 79.8176 85.7556 80.098 86.1736C79.7264 86.4437 79.4668 86.6323 79.2073 86.8209C79.0433 86.5637 78.7731 86.32 78.7386 86.0464C78.6788 85.5717 79.1423 85.0687 79.4332 85.2325ZM76.1047 85.1922C76.3985 85.5242 76.6537 85.7224 76.7557 85.9805C76.7885 86.063 76.4297 86.4246 76.2246 86.4499C75.8355 86.4979 75.4367 86.3116 75.4769 85.8416C75.4936 85.6496 75.81 85.4835 76.1047 85.1922ZM41.1737 82.7378C41.2618 82.7536 41.3428 82.8081 41.4409 82.8895C41.6575 83.0694 41.6408 83.4061 41.4071 83.563C41.2173 83.6905 41.0561 83.7876 40.8835 83.8165C40.7126 83.8452 40.3631 83.5798 40.3129 83.3893C40.2227 83.0468 40.7389 82.6595 41.1737 82.7378ZM29.0096 81.3233C29.115 81.6579 29.1913 82.0018 29.2808 82.3805C29.3286 82.5818 29.2298 82.7945 29.0397 82.8759C28.6708 83.0339 28.4216 82.79 28.2165 82.4576C27.9296 81.9922 27.9872 81.3416 28.3312 81.1133C28.6119 80.9271 28.8961 80.9628 29.0096 81.3233ZM23.8133 79.0842C23.9609 79.1408 24.1209 79.3725 24.1327 79.5377C24.1666 80.0138 24.1286 80.495 24.1189 80.974C24.1834 81.0161 24.2478 81.0579 24.3123 81.1C24.0686 81.3198 23.8238 81.7145 23.5816 81.7127C23.3058 81.7106 22.7869 81.334 22.802 81.1567C22.8587 80.4937 23.0704 79.839 23.2786 79.1992C23.3095 79.1047 23.6633 79.0272 23.8133 79.0842ZM68.4236 81.6508C66.6029 81.6592 64.9946 81.6666 63.3421 81.6741C63.1446 82.3277 62.7924 82.8839 62.0997 82.9177C60.9073 82.9762 59.7082 82.9623 58.5149 82.9107C58.2295 82.8985 57.9962 82.7839 57.9357 82.5374C57.861 82.2324 58.1371 81.9515 58.4504 81.9752C58.8598 82.0066 59.2836 82.0396 59.7079 82.0583C60.2684 82.0828 62.1589 82.4811 62.3361 81.6968L61.4205 81.7105C58.1737 81.7106 54.9269 81.7107 51.6432 81.7107L51.5615 82.8794C53.5341 83.1597 55.4187 83.4288 57.3035 83.6951C58.4928 83.8631 59.6786 84.0665 60.8728 84.184C63.3296 84.4259 65.5421 83.6996 67.5776 82.3648C67.8323 82.1976 68.048 81.9709 68.4236 81.6508ZM71.8837 82.449C72.4978 82.5912 72.4686 83.1475 72.5796 83.6702C72.0126 84.0736 71.2623 83.7436 70.9795 84.4479C70.9479 84.5272 70.5424 84.5667 70.4259 84.4761C70.2577 84.3449 70.1068 84.0797 70.1035 83.8691C70.0922 83.2112 71.2305 82.2977 71.8837 82.449ZM79.2776 82.8888C79.4675 83.3121 79.488 83.8326 79.4837 84.31C79.4825 84.4586 79.1617 84.6047 78.9873 84.752C78.8447 84.5827 78.6336 84.4346 78.5736 84.2399C78.4328 83.7822 78.3642 83.3023 78.2465 82.7364C78.6847 82.3078 79.1042 82.5026 79.2776 82.8888ZM76.1099 82.9568C76.2165 83.1852 76.4727 83.3434 76.6599 83.5346C76.7955 83.6733 76.9289 83.8142 77.1406 84.0346C76.8992 84.2084 76.6715 84.4794 76.5545 84.438C76.0265 84.251 75.4732 84.048 75.0384 83.71C74.6467 83.4053 74.7562 82.77 75.1582 82.5419C75.6345 82.2718 75.8987 82.5052 76.1099 82.9568ZM34.9374 79.6083C35.1382 80.1389 34.8966 80.5726 34.5268 80.9206C34.23 81.2003 33.8855 81.2819 33.55 80.7996C33.768 80.2746 33.9651 79.7995 34.1669 79.3131C34.5251 79.1295 34.7987 79.2417 34.9374 79.6083ZM82.1765 54.2121C81.9294 56.1042 81.7054 57.8197 81.4713 59.6135C82.6061 60.1265 82.6985 60.5329 81.7915 61.144C81.3475 61.4432 81.1872 61.7652 81.1402 62.2368C81.0909 62.7328 81.0044 63.225 80.9615 63.7214C80.9201 64.1987 80.8082 64.6284 81.3443 65.0386C81.8157 65.3991 81.7157 66.3315 81.2171 66.6998C79.9369 67.6454 80.2156 69.0684 80.3085 70.2374C80.4165 71.5938 81.0713 72.9077 81.4945 74.238C82.149 76.294 82.8175 78.3457 83.4617 80.405C83.7931 81.4641 84.0845 82.5356 84.3997 83.622C85.5406 82.9832 85.5406 82.9832 86.413 83.5755C86.5052 82.9065 86.5736 82.3051 86.6784 81.7101C86.711 81.5263 86.8202 81.2336 86.9339 81.2134C87.1386 81.1768 87.4235 81.2483 87.5839 81.3831C87.8517 81.6085 88.0479 81.9191 88.3237 82.2535C90.1204 81.1016 91.8214 80.0113 93.348 79.0328C93.3883 78.4567 93.2702 77.9362 93.468 77.7488C93.9597 77.2824 93.9808 76.2729 94.9359 76.3151C95.4703 77.0431 94.5961 77.5123 94.628 78.2629C95.5384 77.6761 96.3506 77.1789 97.1288 76.6333C97.337 76.4872 97.5031 76.213 97.5829 75.9637C97.8657 75.0818 98.3918 74.6682 99.2708 74.7102C99.5068 74.7215 99.8023 74.834 99.9687 74.7327C100.947 74.1376 101.895 73.4927 102.898 72.8353C101.055 68.8988 99.2822 65.1133 97.4718 61.2467C96.1743 61.6425 95.0359 62.0096 93.8854 62.3332C93.2393 62.5147 92.629 62.7042 92.4412 63.4027C91.9753 63.3307 91.5513 63.1368 91.2123 63.2352C89.828 63.6378 88.4696 64.1296 87.0167 64.617C87.2216 65.8539 87.4204 66.9927 87.5933 68.1356C87.6473 68.4935 87.7584 68.9793 87.2728 69.0802C86.8044 69.1774 86.6885 68.7443 86.6263 68.3584C86.5734 68.0306 86.5172 67.703 86.4557 67.3767C86.0872 65.4191 85.7292 63.4592 85.3386 61.5059C85.2354 60.9899 85.0301 60.4942 84.8511 59.9234C83.9455 60.1528 83.3325 59.7356 82.7882 59.2078C82.4085 58.8395 82.414 58.1773 82.7742 57.8639C83.1796 57.5114 83.5273 57.6521 83.8301 58.0416C83.8719 58.0954 83.9937 58.087 84.1646 58.128C83.699 56.7074 83.2329 55.4111 82.1765 54.2121ZM56.6987 53.207C51.0514 53.2128 45.4046 53.3645 39.7593 53.1025C39.1891 53.0761 38.6176 53.0815 37.9978 53.0714C37.9962 53.4912 37.9785 53.7776 37.9967 54.0617C38.0923 55.5524 38.204 57.042 38.2976 58.5328C38.5792 63.008 38.8179 67.4865 39.1488 71.958C39.3111 74.1506 39.6182 76.3336 39.902 78.5155C40.0786 79.8734 40.1081 79.9117 41.5079 80.1068C42.8621 80.2952 44.2291 80.4767 45.5929 80.4981C50.6565 80.5776 55.7211 80.6118 60.7853 80.6194C63.9387 80.6242 67.0952 80.6247 70.2444 80.4885C72.6438 80.3847 75.0334 80.0633 77.3679 79.8443C78.1551 78.0635 81.2054 56.1098 80.9255 54.3868C80.7845 54.3538 80.6291 54.2987 80.4698 54.2827C72.5658 53.4919 64.6349 53.1986 56.6987 53.207ZM85.5151 80.6169C85.681 80.8077 86.0007 81.0207 85.9774 81.1846C85.9402 81.4435 85.6732 81.6696 85.4049 82.0492C85.179 81.6747 84.936 81.4416 84.9826 81.3135C85.0779 81.0516 85.3284 80.8456 85.5151 80.6169ZM36.7239 76.5883C36.8428 77.0472 36.8887 77.5248 36.9701 78.0173C36.4691 78.3538 36.0968 78.1976 35.8426 77.7366C35.6164 77.3265 35.5092 76.8799 35.8463 76.4607C36.1184 76.1222 36.6188 76.1831 36.7239 76.5883ZM28.0226 75.8678C27.8729 76.323 27.6961 76.7777 27.4601 77.1924C27.3606 77.3672 27.0712 77.5429 26.8836 77.5275C26.6981 77.5122 26.3619 77.2176 26.3857 77.1127C26.5364 76.456 26.7542 75.8125 26.9887 75.1789C27.0303 75.0665 27.2537 75.0217 27.3225 74.9841C27.7832 74.9776 28.1524 75.4739 28.0226 75.8678ZM30.9774 75.5449C31.2488 75.5666 31.6135 75.8027 31.731 76.0452C31.9016 76.3961 31.8868 76.8372 31.9691 77.3541C31.9101 77.4311 31.8166 77.6766 31.6658 77.7193C31.4603 77.7773 31.1523 77.7567 30.9933 77.634C30.7098 77.4147 30.448 77.1232 30.2852 76.8063C30.1519 76.547 30.0462 76.1344 30.165 75.9226C30.2888 75.7026 30.7059 75.5234 30.9774 75.5449ZM85.9451 78.404C85.9043 78.6129 85.6377 78.8998 85.4374 78.9321C84.9003 79.019 84.2753 78.488 84.3495 78.0259C84.3929 77.7566 84.6321 77.5187 84.7319 77.3522C85.2752 77.3384 86.0165 78.0347 85.9451 78.404ZM24.3587 73.9037C24.2096 74.1088 24.0234 74.2869 23.784 74.5113C23.6158 74.6686 23.3437 74.6271 23.2298 74.4271C23.1044 74.207 23.0128 74.0464 23.0575 73.9839C23.2466 73.7215 23.5505 73.4917 23.856 73.3909C23.9627 73.3555 24.3863 73.8658 24.3587 73.9037ZM88.7027 76.6864C89.1296 77.0119 89.448 77.4797 89.8667 77.9488C89.5751 78.1758 89.4065 78.4108 89.2128 78.4332C88.9191 78.4677 88.5691 78.4256 88.3144 78.2856C88.0122 78.1199 87.7845 77.8177 87.5271 77.5719C87.1593 77.2205 87.2182 76.6298 87.6976 76.5038C88.0032 76.4234 88.4557 76.4982 88.7027 76.6864ZM31.8713 72.7983C32.3099 72.8807 32.5016 73.1644 32.3534 73.6156C32.317 73.7263 32.2793 73.8364 32.2393 73.9498C32.1114 74.3131 31.673 74.4672 31.3541 74.2514C30.965 73.9886 30.8831 73.7071 31.0119 73.3245C31.1502 72.9138 31.4539 72.7198 31.8713 72.7983ZM25.099 71.5C25.3537 71.6626 25.5974 71.8429 25.8695 72.0512C26.1661 72.278 26.127 72.7575 25.7808 72.8974C25.7412 72.9134 25.7027 72.9231 25.6638 72.9254C25.2321 72.9493 24.6392 72.3734 24.6945 71.9787C24.7199 71.795 25.0703 71.4815 25.099 71.5ZM92.5882 75.6238C92.3267 76.3064 92.1887 76.7196 92.0065 77.1123C91.9469 77.2404 91.7577 77.4094 91.6541 77.393C91.4818 77.366 91.2774 77.2378 91.1845 77.0906C91.0828 76.9295 91.0819 76.6993 91.0551 76.4971C90.9991 76.0774 90.964 75.5868 91.4419 75.4515C91.7564 75.3624 92.1485 75.5472 92.5882 75.6238ZM85.2069 75.1517C85.463 75.5344 85.6694 75.8432 85.8759 76.1521C85.6867 76.262 85.489 76.4762 85.3101 76.4616C84.8707 76.4261 84.5142 75.926 84.6596 75.5974C84.7247 75.4496 84.9341 75.3657 85.2069 75.1517ZM28.5821 70.9067C28.6676 71.0866 28.753 71.2693 28.8183 71.4586C28.9327 71.7891 28.9516 72.1979 28.5256 72.2266C28.3186 72.2405 27.9975 71.9029 27.8827 71.6531C27.7196 71.2983 27.6983 70.9398 28.0849 70.7383C28.2675 70.6431 28.4938 70.7206 28.5821 70.9067ZM61.9504 62.0283C63.4317 62.123 64.3697 63.429 63.7196 64.7479C62.9211 66.3671 62.8305 67.7544 63.6768 69.4178C64.4103 70.8596 63.8288 72.4959 62.7381 73.3761C61.4155 74.4438 59.4564 74.6135 58.0571 73.7817C56.3438 72.7633 55.8689 70.6991 57.0122 69.0686C57.1723 68.8403 57.527 68.7145 57.8173 68.6202C58.1173 68.5229 58.4485 68.5218 58.9796 68.4496C58.7191 67.9989 58.633 67.6865 58.4279 67.5254C57.7856 67.0214 57.7918 66.4017 58.0204 65.7317C58.2609 65.0272 58.4591 64.2928 58.8115 63.6452C59.4745 62.4273 60.6101 61.9429 61.9504 62.0283ZM33.2464 70.3881C33.4314 70.4763 33.4913 70.8265 33.6229 71.0878C33.3938 71.4539 33.2236 71.7638 33.0063 72.0362C32.9693 72.0827 32.6118 71.9837 32.6042 71.9251C32.5588 71.5812 32.52 71.2191 32.5829 70.8826C32.6425 70.565 32.8389 70.1944 33.2464 70.3881ZM61.2068 63.0554C60.1836 63.2632 59.6921 63.9657 59.3258 64.8555C58.9829 65.6881 58.7783 66.395 59.4584 67.2528C60.2971 68.3105 59.8582 69.2511 58.5671 69.5528C58.4867 69.5714 58.4029 69.5876 58.3207 69.5866C57.8608 69.5815 57.6712 69.8772 57.5522 70.2611C56.9601 72.1738 58.2944 73.1279 59.8252 73.3081C62.1548 73.4455 63.4931 71.6519 62.6922 69.4635C62.6355 69.3078 62.5796 69.1462 62.4905 69.0089C61.6824 67.7661 61.66 66.5262 62.475 65.2765C62.5644 65.1397 62.6121 64.9755 62.6779 64.8234C62.8794 64.3582 63.0933 63.8717 62.6931 63.4241C62.2966 62.9815 61.7825 62.9384 61.2068 63.0554ZM89.237 74.0882C89.1148 74.3801 88.8577 74.6158 88.5261 75.0274C88.2833 74.6323 87.996 74.3521 88.0529 74.2167C88.1596 73.9631 88.4387 73.7085 88.7005 73.6253C88.8271 73.5848 89.2689 74.0116 89.237 74.0882ZM84.3394 72.885C84.7042 72.9289 85.0741 73.0313 85.0898 73.5185C85.091 73.947 84.7231 74.3145 84.2776 74.1919C83.9842 74.1111 83.639 73.8392 83.5292 73.5671C83.394 73.2322 83.8935 72.8314 84.3394 72.885ZM94.4263 74.014C94.606 74.0144 94.7854 74.2509 95.0703 74.4635C94.7891 74.6605 94.5934 74.9025 94.4366 74.8797C94.2588 74.8535 94.1158 74.5902 93.9576 74.43C94.1138 74.2811 94.2703 74.0136 94.4263 74.014ZM96.9885 73.0913C97.2404 73.4853 97.501 73.7141 97.4744 73.9018C97.4483 74.0849 97.1465 74.3006 96.9294 74.3535C96.8261 74.3788 96.5147 74.0559 96.5198 73.8979C96.5264 73.6852 96.748 73.4795 96.9885 73.0913ZM27.6136 68.1969C27.6528 68.21 27.6498 68.3473 27.6895 68.5373C27.5434 68.6307 27.3749 68.769 27.1824 68.8532C26.9077 68.9736 26.6192 69.0673 26.3295 69.147C26.1507 69.1961 25.8775 69.2845 25.7906 69.2024C25.6363 69.0568 25.4555 68.6951 25.5254 68.6005C25.7504 68.2958 26.0603 67.9059 26.3829 67.8588C26.7698 67.8022 27.2052 68.0586 27.6136 68.1969ZM81.7164 71.8729C81.8858 72.1224 82.1194 72.3542 82.1951 72.6292C82.2039 72.6605 82.1929 72.6969 82.1669 72.74C81.9716 73.0646 81.4824 73.0015 81.3342 72.6529C81.2875 72.5433 81.2572 72.4426 81.2528 72.341C81.2463 72.192 81.5517 72.0293 81.7164 71.8729ZM95.3682 71.7849C95.5838 72.0379 95.765 72.4265 95.7481 72.7432C95.7292 73.0996 95.3361 73.1487 95.0848 72.9342C94.815 72.7043 94.6259 72.38 94.3839 72.0746C94.7154 71.5305 95.0662 71.4303 95.3682 71.7849ZM35.1798 67.4529C34.3295 69.2227 33.0589 68.5987 31.834 68.2955C31.7513 68.275 31.6797 68.2214 31.6407 68.1461C31.469 67.8148 31.623 67.4912 31.9808 67.4254C32.9271 67.2516 33.8966 67.1968 34.859 67.127C34.9574 67.1199 35.0721 67.3386 35.1798 67.4529ZM99.6448 71.0212C100.24 71.0709 100.753 71.6318 100.685 72.1588C100.619 72.6735 100.155 73.0527 99.6646 72.9932C98.9692 72.9088 98.405 72.3693 98.454 71.8355C98.4985 71.3531 99.0555 70.9724 99.6448 71.0212ZM89.8986 70.4579C90.2273 71.1068 90.6138 71.5246 91.4251 71.2827C91.4991 71.2604 91.6836 71.6086 91.8168 71.7847C91.6128 71.9227 91.4088 72.0608 91.2045 72.1989L91.1177 71.9591C90.8512 71.9707 90.5847 71.9933 90.318 71.9921C89.6939 71.9892 89.0923 71.4909 89.0382 70.8875C89.0228 70.7177 89.1352 70.4212 89.2556 70.3806C89.4486 70.3155 89.8404 70.3431 89.8986 70.4579ZM87.4429 70.967C87.2548 71.2506 86.9824 71.4784 86.6409 71.8268C86.4558 71.4776 86.2199 71.1702 86.2726 71.1081C86.4884 70.8544 86.7833 70.6591 87.0778 70.4943C87.1072 70.4778 87.4808 70.91 87.4429 70.967ZM82.9726 68.4554C83.4999 68.6444 83.8938 69.0508 83.9056 69.6563L83.9073 69.731C83.9188 70.1832 83.9379 70.6895 83.3355 70.7518C82.781 70.0493 82.3454 69.4974 81.883 68.9113C82.0876 68.4414 82.5127 68.2905 82.9726 68.4554ZM29.0664 65.4936C28.9948 65.9972 28.3863 66.56 27.9713 66.4351C27.7966 66.3826 27.6174 66.1237 27.5733 65.9283C27.5377 65.772 27.7031 65.57 27.7815 65.3834C27.5709 64.8608 27.6994 64.4817 28.3003 64.4344C28.7485 64.3988 29.1387 64.9844 29.0664 65.4936ZM33.551 65.0249C33.6633 65.1825 33.7442 65.3133 33.7683 65.4538C33.8298 65.8095 33.2419 66.2593 32.9324 66.0839C32.7247 65.966 32.545 65.5835 32.5669 65.3387C32.5775 65.2198 32.6619 65.1076 32.7835 64.9754C32.9953 64.7447 33.369 64.7702 33.551 65.0249ZM96.2343 68.7902C96.5737 68.8361 96.9214 68.882 97.2365 69.0037C97.3057 69.0304 97.3329 69.4845 97.2419 69.5498C96.9316 69.7722 96.5605 69.9106 96.2104 70.0761C96.1779 70.0915 96.1293 70.0727 95.9979 70.0636C95.8546 69.9885 95.6024 69.9147 95.4316 69.7542C95.1004 69.4429 95.2766 68.9428 95.7433 68.8239C95.9006 68.784 96.0745 68.7685 96.2343 68.7902ZM90.5916 67.2782C91.1827 67.5302 91.2138 68.0457 91.1362 68.7293C90.2823 68.4947 89.8214 67.9965 90.0226 67.5939C90.1068 67.426 90.4627 67.2233 90.5916 67.2782ZM108.171 57.8189C105.15 59.6356 102.843 62.2088 99.8258 63.8692C100.727 65.7738 101.571 67.5563 102.383 69.2708C105.226 68.2245 107.937 67.1879 110.677 66.2321C112.518 65.59 114.398 65.0605 116.262 64.4847C116.768 64.3282 117.226 64.1297 117.461 63.5954C117.561 63.3681 117.357 63.1224 117.112 63.1651C116.689 63.2391 116.309 63.3028 115.936 63.3948C114.727 63.692 113.525 64.0208 112.317 64.3235C112.182 64.3577 112.043 64.3978 111.903 64.4201C111.393 64.5018 111.172 63.8006 111.635 63.5712C111.841 63.4694 112.043 63.3797 112.254 63.3195C113.53 62.954 114.813 62.6026 116.111 62.3268C116.724 62.1966 117.05 61.9492 117.045 61.3876C117.044 61.2217 116.938 61.0695 116.785 61.0059C116.228 60.7742 115.654 60.9257 115.094 61.0501C114 61.2929 112.919 61.5985 111.82 61.8127C111.56 61.8633 111.061 61.7255 110.999 61.5547C110.822 61.0739 111.262 60.9603 111.634 60.8694C112.209 60.729 112.783 60.5844 113.355 60.4312C113.754 60.3245 114.156 60.2332 114.558 60.1408C114.934 60.0545 115.207 59.9106 115.264 59.5257C115.296 59.3127 115.112 59.1289 114.898 59.1522C114.598 59.1849 114.31 59.2119 114.044 59.304C111.541 60.1726 109.05 61.0742 106.548 61.943L106.541 61.9455C106.13 62.0852 105.735 61.6888 105.881 61.2805C105.904 61.2157 105.935 61.1566 105.977 61.1068C106.508 60.4711 107.128 59.9103 107.677 59.2881C107.986 58.9384 108.338 58.5672 108.171 57.8189ZM99.8346 67.5401C100.054 67.6141 100.142 68.0759 100.365 68.5112C100.071 68.7283 99.8445 69.0308 99.6496 69.0117C99.2128 68.9686 99.1263 68.5713 99.1604 68.1783C99.1962 67.7639 99.4165 67.3993 99.8346 67.5401ZM85.3948 66.5743C85.5553 66.7668 85.847 66.9644 85.8396 67.1499C85.8321 67.3353 85.5252 67.5087 85.258 67.7804C85.0659 67.4703 84.8248 67.2394 84.8711 67.1221C84.9569 66.9044 85.2109 66.7533 85.3948 66.5743ZM36.0636 62.7635C36.1859 62.8998 36.286 63.1266 36.2702 63.3038C36.2149 63.9235 35.5059 64.295 34.6805 64.146C34.6221 63.4246 35.2776 63.1548 35.6277 62.7046C35.6768 62.6416 35.9847 62.676 36.0636 62.7635ZM92.1959 64.4308C92.4334 64.7607 92.6869 64.9634 92.7319 65.2046C92.8535 65.8583 92.9376 66.5014 93.4526 67.0001C93.5296 67.0747 93.5185 67.382 93.4391 67.4454C93.3014 67.5557 92.9946 67.6623 92.9062 67.5899C92.5641 67.3098 92.1684 67.0064 92.0031 66.6212C91.7985 66.1448 91.7662 65.5806 91.7398 65.0505C91.7314 64.8849 91.9839 64.7061 92.1959 64.4308ZM89.7438 66.6103C89.3152 66.5804 88.9252 66.5927 88.5594 66.5048C88.4399 66.4763 88.3283 66.1905 88.3167 66.0155C88.309 65.8969 88.4554 65.7096 88.5791 65.6515C89.0398 65.436 89.5459 65.809 89.7438 66.6103ZM27.8188 60.2661C27.9316 60.2692 28.0934 60.5253 28.1349 60.6921C28.2287 61.069 28.2617 61.461 28.3276 61.9024C27.7904 62.2128 27.3841 62.1009 27.2277 61.6667C27.1023 61.3189 27.1465 60.8813 27.2234 60.5057C27.249 60.3817 27.613 60.2604 27.8188 60.2661ZM96.4597 65.0767C97.2026 65.1312 97.3577 65.4214 97.3272 65.8534C97.2965 66.2895 97.0824 66.5491 96.6204 66.5186C96.1303 66.4864 95.5153 65.993 95.6748 65.7374C95.8795 65.4091 96.2911 65.2098 96.4597 65.0767ZM31.2615 60.263C31.4222 60.7376 31.3181 61.1603 30.8906 61.4433C30.6041 61.6332 30.2501 61.4001 30.2362 61.0017C30.2239 60.6472 30.2782 60.2902 30.302 59.9495C30.799 59.6166 31.0979 59.7801 31.2615 60.263ZM33.4398 59.5872C33.9772 59.6243 34.0795 60.0066 34.0598 60.606C33.8199 60.8619 33.6201 61.2534 33.3296 61.3401C32.9607 61.4503 32.6358 60.8892 32.6773 60.3606C32.7146 59.8835 32.9592 59.5543 33.4398 59.5872ZM95.1397 64.3192C94.7762 64.6044 94.5415 64.8664 94.2495 64.9741C94.1512 65.0106 93.908 64.656 93.7312 64.48C93.9822 64.2612 94.2116 64.0022 94.498 63.8496C94.5773 63.8073 94.8253 64.0816 95.1397 64.3192ZM83.5769 62.4649C83.8556 62.8914 84.1361 63.1416 84.1773 63.4264C84.2391 63.8547 83.7741 64.1983 83.3573 64.0885C82.9333 63.9768 82.5419 63.7172 82.7101 63.2319C82.8011 62.9694 83.1752 62.8051 83.5769 62.4649ZM66.5906 58.421C66.5134 60.0292 64.7924 61.6915 63.1278 61.7656C62.6027 61.7889 62.1651 61.3437 62.3093 60.8023C62.4324 60.3399 62.633 59.8085 62.9761 59.513C63.7773 58.8227 64.6463 58.1893 65.5615 57.6603C66.2515 57.2619 66.6304 57.5962 66.5906 58.421ZM28.4435 57.2719C28.6517 57.3518 28.8232 57.5281 29.0553 57.7552C29.2029 57.8996 29.1875 58.1426 29.0221 58.2665L29.0139 58.2726C28.7314 58.4843 28.3273 58.4228 28.1292 58.1319C28.0369 57.9964 27.9531 57.8574 27.8892 57.7096C27.8615 57.6461 28.3234 57.2257 28.4435 57.2719ZM65.3998 58.8842C64.5285 59.3291 63.9594 59.7089 63.5 60.5702C64.4689 60.3056 65.0264 59.9119 65.3998 58.8842ZM31.8317 56.075C31.9259 56.1081 32.0051 56.184 32.0943 56.2858C32.2708 56.4877 32.247 56.7964 32.0423 56.9696C31.8733 57.1127 31.7172 57.2372 31.5465 57.3371C31.5052 57.3615 31.1574 57.0615 31.142 56.8942C31.0974 56.4022 31.4921 55.9556 31.8317 56.075ZM35.3792 55.3981C35.5407 55.5928 35.6522 55.7374 35.6404 55.8711C35.6192 56.1018 35.3104 56.4238 35.0684 56.4898C34.6884 56.5932 34.4418 56.2658 34.4908 55.9062C34.511 55.7575 34.5946 55.6176 34.7134 55.437C34.8665 55.2043 35.2012 55.1837 35.3792 55.3981ZM30.6753 53.8779C31.0825 53.905 31.3386 54.1692 31.3373 54.6115C31.3359 55.1028 30.7868 55.7708 30.4804 55.593C30.2216 55.4429 30.1319 55.0016 29.9675 54.6892C30.0584 54.1746 30.1887 53.8454 30.6753 53.8779ZM32.466 52.6712C32.8464 52.7738 32.9777 53.0592 32.7333 53.6774C32.7848 53.783 32.9602 54.0302 33.0205 54.3031C33.0643 54.5016 33.0124 54.7758 32.8936 54.9343C32.8319 55.0169 32.5011 54.9818 32.3477 54.8978C31.7347 54.562 31.412 53.7748 31.6218 53.2062C31.7655 52.8172 32.0269 52.5524 32.466 52.6712ZM36.7737 50.2644C36.7907 51.4535 36.4894 51.9825 35.8856 51.9085C35.4375 51.8535 35.0089 51.2641 35.0894 50.8136C35.1913 50.2445 35.7073 50.0636 36.7737 50.2644ZM44.0805 49.2003C44.0559 49.4581 43.9883 49.7293 43.8623 49.9543C43.7722 50.1153 43.5648 50.2105 43.4098 50.3352C43.2965 50.3236 43.1834 50.3118 43.0701 50.2999C43.0489 50.0163 42.932 49.6893 43.0346 49.4614C43.1317 49.2454 43.4448 49.0983 43.6934 48.9938C43.7845 48.9557 44.0864 49.1386 44.0805 49.2003ZM49.8209 49.9156C49.9629 49.936 50.0758 50.1575 50.2676 50.3612C50.0226 50.5212 49.8672 50.6227 49.7118 50.7243C49.5922 50.54 49.4729 50.3558 49.3535 50.1714C49.5104 50.0779 49.6802 49.8952 49.8209 49.9156ZM52.2951 49.3394C52.3997 49.3556 52.491 49.4555 52.594 49.589C52.7638 49.8092 52.7425 50.1231 52.5461 50.3197L52.5387 50.3273C52.3055 50.5605 51.9104 50.5283 51.7334 50.2508C51.6846 50.1742 51.6493 50.0961 51.6385 50.0147C51.5857 49.6131 51.8514 49.2703 52.2951 49.3394ZM66.7743 49.9247C67.0322 50.3973 66.7458 50.7361 66.3585 50.9286C66.0505 51.082 65.6793 51.108 65.3359 51.1906C65.3283 51.158 65.3209 51.1256 65.3134 51.093C65.1503 51.0816 64.9773 51.1011 64.8255 51.0529C64.3793 50.9112 64.2751 50.4903 64.6379 50.2218C64.9654 49.9795 65.33 49.7738 65.7041 49.6115C66.1213 49.4308 66.5381 49.4918 66.7743 49.9247ZM46.8965 48.669C46.9156 48.674 46.9342 48.6806 46.9526 48.6887C47.3127 48.8491 47.3119 49.3721 46.971 49.5699C46.7885 49.6756 46.6211 49.7623 46.4438 49.8168C46.3311 49.8513 46.0094 49.5854 45.9746 49.4175C45.8975 49.0454 46.4912 48.5653 46.8965 48.669ZM58.0767 49.4429C58.1522 49.5327 58.016 49.9211 57.8676 50.0565C57.593 50.307 57.3379 50.3628 57.0916 50.2197C56.6868 49.9847 56.7605 49.3928 57.1898 49.2057C57.2565 49.1767 57.3245 49.1547 57.3943 49.143C57.6092 49.1074 57.9284 49.2661 58.0767 49.4429ZM62.3991 49.5064C62.5576 49.5088 62.7116 49.79 62.9901 50.0692C62.6102 50.2305 62.3414 50.4503 62.1442 50.3983C61.9556 50.3486 61.8416 50.0163 61.6948 49.8081C61.9296 49.6977 62.1661 49.5027 62.3991 49.5064ZM70.3028 49.7732C70.5143 49.8852 70.7078 50.3143 70.6581 50.5487C70.6166 50.7459 70.2124 50.8664 70.1224 50.9233C69.6821 50.8032 69.4671 50.7799 69.2891 50.6865C69.26 50.6712 69.2313 50.6545 69.2032 50.6367C68.9135 50.4535 68.838 50.0549 69.0674 49.8001C69.123 49.7384 69.1824 49.6926 69.249 49.6771C69.5823 49.5986 70.0093 49.6177 70.3028 49.7732ZM37.4526 47.2424C37.8281 47.4412 37.9115 47.6614 37.7863 48.1628C37.7091 48.4714 37.3165 48.5785 37.0911 48.3539C36.8353 48.0993 36.7886 47.8712 36.8869 47.4919C36.9504 47.2453 37.2274 47.1231 37.4526 47.2424ZM54.767 48.547C54.9435 48.7599 55.1529 48.9018 55.1529 49.0432C55.1528 49.1887 54.9481 49.3339 54.8329 49.4792C54.6648 49.3343 54.4966 49.1891 54.3284 49.044C54.4511 48.905 54.5741 48.7657 54.767 48.547ZM40.8708 46.8116C41.1475 46.9577 41.2642 47.298 41.1299 47.5806C40.8773 48.1123 40.6039 48.2584 40.2498 48.1243C39.8405 47.9697 39.4615 47.2434 39.6938 46.9138C40.0953 46.3448 40.4639 46.5966 40.8708 46.8116ZM50.306 48.0063C50.3237 48.0518 50.3282 48.0888 50.3154 48.1181C50.2066 48.3668 49.951 48.5508 49.7552 48.7613C49.6226 48.5893 49.3571 48.3903 49.3852 48.2511C49.4051 48.1535 49.4491 48.061 49.5104 47.9617C49.7009 47.6528 50.175 47.668 50.306 48.0063ZM62.3723 47.7833C62.4658 47.945 62.4317 48.3694 62.3211 48.4279C61.7718 48.7179 61.1786 48.9251 60.5902 49.1658C60.357 48.9666 60.1043 48.8507 60.0971 48.7213C60.0863 48.5216 60.1869 48.2135 60.3399 48.1266C60.7915 47.8698 61.2809 47.6595 61.7797 47.5168C61.9481 47.4687 62.2805 47.6247 62.3723 47.7833ZM73.7416 48.4524C73.9243 48.5692 73.9874 48.8729 74.1521 49.1831C73.8392 49.472 73.5993 49.6934 73.3594 49.9147C73.2302 49.6582 72.9923 49.4004 72.9945 49.145C72.9997 48.6317 73.4404 48.2594 73.7416 48.4524ZM45.0711 45.9981C45.2299 46.2421 45.4926 46.4741 45.5219 46.7326C45.5612 47.0789 45.4601 47.555 44.9578 47.4513C44.8261 47.4242 44.7262 47.2431 44.6067 47.0225C44.4855 46.7988 44.5285 46.5203 44.7119 46.3438L45.0711 45.9981ZM52.2218 46.4949C52.2114 46.7266 52.3962 46.987 52.3389 47.1911C52.2776 47.4089 52.0344 47.5758 51.9232 47.7043C51.3728 47.6042 50.8062 46.8509 50.8966 46.4758C51.0049 46.0257 51.3232 45.7631 51.7797 45.7812C52.2187 45.7986 52.2383 46.1312 52.2218 46.4949ZM42.8179 45.482C42.9284 45.5168 43.0207 45.6098 43.1367 45.7371C43.2947 45.9105 43.2855 46.1796 43.116 46.3419C42.8846 46.5632 42.6749 46.7601 42.4446 46.9294C42.4074 46.9566 42.0275 46.6868 41.9967 46.5201C41.9257 46.1333 42.5346 45.3934 42.8179 45.482ZM55.9595 46.2443C56.2092 46.2625 56.5361 46.5574 56.6369 46.8064C56.7044 46.9725 56.4892 47.4046 56.3017 47.4843C56.0558 47.5888 55.6732 47.5403 55.4224 47.4132C55.3265 47.3648 55.2496 47.2792 55.1691 47.1652C54.9672 46.8797 55.0899 46.4755 55.4177 46.3533C55.612 46.2812 55.7881 46.2316 55.9595 46.2443ZM65.0383 46.9937C65.3893 47.2119 65.3604 47.7405 65.0053 47.9517C64.9457 47.9872 64.8917 48.0052 64.8419 47.9973C64.6619 47.9689 64.408 47.6331 64.4126 47.437C64.4168 47.2592 64.7171 46.9621 64.9015 46.9507C64.9455 46.948 64.9907 46.964 65.0383 46.9937ZM68.6008 46.1086C69.6217 46.1841 70.2173 46.6633 70.1391 47.3461C70.0865 47.8058 69.6602 48.153 69.1866 48.1225C68.4585 48.0754 67.6779 47.3305 67.7023 46.7056C67.7192 46.2748 68.0322 46.0665 68.6008 46.1086ZM59.7869 45.8183C60.0338 46.1229 60.2161 46.3479 60.3982 46.5727C60.1914 46.7271 59.9192 47.0498 59.7916 47.0001C59.5446 46.9044 59.3533 46.614 59.2057 46.3648C59.1822 46.3249 59.5041 46.0802 59.7869 45.8183ZM75.7118 47.707C75.4824 47.8808 75.2933 48.1073 75.2049 48.0729C75.0328 48.0068 74.9173 47.7943 74.7785 47.642C74.9205 47.5252 75.0594 47.3218 75.2051 47.3168C75.3404 47.3121 75.4829 47.5196 75.7118 47.707ZM49.1334 45.2852C49.1563 45.3613 49.162 45.4263 49.1436 45.4835C49.0653 45.7246 48.7304 46.017 48.4843 46.0392C48.0666 46.0772 47.962 45.6743 48.0682 45.3455C48.089 45.2814 48.1198 45.2205 48.1602 45.1575C48.408 44.771 49.0014 44.8455 49.1334 45.2852ZM66.4497 44.5684C66.507 44.6731 66.5291 44.7968 66.6197 45.068C66.3867 45.151 66.0497 45.3624 65.9633 45.2866C65.5127 44.893 65.0864 45.0509 64.5903 45.1379C64.3058 45.1877 63.8214 44.99 63.678 44.7521C63.4326 44.3449 63.8561 44.0967 64.1786 43.9162C64.925 43.4983 66.0433 43.8254 66.4497 44.5684ZM61.7431 42.4333C62.06 42.6184 62.3917 42.8442 62.5949 43.1367C62.7575 43.3706 62.8872 43.8561 62.7623 44.0078C62.5679 44.2436 62.139 44.3993 61.8202 44.3825C61.569 44.3693 61.2393 44.092 61.1178 43.8463C60.9839 43.5752 61.0478 43.2066 61.0256 42.8805C61.0028 42.4241 61.3435 42.1998 61.7431 42.4333Z" fill="#222222"/>
<path fill-rule="evenodd" clip-rule="evenodd" d="M59.2691 28.4304C59.4298 28.5984 59.4858 28.8634 59.5999 29.0799C60.0878 30.0071 60.3052 30.1058 61.3437 29.8569C61.6704 29.7787 62.076 29.6509 62.1471 30.0843C62.1819 30.2947 61.8821 30.6312 61.6514 30.7947C61.5563 30.8622 61.4546 30.9054 61.349 30.9356C60.9571 31.0471 60.5343 31.011 60.1584 30.8532C59.2313 30.4643 58.3801 29.5102 58.4848 28.6807C58.5022 28.5422 58.6273 28.3302 58.7334 28.3094C58.9032 28.2761 59.1595 28.3158 59.2691 28.4304ZM67.6318 25.0699C68.0566 25.235 67.8851 25.6028 67.734 25.9058C67.2852 26.8064 66.2824 27.2479 65.3322 26.939C65.0231 26.8386 64.6428 26.6079 64.2658 26.4252C64.3966 26.8279 64.3227 27.1052 64.2509 27.3922C63.9665 28.5312 62.632 29.0219 61.6916 28.3195C61.5368 28.2036 61.3923 27.9123 61.4479 27.7143C61.5187 27.4619 61.6685 27.4358 61.8507 27.4518C62.0821 27.4719 62.2534 27.5284 62.415 27.5629C62.7682 27.6386 63.1745 27.6121 63.2013 27.2143C63.2216 26.9148 63.2495 26.4975 63.0079 26.3347C62.7399 26.1541 62.0778 26.2314 61.7311 26.1383C61.7229 26.136 61.7147 26.1335 61.7062 26.1308C61.3445 26.0121 61.2316 25.5141 61.5267 25.2736C61.5466 25.2574 61.5674 25.2434 61.5898 25.232C62.1196 24.9615 63.3099 25.1373 63.887 25.7151C64.2201 25.2 64.5237 25.1136 65.0171 25.5086C65.971 26.2727 66.0476 26.2236 66.934 25.3429C67.103 25.1751 67.4564 25.0018 67.6318 25.0699ZM59.75 25.4794C59.9489 25.6305 59.9489 25.9721 59.8602 26.1209C59.4101 26.8766 58.7571 27.3498 57.8265 27.3215C57.0604 27.3169 56.4764 26.9543 56.0196 26.3722C55.8097 26.1049 55.606 25.7526 55.9874 25.5189C56.1444 25.4227 56.4846 25.577 56.7188 25.6728C56.8603 25.7309 56.9465 25.9117 57.0784 26.0096C57.6335 26.4211 58.1212 26.4211 58.6647 26.0018C58.8602 25.8507 59.004 25.6207 59.2143 25.505C59.3634 25.4231 59.6753 25.4224 59.75 25.4794Z" fill="#222222"/>
</svg>
