<svg width="120" height="116" viewBox="0 0 120 116" fill="none" xmlns="http://www.w3.org/2000/svg">
<path fill-rule="evenodd" clip-rule="evenodd" d="M85.3267 0C87.7027 0.0941877 90.0231 0.170866 92.3416 0.281839C95.5102 0.433746 98.5038 1.29556 101.439 2.36121C102.5 2.74642 103.558 3.14973 104.583 3.61162C110.039 6.06967 114.379 9.68552 117.336 14.7081C118.746 17.1021 119.487 19.6998 119.812 22.4032C120.306 26.521 119.813 30.5716 118.494 34.4967C117.217 38.2991 115.11 41.7 112.334 44.7276C110.819 46.3796 109.146 47.8553 107.288 49.1522C104.43 51.1479 101.582 53.156 98.7168 55.1432C97.9312 55.6882 97.0903 56.1616 96.2965 56.6964C95.3705 57.3205 94.428 57.9311 93.563 58.6256C89.7603 61.6787 87.9152 65.5594 88.1532 70.2923C88.2367 71.9577 88.3528 73.6219 88.4143 75.2881C88.4743 76.9188 87.9465 78.3967 87.0201 79.7649C86.5883 80.4029 86.0546 80.9392 85.4412 81.4184C83.451 82.9735 81.201 84.0985 78.8114 84.9859C75.233 86.3146 71.5299 87.2086 67.7378 87.7912C65.0093 88.2103 62.2714 88.5416 59.5117 88.7111C56.0751 88.9219 52.6387 88.882 49.2059 88.6754C44.8703 88.4142 40.5639 87.9021 36.2816 87.21C32.4381 86.5886 28.5981 85.9454 24.8213 85.0193C20.5065 83.9613 16.2299 82.7833 12.1398 81.0781C9.70823 80.0643 7.41005 78.8358 5.3474 77.2359C3.00526 75.4191 1.35373 73.1636 0.42976 70.429C-0.0328663 69.0598 -0.0825795 67.6603 0.0950587 66.2609C0.540305 62.7535 1.6354 59.4487 3.67274 56.4529C4.67097 54.9849 5.88223 53.6871 7.17426 52.451C8.3822 51.2952 9.6212 50.1673 10.7964 48.9827C11.525 48.2484 12.1932 47.4547 12.8306 46.6468C14.3758 44.688 14.803 42.4928 14.3694 40.0975C14.1468 38.8678 13.9768 37.6182 13.9351 36.3731C13.8388 33.4985 14.7194 30.8311 16.0581 28.2793C17.1835 26.1341 18.6915 24.251 20.4353 22.5284C25.7455 17.282 31.8559 13.0899 38.8726 10.1102C44.5261 7.70926 50.2394 5.4432 56.116 3.56694C59.2707 2.55973 62.5186 1.90428 65.8153 1.5058C69.4061 1.07181 73.003 0.658831 76.6095 0.37337C79.5225 0.142851 82.4538 0.11544 85.3267 0Z" fill="#FF5271"/>
<path fill-rule="evenodd" clip-rule="evenodd" d="M84.9204 60.9751C84.9293 60.995 84.9357 61.016 84.9403 61.038L84.9204 60.9751ZM81.2521 61.9659C79.919 60.265 78.9977 57.4559 80.198 57.8709C81.0481 58.1648 84.0096 61.5569 83.995 61.5323C82.9626 59.7845 82.1874 58.0819 81.5959 56.1008C81.4212 55.5149 81.4616 54.9781 81.8042 54.6755C82.0719 54.4384 82.542 54.3919 82.542 54.3919C82.2641 53.1361 82.2957 52.2382 83.8147 52.8092C83.5744 52.0817 83.5374 51.4281 84.2586 51.1182C84.9645 50.8151 85.5558 51.0846 86.074 51.5714C87.5701 52.9768 88.7113 54.681 89.7892 56.4133C90.2306 57.1225 90.7322 57.7712 90.8159 58.6269C90.8882 59.3692 90.7254 60.1127 90.5514 60.8302C89.2517 66.1918 87.9787 71.5618 86.5475 76.8887C85.9363 79.1632 85.0516 81.3787 84.1294 83.5527C82.5439 87.2914 78.241 88.886 74.5381 87.2332C72.4561 86.304 70.7572 84.8405 69.0555 83.3764C68.7539 83.1167 68.444 82.867 67.954 82.4602C67.954 83.1701 67.9334 83.6537 67.9581 84.1352C68.0215 85.3823 67.2718 86.1186 67.2718 87.5861C67.2718 89.0537 64.7653 89.0114 63.3108 89.5004C56.6785 91.73 48.5774 91.7476 41.5509 91.4091C37.3111 91.2048 33.313 89.7759 29.8428 87.2332C29.5799 87.0404 29.2894 86.8608 28.9334 86.653C28.7514 86.9705 28.6163 87.6005 28.4813 87.8839C26.2311 92.6119 24.2712 97.4513 22.7708 102.475C22.5106 103.348 22.6496 103.932 23.2196 104.604C24.2381 105.805 25.1916 107.066 26.1005 108.352C26.4755 108.883 26.755 109.521 26.9184 110.152C27.1869 111.189 26.3882 111.864 25.3803 111.489C25.0002 111.348 24.6575 111.087 24.3245 110.845C24.028 110.629 23.768 110.362 23.3347 109.978C23.5608 111.007 23.7714 111.836 23.9171 112.676C24.0085 113.204 24.0728 113.754 24.0254 114.282C23.9182 115.485 22.8126 115.478 22.1292 115.165C21.8687 115.047 21.6794 114.809 21.451 114.625C20.441 115.62 19.9711 115.992 18.4324 114.961C17.8919 115.45 17.2258 115.643 16.6319 115.041C16.1728 114.575 16.2798 114.778 15.4971 113.281C15.5035 113.28 15.3583 113.465 15.3297 113.485C14.909 113.786 14.5797 114.342 13.9399 114.077C13.2919 113.809 13.2164 113.17 13.2052 112.606C13.1872 111.697 13.2103 110.773 13.3552 109.878C13.7595 107.381 14.1674 104.881 14.7016 102.41C15.2973 99.6558 16.0507 96.9362 16.706 94.1948C18.1075 88.3323 20.261 82.4485 22.7708 76.8887C22.551 76.5963 22.3153 76.3583 22.1292 76.0499C21.4955 74.9995 20.8276 74.036 21.5324 72.885C22.1609 71.8585 22.7294 70.7957 23.3486 69.7635C26.0834 65.2064 28.8252 60.6534 31.5678 56.1008C32.9226 53.8523 34.4885 51.7648 36.2905 49.8498C38.4621 47.5426 40.0994 46.3786 43.0359 45.3772C44.151 44.9969 43.8143 44.0134 44.5444 45.0294C44.969 45.6206 51.3019 45.6326 51.4009 45.3772C51.6307 44.7847 51.4244 44.7417 52.0164 44.6657C52.9875 44.541 53.8622 45.0761 54.6661 45.5382C57.4574 47.1428 60.0156 49.0544 62.2101 51.4147C65.956 55.4435 69.2375 59.8288 72.0662 64.5444C72.6834 65.5728 73.1206 66.7071 73.6895 67.7665C74.1827 68.6852 74.3185 69.5449 73.4826 70.3558C74.5598 71.6877 76.0104 73.4958 77.1542 74.9106C77.3222 74.5337 77.4071 73.8493 77.51 73.5676C78.1656 71.7755 78.4536 69.8741 79.1099 68.0821C79.1408 67.9974 79.1687 67.9085 79.1995 67.8215L81.2521 61.9659Z" fill="white"/>
<path fill-rule="evenodd" clip-rule="evenodd" d="M95.267 26.1145C99.3 27.1171 101.647 29.9004 102.714 33.7701C104.308 39.5537 101.873 46.203 96.9965 49.7188C94.529 51.4976 91.7952 52.2768 88.7553 51.895C88.5116 51.8643 88.2676 51.835 87.9128 51.7913C87.7696 52.1325 87.623 52.4685 87.4822 52.8056C88.3901 53.8919 89.1694 55.0823 89.9181 56.2863C90.3599 56.997 90.8629 57.6471 90.9462 58.5046C91.0188 59.2486 90.8555 59.9939 90.6817 60.7126C89.3796 66.0858 88.1045 71.4674 86.6707 76.8058C86.0584 79.0852 85.1725 81.3056 84.249 83.4841C82.6603 87.2309 78.3506 88.8289 74.6412 87.1725C72.5556 86.2413 70.854 84.7747 69.1494 83.3072C68.8475 83.0471 68.537 82.797 68.0461 82.389C68.0461 83.1007 68.0257 83.5853 68.05 84.0679C68.1135 85.3177 68.8382 88.2991 67.7456 88.7519C66.3255 89.3404 64.1991 89.9018 62.2923 90.3756C55.4611 92.0729 48.6369 91.6966 41.5988 91.3574C37.3518 91.1528 33.3976 90.049 29.9216 87.5008C29.658 87.3078 29.3568 87.1659 29.0002 86.9576C28.8179 87.276 28.6422 87.5406 28.507 87.8247C26.253 92.5631 24.2899 97.4125 22.7871 102.448C22.526 103.322 22.6655 103.907 23.2365 104.58C24.2569 105.784 25.2118 107.048 26.1222 108.337C26.4979 108.869 26.778 109.509 26.9415 110.141C27.2104 111.18 26.4104 111.856 25.4007 111.481C25.0201 111.339 24.677 111.078 24.3435 110.835C24.0459 110.618 23.7857 110.351 23.3519 109.967C23.5782 110.998 23.7892 111.829 23.9351 112.671C24.0267 113.199 24.0911 113.75 24.0436 114.28C23.936 115.485 22.829 115.478 22.1442 115.165C21.8833 115.046 21.6936 114.808 21.4648 114.624C20.4531 115.62 19.9825 115.993 18.4412 114.96C17.8998 115.45 17.2328 115.644 16.6377 115.04C16.1778 114.573 16.285 114.777 15.501 113.276C15.5076 113.275 15.3619 113.461 15.3333 113.481C14.9119 113.783 14.582 114.339 13.9412 114.074C13.2921 113.805 13.2165 113.166 13.2052 112.6C13.1872 111.689 13.2103 110.763 13.3555 109.866C13.7607 107.364 14.1688 104.858 14.7043 102.382C15.3008 99.6219 16.0555 96.8965 16.7119 94.1492C18.1157 88.2738 19.8853 82.5202 22.3993 76.9481C22.1792 76.6554 21.9348 76.3814 21.7486 76.0726C21.1137 75.0201 20.8405 73.9472 21.5464 72.7935C22.1758 71.7648 22.7454 70.6996 23.3657 69.6652C26.105 65.0983 28.8515 60.5355 31.5989 55.9731C32.9558 53.7197 34.5243 51.628 36.3296 49.7086C38.5044 47.3964 40.6699 45.5785 43.6113 44.575C44.7285 44.1938 44.7968 44.3225 45.5281 45.3407C45.9537 45.9331 46.4739 46.5143 47.0765 46.91C48.221 47.6618 49.6683 47.7091 50.507 46.3146C50.6486 46.0795 50.9729 45.4794 51.0721 45.2237C51.3023 44.6301 51.4645 44.5868 52.0574 44.5106C53.0302 44.3856 53.9308 44.9247 54.7359 45.3877C57.5318 46.9958 60.0944 48.9115 62.2923 51.2768C66.0445 55.3145 69.3317 59.7089 72.1655 64.4347C72.7832 65.4655 73.2214 66.6022 73.7912 67.6639C74.2855 68.5845 74.4211 69.4462 73.584 70.2588C74.663 71.5935 75.7051 72.883 76.8513 74.3006C77.0194 73.9234 77.1589 73.6544 77.262 73.3724C77.7672 71.99 78.2657 70.6049 78.7683 69.2214C78.7467 69.2004 78.7247 69.1783 78.703 69.1556C78.1606 68.5879 78.3676 68.0353 78.604 67.4337C79.3723 65.4799 80.1386 63.5254 80.9039 61.5704C80.0474 60.6648 79.3424 59.6495 79.1138 58.388C78.9634 57.558 79.6393 57.0331 80.4492 57.3362C81.1469 57.5976 81.6229 58.1065 82.036 58.6758L82.2539 58.1183C81.9166 57.4267 81.6208 56.7131 81.3965 55.9612C81.2212 55.3741 81.2698 54.6647 81.6127 54.3616C81.8813 54.124 82.3463 54.2069 82.3463 54.2069C82.068 52.9483 82.2066 52.043 83.7281 52.615C83.4876 51.886 83.656 51.2904 84.3782 50.98C84.6246 50.874 84.857 50.8378 85.0774 50.8562L85.1494 50.669C84.4664 50.0706 83.8636 49.6192 83.3512 49.0815C81.0181 46.6317 79.9845 43.6559 80.0756 40.3217C80.2188 35.0795 82.3677 30.8298 86.7142 27.821C89.2901 26.0381 92.1811 25.3472 95.267 26.1145ZM23.7436 76.4347C23.5526 76.8504 23.433 77.1123 23.3121 77.3735C19.7891 84.972 17.9588 93.0868 16.0713 101.181C15.4625 103.792 15.3956 106.465 15.6169 109.124C15.7224 110.393 16.0791 111.65 16.4091 112.89C16.4959 113.216 16.6968 113.511 16.9439 113.885C17.1057 114.13 17.4879 113.992 17.4556 113.701C17.2907 112.299 17.1013 110.9 16.9403 109.499C16.8597 108.797 16.8061 108.091 16.7742 107.385C16.7648 107.173 16.7932 106.964 16.9703 106.827C17.1822 106.661 17.4966 106.78 17.5777 107.036C17.6638 107.308 17.7522 107.587 17.79 107.873C17.9921 109.397 18.1096 110.934 18.3551 112.45C18.471 113.166 18.7529 113.799 19.2905 114.288C19.7046 114.664 20.3716 114.361 20.3973 113.802C20.4224 113.256 20.3361 112.73 20.2568 112.213C20.0125 110.614 19.709 109.025 19.4419 107.43C19.3872 107.104 19.3159 106.754 19.3812 106.443C19.4025 106.341 19.4689 106.249 19.5507 106.161C19.7225 105.975 20.0237 105.975 20.1927 106.163C20.2461 106.223 20.2864 106.285 20.299 106.352C20.4298 107.045 20.4646 107.756 20.5787 108.453L20.6282 108.759C20.8823 110.339 21.1208 111.927 21.9516 113.342C22.1027 113.599 22.2296 113.902 22.4948 114.107C22.7296 114.288 23.07 114.103 23.0553 113.807C23.0379 113.455 23.0216 113.127 22.9479 112.812C22.5597 111.154 22.1162 109.509 21.7211 107.852C21.6435 107.526 21.6146 107.188 21.5853 106.864C21.5617 106.602 21.7839 106.374 22.0445 106.409C22.3602 106.452 22.5189 106.703 22.6806 106.96C23.1227 107.664 23.5446 108.384 24.0347 109.053C24.5086 109.699 25.0496 110.303 25.8471 110.567C25.8648 110.547 25.8817 110.525 25.8982 110.503C26.0352 110.322 26.0533 110.079 25.9406 109.882C25.6254 109.331 25.3 108.826 24.9177 108.308C23.9811 107.037 22.9786 105.813 21.9724 104.595C21.5329 104.064 21.3936 103.534 21.6151 102.869C22.1662 101.213 22.6504 99.5351 23.2209 97.8863C24.9236 92.9666 27.1648 88.2768 29.3788 83.5752C29.8882 82.4934 30.349 81.3883 30.8832 80.1785C28.4642 78.9099 26.13 77.6859 23.7436 76.4347ZM14.5213 107.464C14.4748 107.459 14.3454 109.44 14.339 109.487C14.0761 111.395 13.9387 112.937 14.1769 112.937C15.4224 112.724 14.7188 110.996 14.7408 110.01C14.6892 110.004 14.5729 107.471 14.5213 107.464ZM52.5635 45.5928C52.4094 45.8865 52.2928 46.2237 52.2199 46.3716C50.5846 49.6859 46.527 49.1901 44.6708 46.2439C44.522 46.0076 44.3394 45.7925 44.1914 45.5928C41.7425 46.0994 39.0662 48.3358 37.2934 50.1568C35.4558 52.0444 33.8807 54.1325 32.5245 56.3868C29.4367 61.5184 26.3513 66.6514 23.2718 71.7879C22.8895 72.4258 22.5478 73.0881 22.1105 73.8778C25.1268 74.0312 27.1861 75.4403 29.0407 76.4347C30.9326 77.4492 31.9319 77.8986 33.6631 79.595C33.7242 79.4412 33.7893 79.3006 33.8371 79.1546C35.1475 75.1682 36.4556 71.181 37.7653 67.1944C37.8214 67.0239 37.885 66.8561 37.9515 66.6894C38.0871 66.3504 38.2263 65.9613 38.716 66.1533C39.1542 66.325 38.9941 66.6837 38.8869 67.0028C38.7414 67.4361 38.5965 67.8697 38.4574 68.3053C37.1317 72.4609 35.8033 76.6155 34.4863 80.7739C34.2084 81.6506 33.7739 81.9967 32.7309 82.0194C32.2428 82.0299 31.7531 81.9743 31.2366 81.9472C30.6447 83.244 30.0778 84.4858 29.4553 85.8501C30.1832 86.3858 30.7961 86.8793 31.45 87.3108C34.2472 89.1565 37.3552 90.0129 40.627 90.2914C40.4705 90.15 40.3021 89.8873 40.3428 89.7326C40.5938 88.7808 40.6973 87.7793 41.3506 86.956C41.677 86.5446 41.9578 86.0481 42.0918 85.5459C42.2835 84.826 41.8517 84.3924 41.1213 84.5451C40.5592 84.6628 40.0384 84.9683 39.479 85.1119C39.2592 85.1682 38.8521 85.0842 38.7676 84.9324C38.6591 84.7369 38.7191 84.372 38.8373 84.1493C38.9392 83.9575 39.2069 83.7959 39.4319 83.7373C40.1939 83.5386 40.963 83.3417 41.7418 83.2412C42.3749 83.1595 42.8728 83.4397 43.0734 84.1099C43.2269 84.6225 43.3985 85.1297 43.578 85.6892C43.4115 86.0678 43.2642 86.4473 43.0817 86.809C42.7679 87.43 42.4472 88.049 42.1011 88.6526C41.8158 89.1507 41.5097 89.6404 41.1692 90.1014C41.1077 90.1846 40.9566 90.2686 40.8321 90.3079C41.0466 90.3248 41.2618 90.339 41.4776 90.3509C45.2321 90.5578 50.2249 90.7753 53.97 90.3509C59.1198 89.7673 65.6674 88.7157 66.7678 87.0728C67.1285 86.5342 67.1819 84.842 67.0603 83.7499C66.8395 81.7676 66.7078 79.7735 66.4286 77.7999C66.0271 74.9617 65.375 72.1775 64.634 69.4013C64.5967 69.2613 64.5591 69.1214 64.5214 68.9817L64.4675 68.9995C63.5341 69.298 62.6544 69.2275 61.8905 68.5673C61.5112 68.2397 61.2251 67.8916 61.3007 67.2861C61.3871 66.5911 61.0249 66.2418 60.3465 66.419C59.2929 66.6939 58.0932 66.517 57.2187 67.4376C56.9592 67.711 56.4724 67.7822 56.0783 67.9108C55.4507 68.1157 54.8187 68.3112 54.1792 68.4744C52.909 68.7985 51.7631 68.4895 50.8318 67.6027C49.8675 66.6845 49.4401 65.5144 49.7811 64.1959C50.1904 62.6137 51.0773 61.3366 52.4603 60.4159C52.8331 60.1675 53.212 59.8725 53.4653 59.5124C54.0001 58.7513 53.8428 57.9845 53.0819 57.493C52.9339 57.3975 52.6266 57.4754 52.4229 57.5527C51.8128 57.7846 51.2177 58.0561 50.6165 58.3118C50.1215 58.5219 49.6332 58.7502 49.1297 58.9369C48.1238 59.3105 47.1329 59.7983 46.0908 59.9771C45.2912 60.1144 44.4077 59.9157 43.5933 59.7283C43.3223 59.666 43.0708 59.2041 42.948 58.8738C42.6139 57.9742 42.716 57.0791 43.1439 56.2168C43.7898 54.9143 44.7596 53.8442 45.9423 53.0842C47.9545 51.7909 50.0237 50.5571 52.3721 49.9191C52.5265 49.8772 52.6806 49.7948 52.8066 49.6953C53.5617 49.1001 54.4589 48.9447 55.376 48.8488C55.707 48.814 56.0402 48.8014 56.3705 48.7629C56.6816 48.7267 56.9901 48.6698 57.3 48.6219C56.9951 48.8437 56.7216 49.1628 56.3808 49.2722C53.242 50.2806 50.3125 51.7417 47.4437 53.3369C47.1964 53.4743 46.9996 53.7062 46.7882 53.9035C46.5759 54.1015 46.4055 54.4357 46.1636 54.4957C44.85 54.82 44.6421 56.0133 44.1498 56.9715C43.8754 57.5054 43.755 58.0822 44.287 58.5748C44.9105 59.1519 45.6684 59.3087 46.3365 58.9674C47.555 58.3452 48.7397 57.6482 49.99 57.0997C50.7802 56.7532 51.6531 56.56 52.5084 56.4043C53.7731 56.1743 54.748 56.6508 55.2574 57.6313C55.6403 58.3688 55.532 58.9562 54.9651 59.5541C54.63 59.9075 54.3501 60.3134 54.048 60.6977C53.895 60.8927 53.7874 61.1997 53.5913 61.2723C52.4328 61.6996 52.1845 62.8577 51.6002 63.7241C51.0274 64.5738 50.9985 65.5943 51.5796 66.436C52.1256 67.2271 53.0542 67.3049 53.9596 67.1469C54.4081 67.0686 54.8563 66.951 55.2828 66.7924C56.6438 66.2862 57.9812 65.714 59.3545 65.2461C60.0529 65.008 60.8044 64.8741 61.541 64.8185C61.9331 64.789 62.2554 64.9183 62.0797 65.5995C61.7783 66.7683 62.8472 67.8923 64.0543 67.9552L64.2247 67.9041C63.5085 65.3589 62.6831 62.865 61.4785 60.4959C61.328 60.2001 61.1258 59.9039 61.0825 59.5894C61.0779 59.5548 61.0779 59.5193 61.0816 59.4834C61.1251 59.0746 61.5967 58.8212 61.9437 59.0423C61.9824 59.0668 62.0138 59.0959 62.0351 59.1309C62.3573 59.6594 62.5912 60.2434 62.8418 60.8136C63.813 63.024 64.5532 65.3102 65.2194 67.6209C65.5046 67.5359 65.7861 67.4422 66.0582 67.3264C67.4728 66.7246 68.8606 66.0594 70.2609 65.4233C70.6354 65.253 71.0958 64.9556 71.3945 65.3761C71.758 65.8882 71.247 66.2604 70.8974 66.4826C69.2799 67.5107 67.5733 68.3414 65.6445 68.6319C65.6004 68.6385 65.5565 68.6466 65.5128 68.6559C65.6863 69.2759 65.8558 69.8968 66.0248 70.5179C66.1279 70.8956 66.2852 71.2589 66.3862 71.542C68.5214 69.5421 69.5984 68.9004 72.8226 67.8733C72.2919 66.8551 71.8212 65.6822 71.1238 64.6645C68.9859 61.5447 66.8283 58.4336 64.5525 55.4139C61.9015 51.897 58.699 48.9358 54.9386 46.6101C54.3591 46.2516 53.5364 45.8281 52.5635 45.5928ZM44.567 70.6526C45.1967 71.3169 46.1183 71.8569 45.5563 73.0245C45.5116 73.1175 45.5279 73.2965 45.5911 73.3754C46.4385 74.4318 46.0196 75.5469 45.619 76.5662C45.3146 77.3408 45.6882 77.9458 45.8009 78.614C45.8229 78.7458 46.3499 78.961 46.4834 78.8784C47.2828 78.3837 48.0494 77.8318 48.7972 77.2602C49.1811 76.9668 49.4894 76.5769 49.8568 76.2594C50.169 75.9896 50.5254 75.7712 50.8486 75.5128C52.3445 74.3158 54.0062 73.5409 55.9542 73.4773C57.3569 73.4313 58.3418 74.2657 58.6572 75.6684C59.2298 78.2166 58.2108 80.1861 56.4762 81.9176C56.4469 81.9469 56.416 81.9798 56.3791 81.9956C54.4778 82.8158 54.0756 84.8107 53.0451 86.3069C52.9013 86.5154 53.0868 86.995 53.1965 87.3237C53.3756 87.86 53.5034 88.3879 53.1021 88.8553C52.9608 89.0204 52.6619 89.1714 52.4711 89.1357C52.3069 89.1051 52.1026 88.8141 52.0717 88.614C51.6908 86.1574 52.0048 83.904 54.0158 82.1547C54.7052 81.5548 55.3695 80.9234 56.0124 80.2743C56.6276 79.653 57.2009 79.0041 57.1993 78.0303C57.1988 77.713 57.3695 77.3919 57.4783 77.0785C57.866 75.963 57.2527 74.9494 56.0786 74.8636C55.0112 74.7857 54.0156 75.1019 53.1024 75.64C52.0994 76.2304 51.1122 76.848 50.131 77.4738C49.9292 77.6024 49.7318 77.7922 49.6216 78.001C49.035 79.1137 47.9697 79.6171 46.9177 80.1037C45.9908 80.5325 45.7977 80.315 45.1115 79.504C44.3787 78.6378 44.2235 77.6656 44.4523 76.7056C44.9202 74.7405 44.8233 72.796 44.5893 70.8359L44.567 70.6526ZM34.0242 85.5125C34.7704 85.695 35.4864 85.7627 36.2193 85.4589C36.5144 85.3369 36.9495 85.1815 37.0515 85.6279C37.1007 85.8437 36.8332 86.2395 36.6025 86.386C36.2672 86.5991 35.8355 86.6607 35.3348 86.8225C34.8508 86.6268 34.2945 86.4609 33.802 86.1821C33.4667 85.9921 32.9419 85.45 32.9788 85.3969C33.3304 84.8919 33.6756 85.4274 34.0242 85.5125ZM87.0605 53.8626L86.4682 55.3693C86.7875 55.8672 87.1082 56.3641 87.4263 56.8626C87.5381 57.038 87.6624 57.2058 87.7678 57.3852C87.9707 57.7307 88.3695 58.147 87.8523 58.4515C87.3683 58.7367 87.1237 58.2178 86.9031 57.887C86.6032 57.4377 86.3058 56.9867 86.0107 56.5341L85.6334 57.4946C85.8363 57.7584 86.0385 58.0227 86.2389 58.2883C86.4386 58.5531 86.6567 58.8278 86.7589 59.1339C86.7792 59.195 86.7765 59.2637 86.7616 59.3365C86.705 59.6146 86.4059 59.7782 86.1358 59.6908C86.0745 59.6709 86.0177 59.645 85.9686 59.6086C85.7781 59.4678 85.6762 59.211 85.525 59.0128L85.2029 58.5901C84.9861 59.1422 84.7694 59.6942 84.5526 60.2462C84.6775 60.4708 84.7973 60.6976 84.9008 60.9317C84.9095 60.9519 84.9164 60.9727 84.9208 60.9947C84.9895 61.3236 84.6601 61.5976 84.331 61.5294C84.2304 61.5086 84.1493 61.4761 84.1143 61.4163L84.1016 61.3944C83.1438 63.833 82.1853 66.2714 81.2243 68.7087C80.9145 69.4942 80.2958 69.8402 79.6568 69.7158L80.068 68.5516C79.3749 70.5113 78.6873 72.473 77.9715 74.4244C77.6055 75.3717 77.6055 75.3717 78.0212 76.3225C78.1974 76.5931 78.3783 76.969 77.9729 77.1938C77.5102 77.4506 77.2789 77.0647 77.1184 76.7327C75.9191 74.2537 73.8242 72.4684 72.1779 70.3364C72.1572 70.3098 72.1779 70.3364 72.053 70.1803C70.5633 71.1195 68.832 72.1587 67.2781 73.189C67.1719 73.2595 66.8688 73.4669 66.8688 73.4669C66.8484 73.5953 66.9119 73.8796 66.9277 74.0113C67.1622 75.9684 67.4307 77.9224 67.7456 79.8679C67.7942 80.1682 67.9043 80.5443 67.9043 80.5443C67.9733 80.6514 68.2163 80.9149 68.3029 81.0101C70.0491 82.9283 71.9987 84.6218 74.2835 85.8698C78.076 87.9412 81.9269 86.5481 83.5719 82.5117C84.7013 79.7394 85.7165 76.928 86.4052 74.001C87.4428 69.5906 88.5596 65.199 89.6336 60.7973C89.7614 60.2731 89.8899 59.737 89.9096 59.2025C89.9256 58.7621 89.8942 58.253 89.689 57.8824C88.9095 56.4768 88.0615 55.1149 87.0605 53.8626ZM33.5464 63.4091C33.4621 63.893 33.5152 64.438 33.3059 64.8544C33.0237 65.4155 33.2564 65.7192 33.6149 66.0342C33.8638 66.2531 34.154 66.4243 34.4085 66.6374C35.1953 67.2964 35.3641 68.5275 35.0336 69.4722C34.3087 71.5429 32.6927 72.5617 30.7614 73.1029C29.881 73.3494 28.8764 73.1915 27.9323 73.1413C27.7142 73.1297 27.482 72.833 27.3145 72.6215C27.1959 72.472 27.1755 72.2447 27.1114 72.0524C27.3336 71.9909 27.5527 71.8975 27.7788 71.8766C28.0241 71.854 28.2758 71.8988 28.5248 71.9142C30.3189 72.0174 31.8698 71.4241 33.2445 70.2974C34.5091 69.2609 34.3932 67.7144 32.9731 66.9238C32.6107 66.7219 32.2079 66.5836 31.8698 66.3494C31.2669 65.9314 31.1417 65.4031 31.6133 64.8659C32.1279 64.2794 32.7647 63.7994 33.3542 63.2798C33.5443 63.1122 33.5876 63.1729 33.5464 63.4091ZM24.6658 70.7562C25.1195 71.071 25.53 71.448 26.0474 71.8758C25.7496 72.1194 25.6225 72.2929 25.4569 72.3455C25.0055 72.4888 24.0185 72.0725 23.8776 71.6142C23.8007 71.3635 23.9525 71.0071 24.0913 70.7466C24.1351 70.6644 24.5274 70.6603 24.6658 70.7562ZM44.49 70.5972L44.5665 70.652L44.5147 70.6621C44.2154 70.7255 43.8687 70.8902 43.6474 70.7866C42.7965 70.3886 41.9667 70.457 41.1064 70.6793C40.9126 70.7292 40.6952 70.7164 40.493 70.6935C40.3835 70.6809 40.2834 70.5863 40.179 70.5287C40.2564 70.4009 40.3029 70.2263 40.4156 70.1528C41.5374 69.4212 43.0757 69.5976 44.49 70.5972ZM37.7214 58.4359C37.873 58.6381 38.0246 58.8402 38.1531 59.0114C37.8363 59.917 37.7028 60.7964 37.2477 61.4536C36.8283 62.0591 36.0688 62.4329 35.4481 62.8939C35.1991 63.0791 34.8888 63.1897 34.6622 63.3954C34.2321 63.7864 34.0017 63.3048 33.6824 63.2194C33.7158 63.0976 33.7103 62.9319 33.7896 62.8612C34.312 62.3944 34.8425 61.9355 35.3899 61.498C36.2463 60.8138 36.9561 60.0367 37.2745 58.9494C37.3324 58.7516 37.5679 58.6058 37.7214 58.4359ZM79.8445 58.3127C79.8264 58.5341 80.0438 58.9969 80.1695 59.18C80.2471 59.2931 80.298 59.3709 80.3447 59.4412C80.617 59.8539 80.9389 60.2297 81.2939 60.573L81.621 59.7371C81.5188 59.6318 81.4225 59.517 81.3237 59.4101C81.0199 59.0814 80.634 58.5654 80.3365 58.2308C80.0655 58.0405 79.8578 58.1525 79.8445 58.3127ZM34.7804 57.215C34.8892 57.3132 34.9927 57.4066 35.096 57.5002C35.0184 57.5854 34.9519 57.7298 34.8612 57.7468C34.0626 57.8978 33.26 58.0292 32.4567 58.1556C32.4013 58.1643 32.3324 58.0874 32.2696 58.0503C32.3369 57.9557 32.3878 57.7987 32.4739 57.7761C33.2199 57.5799 33.9721 57.408 34.7804 57.215ZM82.2517 55.4427C82.0694 55.7799 82.4279 56.4353 82.7163 56.9362L83.1276 55.8837C83.0658 55.8039 83.0041 55.7241 82.9423 55.6444C82.8385 55.5105 82.6956 55.4061 82.4377 55.3562C82.3648 55.3422 82.2867 55.3775 82.2517 55.4427ZM82.9519 53.4089C82.9861 53.9877 83.3204 54.4355 83.5662 54.7619L83.9263 53.8396L84.0259 53.5854C84.0189 53.5781 84.0118 53.5708 84.0046 53.5634C83.6212 53.1704 82.9228 52.9211 82.9519 53.4089ZM90.5026 29.0651C89.2363 29.5369 88.1075 30.2383 87.1513 31.1864C84.3038 34.0102 82.9827 37.4551 83.1469 41.4429C83.2234 43.3 83.7683 45.0429 84.8769 46.5736C86.6171 48.9769 89.4419 49.9324 92.2777 49.0776C93.783 48.6239 95.0874 47.8273 96.1944 46.7194C98.7583 44.1536 100.027 41.0347 100.123 37.8275C100.143 35.3379 99.7148 33.3736 98.5266 31.6227C96.7004 28.9315 93.5471 27.9309 90.5026 29.0651Z" fill="black"/>
<path fill-rule="evenodd" clip-rule="evenodd" d="M81.9023 55.5136C82.7796 58.6415 83.8179 60.6102 85.0172 61.4197C86.2165 62.2292 87.8623 62.4223 89.9547 61.9988L90.3756 57.819L85.5763 51.5258C85.1259 51.4296 84.8353 51.4296 84.7045 51.5258C84.423 51.7328 84.4061 52.394 84.2057 52.5086C83.8655 52.7032 83.4594 52.8692 82.9872 53.0067L81.9023 55.5136Z" fill="white"/>
<path fill-rule="evenodd" clip-rule="evenodd" d="M84.2475 61.2968C84.2823 61.3561 84.363 61.3885 84.4631 61.4095C84.7905 61.4775 85.118 61.2042 85.0499 60.8765C85.0453 60.8546 85.039 60.8336 85.0303 60.8136C84.7967 60.2847 84.4801 59.7935 84.2119 59.279C83.7525 58.3976 83.3138 57.8126 82.9015 56.9096C82.6089 56.4021 82.2032 55.6967 82.394 55.3426C82.429 55.2775 82.5068 55.2424 82.5792 55.2565C82.8361 55.3063 82.9778 55.4101 83.0813 55.5438C83.9437 56.6584 84.7974 57.7795 85.6511 58.9011C85.8015 59.0987 85.9029 59.3547 86.0925 59.495C86.1413 59.5313 86.1978 59.5571 86.2587 59.5767C86.5276 59.6639 86.8255 59.5007 86.8815 59.2238C86.8961 59.1512 86.8991 59.0825 86.8788 59.0216C86.7774 58.7168 86.5602 58.443 86.3615 58.179C85.5137 57.0535 84.634 55.9511 83.8094 54.8084C83.5695 54.476 83.1303 53.983 83.0906 53.3156C83.0619 52.8292 83.757 53.0779 84.1383 53.4696C84.5622 53.9047 84.6162 54.0594 84.9241 54.5452C85.6117 55.6305 86.3097 56.7099 87.0221 57.7791C87.2418 58.1085 87.4852 58.626 87.9668 58.3417C88.4814 58.038 88.0846 57.6232 87.8825 57.2787C87.7779 57.1001 87.6541 56.9328 87.5427 56.7578C86.7858 55.5694 86.0139 54.3898 85.2821 53.1858C85.0973 52.8814 84.8673 52.5545 84.9134 52.1696C84.943 51.9229 85.2224 51.7936 85.4262 51.9357C85.6215 52.0721 85.8063 52.2241 85.9722 52.395C87.5235 53.99 88.7241 55.8409 89.7941 57.7745C89.9985 58.1439 90.0297 58.6511 90.0138 59.0903C89.994 59.623 89.8663 60.1574 89.7392 60.6796C89.4208 61.9863 89.0988 63.2923 88.7763 64.5978C89.112 64.645 89.4472 64.6911 89.7825 64.7361C90.1159 63.3557 90.4479 61.9754 90.7818 60.5952C90.9552 59.8788 91.1175 59.1359 91.0453 58.3946C90.9621 57.54 90.4621 56.8918 90.0222 56.1836C88.9481 54.453 87.8104 52.7507 86.3195 51.3471C85.8026 50.8606 85.2133 50.5916 84.51 50.8944C83.7912 51.204 83.6237 51.7977 83.8632 52.5244C82.3493 51.954 82.2114 52.8563 82.4881 54.111C82.4881 54.111 82.0254 54.0284 81.7583 54.265C81.4172 54.5673 81.3686 55.2743 81.5432 55.8596C82.1325 57.8384 83.218 59.5509 84.2475 61.2968Z" fill="black"/>
<path fill-rule="evenodd" clip-rule="evenodd" d="M98.1618 36.1839C98.1618 39.1432 97.8323 43.2002 91.9785 47.3313C96.8557 42.4052 95.7002 37.1257 95.7002 34.3293C95.7002 31.5329 98.1618 33.2245 98.1618 36.1839Z" fill="white"/>
<path fill-rule="evenodd" clip-rule="evenodd" d="M56.8216 19.8245C56.4822 19.567 54.2049 19.567 49.9897 19.8245C43.667 20.2108 41.7117 19.6918 42.4602 27.0506C41.9213 27.0506 38.7353 27.6683 38.4318 29.1824C38.1284 30.6965 38.1284 33.477 43.667 33.477C44.1648 34.1094 44.5079 38.0385 44.6961 45.2645H50.6767L49.8487 37.4648C57.0429 37.2099 60.7602 36.5272 61.0007 35.4166C62.1105 30.2903 60.7175 25.0929 56.8216 19.8245Z" fill="white"/>
<path fill-rule="evenodd" clip-rule="evenodd" d="M53.1798 8.87299C54.1844 9.46245 54.8703 10.3341 55.2708 11.4287C55.3546 11.6579 55.4385 11.8872 55.5701 12.2472C55.8186 12.0262 55.9466 11.9213 56.0646 11.8061C57.2827 10.6173 58.7 10.2484 60.2982 10.8706C61.9278 11.5047 62.772 12.8007 63.0023 14.477C63.309 16.7087 62.2065 18.7095 60.1931 19.7195C59.5786 20.0277 58.9428 20.2791 58.2895 20.4501L58.2467 20.3875C61.2213 24.6828 62.7568 29.3383 61.7269 34.6158C61.6793 34.8599 61.5909 35.0962 61.5433 35.3404C61.3814 36.1689 60.9023 36.6173 60.0588 36.7952C57.2904 37.3785 54.513 37.8677 51.6737 37.9018C51.2626 37.9066 50.8513 37.9025 50.2802 37.9025C50.5007 38.851 50.7011 39.6748 50.8813 40.5033C50.9473 40.8056 51.6463 45.2443 51.3784 45.3002C50.9561 45.3886 50.4848 45.4223 50.4646 44.8768C50.442 44.2717 49.961 40.6542 49.8229 40.0565C49.7585 39.7774 48.9703 39.3826 48.4472 38.8565C48.0707 38.4778 47.7597 38.0181 47.4948 37.5521C47.3748 37.3412 47.1632 36.8145 47.2566 36.5935C47.3077 36.4719 47.893 36.5896 48.1067 36.6288C50.2978 37.0297 52.4949 36.9958 54.6863 36.6924C56.3304 36.4648 57.9616 36.1453 59.6006 35.8769C60.21 35.7771 60.5111 35.4404 60.6458 34.8313C61.1846 32.3926 61.1035 30.1518 60.5079 27.5626C59.9402 25.0944 58.4995 22.6578 56.9814 20.6758C56.7748 20.6932 56.5668 20.7011 56.3575 20.6994C53.7392 20.6781 51.1223 20.5384 48.5041 20.4844C47.4264 20.4621 46.345 20.5093 45.2689 20.5785C44.9069 20.6016 44.5464 20.7679 44.2013 20.9082C42.713 21.5149 42.5746 21.7718 42.9046 23.3662C43.149 24.5465 43.4369 25.7176 43.6668 26.9005C43.7156 27.151 43.7156 27.2883 43.4802 27.5259C43.0865 27.6195 43.1153 27.6824 42.9809 27.6273C42.9576 27.6381 42.9321 27.6458 42.905 27.6497C42.7021 27.679 42.5086 27.7051 42.3156 27.7033C41.3979 27.6946 40.6108 28.0379 39.8936 28.5678C39.1718 29.1016 38.793 29.7914 38.9443 30.7239C39.1042 31.708 39.5707 32.4689 40.5586 32.7417C41.1902 32.916 41.8637 32.954 42.5221 33.0121C42.9692 33.0515 43.4224 33.0195 43.9905 33.0195C44.0808 33.5315 44.2056 34.0042 44.2418 34.4838C44.4346 37.0553 44.9379 41.9902 45.0984 44.564C45.1243 44.9794 45.4055 45.6396 44.7883 45.7315C44.0718 45.8384 44.1551 45.1209 44.1194 44.6556C43.9671 42.6733 43.6024 39.0287 43.3881 36.5094L43.4149 36.5386C42.8514 35.9266 41.9996 34.9894 41.4992 34.3234C41.4513 34.2594 41.3026 34.102 41.1837 33.9441L41.2175 33.9488C39.1156 33.6875 37.9067 32.3011 37.933 30.2519C37.9416 29.5723 38.1309 28.976 38.5487 28.4677L38.5594 28.4866C37.3908 26.4344 36.4807 24.295 36.8852 21.8584C37.2037 19.94 38.2789 18.4508 39.9408 17.5066C41.1949 16.7941 42.5723 16.2887 43.9205 15.7565C45.0784 15.2996 46.2745 14.9405 47.45 14.5286C48.2797 14.2379 48.7292 13.6551 48.8055 12.7679C48.8588 12.1471 48.9578 11.5302 49.0395 10.9118C49.3306 8.70833 51.2632 7.74833 53.1798 8.87299Z" fill="black"/>
<path fill-rule="evenodd" clip-rule="evenodd" d="M52.0702 32.657C52.3247 32.8576 52.4806 33.178 52.7128 33.4134C53.687 34.4002 54.4629 34.4527 55.5679 33.6223C55.8333 33.423 56.0632 33.1517 56.3575 33.0259C56.5274 32.9531 56.832 33.0541 56.9989 33.1794C57.0756 33.2373 57.0372 33.6021 56.9314 33.7239C56.2061 34.5612 55.3613 35.2093 54.4608 35.2349C53.1168 35.2139 51.5643 34.1433 51.2692 33.1723C51.2114 32.9824 51.2868 32.6215 51.4221 32.5388C51.5673 32.4502 51.909 32.5301 52.0702 32.657ZM55.9942 27.1996C56.2578 28.2423 56.525 29.285 56.7504 30.3361C56.9711 31.366 56.6618 31.7164 55.6049 31.666C55.1517 31.6444 54.6941 31.5893 54.2542 31.4844C54.1083 31.4493 53.9144 31.2082 53.918 31.0657C53.9221 30.9146 54.1131 30.6712 54.2602 30.6389C54.6928 30.5441 55.1441 30.5338 55.7084 30.4786C55.4586 29.4208 55.2048 28.434 54.9998 27.4369C54.9165 27.0318 54.6037 26.4343 55.2412 26.2834C55.8637 26.1357 55.8875 26.7767 55.9942 27.1996ZM52.1658 28.941C52.4216 29.762 52.0061 30.6847 51.2998 30.8637C50.8045 30.989 50.3869 30.705 50.2083 30.1213C49.967 29.3328 50.3644 28.3312 51.0025 28.1196C51.4916 27.9575 51.9627 28.2903 52.1658 28.941ZM59.1267 28.1757C59.6995 28.1802 60.1925 28.818 60.1577 29.5094C60.1208 30.2468 59.6143 30.8074 59.0372 30.7499C58.4887 30.695 58.1573 30.1811 58.1873 29.4318C58.2176 28.6786 58.5968 28.1713 59.1267 28.1757Z" fill="black"/>
</svg>
