<svg width="150" height="294" viewBox="0 0 150 294" fill="none" xmlns="http://www.w3.org/2000/svg">
<path d="M115.382 268.627C113.34 267.856 111.08 268.795 110.354 270.716C109.629 272.638 110.703 274.836 112.745 275.607C114.787 276.379 117.046 275.44 117.772 273.518C118.498 271.597 117.424 269.399 115.382 268.627ZM113.118 274.62C111.661 274.07 110.892 272.498 111.41 271.127C111.928 269.756 113.544 269.084 115.001 269.635C116.458 270.185 117.226 271.757 116.708 273.128C116.191 274.5 114.575 275.171 113.118 274.62Z" fill="#6E1EE6"/>
<path d="M117.878 256.716C115.593 258.524 114.656 258.668 112.375 260.465C111.832 260.901 112.549 261.741 113.103 261.31C115.387 259.502 116.325 259.358 118.606 257.561C119.149 257.125 118.421 256.281 117.878 256.716Z" fill="#EFAB03"/>
<path d="M103.68 289.76C103.539 288.698 103.412 287.63 103.271 286.568C103.178 285.88 102.073 286.032 102.167 286.72C102.308 287.782 102.434 288.851 102.575 289.913C102.664 290.611 103.773 290.448 103.68 289.76Z" fill="#EFAB03"/>
<path d="M3.9367 85.4462L0.92687 81.1836C0.634248 80.7649 -0.233168 81.1379 0.0594543 81.5489C1.06273 82.9723 2.06601 84.3881 3.06929 85.8115C3.37236 86.2378 4.23978 85.8648 3.9367 85.4462Z" fill="#EFAB03"/>
<path d="M144.056 5.32123L147.486 0.742042C147.824 0.29434 146.842 -0.0777508 146.513 0.365447C145.366 1.89335 144.23 3.41674 143.083 4.94464C142.742 5.40399 143.724 5.77608 144.056 5.32123Z" fill="#EFAB03"/>
</svg>
