<svg width="32" height="32" viewBox="0 0 32 32" fill="none" xmlns="http://www.w3.org/2000/svg">
<path fill-rule="evenodd" clip-rule="evenodd" d="M27 16C27 22.075 22.075 27 16 27C13.983 27 12.093 26.457 10.468 25.51C11.748 23.861 13.751 22.8 16 22.8C18.25 22.8 20.251 23.861 21.532 25.51C21.822 25.341 22.102 25.16 22.375 24.966C20.914 23.042 18.602 21.8 16 21.8C13.398 21.8 11.086 23.042 9.625 24.966C6.825 22.972 5 19.699 5 16C5 9.925 9.925 5 16 5C22.075 5 27 9.925 27 16ZM28 16C28 22.627 22.627 28 16 28C9.373 28 4 22.627 4 16C4 9.373 9.373 4 16 4C22.627 4 28 9.373 28 16ZM20 15C20 17.21 18.21 19 16 19C13.79 19 12 17.21 12 15C12 12.79 13.79 11 16 11C18.21 11 20 12.79 20 15ZM21 15C21 17.761 18.761 20 16 20C13.239 20 11 17.761 11 15C11 12.239 13.239 10 16 10C18.761 10 21 12.239 21 15Z" fill="#222222"/>
</svg>
