<svg width="373" height="375" viewBox="0 0 373 375" fill="none" xmlns="http://www.w3.org/2000/svg">
<path d="M186.22 0.561584H1.20703V186.484H186.22V0.561584Z" fill="#E18F78"/>
<path d="M95.5805 35.1794L41.2061 123.367L36.6953 148.754C37.4996 148.054 40.227 149.348 50.8921 149.348C71.418 149.348 118.554 132.424 120.967 112.492C123.38 92.561 96.2099 79.2734 95.5805 35.1794Z" fill="#201000"/>
<path d="M102.823 0.561584C101.214 6.43612 99.7454 12.2757 98.4166 18.0104C85.7584 71.6854 83.8002 116.269 70.6525 127.039C59.358 136.305 40.7902 133.228 40.7902 133.228L31.5588 171.098L38.5173 186.344H1.20703V0.561584H102.823Z" fill="white"/>
<path d="M27.4658 187.113C27.326 187.113 27.1511 187.078 27.0113 187.043C26.0322 186.798 25.4727 185.819 25.7175 184.84L39.0051 132.739C39.2499 131.829 40.1241 131.235 41.0682 131.41C41.243 131.445 58.9365 134.242 69.4617 125.605C77.5392 118.996 81.4556 96.9669 86.386 69.0629C89.1135 53.6422 92.2256 36.1934 96.5965 17.5907C97.4008 14.1989 98.3099 11.2616 99.289 8.18447C99.9883 6.01649 100.688 3.77857 101.352 1.33084C101.632 0.351752 102.611 -0.20773 103.59 0.0720101C104.569 0.35175 105.129 1.33084 104.849 2.30993C104.149 4.82759 103.45 7.10047 102.751 9.30342C101.807 12.3456 100.897 15.2129 100.128 18.4649C95.7573 36.9627 92.6801 54.3765 89.9527 69.7622C84.6726 99.5195 80.8611 121.025 71.7346 128.508C61.8039 136.655 47.0476 135.851 42.0822 135.291L29.2142 185.749C29.0044 186.589 28.2701 187.113 27.4658 187.113Z" fill="#201000"/>
<path d="M102.819 0.561584C101.21 6.43612 99.7415 12.2757 98.4128 18.0104C92.7131 7.45018 81.978 2.17009 69.9492 0.561584H102.819Z" fill="#201000"/>
<path d="M62.293 78.4691C72.7483 67.804 68.3773 52.803 64.2861 40.2846L62.293 78.4691Z" fill="white"/>
<path d="M62.2945 80.2524C61.8399 80.2524 61.3853 80.0776 61.0357 79.7279C60.3013 79.0285 60.3013 77.8746 61.0007 77.1753C70.337 67.6641 67.0501 54.5513 62.5742 40.8091C62.2595 39.865 62.784 38.8509 63.7282 38.5362C64.7072 38.2215 65.7213 38.746 66.001 39.6901C69.6726 50.9147 75.2325 67.8389 63.5883 79.7279C63.2386 80.0776 62.7491 80.2524 62.2945 80.2524Z" fill="#201000"/>
<path d="M87.0865 39.6902C86.7369 39.6902 86.3872 39.5853 86.0725 39.3755L81.9463 36.6131C81.1071 36.0536 80.8973 34.9346 81.4568 34.0954C82.0163 33.2562 83.1352 33.0463 83.9744 33.6058L88.1006 36.3683C88.9398 36.9278 89.1496 38.0467 88.5901 38.8859C88.2754 39.3755 87.681 39.6902 87.0865 39.6902Z" fill="#201000"/>
<path d="M39.3197 40.4245C36.4874 40.0398 35.8929 44.4107 38.7253 44.7954C41.5227 45.18 42.1521 40.8091 39.3197 40.4245Z" fill="#201000"/>
<path d="M82.89 45.9144C80.0577 45.5297 79.4632 49.9007 82.2956 50.2853C85.1279 50.67 85.7224 46.299 82.89 45.9144Z" fill="#201000"/>
<path d="M31.2069 99.9042C29.2137 99.9042 27.2555 98.995 25.682 97.3166C22.9895 94.4492 22.0104 90.0084 23.1643 85.7423C23.4091 84.7633 24.4232 84.2038 25.3673 84.4485C26.3464 84.6933 26.9059 85.7074 26.6611 86.6515C25.682 90.3231 26.8709 93.2603 28.3395 94.7989C29.3886 95.9179 30.6474 96.4074 31.8013 96.1627C32.7804 95.9528 33.7245 96.6172 33.9343 97.5963C34.1441 98.5754 33.4798 99.5195 32.5007 99.7293C32.0811 99.8692 31.6614 99.9042 31.2069 99.9042Z" fill="#201000"/>
<path d="M33.375 28.9901C32.5358 28.9901 31.7665 28.3957 31.5916 27.5215C31.4168 26.5424 32.0462 25.5983 33.0253 25.4234L40.2635 24.0597C41.2426 23.8849 42.1867 24.5143 42.3616 25.4934C42.5364 26.4724 41.907 27.4166 40.9279 27.5914L33.6897 28.9551C33.5848 28.9551 33.4799 28.9901 33.375 28.9901Z" fill="#201000"/>
<path d="M16.4513 186.833C15.8918 186.833 15.3673 186.589 14.9827 186.099L0.47116 166.762C-0.123287 165.958 0.0165829 164.839 0.820836 164.209C1.62509 163.615 2.74405 163.755 3.37347 164.559L17.885 183.896C18.4794 184.7 18.3396 185.819 17.5353 186.449C17.2206 186.693 16.836 186.833 16.4513 186.833Z" fill="#201000"/>
<path d="M38.7962 188.022C38.1318 188.022 37.4674 187.638 37.1527 187.008L29.9145 171.902C29.4948 170.993 29.8445 169.909 30.7537 169.489C31.6628 169.035 32.7468 169.419 33.1664 170.329L40.4047 185.435C40.8243 186.344 40.4746 187.428 39.5655 187.847C39.3207 187.952 39.0759 188.022 38.7962 188.022Z" fill="#201000"/>
<path d="M1.34281 30.3539C1.34281 30.3539 43.024 8.00966 47.8496 0.736425L1.16797 0.596558L1.34281 30.3539Z" fill="#201000"/>
<path d="M186.219 0.561584V59.3419C165.833 59.5168 149.363 76.0913 149.363 96.4773C149.363 116.898 165.833 133.473 186.219 133.613V187.078H372.316V0.561584H186.219Z" fill="#F2C34B"/>
<path d="M261.92 37.1726C259.367 44.9353 269.158 48.0824 274.613 49.0265C274.928 49.0615 275.172 49.0615 275.417 48.9566C275.487 48.9916 275.592 48.9916 275.662 49.0265C281.117 37.8719 292.411 34.4101 310 37.767C330.421 41.6484 331.505 54.3766 331.505 54.3766C332.729 52.6282 335.316 50.635 338.533 49.0965C338.743 48.7818 338.953 48.4321 339.163 48.0824C339.163 48.0475 339.198 48.0125 339.198 48.0125C340.247 47.8376 341.156 46.8236 340.457 45.6697C334.023 34.7598 323.637 20.4581 311.294 15.6676C307.447 14.1989 303.531 14.7934 301.608 18.7797C300.629 20.7728 300.664 22.766 301.188 24.7242C295.453 20.598 289.299 17.1362 282.725 14.4437C276.536 11.926 267.48 7.86982 260.801 10.7721C255.905 12.9051 254.192 18.2901 255.346 23.2905C256.43 28.151 260.031 31.5078 264.088 34.1654C263.144 34.8647 262.374 35.8438 261.92 37.1726Z" fill="#201000"/>
<path d="M272.657 110.639C277.378 118.857 286.784 120.745 296.47 120.36L300.387 143.928C300.387 143.928 305.177 156.132 320.912 152.985C326.962 151.761 333.291 144.453 333.291 144.453C333.291 144.453 331.543 135.291 329.514 105.919C337.172 100.009 339.27 84.2038 339.27 84.2038C355.285 81.5813 369.552 70.8113 362.769 55.2508C357.943 44.236 346.369 45.355 338.536 49.1314C335.319 50.67 332.731 52.6632 331.508 54.4115C331.508 54.4115 330.459 41.7183 310.003 37.802C292.414 34.4451 281.154 37.9069 275.665 49.0615C273.671 53.1177 272.448 58.223 271.923 64.3773C270.454 83.0149 267.867 102.317 272.657 110.639Z" fill="white"/>
<path d="M315.979 155.328C303.076 155.328 298.74 144.732 298.705 144.593C298.67 144.488 298.635 144.348 298.6 144.243L294.929 122.248C283.075 122.458 275.312 118.926 271.046 111.583C266.64 103.96 268.004 88.5397 269.437 72.2449C269.682 69.5874 269.892 66.9299 270.102 64.2723C270.626 57.7684 271.92 52.5582 274.018 48.2922C279.788 36.5082 291.677 32.4869 310.314 36.0536C325.42 38.9209 330.595 46.4389 332.379 50.8798C333.812 49.6559 335.666 48.502 337.729 47.5229C340.701 46.0892 348.359 43.082 355.527 45.7396C359.514 47.2432 362.521 50.1804 364.409 54.5514C366.997 60.4958 366.892 66.3005 364.129 71.4057C360.318 78.3992 351.681 83.7142 340.841 85.7773C340.176 89.6937 337.694 101.128 331.365 106.723C333.358 134.837 335.036 143.998 335.071 144.103C335.176 144.628 335.036 145.222 334.652 145.607C334.372 145.921 327.833 153.439 321.259 154.733C319.371 155.153 317.622 155.328 315.979 155.328ZM302.167 143.404C302.761 144.767 307.377 153.824 320.595 151.201C325.001 150.327 329.756 145.572 331.365 143.858C330.875 140.921 329.407 130.501 327.693 106.023C327.658 105.429 327.903 104.835 328.392 104.45C335.386 99.03 337.449 84.0989 337.449 83.924C337.554 83.1198 338.148 82.4904 338.953 82.3855C349.163 80.707 357.59 75.8116 360.947 69.6223C363.185 65.4962 363.255 60.8805 361.087 55.9501C359.583 52.5233 357.276 50.2154 354.233 49.0964C350.177 47.5928 344.582 48.1873 339.267 50.7399C336.435 52.1036 334.022 53.887 332.938 55.4256C332.484 56.055 331.714 56.3347 330.98 56.1249C330.246 55.9151 329.721 55.2857 329.651 54.5164C329.616 54.0618 328.288 43.117 309.615 39.5503C292.551 36.2984 282.27 39.5853 277.27 49.8308C275.382 53.6422 274.193 58.5726 273.703 64.5171C273.494 67.1746 273.249 69.8671 273.039 72.5246C271.71 87.5607 270.346 103.086 274.193 109.73C277.864 116.129 285.103 119.031 296.362 118.542C297.236 118.472 298.076 119.136 298.216 120.045L302.167 143.404Z" fill="#201000"/>
<path d="M289.651 88.9594C289.091 88.9594 288.567 88.7146 288.217 88.26C281.713 79.8328 285.07 70.1469 293.043 56.2298C293.532 55.3556 294.651 55.0759 295.525 55.5654C296.399 56.055 296.679 57.1739 296.19 58.0481C287.693 72.9093 286.399 79.9727 291.084 86.0571C291.679 86.8613 291.539 87.9803 290.77 88.6097C290.42 88.8195 290.035 88.9594 289.651 88.9594Z" fill="#201000"/>
<path d="M314.292 63.451C315.406 63.2085 316.112 62.1094 315.869 60.9961C315.627 59.8828 314.528 59.1768 313.414 59.4193C312.301 59.6618 311.595 60.7609 311.837 61.8742C312.08 62.9875 313.179 63.6934 314.292 63.451Z" fill="#201000"/>
<path d="M284.007 63.2085C285.121 62.9661 285.827 61.867 285.584 60.7537C285.342 59.6404 284.242 58.9344 283.129 59.1769C282.016 59.4193 281.31 60.5184 281.552 61.6317C281.795 62.7451 282.894 63.451 284.007 63.2085Z" fill="#201000"/>
<path d="M337.486 71.9302C337.346 71.9302 337.171 71.8953 337.031 71.8603C336.052 71.6155 335.458 70.6364 335.737 69.6573C336.821 65.3563 343.535 56.9991 350.738 56.8942H350.773C351.752 56.8942 352.557 57.6985 352.592 58.6776C352.592 59.6916 351.822 60.4959 350.808 60.5308C345.388 60.6357 340.003 67.7341 339.269 70.5665C339.024 71.4057 338.29 71.9302 337.486 71.9302Z" fill="#201000"/>
<path d="M317.938 52.1037C317.728 52.1037 317.518 52.0687 317.308 51.9988L312.483 50.1805C311.539 49.8308 311.084 48.7818 311.434 47.8377C311.784 46.8935 312.833 46.439 313.777 46.7886L318.602 48.6069C319.546 48.9566 320.001 50.0056 319.651 50.9498C319.337 51.6491 318.672 52.1037 317.938 52.1037Z" fill="#201000"/>
<path d="M279.264 53.2926C278.53 53.2926 277.831 52.838 277.551 52.1037C277.201 51.1596 277.691 50.1105 278.6 49.7609L283.426 47.9426C284.37 47.5929 285.419 48.0475 285.768 48.9916C286.118 49.9357 285.628 50.9847 284.719 51.3344L279.894 53.1527C279.684 53.2576 279.474 53.2926 279.264 53.2926Z" fill="#201000"/>
<path d="M313.708 92.561C313.498 90.2532 309.861 90.2182 310.071 92.561C310.246 94.5542 308.428 96.6522 306.33 96.1976C304.057 95.7081 303.078 99.2048 305.35 99.6944C309.616 100.604 314.127 97.0369 313.708 92.561Z" fill="#201000"/>
<path d="M221.254 187.428C221.184 187.428 221.079 187.428 221.01 187.428C220.03 187.288 219.331 186.379 219.471 185.4C226.569 133.298 270.174 138.508 296.26 141.655C297.763 141.83 299.232 142.005 300.63 142.18C301.61 142.285 302.344 143.194 302.239 144.173C302.134 145.152 301.26 145.886 300.246 145.782C298.847 145.607 297.379 145.432 295.875 145.257C269.544 142.11 229.751 137.319 223.108 185.889C222.933 186.763 222.163 187.428 221.254 187.428Z" fill="#201000"/>
<path d="M370.495 150.432C370.39 150.432 370.32 150.432 370.215 150.397C370.075 150.362 355.494 148.124 333.15 146.236C332.135 146.166 331.401 145.292 331.506 144.278C331.576 143.264 332.485 142.53 333.464 142.634C355.948 144.523 370.635 146.796 370.775 146.796C371.754 146.935 372.453 147.88 372.278 148.859C372.138 149.768 371.369 150.432 370.495 150.432Z" fill="#201000"/>
<path d="M132.156 186.344V186.204C132.156 165.678 115.512 149.033 94.9857 149.033C74.4598 149.033 57.8153 165.678 57.8153 186.204V186.344H1.16797V371.392H186.216V186.344H132.156Z" fill="#95CBEF"/>
<path d="M165.135 371.392H1.20703V354.677C12.3267 348.977 37.6431 344.012 66.4563 342.543C66.4563 342.543 147.126 343.907 157.547 357.055C161.358 361.846 163.701 366.916 165.135 371.392Z" fill="white"/>
<path d="M165.169 373.21C164.435 373.21 163.735 372.755 163.455 372.021C156.322 352.404 141.006 342.928 76.9459 345.725C73.0995 345.9 69.253 346.04 65.4416 346.18C41.4889 347.019 18.8999 347.824 2.64001 355.936C1.73085 356.391 0.646861 356.006 0.192284 355.132C-0.262293 354.223 0.122345 353.139 0.996532 352.684C17.9558 344.222 40.9294 343.418 65.2667 342.543C69.0782 342.404 72.8897 342.264 76.7361 342.089C136.111 339.501 158.001 346.495 166.812 370.762C167.162 371.706 166.672 372.755 165.728 373.07C165.553 373.175 165.344 373.21 165.169 373.21Z" fill="#201000"/>
<path d="M109.149 284.532C105.337 268.273 89.8816 244.46 81.7342 219.878C68.9361 193.057 33.0594 210.716 21.4153 229.668C14.3169 241.208 12.8133 256.454 17.1842 270.126C27.4646 302.226 48.5151 306.772 48.5151 306.772L52.3964 350.236L88.6577 349.327L89.8466 310.059C89.8466 310.059 102.19 310.094 108.484 299.848C110.547 296.421 110.442 289.987 109.149 284.532Z" fill="white"/>
<path d="M52.3988 352.055C51.4547 352.055 50.6854 351.355 50.5805 350.411L46.839 308.17C41.9086 306.597 24.5997 299.149 15.4731 270.65C10.8924 256.349 12.5359 240.648 19.879 228.689C27.467 216.346 45.8249 203.583 62.2247 204.387C71.7358 204.877 79.044 209.982 83.38 219.073C83.415 219.143 83.4499 219.213 83.4499 219.283C87.4012 231.207 93.2408 243.236 98.381 253.866C103.801 265.056 108.906 275.616 110.899 284.113C112.123 289.428 112.543 296.561 109.955 300.792C104.605 309.499 95.4088 311.353 91.5274 311.772L90.4084 349.397C90.3735 350.411 89.5343 351.146 88.5552 351.146C87.5411 351.111 86.7718 350.271 86.8068 349.292L87.9957 310.024C88.0306 309.045 88.8349 308.275 89.814 308.275C89.9189 308.275 101.248 308.17 106.878 298.939C108.487 296.282 108.696 290.652 107.368 284.987C105.479 276.875 100.444 266.489 95.0941 255.509C89.9189 244.844 84.0444 232.746 80.0231 220.612C76.2116 212.744 70.1623 208.513 61.9799 208.094C47.3285 207.289 29.9846 219.143 22.9212 230.648C16.1026 241.732 14.599 256.279 18.865 269.601C28.7258 300.338 48.6573 304.988 48.8321 305.023C49.6014 305.198 50.1959 305.828 50.2658 306.632L54.1472 350.096C54.2521 351.076 53.4828 351.985 52.5037 352.055C52.5037 352.055 52.4338 352.055 52.3988 352.055Z" fill="#201000"/>
<path d="M48.3443 308.66C50.7921 307.436 51.3515 305.198 52.96 302.715C59.2892 292.89 53.0649 277.294 52.8551 266.664C52.8202 264.461 52.9251 262.223 53.2048 259.95C52.8551 258.726 53.1698 258.796 52.8551 257.537C54.2888 258.097 55.7574 257.922 57.296 256.663C61.0026 253.551 57.9604 245.649 57.331 241.837C56.1071 234.564 54.8833 227.291 53.6594 219.982C56.9813 214.353 62.0516 210.192 67.9261 207.219C51.946 202.324 30.0563 215.611 21.4543 229.633C14.3559 241.173 12.8523 256.419 17.2233 270.091C25.7553 296.876 43.2391 306.877 48.3443 308.66Z" fill="#201000"/>
<path d="M88.8008 237.326L105.585 267.538C111.739 256.593 102.543 251.873 88.8008 237.326Z" fill="white"/>
<path d="M105.585 269.392C105.271 269.392 104.991 269.322 104.711 269.147C103.837 268.657 103.522 267.538 104.012 266.664C108.033 259.496 104.886 255.859 95.1999 246.348C92.8921 244.075 90.2695 241.522 87.4721 238.55C86.7728 237.816 86.8077 236.662 87.5421 235.998C88.2764 235.298 89.4303 235.333 90.0947 236.068C92.8571 238.97 95.4447 241.522 97.7176 243.76C107.089 252.922 112.754 258.482 107.159 268.447C106.844 269.042 106.215 269.392 105.585 269.392Z" fill="#201000"/>
<path d="M54.2527 256.244C35.7199 250.334 25.7542 261.139 26.2438 270.231C27.083 285.267 41.105 291.141 61.5259 283.239" fill="white"/>
<path d="M44.9503 288.554C40.0899 288.554 35.8238 287.47 32.4669 285.267C27.6065 282.12 24.844 276.944 24.4594 270.301C24.1797 265.265 26.5924 260.265 30.9284 256.908C34.3552 254.251 42.0131 250.404 54.8112 254.495C55.7553 254.81 56.2798 255.824 56.0001 256.768C55.6854 257.712 54.6713 258.272 53.7272 257.957C45.4049 255.3 38.1317 255.964 33.1663 259.81C29.8094 262.398 27.8862 266.349 28.096 270.126C28.4107 275.546 30.6137 279.742 34.4601 282.225C40.4046 286.071 49.8108 285.826 60.9305 281.525C61.8746 281.176 62.9236 281.63 63.2733 282.574C63.623 283.518 63.1684 284.567 62.2243 284.917C55.9301 287.365 50.0906 288.554 44.9503 288.554Z" fill="#201000"/>
<path d="M37.1176 267.888C42.5026 265.405 49.0065 266.489 53.2726 270.615C54.8111 272.119 52.7131 274.776 51.1745 273.238C47.6778 269.846 42.7474 268.972 38.3415 271C36.3483 271.944 35.1245 268.797 37.1176 267.888Z" fill="#201000"/>
<path d="M85.9266 243.994C87.0073 243.577 87.5448 242.362 87.1271 241.281C86.7093 240.2 85.4946 239.663 84.4139 240.081C83.3331 240.498 82.7957 241.713 83.2134 242.794C83.6311 243.874 84.8458 244.412 85.9266 243.994Z" fill="#201000"/>
<path d="M77.0518 231.382C77.821 230.648 78.5903 229.878 79.3596 229.144C80.024 228.515 80.9681 228.27 81.7374 228.864C82.3668 229.389 82.6465 230.578 82.0171 231.242L79.7093 233.48C79.0449 234.109 78.1008 234.354 77.3315 233.76C76.6671 233.235 76.3874 232.011 77.0518 231.382Z" fill="#201000"/>
<path d="M88.5548 278.938C90.0933 281.071 92.8208 282.085 95.3734 281.28C97.4365 280.616 98.6604 283.763 96.5973 284.427C92.646 285.686 88.31 284.358 85.8623 280.966C84.6035 279.182 87.296 277.154 88.5548 278.938Z" fill="#201000"/>
<path d="M69.2551 334.431C63.0659 334.431 56.422 333.032 50.4776 329.081C49.6384 328.522 49.4286 327.403 49.988 326.563C50.5475 325.724 51.6665 325.514 52.5057 326.074C65.1639 334.501 81.6685 329.501 86.9486 326.878C87.8578 326.423 88.9417 326.808 89.3963 327.682C89.8509 328.591 89.4663 329.675 88.5921 330.13C84.5009 332.158 77.2626 334.431 69.2551 334.431Z" fill="#201000"/>
<path d="M315.214 186.344V186.204C315.214 165.678 298.57 149.033 278.044 149.033C257.518 149.033 240.873 165.678 240.873 186.204V186.344H186.219V240.578C165.833 240.753 149.363 257.328 149.363 277.714C149.363 298.135 165.833 314.709 186.219 314.849V371.357H372.316V186.344H315.214Z" fill="#6E1EE6"/>
<path d="M354.798 230.123C347.525 229.424 340.706 232.606 337.14 238.795C336.126 238.83 335.182 239.739 335.741 240.928C341.511 252.817 345.252 265.475 346.406 278.658C347.455 290.617 345.392 302.576 346.476 314.5C347.84 329.221 357.456 344.711 372.247 346.81V242.222C368.331 235.928 362.351 230.857 354.798 230.123Z" fill="#201000"/>
<path d="M348.224 278.973C352.595 248.621 332.139 226.451 305.179 216.416C294.619 212.499 279.897 206.87 269.617 214.283C262.204 219.598 261.854 230.228 269.897 234.914C270.421 235.228 270.911 235.158 271.26 234.914C291.576 256.314 316.578 272.364 344.657 281.7C345.846 282.085 346.755 281.175 346.86 280.231C347.524 280.231 348.119 279.812 348.224 278.973Z" fill="#201000"/>
<path d="M372.313 261.839V290.512C365.389 297.086 353.115 299.778 341.961 300.652C341.961 300.652 335.177 320.864 323.918 326.598C325.106 346.495 326.26 362.055 326.995 371.392C327.03 371.636 327.03 371.916 327.065 372.126H281.327L281.257 371.392L278.145 336.599C265.697 334.536 254.262 329.466 250.381 317.367C246.465 305.128 254.787 280.441 261.536 256.314C263.773 248.341 266.641 241.942 270.277 237.151C280.138 223.934 295.384 222.43 316.889 231.627C341.856 242.292 339.898 264.041 339.898 264.041C354.094 256.803 365.844 257.363 372.313 261.839Z" fill="white"/>
<path d="M327.03 373.944C326.086 373.944 325.317 373.21 325.212 372.266C324.582 364.503 323.393 348.278 322.065 326.668C322.03 325.934 322.414 325.27 323.044 324.955C333.534 319.64 340.143 300.268 340.213 300.058C340.458 299.359 341.052 298.869 341.786 298.834C351.298 298.1 363.116 296.316 369.865 289.043C370.565 288.309 371.684 288.274 372.418 288.938C373.152 289.638 373.187 290.757 372.523 291.491C365.18 299.359 353.186 301.492 343.255 302.331C341.646 306.632 335.492 321.808 325.771 327.577C327.065 348.593 328.254 364.363 328.848 371.951C328.918 372.965 328.184 373.839 327.17 373.909C327.135 373.944 327.1 373.944 327.03 373.944Z" fill="#201000"/>
<path d="M281.293 373.944C280.349 373.944 279.579 373.245 279.474 372.301L276.432 338.172C261.151 335.34 252.06 328.696 248.633 317.961C245.101 306.947 250.801 287.12 256.85 266.139C257.829 262.713 258.809 259.286 259.788 255.859C262.13 247.502 265.103 241.068 268.809 236.102C279.09 222.36 295.035 220.367 317.554 229.983C337.8 238.62 341.122 254.53 341.612 261.174C357.801 253.691 367.173 256.803 372.208 260.929C372.977 261.559 373.117 262.713 372.488 263.482C371.858 264.251 370.704 264.391 369.935 263.762C363.501 258.552 353.396 259.216 340.667 265.685C340.073 266 339.374 265.93 338.814 265.58C338.255 265.195 337.975 264.566 338.01 263.902C338.08 263.062 339.479 243.306 316.085 233.34C295.035 224.318 280.908 225.892 271.642 238.305C268.25 242.816 265.382 249.075 263.179 256.873C262.235 260.3 261.221 263.762 260.242 267.189C254.368 287.61 248.808 306.912 251.99 316.877C255.067 326.528 263.704 332.438 278.32 334.886C279.125 335.025 279.754 335.69 279.824 336.529L283.006 372.056C283.111 373.035 282.342 373.944 281.363 374.014C281.398 373.944 281.363 373.944 281.293 373.944Z" fill="#201000"/>
<path d="M286.12 255.404C274.616 266.559 261.468 282.015 271.434 298.414C272.483 300.163 275 298.24 273.951 296.491C265 281.805 277.973 267.643 288.008 257.922C289.477 256.523 287.589 253.971 286.12 255.404Z" fill="#201000"/>
<path d="M305.214 299.778C303.325 304.044 298.115 305.863 293.919 303.869C292.066 302.995 290.842 305.898 292.66 306.772C298.395 309.534 305.563 306.842 308.116 301.037C308.955 299.149 306.018 297.89 305.214 299.778Z" fill="#201000"/>
<path d="M361.543 272.399C354.165 272.469 347.346 276.175 343.185 282.225C342.031 283.903 344.514 285.861 345.668 284.183C349.444 278.693 355.319 275.616 361.963 275.546C363.991 275.546 363.571 272.399 361.543 272.399Z" fill="#201000"/>
<path d="M311.298 260.65C308.781 260.3 308.221 264.216 310.774 264.566C313.257 264.951 313.816 260.999 311.298 260.65Z" fill="#201000"/>
<path d="M272.588 250.929C270.07 250.579 269.51 254.495 272.063 254.845C274.581 255.195 275.14 251.278 272.588 250.929Z" fill="#201000"/>
<path d="M278.779 240.543C278.674 239.634 277.87 239.145 276.995 239.18C276.191 239.215 275.387 239.215 274.583 239.25C273.709 239.284 273.114 240.229 273.219 241.033C273.324 241.942 274.128 242.432 275.002 242.397C275.807 242.362 276.611 242.362 277.415 242.327C278.254 242.292 278.884 241.348 278.779 240.543Z" fill="#201000"/>
<path d="M317.662 251.593C316.963 250.824 316.264 250.054 315.564 249.32C315.005 248.691 314.061 248.481 313.326 249.005C312.697 249.495 312.452 250.579 313.012 251.243C313.711 252.013 314.41 252.782 315.11 253.516C315.669 254.146 316.613 254.355 317.348 253.831C318.012 253.341 318.257 252.222 317.662 251.593Z" fill="#201000"/>
<path d="M333.711 237.606C327.557 230.263 319.374 225.507 310.038 223.479C309.618 223.374 309.269 223.479 308.989 223.654C308.744 223.584 308.499 223.514 308.255 223.444C307.765 223.304 307.276 223.339 306.856 223.549C306.122 222.535 305.387 221.521 304.653 220.507C303.464 218.863 300.947 220.752 302.135 222.43C311.367 235.193 320.144 248.481 329.865 260.859C332.942 264.741 340.809 269.951 342.838 261.873C344.831 254.076 338.467 243.236 333.711 237.606Z" fill="#201000"/>
<path d="M222.305 372.895C222.235 372.895 222.13 372.895 222.06 372.86C221.081 372.72 220.382 371.811 220.522 370.797C221.186 366.251 223.844 362.44 228.215 359.782C238.565 353.523 257.133 354.642 280.526 362.929C281.47 363.279 281.96 364.293 281.645 365.237C281.295 366.181 280.281 366.671 279.337 366.356C249.195 355.691 235.558 359.608 230.138 362.895C226.711 364.958 224.648 367.86 224.158 371.322C223.984 372.266 223.214 372.895 222.305 372.895Z" fill="#201000"/>
</svg>
